G04 #@! TF.GenerationSoftware,KiCad,Pcbnew,(5.1.5-0-10_14)*
G04 #@! TF.CreationDate,2021-10-06T22:58:41+01:00*
G04 #@! TF.ProjectId,throwie,7468726f-7769-4652-9e6b-696361645f70,rev?*
G04 #@! TF.SameCoordinates,Original*
G04 #@! TF.FileFunction,Legend,Top*
G04 #@! TF.FilePolarity,Positive*
%FSLAX46Y46*%
G04 Gerber Fmt 4.6, Leading zero omitted, Abs format (unit mm)*
G04 Created by KiCad (PCBNEW (5.1.5-0-10_14)) date 2021-10-06 22:58:41*
%MOMM*%
%LPD*%
G04 APERTURE LIST*
%ADD10C,0.150000*%
%ADD11C,0.120000*%
G04 APERTURE END LIST*
D10*
X64730380Y-77072857D02*
X64730380Y-76882380D01*
X64778000Y-76787142D01*
X64873238Y-76691904D01*
X65063714Y-76644285D01*
X65397047Y-76644285D01*
X65587523Y-76691904D01*
X65682761Y-76787142D01*
X65730380Y-76882380D01*
X65730380Y-77072857D01*
X65682761Y-77168095D01*
X65587523Y-77263333D01*
X65397047Y-77310952D01*
X65063714Y-77310952D01*
X64873238Y-77263333D01*
X64778000Y-77168095D01*
X64730380Y-77072857D01*
X65682761Y-75787142D02*
X65730380Y-75882380D01*
X65730380Y-76072857D01*
X65682761Y-76168095D01*
X65635142Y-76215714D01*
X65539904Y-76263333D01*
X65254190Y-76263333D01*
X65158952Y-76215714D01*
X65111333Y-76168095D01*
X65063714Y-76072857D01*
X65063714Y-75882380D01*
X65111333Y-75787142D01*
X65063714Y-75501428D02*
X65063714Y-75120476D01*
X64730380Y-75358571D02*
X65587523Y-75358571D01*
X65682761Y-75310952D01*
X65730380Y-75215714D01*
X65730380Y-75120476D01*
X64825619Y-74072857D02*
X64778000Y-74025238D01*
X64730380Y-73930000D01*
X64730380Y-73691904D01*
X64778000Y-73596666D01*
X64825619Y-73549047D01*
X64920857Y-73501428D01*
X65016095Y-73501428D01*
X65158952Y-73549047D01*
X65730380Y-74120476D01*
X65730380Y-73501428D01*
X64730380Y-72882380D02*
X64730380Y-72787142D01*
X64778000Y-72691904D01*
X64825619Y-72644285D01*
X64920857Y-72596666D01*
X65111333Y-72549047D01*
X65349428Y-72549047D01*
X65539904Y-72596666D01*
X65635142Y-72644285D01*
X65682761Y-72691904D01*
X65730380Y-72787142D01*
X65730380Y-72882380D01*
X65682761Y-72977619D01*
X65635142Y-73025238D01*
X65539904Y-73072857D01*
X65349428Y-73120476D01*
X65111333Y-73120476D01*
X64920857Y-73072857D01*
X64825619Y-73025238D01*
X64778000Y-72977619D01*
X64730380Y-72882380D01*
X63666666Y-77065047D02*
X63666666Y-76588857D01*
X63952380Y-77160285D02*
X62952380Y-76826952D01*
X63952380Y-76493619D01*
X62952380Y-75874571D02*
X63666666Y-75874571D01*
X63809523Y-75922190D01*
X63904761Y-76017428D01*
X63952380Y-76160285D01*
X63952380Y-76255523D01*
X63952380Y-74826952D02*
X63476190Y-75160285D01*
X63952380Y-75398380D02*
X62952380Y-75398380D01*
X62952380Y-75017428D01*
X63000000Y-74922190D01*
X63047619Y-74874571D01*
X63142857Y-74826952D01*
X63285714Y-74826952D01*
X63380952Y-74874571D01*
X63428571Y-74922190D01*
X63476190Y-75017428D01*
X63476190Y-75398380D01*
X65730380Y-70270571D02*
X65254190Y-70603904D01*
X65730380Y-70842000D02*
X64730380Y-70842000D01*
X64730380Y-70461047D01*
X64778000Y-70365809D01*
X64825619Y-70318190D01*
X64920857Y-70270571D01*
X65063714Y-70270571D01*
X65158952Y-70318190D01*
X65206571Y-70365809D01*
X65254190Y-70461047D01*
X65254190Y-70842000D01*
X65682761Y-69461047D02*
X65730380Y-69556285D01*
X65730380Y-69746761D01*
X65682761Y-69842000D01*
X65587523Y-69889619D01*
X65206571Y-69889619D01*
X65111333Y-69842000D01*
X65063714Y-69746761D01*
X65063714Y-69556285D01*
X65111333Y-69461047D01*
X65206571Y-69413428D01*
X65301809Y-69413428D01*
X65397047Y-69889619D01*
X65063714Y-69080095D02*
X65730380Y-68842000D01*
X65063714Y-68603904D01*
X65444666Y-68270571D02*
X65444666Y-67794380D01*
X65730380Y-68365809D02*
X64730380Y-68032476D01*
X65730380Y-67699142D01*
D11*
X64424000Y-85048000D02*
X65624000Y-85048000D01*
X65024000Y-84448000D02*
X65024000Y-85648000D01*
X55904000Y-77728000D02*
X58904000Y-77728000D01*
X62394000Y-77708000D02*
X59394000Y-77708000D01*
X58444000Y-87400000D02*
X58444000Y-88500000D01*
X59644000Y-89400000D02*
X58444000Y-89400000D01*
X59644000Y-86500000D02*
X58444000Y-86500000D01*
X56864000Y-83404000D02*
X55864000Y-83404000D01*
X61714000Y-83682000D02*
X60714000Y-83682000D01*
X62238000Y-83982000D02*
X63238000Y-83982000D01*
X61122000Y-75684000D02*
X61122000Y-74684000D01*
X58428000Y-80934000D02*
X59428000Y-80934000D01*
X52840000Y-76616000D02*
X53840000Y-76616000D01*
X57142000Y-86960000D02*
X56142000Y-86960000D01*
X61222000Y-87284000D02*
X62222000Y-87284000D01*
M02*
