G04 #@! TF.GenerationSoftware,KiCad,Pcbnew,(5.1.5-0-10_14)*
G04 #@! TF.CreationDate,2021-10-06T23:15:31+01:00*
G04 #@! TF.ProjectId,throwie,7468726f-7769-4652-9e6b-696361645f70,rev?*
G04 #@! TF.SameCoordinates,Original*
G04 #@! TF.FileFunction,Legend,Bot*
G04 #@! TF.FilePolarity,Positive*
%FSLAX46Y46*%
G04 Gerber Fmt 4.6, Leading zero omitted, Abs format (unit mm)*
G04 Created by KiCad (PCBNEW (5.1.5-0-10_14)) date 2021-10-06 23:15:31*
%MOMM*%
%LPD*%
G04 APERTURE LIST*
%ADD10C,0.100000*%
%ADD11C,0.120000*%
G04 APERTURE END LIST*
D10*
G36*
X55372000Y-77724000D02*
G01*
X52324000Y-77724000D01*
X52324000Y-67564000D01*
X55372000Y-67564000D01*
X55372000Y-77724000D01*
G37*
X55372000Y-77724000D02*
X52324000Y-77724000D01*
X52324000Y-67564000D01*
X55372000Y-67564000D01*
X55372000Y-77724000D01*
D11*
X55928274Y-69870000D02*
G75*
G03X55928274Y-69870000I-226274J0D01*
G01*
X64457000Y-70850000D02*
X64457000Y-74150000D01*
X55807000Y-70850000D02*
X55807000Y-74150000D01*
X55807000Y-74150000D02*
X64457000Y-74150000D01*
X55807000Y-70850000D02*
X64457000Y-70850000D01*
X63578000Y-81026000D02*
G75*
G03X63578000Y-81026000I-4650000J0D01*
G01*
X64608000Y-77462000D02*
X64608000Y-76462000D01*
X56292900Y-89716348D02*
X55479426Y-87889257D01*
X62687718Y-86869191D02*
X56292900Y-89716348D01*
X61874245Y-85042100D02*
X62687718Y-86869191D01*
X55479426Y-87889257D02*
X61874245Y-85042100D01*
X59598000Y-67572000D02*
X59598000Y-68572000D01*
X54320611Y-81067607D02*
X53130966Y-82675320D01*
X53516755Y-80472784D02*
X54320611Y-81067607D01*
X52327109Y-82080498D02*
X53516755Y-80472784D01*
X53130966Y-82675320D02*
X52327109Y-82080498D01*
X65778000Y-72298000D02*
X64778000Y-72298000D01*
M02*
