M48
; DRILL file {KiCad (5.1.5-0-10_14)} date Wednesday, 06 October 2021 at 22:58:48
; FORMAT={-:-/ absolute / inch / decimal}
; #@! TF.CreationDate,2021-10-06T22:58:48+01:00
; #@! TF.GenerationSoftware,Kicad,Pcbnew,(5.1.5-0-10_14)
FMAT,2
INCH
T1C0.0157
T2C0.0394
T3C0.0591
%
G90
G05
T1
X2.1937Y-3.3663
X2.23Y-2.68
X2.23Y-3.5
X2.24Y-3.3663
X2.27Y-2.68
X2.28Y-3.46
X2.2906Y-3.3694
X2.31Y-3.02
X2.3209Y-3.4591
X2.33Y-3.37
X2.37Y-2.87
X2.37Y-3.37
X2.3969Y-3.0201
X2.43Y-3.49
X2.47Y-3.49
X2.48Y-2.81
X2.48Y-3.09
X2.48Y-3.37
X2.52Y-3.33
X2.52Y-3.37
X2.59Y-3.33
X2.59Y-3.37
X2.59Y-3.41
X2.59Y-3.45
X2.59Y-3.49
T2
X2.1322Y-3.4403
X2.52Y-3.44
X2.22Y-3.19
X2.32Y-3.29
X2.42Y-3.19
X2.0987Y-3.1132
X2.1Y-3.31
T3
X2.56Y-3.12
X2.56Y-3.2578
T0
M30
