G04 #@! TF.GenerationSoftware,KiCad,Pcbnew,(5.1.5-0-10_14)*
G04 #@! TF.CreationDate,2021-10-06T22:58:41+01:00*
G04 #@! TF.ProjectId,throwie,7468726f-7769-4652-9e6b-696361645f70,rev?*
G04 #@! TF.SameCoordinates,Original*
G04 #@! TF.FileFunction,Copper,L1,Top*
G04 #@! TF.FilePolarity,Positive*
%FSLAX46Y46*%
G04 Gerber Fmt 4.6, Leading zero omitted, Abs format (unit mm)*
G04 Created by KiCad (PCBNEW (5.1.5-0-10_14)) date 2021-10-06 22:58:41*
%MOMM*%
%LPD*%
G04 APERTURE LIST*
%ADD10C,2.000000*%
%ADD11C,2.500000*%
%ADD12R,0.600000X0.800000*%
%ADD13R,0.800000X0.550000*%
%ADD14R,3.000000X6.000000*%
%ADD15R,1.000000X0.700000*%
%ADD16R,0.700000X1.000000*%
%ADD17C,0.800000*%
%ADD18C,0.250000*%
%ADD19C,0.750000*%
%ADD20C,0.500000*%
%ADD21C,1.000000*%
%ADD22C,0.400000*%
%ADD23C,0.254000*%
%ADD24C,0.125000*%
G04 APERTURE END LIST*
D10*
X61214000Y-71374000D03*
D11*
X65024000Y-79248000D03*
X65024000Y-82748000D03*
D10*
X61468000Y-81026000D03*
X58928000Y-83566000D03*
X56388000Y-81026000D03*
D12*
X57404000Y-76708000D03*
X56454000Y-78728000D03*
X58354000Y-78728000D03*
D10*
X54159144Y-87382448D03*
X64008000Y-87376000D03*
D12*
X60894000Y-78728000D03*
X59944000Y-76708000D03*
X61844000Y-76708000D03*
D13*
X58144000Y-88900000D03*
X58144000Y-87000000D03*
X59944000Y-87000000D03*
X59944000Y-87950000D03*
X59944000Y-88900000D03*
D10*
X53307721Y-79074104D03*
X53340000Y-84074000D03*
D14*
X53848000Y-70612000D03*
D10*
X58674000Y-71882000D03*
D15*
X56364000Y-84304000D03*
X56364000Y-82804000D03*
X61214000Y-84582000D03*
X61214000Y-83082000D03*
X62738000Y-83082000D03*
X62738000Y-84582000D03*
D16*
X60222000Y-75184000D03*
X61722000Y-75184000D03*
D15*
X58928000Y-80034000D03*
X58928000Y-81534000D03*
X53340000Y-75716000D03*
X53340000Y-77216000D03*
X56642000Y-87860000D03*
X56642000Y-86360000D03*
X61722000Y-86384000D03*
X61722000Y-87884000D03*
D17*
X57912000Y-87884990D03*
X58952000Y-87860000D03*
X60198000Y-85598000D03*
X59182000Y-85598000D03*
X58181818Y-85582182D03*
X56642000Y-68072000D03*
X57658000Y-68072000D03*
X56642000Y-88900000D03*
X58674000Y-76708000D03*
X62738000Y-88646000D03*
X65786000Y-88646000D03*
X65786000Y-87630000D03*
X65786000Y-86614000D03*
X61722000Y-88646000D03*
X65786000Y-85598000D03*
X65786000Y-84582000D03*
X64008000Y-84582000D03*
X64008000Y-85598000D03*
X62992000Y-85598000D03*
X56896000Y-85504010D03*
X55719990Y-85504010D03*
X62992000Y-71374000D03*
X60198000Y-72898000D03*
X60880000Y-76710000D03*
X62992000Y-78486000D03*
D18*
X61214000Y-84582000D02*
X61214000Y-84836000D01*
D19*
X59920000Y-87860000D02*
X59944000Y-87884000D01*
D20*
X59183999Y-86274999D02*
X61636999Y-86274999D01*
X59093999Y-86364999D02*
X59183999Y-86274999D01*
X59093999Y-87464001D02*
X59093999Y-86364999D01*
X58952000Y-87606000D02*
X59093999Y-87464001D01*
X58952000Y-87860000D02*
X58952000Y-87606000D01*
D19*
X58952000Y-87860000D02*
X59920000Y-87860000D01*
D20*
X61636999Y-86274999D02*
X61722000Y-86360000D01*
D19*
X61214000Y-85682000D02*
X61722000Y-86190000D01*
X61214000Y-84582000D02*
X61214000Y-85682000D01*
X61722000Y-86190000D02*
X61722000Y-86360000D01*
D18*
X57887010Y-87860000D02*
X57912000Y-87884990D01*
D19*
X56642000Y-87860000D02*
X57682000Y-87860000D01*
D18*
X57682000Y-87860000D02*
X57887010Y-87860000D01*
D19*
X57682000Y-87860000D02*
X58952000Y-87860000D01*
D20*
X63334001Y-77558001D02*
X63774001Y-77998001D01*
X59944000Y-76708000D02*
X59944000Y-76950002D01*
X63774001Y-77998001D02*
X65024000Y-79248000D01*
X59144000Y-76708000D02*
X58674000Y-76238000D01*
X59944000Y-76708000D02*
X59144000Y-76708000D01*
X58674000Y-76238000D02*
X58674000Y-74930000D01*
X58674000Y-74930000D02*
X56642000Y-72898000D01*
X56642000Y-72898000D02*
X56642000Y-68072000D01*
X59944000Y-76708000D02*
X58674000Y-76708000D01*
D18*
X63234000Y-87122000D02*
X64008000Y-87122000D01*
D19*
X59944000Y-88900000D02*
X60706000Y-88900000D01*
D20*
X59944000Y-87000000D02*
X60838000Y-87000000D01*
X60838000Y-87000000D02*
X61722000Y-87884000D01*
D18*
X60706000Y-88900000D02*
X60960000Y-88646000D01*
D19*
X60960000Y-88646000D02*
X61722000Y-87884000D01*
D21*
X62738000Y-87884000D02*
X61722000Y-87884000D01*
D18*
X62738000Y-88646000D02*
X61722000Y-88646000D01*
X61722000Y-88646000D02*
X61722000Y-88646000D01*
X62992000Y-85598000D02*
X62992000Y-84836000D01*
X62992000Y-85598000D02*
X64008000Y-85598000D01*
X64008000Y-84582000D02*
X64008000Y-85598000D01*
X64407999Y-84182001D02*
X64407999Y-83420001D01*
X64008000Y-84582000D02*
X64407999Y-84182001D01*
X64407999Y-83420001D02*
X65024000Y-82804000D01*
X65786000Y-88646000D02*
X65786000Y-87630000D01*
X65786000Y-86614000D02*
X65786000Y-87630000D01*
X65786000Y-86614000D02*
X65786000Y-85598000D01*
X65786000Y-85598000D02*
X65786000Y-84582000D01*
X65386001Y-84182001D02*
X65386001Y-83166001D01*
X65786000Y-84582000D02*
X65386001Y-84182001D01*
X65386001Y-83166001D02*
X65024000Y-82804000D01*
X57912000Y-86868000D02*
X58166000Y-86868000D01*
D21*
X57404000Y-86360000D02*
X57828990Y-86784990D01*
X56642000Y-86360000D02*
X57404000Y-86360000D01*
X57828990Y-86784990D02*
X58143989Y-86784990D01*
X56388000Y-86360000D02*
X55532010Y-85504010D01*
X56642000Y-86360000D02*
X56388000Y-86360000D01*
X56097695Y-85504010D02*
X56896000Y-85504010D01*
X55532010Y-85504010D02*
X55719990Y-85504010D01*
X56896000Y-85504010D02*
X56896000Y-85504010D01*
X55719990Y-85504010D02*
X56097695Y-85504010D01*
D18*
X53340000Y-72390000D02*
X53848000Y-71882000D01*
D21*
X53340000Y-75716000D02*
X53340000Y-72390000D01*
D18*
X58928000Y-79952000D02*
X58928000Y-80010000D01*
X60894000Y-80452000D02*
X61468000Y-81026000D01*
D21*
X58354000Y-78728000D02*
X58354000Y-79436000D01*
X58354000Y-79436000D02*
X58928000Y-80010000D01*
X58928000Y-80034000D02*
X60476000Y-80034000D01*
X60476000Y-80034000D02*
X61468000Y-81026000D01*
X60894000Y-78728000D02*
X60894000Y-80452000D01*
X58190000Y-84304000D02*
X58928000Y-83566000D01*
X58928000Y-83566000D02*
X58928000Y-81534000D01*
X56364000Y-84304000D02*
X53570000Y-84304000D01*
X53570000Y-84304000D02*
X53340000Y-84074000D01*
X53340000Y-84074000D02*
X53340000Y-83820000D01*
X56364000Y-84304000D02*
X58190000Y-84304000D01*
D20*
X59182000Y-71374000D02*
X58674000Y-71882000D01*
X62992000Y-71374000D02*
X62992000Y-70808315D01*
X62992000Y-70808315D02*
X62992000Y-70104000D01*
X62992000Y-70104000D02*
X62484000Y-69596000D01*
X62484000Y-69596000D02*
X59182000Y-69596000D01*
X59182000Y-69596000D02*
X58674000Y-70104000D01*
X58674000Y-70104000D02*
X58674000Y-71882000D01*
X61214000Y-71882000D02*
X60198000Y-72898000D01*
X61214000Y-71374000D02*
X61214000Y-71882000D01*
D18*
X57150000Y-76454000D02*
X57404000Y-76708000D01*
D21*
X53340000Y-77216000D02*
X56896000Y-77216000D01*
X56896000Y-77216000D02*
X57404000Y-76708000D01*
X53340000Y-77216000D02*
X53340000Y-78566000D01*
X53340000Y-78566000D02*
X53340000Y-79248000D01*
X53340000Y-79248000D02*
X53340000Y-78994000D01*
D18*
X56454000Y-80960000D02*
X56388000Y-81026000D01*
D21*
X56364000Y-82804000D02*
X56364000Y-81050000D01*
X56364000Y-81050000D02*
X56388000Y-81026000D01*
X56388000Y-81026000D02*
X56388000Y-78740000D01*
D20*
X61844000Y-76708000D02*
X61844000Y-75306000D01*
X61844000Y-75306000D02*
X61722000Y-75184000D01*
D22*
X60222000Y-75184000D02*
X60198000Y-75184000D01*
X60960000Y-76627972D02*
X61000014Y-76667986D01*
X60222000Y-75184000D02*
X60222000Y-75334000D01*
D20*
X60880000Y-76710000D02*
X60880000Y-75866000D01*
X60880000Y-75866000D02*
X60198000Y-75184000D01*
D18*
X62714000Y-83082000D02*
X62738000Y-83058000D01*
X62846001Y-82949999D02*
X62738000Y-83058000D01*
D21*
X61214000Y-83082000D02*
X62714000Y-83082000D01*
D20*
X62992000Y-79248000D02*
X62992000Y-82804000D01*
X62992000Y-82804000D02*
X62738000Y-83058000D01*
X62992000Y-79248000D02*
X62992000Y-78486000D01*
D23*
G36*
X61957000Y-78384061D02*
G01*
X61957000Y-78587939D01*
X61996774Y-78787898D01*
X62074795Y-78976256D01*
X62103000Y-79018468D01*
X62103000Y-81892082D01*
X60813343Y-81677139D01*
X60576534Y-80493093D01*
X60569282Y-80469276D01*
X60557523Y-80447332D01*
X60541709Y-80428104D01*
X60522447Y-80412330D01*
X60500478Y-80400617D01*
X60476646Y-80393414D01*
X60452000Y-80391000D01*
X58039000Y-80391000D01*
X58039000Y-78359000D01*
X61961985Y-78359000D01*
X61957000Y-78384061D01*
G37*
X61957000Y-78384061D02*
X61957000Y-78587939D01*
X61996774Y-78787898D01*
X62074795Y-78976256D01*
X62103000Y-79018468D01*
X62103000Y-81892082D01*
X60813343Y-81677139D01*
X60576534Y-80493093D01*
X60569282Y-80469276D01*
X60557523Y-80447332D01*
X60541709Y-80428104D01*
X60522447Y-80412330D01*
X60500478Y-80400617D01*
X60476646Y-80393414D01*
X60452000Y-80391000D01*
X58039000Y-80391000D01*
X58039000Y-78359000D01*
X61961985Y-78359000D01*
X61957000Y-78384061D01*
D24*
G36*
X66206500Y-89320500D02*
G01*
X60768500Y-89320500D01*
X60768500Y-87184500D01*
X62738000Y-87184500D01*
X62750193Y-87183299D01*
X62761918Y-87179742D01*
X62772723Y-87173967D01*
X62782194Y-87166194D01*
X62789967Y-87156723D01*
X62795742Y-87145918D01*
X62799299Y-87134193D01*
X62800500Y-87122000D01*
X62800500Y-84136500D01*
X63754000Y-84136500D01*
X63766193Y-84135299D01*
X63777918Y-84131742D01*
X63788723Y-84125967D01*
X63798194Y-84118194D01*
X63805967Y-84108723D01*
X63811742Y-84097918D01*
X63815299Y-84086193D01*
X63816500Y-84074000D01*
X63816500Y-82612500D01*
X66206500Y-82612500D01*
X66206500Y-89320500D01*
G37*
X66206500Y-89320500D02*
X60768500Y-89320500D01*
X60768500Y-87184500D01*
X62738000Y-87184500D01*
X62750193Y-87183299D01*
X62761918Y-87179742D01*
X62772723Y-87173967D01*
X62782194Y-87166194D01*
X62789967Y-87156723D01*
X62795742Y-87145918D01*
X62799299Y-87134193D01*
X62800500Y-87122000D01*
X62800500Y-84136500D01*
X63754000Y-84136500D01*
X63766193Y-84135299D01*
X63777918Y-84131742D01*
X63788723Y-84125967D01*
X63798194Y-84118194D01*
X63805967Y-84108723D01*
X63811742Y-84097918D01*
X63815299Y-84086193D01*
X63816500Y-84074000D01*
X63816500Y-82612500D01*
X66206500Y-82612500D01*
X66206500Y-89320500D01*
D23*
G36*
X66142000Y-79121000D02*
G01*
X63881000Y-79121000D01*
X63881000Y-77724000D01*
X63878560Y-77699224D01*
X63871333Y-77675399D01*
X63859597Y-77653443D01*
X63843803Y-77634197D01*
X63824557Y-77618403D01*
X63802601Y-77606667D01*
X63778776Y-77599440D01*
X63754000Y-77597000D01*
X58293000Y-77597000D01*
X58293000Y-75946000D01*
X58290560Y-75921224D01*
X58283333Y-75897399D01*
X58271597Y-75875443D01*
X58255803Y-75856197D01*
X58236557Y-75840403D01*
X58214601Y-75828667D01*
X58190776Y-75821440D01*
X58166000Y-75819000D01*
X55753000Y-75819000D01*
X55753000Y-74684000D01*
X59489157Y-74684000D01*
X59489157Y-75684000D01*
X59496513Y-75758689D01*
X59518299Y-75830508D01*
X59553678Y-75896696D01*
X59601289Y-75954711D01*
X59659304Y-76002322D01*
X59725492Y-76037701D01*
X59797311Y-76059487D01*
X59872000Y-76066843D01*
X60071000Y-76066843D01*
X60071000Y-77216000D01*
X60073440Y-77240776D01*
X60080667Y-77264601D01*
X60092403Y-77286557D01*
X60108197Y-77305803D01*
X60127443Y-77321597D01*
X60149399Y-77333333D01*
X60173224Y-77340560D01*
X60198000Y-77343000D01*
X60421589Y-77343000D01*
X60510058Y-77402113D01*
X60652191Y-77460987D01*
X60803078Y-77491000D01*
X60956922Y-77491000D01*
X61107809Y-77460987D01*
X61249942Y-77402113D01*
X61278529Y-77383012D01*
X61331304Y-77426322D01*
X61397492Y-77461701D01*
X61469311Y-77483487D01*
X61544000Y-77490843D01*
X62144000Y-77490843D01*
X62218689Y-77483487D01*
X62290508Y-77461701D01*
X62356696Y-77426322D01*
X62414711Y-77378711D01*
X62462322Y-77320696D01*
X62497701Y-77254508D01*
X62519487Y-77182689D01*
X62526843Y-77108000D01*
X62526843Y-76308000D01*
X62519487Y-76233311D01*
X62497701Y-76161492D01*
X62475000Y-76119022D01*
X62475000Y-75336987D01*
X62478052Y-75305999D01*
X62475000Y-75275012D01*
X62475000Y-75275002D01*
X62465870Y-75182302D01*
X62454843Y-75145951D01*
X62454843Y-74684000D01*
X62447487Y-74609311D01*
X62425701Y-74537492D01*
X62390322Y-74471304D01*
X62342711Y-74413289D01*
X62284696Y-74365678D01*
X62218508Y-74330299D01*
X62146689Y-74308513D01*
X62072000Y-74301157D01*
X61759030Y-74301157D01*
X61746776Y-74297440D01*
X61722000Y-74295000D01*
X60198000Y-74295000D01*
X60173224Y-74297440D01*
X60160970Y-74301157D01*
X59872000Y-74301157D01*
X59797311Y-74308513D01*
X59725492Y-74330299D01*
X59659304Y-74365678D01*
X59601289Y-74413289D01*
X59553678Y-74471304D01*
X59518299Y-74537492D01*
X59496513Y-74609311D01*
X59489157Y-74684000D01*
X55753000Y-74684000D01*
X55753000Y-71745983D01*
X57293000Y-71745983D01*
X57293000Y-72018017D01*
X57346071Y-72284823D01*
X57450174Y-72536149D01*
X57601307Y-72762336D01*
X57793664Y-72954693D01*
X58019851Y-73105826D01*
X58271177Y-73209929D01*
X58537983Y-73263000D01*
X58810017Y-73263000D01*
X59076823Y-73209929D01*
X59328149Y-73105826D01*
X59429560Y-73038066D01*
X59447013Y-73125809D01*
X59505887Y-73267942D01*
X59591358Y-73395859D01*
X59700141Y-73504642D01*
X59828058Y-73590113D01*
X59970191Y-73648987D01*
X60121078Y-73679000D01*
X60274922Y-73679000D01*
X60425809Y-73648987D01*
X60567942Y-73590113D01*
X60695859Y-73504642D01*
X60804642Y-73395859D01*
X60890113Y-73267942D01*
X60948987Y-73125809D01*
X60970447Y-73017921D01*
X61233369Y-72755000D01*
X61350017Y-72755000D01*
X61616823Y-72701929D01*
X61868149Y-72597826D01*
X62094336Y-72446693D01*
X62286693Y-72254336D01*
X62437826Y-72028149D01*
X62468235Y-71954736D01*
X62494141Y-71980642D01*
X62622058Y-72066113D01*
X62764191Y-72124987D01*
X62915078Y-72155000D01*
X63068922Y-72155000D01*
X63219809Y-72124987D01*
X63361942Y-72066113D01*
X63489859Y-71980642D01*
X63598642Y-71871859D01*
X63684113Y-71743942D01*
X63742987Y-71601809D01*
X63773000Y-71450922D01*
X63773000Y-71297078D01*
X63742987Y-71146191D01*
X63684113Y-71004058D01*
X63623000Y-70912595D01*
X63623000Y-70134987D01*
X63626052Y-70103999D01*
X63623000Y-70073011D01*
X63623000Y-70073002D01*
X63613870Y-69980302D01*
X63577789Y-69861358D01*
X63519196Y-69751739D01*
X63440343Y-69655657D01*
X63416263Y-69635895D01*
X62952105Y-69171737D01*
X62932343Y-69147657D01*
X62836261Y-69068804D01*
X62726642Y-69010211D01*
X62607698Y-68974130D01*
X62514998Y-68965000D01*
X62514990Y-68965000D01*
X62484000Y-68961948D01*
X62453010Y-68965000D01*
X59212987Y-68965000D01*
X59181999Y-68961948D01*
X59151011Y-68965000D01*
X59151002Y-68965000D01*
X59058302Y-68974130D01*
X58939358Y-69010211D01*
X58829739Y-69068804D01*
X58733657Y-69147657D01*
X58713895Y-69171737D01*
X58249737Y-69635895D01*
X58225657Y-69655657D01*
X58146804Y-69751740D01*
X58088211Y-69861359D01*
X58052130Y-69980303D01*
X58043000Y-70073003D01*
X58043000Y-70073010D01*
X58039948Y-70104000D01*
X58043000Y-70134991D01*
X58043000Y-70648585D01*
X58019851Y-70658174D01*
X57793664Y-70809307D01*
X57601307Y-71001664D01*
X57450174Y-71227851D01*
X57346071Y-71479177D01*
X57293000Y-71745983D01*
X55753000Y-71745983D01*
X55753000Y-67716000D01*
X66142001Y-67716000D01*
X66142000Y-79121000D01*
G37*
X66142000Y-79121000D02*
X63881000Y-79121000D01*
X63881000Y-77724000D01*
X63878560Y-77699224D01*
X63871333Y-77675399D01*
X63859597Y-77653443D01*
X63843803Y-77634197D01*
X63824557Y-77618403D01*
X63802601Y-77606667D01*
X63778776Y-77599440D01*
X63754000Y-77597000D01*
X58293000Y-77597000D01*
X58293000Y-75946000D01*
X58290560Y-75921224D01*
X58283333Y-75897399D01*
X58271597Y-75875443D01*
X58255803Y-75856197D01*
X58236557Y-75840403D01*
X58214601Y-75828667D01*
X58190776Y-75821440D01*
X58166000Y-75819000D01*
X55753000Y-75819000D01*
X55753000Y-74684000D01*
X59489157Y-74684000D01*
X59489157Y-75684000D01*
X59496513Y-75758689D01*
X59518299Y-75830508D01*
X59553678Y-75896696D01*
X59601289Y-75954711D01*
X59659304Y-76002322D01*
X59725492Y-76037701D01*
X59797311Y-76059487D01*
X59872000Y-76066843D01*
X60071000Y-76066843D01*
X60071000Y-77216000D01*
X60073440Y-77240776D01*
X60080667Y-77264601D01*
X60092403Y-77286557D01*
X60108197Y-77305803D01*
X60127443Y-77321597D01*
X60149399Y-77333333D01*
X60173224Y-77340560D01*
X60198000Y-77343000D01*
X60421589Y-77343000D01*
X60510058Y-77402113D01*
X60652191Y-77460987D01*
X60803078Y-77491000D01*
X60956922Y-77491000D01*
X61107809Y-77460987D01*
X61249942Y-77402113D01*
X61278529Y-77383012D01*
X61331304Y-77426322D01*
X61397492Y-77461701D01*
X61469311Y-77483487D01*
X61544000Y-77490843D01*
X62144000Y-77490843D01*
X62218689Y-77483487D01*
X62290508Y-77461701D01*
X62356696Y-77426322D01*
X62414711Y-77378711D01*
X62462322Y-77320696D01*
X62497701Y-77254508D01*
X62519487Y-77182689D01*
X62526843Y-77108000D01*
X62526843Y-76308000D01*
X62519487Y-76233311D01*
X62497701Y-76161492D01*
X62475000Y-76119022D01*
X62475000Y-75336987D01*
X62478052Y-75305999D01*
X62475000Y-75275012D01*
X62475000Y-75275002D01*
X62465870Y-75182302D01*
X62454843Y-75145951D01*
X62454843Y-74684000D01*
X62447487Y-74609311D01*
X62425701Y-74537492D01*
X62390322Y-74471304D01*
X62342711Y-74413289D01*
X62284696Y-74365678D01*
X62218508Y-74330299D01*
X62146689Y-74308513D01*
X62072000Y-74301157D01*
X61759030Y-74301157D01*
X61746776Y-74297440D01*
X61722000Y-74295000D01*
X60198000Y-74295000D01*
X60173224Y-74297440D01*
X60160970Y-74301157D01*
X59872000Y-74301157D01*
X59797311Y-74308513D01*
X59725492Y-74330299D01*
X59659304Y-74365678D01*
X59601289Y-74413289D01*
X59553678Y-74471304D01*
X59518299Y-74537492D01*
X59496513Y-74609311D01*
X59489157Y-74684000D01*
X55753000Y-74684000D01*
X55753000Y-71745983D01*
X57293000Y-71745983D01*
X57293000Y-72018017D01*
X57346071Y-72284823D01*
X57450174Y-72536149D01*
X57601307Y-72762336D01*
X57793664Y-72954693D01*
X58019851Y-73105826D01*
X58271177Y-73209929D01*
X58537983Y-73263000D01*
X58810017Y-73263000D01*
X59076823Y-73209929D01*
X59328149Y-73105826D01*
X59429560Y-73038066D01*
X59447013Y-73125809D01*
X59505887Y-73267942D01*
X59591358Y-73395859D01*
X59700141Y-73504642D01*
X59828058Y-73590113D01*
X59970191Y-73648987D01*
X60121078Y-73679000D01*
X60274922Y-73679000D01*
X60425809Y-73648987D01*
X60567942Y-73590113D01*
X60695859Y-73504642D01*
X60804642Y-73395859D01*
X60890113Y-73267942D01*
X60948987Y-73125809D01*
X60970447Y-73017921D01*
X61233369Y-72755000D01*
X61350017Y-72755000D01*
X61616823Y-72701929D01*
X61868149Y-72597826D01*
X62094336Y-72446693D01*
X62286693Y-72254336D01*
X62437826Y-72028149D01*
X62468235Y-71954736D01*
X62494141Y-71980642D01*
X62622058Y-72066113D01*
X62764191Y-72124987D01*
X62915078Y-72155000D01*
X63068922Y-72155000D01*
X63219809Y-72124987D01*
X63361942Y-72066113D01*
X63489859Y-71980642D01*
X63598642Y-71871859D01*
X63684113Y-71743942D01*
X63742987Y-71601809D01*
X63773000Y-71450922D01*
X63773000Y-71297078D01*
X63742987Y-71146191D01*
X63684113Y-71004058D01*
X63623000Y-70912595D01*
X63623000Y-70134987D01*
X63626052Y-70103999D01*
X63623000Y-70073011D01*
X63623000Y-70073002D01*
X63613870Y-69980302D01*
X63577789Y-69861358D01*
X63519196Y-69751739D01*
X63440343Y-69655657D01*
X63416263Y-69635895D01*
X62952105Y-69171737D01*
X62932343Y-69147657D01*
X62836261Y-69068804D01*
X62726642Y-69010211D01*
X62607698Y-68974130D01*
X62514998Y-68965000D01*
X62514990Y-68965000D01*
X62484000Y-68961948D01*
X62453010Y-68965000D01*
X59212987Y-68965000D01*
X59181999Y-68961948D01*
X59151011Y-68965000D01*
X59151002Y-68965000D01*
X59058302Y-68974130D01*
X58939358Y-69010211D01*
X58829739Y-69068804D01*
X58733657Y-69147657D01*
X58713895Y-69171737D01*
X58249737Y-69635895D01*
X58225657Y-69655657D01*
X58146804Y-69751740D01*
X58088211Y-69861359D01*
X58052130Y-69980303D01*
X58043000Y-70073003D01*
X58043000Y-70073010D01*
X58039948Y-70104000D01*
X58043000Y-70134991D01*
X58043000Y-70648585D01*
X58019851Y-70658174D01*
X57793664Y-70809307D01*
X57601307Y-71001664D01*
X57450174Y-71227851D01*
X57346071Y-71479177D01*
X57293000Y-71745983D01*
X55753000Y-71745983D01*
X55753000Y-67716000D01*
X66142001Y-67716000D01*
X66142000Y-79121000D01*
D24*
G36*
X55055500Y-87383116D02*
G01*
X55055500Y-89320500D01*
X52411500Y-89320500D01*
X52411500Y-84136500D01*
X54306281Y-84136500D01*
X55055500Y-87383116D01*
G37*
X55055500Y-87383116D02*
X55055500Y-89320500D01*
X52411500Y-89320500D01*
X52411500Y-84136500D01*
X54306281Y-84136500D01*
X55055500Y-87383116D01*
D23*
G36*
X57023000Y-87630000D02*
G01*
X57025440Y-87654776D01*
X57032667Y-87678601D01*
X57044403Y-87700557D01*
X57060197Y-87719803D01*
X57079443Y-87735597D01*
X57101399Y-87747333D01*
X57125224Y-87754560D01*
X57150000Y-87757000D01*
X58928000Y-87757000D01*
X58952776Y-87754560D01*
X58976601Y-87747333D01*
X58998557Y-87735597D01*
X59017803Y-87719803D01*
X59033597Y-87700557D01*
X59045333Y-87678601D01*
X59052560Y-87654776D01*
X59055000Y-87630000D01*
X59057440Y-87654776D01*
X59064667Y-87678601D01*
X59076403Y-87700557D01*
X59092197Y-87719803D01*
X59111443Y-87735597D01*
X59133399Y-87747333D01*
X59157224Y-87754560D01*
X59182000Y-87757000D01*
X60071000Y-87757000D01*
X60071000Y-88144000D01*
X59906871Y-88144000D01*
X59795798Y-88154940D01*
X59653292Y-88198168D01*
X59570994Y-88242157D01*
X59544000Y-88242157D01*
X59469311Y-88249513D01*
X59418257Y-88265000D01*
X58669743Y-88265000D01*
X58618689Y-88249513D01*
X58544000Y-88242157D01*
X57744000Y-88242157D01*
X57669311Y-88249513D01*
X57618257Y-88265000D01*
X57404000Y-88265000D01*
X57379224Y-88267440D01*
X57355399Y-88274667D01*
X57333443Y-88286403D01*
X57314197Y-88302197D01*
X57298403Y-88321443D01*
X57286667Y-88343399D01*
X57279440Y-88367224D01*
X57277000Y-88392000D01*
X57277000Y-89256000D01*
X55753000Y-89256000D01*
X55753000Y-87249000D01*
X57023000Y-87249000D01*
X57023000Y-87630000D01*
G37*
X57023000Y-87630000D02*
X57025440Y-87654776D01*
X57032667Y-87678601D01*
X57044403Y-87700557D01*
X57060197Y-87719803D01*
X57079443Y-87735597D01*
X57101399Y-87747333D01*
X57125224Y-87754560D01*
X57150000Y-87757000D01*
X58928000Y-87757000D01*
X58952776Y-87754560D01*
X58976601Y-87747333D01*
X58998557Y-87735597D01*
X59017803Y-87719803D01*
X59033597Y-87700557D01*
X59045333Y-87678601D01*
X59052560Y-87654776D01*
X59055000Y-87630000D01*
X59057440Y-87654776D01*
X59064667Y-87678601D01*
X59076403Y-87700557D01*
X59092197Y-87719803D01*
X59111443Y-87735597D01*
X59133399Y-87747333D01*
X59157224Y-87754560D01*
X59182000Y-87757000D01*
X60071000Y-87757000D01*
X60071000Y-88144000D01*
X59906871Y-88144000D01*
X59795798Y-88154940D01*
X59653292Y-88198168D01*
X59570994Y-88242157D01*
X59544000Y-88242157D01*
X59469311Y-88249513D01*
X59418257Y-88265000D01*
X58669743Y-88265000D01*
X58618689Y-88249513D01*
X58544000Y-88242157D01*
X57744000Y-88242157D01*
X57669311Y-88249513D01*
X57618257Y-88265000D01*
X57404000Y-88265000D01*
X57379224Y-88267440D01*
X57355399Y-88274667D01*
X57333443Y-88286403D01*
X57314197Y-88302197D01*
X57298403Y-88321443D01*
X57286667Y-88343399D01*
X57279440Y-88367224D01*
X57277000Y-88392000D01*
X57277000Y-89256000D01*
X55753000Y-89256000D01*
X55753000Y-87249000D01*
X57023000Y-87249000D01*
X57023000Y-87630000D01*
G36*
X62025304Y-85250322D02*
G01*
X62091492Y-85285701D01*
X62163311Y-85307487D01*
X62238000Y-85314843D01*
X62263939Y-85314843D01*
X62241013Y-85370191D01*
X62211000Y-85521078D01*
X62211000Y-85674922D01*
X62241013Y-85825809D01*
X62299887Y-85967942D01*
X62357000Y-86053418D01*
X62357000Y-86233000D01*
X59182000Y-86233000D01*
X59157224Y-86235440D01*
X59133399Y-86242667D01*
X59111443Y-86254403D01*
X59092197Y-86270197D01*
X59076403Y-86289443D01*
X59064667Y-86311399D01*
X59057440Y-86335224D01*
X59055000Y-86360000D01*
X59055000Y-86106000D01*
X59052560Y-86081224D01*
X59045333Y-86057399D01*
X59033597Y-86035443D01*
X59017803Y-86016197D01*
X58998557Y-86000403D01*
X58976601Y-85988667D01*
X58952776Y-85981440D01*
X58928000Y-85979000D01*
X58504999Y-85979000D01*
X58482764Y-85967115D01*
X58316695Y-85916738D01*
X58194637Y-85904716D01*
X58057566Y-85767645D01*
X58029975Y-85734025D01*
X57895825Y-85623932D01*
X57826464Y-85586858D01*
X57785000Y-85545394D01*
X57785000Y-85217000D01*
X61984700Y-85217000D01*
X62025304Y-85250322D01*
G37*
X62025304Y-85250322D02*
X62091492Y-85285701D01*
X62163311Y-85307487D01*
X62238000Y-85314843D01*
X62263939Y-85314843D01*
X62241013Y-85370191D01*
X62211000Y-85521078D01*
X62211000Y-85674922D01*
X62241013Y-85825809D01*
X62299887Y-85967942D01*
X62357000Y-86053418D01*
X62357000Y-86233000D01*
X59182000Y-86233000D01*
X59157224Y-86235440D01*
X59133399Y-86242667D01*
X59111443Y-86254403D01*
X59092197Y-86270197D01*
X59076403Y-86289443D01*
X59064667Y-86311399D01*
X59057440Y-86335224D01*
X59055000Y-86360000D01*
X59055000Y-86106000D01*
X59052560Y-86081224D01*
X59045333Y-86057399D01*
X59033597Y-86035443D01*
X59017803Y-86016197D01*
X58998557Y-86000403D01*
X58976601Y-85988667D01*
X58952776Y-85981440D01*
X58928000Y-85979000D01*
X58504999Y-85979000D01*
X58482764Y-85967115D01*
X58316695Y-85916738D01*
X58194637Y-85904716D01*
X58057566Y-85767645D01*
X58029975Y-85734025D01*
X57895825Y-85623932D01*
X57826464Y-85586858D01*
X57785000Y-85545394D01*
X57785000Y-85217000D01*
X61984700Y-85217000D01*
X62025304Y-85250322D01*
G36*
X56769000Y-82931000D02*
G01*
X54115114Y-82931000D01*
X53994149Y-82850174D01*
X53742823Y-82746071D01*
X53476017Y-82693000D01*
X53203983Y-82693000D01*
X52937177Y-82746071D01*
X52685851Y-82850174D01*
X52564886Y-82931000D01*
X52476000Y-82931000D01*
X52476000Y-80179280D01*
X52653572Y-80297930D01*
X52904898Y-80402033D01*
X53171704Y-80455104D01*
X53443738Y-80455104D01*
X53710544Y-80402033D01*
X53961870Y-80297930D01*
X54188057Y-80146797D01*
X54380414Y-79954440D01*
X54531547Y-79728253D01*
X54635650Y-79476927D01*
X54688721Y-79210121D01*
X54688721Y-78938087D01*
X54635650Y-78671281D01*
X54531547Y-78419955D01*
X54490818Y-78359000D01*
X56769000Y-78359000D01*
X56769000Y-82931000D01*
G37*
X56769000Y-82931000D02*
X54115114Y-82931000D01*
X53994149Y-82850174D01*
X53742823Y-82746071D01*
X53476017Y-82693000D01*
X53203983Y-82693000D01*
X52937177Y-82746071D01*
X52685851Y-82850174D01*
X52564886Y-82931000D01*
X52476000Y-82931000D01*
X52476000Y-80179280D01*
X52653572Y-80297930D01*
X52904898Y-80402033D01*
X53171704Y-80455104D01*
X53443738Y-80455104D01*
X53710544Y-80402033D01*
X53961870Y-80297930D01*
X54188057Y-80146797D01*
X54380414Y-79954440D01*
X54531547Y-79728253D01*
X54635650Y-79476927D01*
X54688721Y-79210121D01*
X54688721Y-78938087D01*
X54635650Y-78671281D01*
X54531547Y-78419955D01*
X54490818Y-78359000D01*
X56769000Y-78359000D01*
X56769000Y-82931000D01*
G36*
X57785000Y-77597000D02*
G01*
X57404000Y-77597000D01*
X57379224Y-77599440D01*
X57355399Y-77606667D01*
X57333443Y-77618403D01*
X57314197Y-77634197D01*
X57298403Y-77653443D01*
X57286667Y-77675399D01*
X57279440Y-77699224D01*
X57277000Y-77724000D01*
X57277000Y-77851000D01*
X54102000Y-77851000D01*
X54077224Y-77853440D01*
X54053399Y-77860667D01*
X54031443Y-77872403D01*
X54012197Y-77888197D01*
X53996403Y-77907443D01*
X53984667Y-77929399D01*
X53977440Y-77953224D01*
X53975000Y-77978000D01*
X53975000Y-78867000D01*
X52476000Y-78867000D01*
X52476000Y-76835000D01*
X54102000Y-76835000D01*
X54126776Y-76832560D01*
X54150601Y-76825333D01*
X54172557Y-76813597D01*
X54191803Y-76797803D01*
X54207597Y-76778557D01*
X54219333Y-76756601D01*
X54226560Y-76732776D01*
X54229000Y-76708000D01*
X54229000Y-76327000D01*
X57785000Y-76327000D01*
X57785000Y-77597000D01*
G37*
X57785000Y-77597000D02*
X57404000Y-77597000D01*
X57379224Y-77599440D01*
X57355399Y-77606667D01*
X57333443Y-77618403D01*
X57314197Y-77634197D01*
X57298403Y-77653443D01*
X57286667Y-77675399D01*
X57279440Y-77699224D01*
X57277000Y-77724000D01*
X57277000Y-77851000D01*
X54102000Y-77851000D01*
X54077224Y-77853440D01*
X54053399Y-77860667D01*
X54031443Y-77872403D01*
X54012197Y-77888197D01*
X53996403Y-77907443D01*
X53984667Y-77929399D01*
X53977440Y-77953224D01*
X53975000Y-77978000D01*
X53975000Y-78867000D01*
X52476000Y-78867000D01*
X52476000Y-76835000D01*
X54102000Y-76835000D01*
X54126776Y-76832560D01*
X54150601Y-76825333D01*
X54172557Y-76813597D01*
X54191803Y-76797803D01*
X54207597Y-76778557D01*
X54219333Y-76756601D01*
X54226560Y-76732776D01*
X54229000Y-76708000D01*
X54229000Y-76327000D01*
X57785000Y-76327000D01*
X57785000Y-77597000D01*
G36*
X53721000Y-75819000D02*
G01*
X52476000Y-75819000D01*
X52476000Y-73533000D01*
X53721000Y-73533000D01*
X53721000Y-75819000D01*
G37*
X53721000Y-75819000D02*
X52476000Y-75819000D01*
X52476000Y-73533000D01*
X53721000Y-73533000D01*
X53721000Y-75819000D01*
G36*
X60071000Y-83073634D02*
G01*
X60071000Y-84709000D01*
X57277552Y-84709000D01*
X57234775Y-84686135D01*
X57068706Y-84635758D01*
X57023000Y-84631256D01*
X57023000Y-83846067D01*
X57774731Y-82092028D01*
X57782248Y-82068293D01*
X57785000Y-82042000D01*
X57785000Y-81153000D01*
X59590841Y-81153000D01*
X60071000Y-83073634D01*
G37*
X60071000Y-83073634D02*
X60071000Y-84709000D01*
X57277552Y-84709000D01*
X57234775Y-84686135D01*
X57068706Y-84635758D01*
X57023000Y-84631256D01*
X57023000Y-83846067D01*
X57774731Y-82092028D01*
X57782248Y-82068293D01*
X57785000Y-82042000D01*
X57785000Y-81153000D01*
X59590841Y-81153000D01*
X60071000Y-83073634D01*
M02*
