G04 #@! TF.GenerationSoftware,KiCad,Pcbnew,(5.1.5-0-10_14)*
G04 #@! TF.CreationDate,2021-10-06T23:15:31+01:00*
G04 #@! TF.ProjectId,throwie,7468726f-7769-4652-9e6b-696361645f70,rev?*
G04 #@! TF.SameCoordinates,Original*
G04 #@! TF.FileFunction,Soldermask,Bot*
G04 #@! TF.FilePolarity,Negative*
%FSLAX46Y46*%
G04 Gerber Fmt 4.6, Leading zero omitted, Abs format (unit mm)*
G04 Created by KiCad (PCBNEW (5.1.5-0-10_14)) date 2021-10-06 23:15:31*
%MOMM*%
%LPD*%
G04 APERTURE LIST*
%ADD10C,0.100000*%
G04 APERTURE END LIST*
D10*
G36*
X54465708Y-86371837D02*
G01*
X54656977Y-86451063D01*
X54656979Y-86451064D01*
X54829117Y-86566083D01*
X54975509Y-86712475D01*
X55086220Y-86878165D01*
X55090529Y-86884615D01*
X55169755Y-87075884D01*
X55210144Y-87278932D01*
X55210144Y-87485964D01*
X55169755Y-87689012D01*
X55093200Y-87873833D01*
X55090528Y-87880283D01*
X54975509Y-88052421D01*
X54829117Y-88198813D01*
X54656979Y-88313832D01*
X54656978Y-88313833D01*
X54656977Y-88313833D01*
X54465708Y-88393059D01*
X54262660Y-88433448D01*
X54055628Y-88433448D01*
X53852580Y-88393059D01*
X53661311Y-88313833D01*
X53661310Y-88313833D01*
X53661309Y-88313832D01*
X53489171Y-88198813D01*
X53342779Y-88052421D01*
X53227760Y-87880283D01*
X53225088Y-87873833D01*
X53148533Y-87689012D01*
X53108144Y-87485964D01*
X53108144Y-87278932D01*
X53148533Y-87075884D01*
X53227759Y-86884615D01*
X53232069Y-86878165D01*
X53342779Y-86712475D01*
X53489171Y-86566083D01*
X53661309Y-86451064D01*
X53661311Y-86451063D01*
X53852580Y-86371837D01*
X54055628Y-86331448D01*
X54262660Y-86331448D01*
X54465708Y-86371837D01*
G37*
G36*
X64314564Y-86365389D02*
G01*
X64505833Y-86444615D01*
X64505835Y-86444616D01*
X64515485Y-86451064D01*
X64677973Y-86559635D01*
X64824365Y-86706027D01*
X64939385Y-86878167D01*
X65018611Y-87069436D01*
X65059000Y-87272484D01*
X65059000Y-87479516D01*
X65018611Y-87682564D01*
X64939385Y-87873833D01*
X64939384Y-87873835D01*
X64824365Y-88045973D01*
X64677973Y-88192365D01*
X64505835Y-88307384D01*
X64505834Y-88307385D01*
X64505833Y-88307385D01*
X64314564Y-88386611D01*
X64111516Y-88427000D01*
X63904484Y-88427000D01*
X63701436Y-88386611D01*
X63510167Y-88307385D01*
X63510166Y-88307385D01*
X63510165Y-88307384D01*
X63338027Y-88192365D01*
X63191635Y-88045973D01*
X63076616Y-87873835D01*
X63076615Y-87873833D01*
X62997389Y-87682564D01*
X62957000Y-87479516D01*
X62957000Y-87272484D01*
X62997389Y-87069436D01*
X63076615Y-86878167D01*
X63191635Y-86706027D01*
X63338027Y-86559635D01*
X63500515Y-86451064D01*
X63510165Y-86444616D01*
X63510167Y-86444615D01*
X63701436Y-86365389D01*
X63904484Y-86325000D01*
X64111516Y-86325000D01*
X64314564Y-86365389D01*
G37*
G36*
X53646564Y-83063389D02*
G01*
X53837833Y-83142615D01*
X53837835Y-83142616D01*
X54009973Y-83257635D01*
X54156365Y-83404027D01*
X54271385Y-83576167D01*
X54350611Y-83767436D01*
X54391000Y-83970484D01*
X54391000Y-84177516D01*
X54350611Y-84380564D01*
X54302222Y-84497385D01*
X54271384Y-84571835D01*
X54156365Y-84743973D01*
X54009973Y-84890365D01*
X53837835Y-85005384D01*
X53837834Y-85005385D01*
X53837833Y-85005385D01*
X53646564Y-85084611D01*
X53443516Y-85125000D01*
X53236484Y-85125000D01*
X53033436Y-85084611D01*
X52842167Y-85005385D01*
X52842166Y-85005385D01*
X52842165Y-85005384D01*
X52670027Y-84890365D01*
X52523635Y-84743973D01*
X52408616Y-84571835D01*
X52377778Y-84497385D01*
X52329389Y-84380564D01*
X52289000Y-84177516D01*
X52289000Y-83970484D01*
X52329389Y-83767436D01*
X52408615Y-83576167D01*
X52523635Y-83404027D01*
X52670027Y-83257635D01*
X52842165Y-83142616D01*
X52842167Y-83142615D01*
X53033436Y-83063389D01*
X53236484Y-83023000D01*
X53443516Y-83023000D01*
X53646564Y-83063389D01*
G37*
G36*
X59234564Y-82555389D02*
G01*
X59390218Y-82619863D01*
X59425835Y-82634616D01*
X59597973Y-82749635D01*
X59744365Y-82896027D01*
X59856193Y-83063389D01*
X59859385Y-83068167D01*
X59938611Y-83259436D01*
X59979000Y-83462484D01*
X59979000Y-83669516D01*
X59938611Y-83872564D01*
X59898051Y-83970484D01*
X59859384Y-84063835D01*
X59744365Y-84235973D01*
X59597973Y-84382365D01*
X59425835Y-84497384D01*
X59425834Y-84497385D01*
X59425833Y-84497385D01*
X59234564Y-84576611D01*
X59031516Y-84617000D01*
X58824484Y-84617000D01*
X58621436Y-84576611D01*
X58430167Y-84497385D01*
X58430166Y-84497385D01*
X58430165Y-84497384D01*
X58258027Y-84382365D01*
X58111635Y-84235973D01*
X57996616Y-84063835D01*
X57957949Y-83970484D01*
X57917389Y-83872564D01*
X57877000Y-83669516D01*
X57877000Y-83462484D01*
X57917389Y-83259436D01*
X57996615Y-83068167D01*
X57999808Y-83063389D01*
X58111635Y-82896027D01*
X58258027Y-82749635D01*
X58430165Y-82634616D01*
X58465782Y-82619863D01*
X58621436Y-82555389D01*
X58824484Y-82515000D01*
X59031516Y-82515000D01*
X59234564Y-82555389D01*
G37*
G36*
X65403487Y-81496996D02*
G01*
X65640253Y-81595068D01*
X65640255Y-81595069D01*
X65853339Y-81737447D01*
X66034553Y-81918661D01*
X66140352Y-82077000D01*
X66176932Y-82131747D01*
X66275004Y-82368513D01*
X66325000Y-82619861D01*
X66325000Y-82876139D01*
X66275004Y-83127487D01*
X66176932Y-83364253D01*
X66176931Y-83364255D01*
X66034553Y-83577339D01*
X65853339Y-83758553D01*
X65640255Y-83900931D01*
X65640254Y-83900932D01*
X65640253Y-83900932D01*
X65403487Y-83999004D01*
X65152139Y-84049000D01*
X64895861Y-84049000D01*
X64644513Y-83999004D01*
X64407747Y-83900932D01*
X64407746Y-83900932D01*
X64407745Y-83900931D01*
X64194661Y-83758553D01*
X64013447Y-83577339D01*
X63871069Y-83364255D01*
X63871068Y-83364253D01*
X63772996Y-83127487D01*
X63723000Y-82876139D01*
X63723000Y-82619861D01*
X63772996Y-82368513D01*
X63871068Y-82131747D01*
X63907649Y-82077000D01*
X64013447Y-81918661D01*
X64194661Y-81737447D01*
X64407745Y-81595069D01*
X64407747Y-81595068D01*
X64644513Y-81496996D01*
X64895861Y-81447000D01*
X65152139Y-81447000D01*
X65403487Y-81496996D01*
G37*
G36*
X61774564Y-80015389D02*
G01*
X61941932Y-80084715D01*
X61965835Y-80094616D01*
X62137973Y-80209635D01*
X62284365Y-80356027D01*
X62379899Y-80499003D01*
X62399385Y-80528167D01*
X62478611Y-80719436D01*
X62519000Y-80922484D01*
X62519000Y-81129516D01*
X62478611Y-81332564D01*
X62431210Y-81447000D01*
X62399384Y-81523835D01*
X62284365Y-81695973D01*
X62137973Y-81842365D01*
X61965835Y-81957384D01*
X61965834Y-81957385D01*
X61965833Y-81957385D01*
X61774564Y-82036611D01*
X61571516Y-82077000D01*
X61364484Y-82077000D01*
X61161436Y-82036611D01*
X60970167Y-81957385D01*
X60970166Y-81957385D01*
X60970165Y-81957384D01*
X60798027Y-81842365D01*
X60651635Y-81695973D01*
X60536616Y-81523835D01*
X60504790Y-81447000D01*
X60457389Y-81332564D01*
X60417000Y-81129516D01*
X60417000Y-80922484D01*
X60457389Y-80719436D01*
X60536615Y-80528167D01*
X60556102Y-80499003D01*
X60651635Y-80356027D01*
X60798027Y-80209635D01*
X60970165Y-80094616D01*
X60994068Y-80084715D01*
X61161436Y-80015389D01*
X61364484Y-79975000D01*
X61571516Y-79975000D01*
X61774564Y-80015389D01*
G37*
G36*
X56694564Y-80015389D02*
G01*
X56861932Y-80084715D01*
X56885835Y-80094616D01*
X57057973Y-80209635D01*
X57204365Y-80356027D01*
X57299899Y-80499003D01*
X57319385Y-80528167D01*
X57398611Y-80719436D01*
X57439000Y-80922484D01*
X57439000Y-81129516D01*
X57398611Y-81332564D01*
X57351210Y-81447000D01*
X57319384Y-81523835D01*
X57204365Y-81695973D01*
X57057973Y-81842365D01*
X56885835Y-81957384D01*
X56885834Y-81957385D01*
X56885833Y-81957385D01*
X56694564Y-82036611D01*
X56491516Y-82077000D01*
X56284484Y-82077000D01*
X56081436Y-82036611D01*
X55890167Y-81957385D01*
X55890166Y-81957385D01*
X55890165Y-81957384D01*
X55718027Y-81842365D01*
X55571635Y-81695973D01*
X55456616Y-81523835D01*
X55424790Y-81447000D01*
X55377389Y-81332564D01*
X55337000Y-81129516D01*
X55337000Y-80922484D01*
X55377389Y-80719436D01*
X55456615Y-80528167D01*
X55476102Y-80499003D01*
X55571635Y-80356027D01*
X55718027Y-80209635D01*
X55890165Y-80094616D01*
X55914068Y-80084715D01*
X56081436Y-80015389D01*
X56284484Y-79975000D01*
X56491516Y-79975000D01*
X56694564Y-80015389D01*
G37*
G36*
X65403487Y-77996996D02*
G01*
X65640253Y-78095068D01*
X65640255Y-78095069D01*
X65853339Y-78237447D01*
X66034553Y-78418661D01*
X66139865Y-78576271D01*
X66176932Y-78631747D01*
X66275004Y-78868513D01*
X66325000Y-79119861D01*
X66325000Y-79376139D01*
X66275004Y-79627487D01*
X66176932Y-79864253D01*
X66176931Y-79864255D01*
X66034553Y-80077339D01*
X65853339Y-80258553D01*
X65640255Y-80400931D01*
X65640254Y-80400932D01*
X65640253Y-80400932D01*
X65403487Y-80499004D01*
X65152139Y-80549000D01*
X64895861Y-80549000D01*
X64644513Y-80499004D01*
X64407747Y-80400932D01*
X64407746Y-80400932D01*
X64407745Y-80400931D01*
X64194661Y-80258553D01*
X64013447Y-80077339D01*
X63871069Y-79864255D01*
X63871068Y-79864253D01*
X63772996Y-79627487D01*
X63723000Y-79376139D01*
X63723000Y-79119861D01*
X63772996Y-78868513D01*
X63871068Y-78631747D01*
X63908136Y-78576271D01*
X64013447Y-78418661D01*
X64194661Y-78237447D01*
X64407745Y-78095069D01*
X64407747Y-78095068D01*
X64644513Y-77996996D01*
X64895861Y-77947000D01*
X65152139Y-77947000D01*
X65403487Y-77996996D01*
G37*
G36*
X53614285Y-78063493D02*
G01*
X53805554Y-78142719D01*
X53805556Y-78142720D01*
X53947325Y-78237447D01*
X53977694Y-78257739D01*
X54124086Y-78404131D01*
X54239106Y-78576271D01*
X54318332Y-78767540D01*
X54358721Y-78970588D01*
X54358721Y-79177620D01*
X54318332Y-79380668D01*
X54239106Y-79571937D01*
X54239105Y-79571939D01*
X54124086Y-79744077D01*
X53977694Y-79890469D01*
X53805556Y-80005488D01*
X53805555Y-80005489D01*
X53805554Y-80005489D01*
X53614285Y-80084715D01*
X53411237Y-80125104D01*
X53204205Y-80125104D01*
X53001157Y-80084715D01*
X52809888Y-80005489D01*
X52809887Y-80005489D01*
X52809886Y-80005488D01*
X52637748Y-79890469D01*
X52491356Y-79744077D01*
X52376337Y-79571939D01*
X52376336Y-79571937D01*
X52297110Y-79380668D01*
X52256721Y-79177620D01*
X52256721Y-78970588D01*
X52297110Y-78767540D01*
X52376336Y-78576271D01*
X52491356Y-78404131D01*
X52637748Y-78257739D01*
X52668117Y-78237447D01*
X52809886Y-78142720D01*
X52809888Y-78142719D01*
X53001157Y-78063493D01*
X53204205Y-78023104D01*
X53411237Y-78023104D01*
X53614285Y-78063493D01*
G37*
G36*
X65909000Y-77513000D02*
G01*
X65107000Y-77513000D01*
X65107000Y-76411000D01*
X65909000Y-76411000D01*
X65909000Y-77513000D01*
G37*
G36*
X64409000Y-77513000D02*
G01*
X63607000Y-77513000D01*
X63607000Y-76411000D01*
X64409000Y-76411000D01*
X64409000Y-77513000D01*
G37*
G36*
X63893000Y-76001000D02*
G01*
X56391000Y-76001000D01*
X56391000Y-74299000D01*
X63893000Y-74299000D01*
X63893000Y-76001000D01*
G37*
G36*
X65584564Y-73665389D02*
G01*
X65775833Y-73744615D01*
X65775835Y-73744616D01*
X65947973Y-73859635D01*
X66094365Y-74006027D01*
X66209385Y-74178167D01*
X66288611Y-74369436D01*
X66329000Y-74572484D01*
X66329000Y-74779516D01*
X66288611Y-74982564D01*
X66209385Y-75173833D01*
X66209384Y-75173835D01*
X66094365Y-75345973D01*
X65947973Y-75492365D01*
X65775835Y-75607384D01*
X65775834Y-75607385D01*
X65775833Y-75607385D01*
X65584564Y-75686611D01*
X65381516Y-75727000D01*
X65174484Y-75727000D01*
X64971436Y-75686611D01*
X64780167Y-75607385D01*
X64780166Y-75607385D01*
X64780165Y-75607384D01*
X64608027Y-75492365D01*
X64461635Y-75345973D01*
X64346616Y-75173835D01*
X64346615Y-75173833D01*
X64267389Y-74982564D01*
X64227000Y-74779516D01*
X64227000Y-74572484D01*
X64267389Y-74369436D01*
X64346615Y-74178167D01*
X64461635Y-74006027D01*
X64608027Y-73859635D01*
X64780165Y-73744616D01*
X64780167Y-73744615D01*
X64971436Y-73665389D01*
X65174484Y-73625000D01*
X65381516Y-73625000D01*
X65584564Y-73665389D01*
G37*
G36*
X65829000Y-73299000D02*
G01*
X64727000Y-73299000D01*
X64727000Y-72497000D01*
X65829000Y-72497000D01*
X65829000Y-73299000D01*
G37*
G36*
X65829000Y-71799000D02*
G01*
X64727000Y-71799000D01*
X64727000Y-70997000D01*
X65829000Y-70997000D01*
X65829000Y-71799000D01*
G37*
G36*
X63878000Y-70701000D02*
G01*
X56391000Y-70701000D01*
X56391000Y-68999000D01*
X63878000Y-68999000D01*
X63878000Y-70701000D01*
G37*
G36*
X65584564Y-67569389D02*
G01*
X65775833Y-67648615D01*
X65775835Y-67648616D01*
X65947973Y-67763635D01*
X66094365Y-67910027D01*
X66209385Y-68082167D01*
X66288611Y-68273436D01*
X66329000Y-68476484D01*
X66329000Y-68683516D01*
X66288611Y-68886564D01*
X66209385Y-69077833D01*
X66209384Y-69077835D01*
X66094365Y-69249973D01*
X65947973Y-69396365D01*
X65775835Y-69511384D01*
X65775834Y-69511385D01*
X65775833Y-69511385D01*
X65584564Y-69590611D01*
X65381516Y-69631000D01*
X65174484Y-69631000D01*
X64971436Y-69590611D01*
X64780167Y-69511385D01*
X64780166Y-69511385D01*
X64780165Y-69511384D01*
X64608027Y-69396365D01*
X64461635Y-69249973D01*
X64346616Y-69077835D01*
X64346615Y-69077833D01*
X64267389Y-68886564D01*
X64227000Y-68683516D01*
X64227000Y-68476484D01*
X64267389Y-68273436D01*
X64346615Y-68082167D01*
X64461635Y-67910027D01*
X64608027Y-67763635D01*
X64780165Y-67648616D01*
X64780167Y-67648615D01*
X64971436Y-67569389D01*
X65174484Y-67529000D01*
X65381516Y-67529000D01*
X65584564Y-67569389D01*
G37*
G36*
X59099000Y-68623000D02*
G01*
X58297000Y-68623000D01*
X58297000Y-67521000D01*
X59099000Y-67521000D01*
X59099000Y-68623000D01*
G37*
G36*
X60599000Y-68623000D02*
G01*
X59797000Y-68623000D01*
X59797000Y-67521000D01*
X60599000Y-67521000D01*
X60599000Y-68623000D01*
G37*
M02*
