G04 #@! TF.GenerationSoftware,KiCad,Pcbnew,5.1.5+dfsg1-2build2*
G04 #@! TF.CreationDate,2022-03-31T21:51:16+01:00*
G04 #@! TF.ProjectId,throwie,7468726f-7769-4652-9e6b-696361645f70,rev?*
G04 #@! TF.SameCoordinates,Original*
G04 #@! TF.FileFunction,Legend,Bot*
G04 #@! TF.FilePolarity,Positive*
%FSLAX46Y46*%
G04 Gerber Fmt 4.6, Leading zero omitted, Abs format (unit mm)*
G04 Created by KiCad (PCBNEW 5.1.5+dfsg1-2build2) date 2022-03-31 21:51:16*
%MOMM*%
%LPD*%
G04 APERTURE LIST*
%ADD10C,0.150000*%
%ADD11C,0.120000*%
%ADD12C,0.200000*%
G04 APERTURE END LIST*
D10*
X45976563Y-162473900D02*
X46167040Y-162473900D01*
X46262278Y-162426281D01*
X46309897Y-162378662D01*
X46405135Y-162235805D01*
X46452754Y-162045329D01*
X46452754Y-161664377D01*
X46405135Y-161569139D01*
X46357516Y-161521520D01*
X46262278Y-161473900D01*
X46071801Y-161473900D01*
X45976563Y-161521520D01*
X45928944Y-161569139D01*
X45881325Y-161664377D01*
X45881325Y-161902472D01*
X45928944Y-161997710D01*
X45976563Y-162045329D01*
X46071801Y-162092948D01*
X46262278Y-162092948D01*
X46357516Y-162045329D01*
X46405135Y-161997710D01*
X46452754Y-161902472D01*
D11*
X48377120Y-153434160D02*
X49577120Y-153434160D01*
X48377120Y-156334160D02*
X49577120Y-156334160D01*
X49577120Y-154334160D02*
X49577120Y-155434160D01*
D12*
X50076000Y-151292000D02*
X50076000Y-152492000D01*
X25054000Y-158712000D02*
X26254000Y-158712000D01*
X50762000Y-159096000D02*
X50762000Y-157896000D01*
X45198000Y-159096000D02*
X45198000Y-157896000D01*
X22006000Y-156704000D02*
X23206000Y-156704000D01*
D11*
X24622000Y-150156000D02*
X24622000Y-147156000D01*
X28432000Y-152696000D02*
X28432000Y-149696000D01*
D12*
X48930000Y-157696000D02*
X50130000Y-157696000D01*
X32042000Y-147228000D02*
X32042000Y-148428000D01*
X38954000Y-150660000D02*
X37754000Y-150660000D01*
X51724000Y-152640000D02*
X52924000Y-152640000D01*
X46066000Y-156756000D02*
X44866000Y-156756000D01*
D10*
X47196285Y-145962666D02*
X46720095Y-145962666D01*
X47291523Y-146248380D02*
X46958190Y-145248380D01*
X46624857Y-146248380D01*
X45767714Y-146248380D02*
X46339142Y-146248380D01*
X46053428Y-146248380D02*
X46053428Y-145248380D01*
X46148666Y-145391238D01*
X46243904Y-145486476D01*
X46339142Y-145534095D01*
X51220666Y-151328380D02*
X51554000Y-150852190D01*
X51792095Y-151328380D02*
X51792095Y-150328380D01*
X51411142Y-150328380D01*
X51315904Y-150376000D01*
X51268285Y-150423619D01*
X51220666Y-150518857D01*
X51220666Y-150661714D01*
X51268285Y-150756952D01*
X51315904Y-150804571D01*
X51411142Y-150852190D01*
X51792095Y-150852190D01*
X50315904Y-150328380D02*
X50792095Y-150328380D01*
X50839714Y-150804571D01*
X50792095Y-150756952D01*
X50696857Y-150709333D01*
X50458761Y-150709333D01*
X50363523Y-150756952D01*
X50315904Y-150804571D01*
X50268285Y-150899809D01*
X50268285Y-151137904D01*
X50315904Y-151233142D01*
X50363523Y-151280761D01*
X50458761Y-151328380D01*
X50696857Y-151328380D01*
X50792095Y-151280761D01*
X50839714Y-151233142D01*
X25820666Y-158186380D02*
X26154000Y-157710190D01*
X26392095Y-158186380D02*
X26392095Y-157186380D01*
X26011142Y-157186380D01*
X25915904Y-157234000D01*
X25868285Y-157281619D01*
X25820666Y-157376857D01*
X25820666Y-157519714D01*
X25868285Y-157614952D01*
X25915904Y-157662571D01*
X26011142Y-157710190D01*
X26392095Y-157710190D01*
X24963523Y-157519714D02*
X24963523Y-158186380D01*
X25201619Y-157138761D02*
X25439714Y-157853047D01*
X24820666Y-157853047D01*
X52998666Y-160726380D02*
X53332000Y-160250190D01*
X53570095Y-160726380D02*
X53570095Y-159726380D01*
X53189142Y-159726380D01*
X53093904Y-159774000D01*
X53046285Y-159821619D01*
X52998666Y-159916857D01*
X52998666Y-160059714D01*
X53046285Y-160154952D01*
X53093904Y-160202571D01*
X53189142Y-160250190D01*
X53570095Y-160250190D01*
X52665333Y-159726380D02*
X52046285Y-159726380D01*
X52379619Y-160107333D01*
X52236761Y-160107333D01*
X52141523Y-160154952D01*
X52093904Y-160202571D01*
X52046285Y-160297809D01*
X52046285Y-160535904D01*
X52093904Y-160631142D01*
X52141523Y-160678761D01*
X52236761Y-160726380D01*
X52522476Y-160726380D01*
X52617714Y-160678761D01*
X52665333Y-160631142D01*
X46902666Y-160726380D02*
X47236000Y-160250190D01*
X47474095Y-160726380D02*
X47474095Y-159726380D01*
X47093142Y-159726380D01*
X46997904Y-159774000D01*
X46950285Y-159821619D01*
X46902666Y-159916857D01*
X46902666Y-160059714D01*
X46950285Y-160154952D01*
X46997904Y-160202571D01*
X47093142Y-160250190D01*
X47474095Y-160250190D01*
X46521714Y-159821619D02*
X46474095Y-159774000D01*
X46378857Y-159726380D01*
X46140761Y-159726380D01*
X46045523Y-159774000D01*
X45997904Y-159821619D01*
X45950285Y-159916857D01*
X45950285Y-160012095D01*
X45997904Y-160154952D01*
X46569333Y-160726380D01*
X45950285Y-160726380D01*
X22518666Y-155900380D02*
X22852000Y-155424190D01*
X23090095Y-155900380D02*
X23090095Y-154900380D01*
X22709142Y-154900380D01*
X22613904Y-154948000D01*
X22566285Y-154995619D01*
X22518666Y-155090857D01*
X22518666Y-155233714D01*
X22566285Y-155328952D01*
X22613904Y-155376571D01*
X22709142Y-155424190D01*
X23090095Y-155424190D01*
X21566285Y-155900380D02*
X22137714Y-155900380D01*
X21852000Y-155900380D02*
X21852000Y-154900380D01*
X21947238Y-155043238D01*
X22042476Y-155138476D01*
X22137714Y-155186095D01*
X49696666Y-161901142D02*
X49744285Y-161948761D01*
X49887142Y-161996380D01*
X49982380Y-161996380D01*
X50125238Y-161948761D01*
X50220476Y-161853523D01*
X50268095Y-161758285D01*
X50315714Y-161567809D01*
X50315714Y-161424952D01*
X50268095Y-161234476D01*
X50220476Y-161139238D01*
X50125238Y-161044000D01*
X49982380Y-160996380D01*
X49887142Y-160996380D01*
X49744285Y-161044000D01*
X49696666Y-161091619D01*
X48839523Y-160996380D02*
X49030000Y-160996380D01*
X49125238Y-161044000D01*
X49172857Y-161091619D01*
X49268095Y-161234476D01*
X49315714Y-161424952D01*
X49315714Y-161805904D01*
X49268095Y-161901142D01*
X49220476Y-161948761D01*
X49125238Y-161996380D01*
X48934761Y-161996380D01*
X48839523Y-161948761D01*
X48791904Y-161901142D01*
X48744285Y-161805904D01*
X48744285Y-161567809D01*
X48791904Y-161472571D01*
X48839523Y-161424952D01*
X48934761Y-161377333D01*
X49125238Y-161377333D01*
X49220476Y-161424952D01*
X49268095Y-161472571D01*
X49315714Y-161567809D01*
X30646666Y-146407142D02*
X30694285Y-146454761D01*
X30837142Y-146502380D01*
X30932380Y-146502380D01*
X31075238Y-146454761D01*
X31170476Y-146359523D01*
X31218095Y-146264285D01*
X31265714Y-146073809D01*
X31265714Y-145930952D01*
X31218095Y-145740476D01*
X31170476Y-145645238D01*
X31075238Y-145550000D01*
X30932380Y-145502380D01*
X30837142Y-145502380D01*
X30694285Y-145550000D01*
X30646666Y-145597619D01*
X29789523Y-145835714D02*
X29789523Y-146502380D01*
X30027619Y-145454761D02*
X30265714Y-146169047D01*
X29646666Y-146169047D01*
X40552666Y-150979142D02*
X40600285Y-151026761D01*
X40743142Y-151074380D01*
X40838380Y-151074380D01*
X40981238Y-151026761D01*
X41076476Y-150931523D01*
X41124095Y-150836285D01*
X41171714Y-150645809D01*
X41171714Y-150502952D01*
X41124095Y-150312476D01*
X41076476Y-150217238D01*
X40981238Y-150122000D01*
X40838380Y-150074380D01*
X40743142Y-150074380D01*
X40600285Y-150122000D01*
X40552666Y-150169619D01*
X40219333Y-150074380D02*
X39600285Y-150074380D01*
X39933619Y-150455333D01*
X39790761Y-150455333D01*
X39695523Y-150502952D01*
X39647904Y-150550571D01*
X39600285Y-150645809D01*
X39600285Y-150883904D01*
X39647904Y-150979142D01*
X39695523Y-151026761D01*
X39790761Y-151074380D01*
X40076476Y-151074380D01*
X40171714Y-151026761D01*
X40219333Y-150979142D01*
X53252666Y-152249142D02*
X53300285Y-152296761D01*
X53443142Y-152344380D01*
X53538380Y-152344380D01*
X53681238Y-152296761D01*
X53776476Y-152201523D01*
X53824095Y-152106285D01*
X53871714Y-151915809D01*
X53871714Y-151772952D01*
X53824095Y-151582476D01*
X53776476Y-151487238D01*
X53681238Y-151392000D01*
X53538380Y-151344380D01*
X53443142Y-151344380D01*
X53300285Y-151392000D01*
X53252666Y-151439619D01*
X52871714Y-151439619D02*
X52824095Y-151392000D01*
X52728857Y-151344380D01*
X52490761Y-151344380D01*
X52395523Y-151392000D01*
X52347904Y-151439619D01*
X52300285Y-151534857D01*
X52300285Y-151630095D01*
X52347904Y-151772952D01*
X52919333Y-152344380D01*
X52300285Y-152344380D01*
X43632666Y-156313142D02*
X43680285Y-156360761D01*
X43823142Y-156408380D01*
X43918380Y-156408380D01*
X44061238Y-156360761D01*
X44156476Y-156265523D01*
X44204095Y-156170285D01*
X44251714Y-155979809D01*
X44251714Y-155836952D01*
X44204095Y-155646476D01*
X44156476Y-155551238D01*
X44061238Y-155456000D01*
X43918380Y-155408380D01*
X43823142Y-155408380D01*
X43680285Y-155456000D01*
X43632666Y-155503619D01*
X42680285Y-156408380D02*
X43251714Y-156408380D01*
X42966000Y-156408380D02*
X42966000Y-155408380D01*
X43061238Y-155551238D01*
X43156476Y-155646476D01*
X43251714Y-155694095D01*
M02*
