G04 #@! TF.GenerationSoftware,KiCad,Pcbnew,5.1.5+dfsg1-2build2*
G04 #@! TF.CreationDate,2022-03-31T22:10:03+01:00*
G04 #@! TF.ProjectId,throwie,7468726f-7769-4652-9e6b-696361645f70,rev?*
G04 #@! TF.SameCoordinates,Original*
G04 #@! TF.FileFunction,Legend,Top*
G04 #@! TF.FilePolarity,Positive*
%FSLAX46Y46*%
G04 Gerber Fmt 4.6, Leading zero omitted, Abs format (unit mm)*
G04 Created by KiCad (PCBNEW 5.1.5+dfsg1-2build2) date 2022-03-31 22:10:03*
%MOMM*%
%LPD*%
G04 APERTURE LIST*
%ADD10C,0.150000*%
%ADD11C,0.120000*%
%ADD12C,0.100000*%
%ADD13C,0.200000*%
G04 APERTURE END LIST*
D10*
X24034761Y-159392952D02*
X23939523Y-159345333D01*
X23891904Y-159297714D01*
X23844285Y-159202476D01*
X23844285Y-159154857D01*
X23891904Y-159059619D01*
X23939523Y-159012000D01*
X24034761Y-158964380D01*
X24225238Y-158964380D01*
X24320476Y-159012000D01*
X24368095Y-159059619D01*
X24415714Y-159154857D01*
X24415714Y-159202476D01*
X24368095Y-159297714D01*
X24320476Y-159345333D01*
X24225238Y-159392952D01*
X24034761Y-159392952D01*
X23939523Y-159440571D01*
X23891904Y-159488190D01*
X23844285Y-159583428D01*
X23844285Y-159773904D01*
X23891904Y-159869142D01*
X23939523Y-159916761D01*
X24034761Y-159964380D01*
X24225238Y-159964380D01*
X24320476Y-159916761D01*
X24368095Y-159869142D01*
X24415714Y-159773904D01*
X24415714Y-159583428D01*
X24368095Y-159488190D01*
X24320476Y-159440571D01*
X24225238Y-159392952D01*
X44386476Y-161758380D02*
X44196000Y-161758380D01*
X44100761Y-161806000D01*
X44053142Y-161853619D01*
X43957904Y-161996476D01*
X43910285Y-162186952D01*
X43910285Y-162567904D01*
X43957904Y-162663142D01*
X44005523Y-162710761D01*
X44100761Y-162758380D01*
X44291238Y-162758380D01*
X44386476Y-162710761D01*
X44434095Y-162663142D01*
X44481714Y-162567904D01*
X44481714Y-162329809D01*
X44434095Y-162234571D01*
X44386476Y-162186952D01*
X44291238Y-162139333D01*
X44100761Y-162139333D01*
X44005523Y-162186952D01*
X43957904Y-162234571D01*
X43910285Y-162329809D01*
X53260666Y-149312380D02*
X53927333Y-149312380D01*
X53498761Y-150312380D01*
X39322380Y-148804380D02*
X39417619Y-148804380D01*
X39512857Y-148852000D01*
X39560476Y-148899619D01*
X39608095Y-148994857D01*
X39655714Y-149185333D01*
X39655714Y-149423428D01*
X39608095Y-149613904D01*
X39560476Y-149709142D01*
X39512857Y-149756761D01*
X39417619Y-149804380D01*
X39322380Y-149804380D01*
X39227142Y-149756761D01*
X39179523Y-149709142D01*
X39131904Y-149613904D01*
X39084285Y-149423428D01*
X39084285Y-149185333D01*
X39131904Y-148994857D01*
X39179523Y-148899619D01*
X39227142Y-148852000D01*
X39322380Y-148804380D01*
X39608095Y-151344380D02*
X39131904Y-151344380D01*
X39084285Y-151820571D01*
X39131904Y-151772952D01*
X39227142Y-151725333D01*
X39465238Y-151725333D01*
X39560476Y-151772952D01*
X39608095Y-151820571D01*
X39655714Y-151915809D01*
X39655714Y-152153904D01*
X39608095Y-152249142D01*
X39560476Y-152296761D01*
X39465238Y-152344380D01*
X39227142Y-152344380D01*
X39131904Y-152296761D01*
X39084285Y-152249142D01*
X27582952Y-145962666D02*
X28059142Y-145962666D01*
X27487714Y-146248380D02*
X27821047Y-145248380D01*
X28154380Y-146248380D01*
X28773428Y-145248380D02*
X28773428Y-145962666D01*
X28725809Y-146105523D01*
X28630571Y-146200761D01*
X28487714Y-146248380D01*
X28392476Y-146248380D01*
X29821047Y-146248380D02*
X29487714Y-145772190D01*
X29249619Y-146248380D02*
X29249619Y-145248380D01*
X29630571Y-145248380D01*
X29725809Y-145296000D01*
X29773428Y-145343619D01*
X29821047Y-145438857D01*
X29821047Y-145581714D01*
X29773428Y-145676952D01*
X29725809Y-145724571D01*
X29630571Y-145772190D01*
X29249619Y-145772190D01*
X33163047Y-146248380D02*
X32829714Y-145772190D01*
X32591619Y-146248380D02*
X32591619Y-145248380D01*
X32972571Y-145248380D01*
X33067809Y-145296000D01*
X33115428Y-145343619D01*
X33163047Y-145438857D01*
X33163047Y-145581714D01*
X33115428Y-145676952D01*
X33067809Y-145724571D01*
X32972571Y-145772190D01*
X32591619Y-145772190D01*
X33972571Y-146200761D02*
X33877333Y-146248380D01*
X33686857Y-146248380D01*
X33591619Y-146200761D01*
X33544000Y-146105523D01*
X33544000Y-145724571D01*
X33591619Y-145629333D01*
X33686857Y-145581714D01*
X33877333Y-145581714D01*
X33972571Y-145629333D01*
X34020190Y-145724571D01*
X34020190Y-145819809D01*
X33544000Y-145915047D01*
X34353523Y-145581714D02*
X34591619Y-146248380D01*
X34829714Y-145581714D01*
X36544000Y-146153142D02*
X36496380Y-146200761D01*
X36353523Y-146248380D01*
X36258285Y-146248380D01*
X36115428Y-146200761D01*
X36020190Y-146105523D01*
X35972571Y-146010285D01*
X35924952Y-145819809D01*
X35924952Y-145676952D01*
X35972571Y-145486476D01*
X36020190Y-145391238D01*
X36115428Y-145296000D01*
X36258285Y-145248380D01*
X36353523Y-145248380D01*
X36496380Y-145296000D01*
X36544000Y-145343619D01*
D11*
X36576000Y-152400000D02*
X38354000Y-154178000D01*
X37084000Y-151892000D02*
X38862000Y-153670000D01*
X36576000Y-155702000D02*
X39370000Y-159766000D01*
X36068000Y-156210000D02*
X38862000Y-160274000D01*
X27808248Y-152050103D02*
G75*
G02X28448000Y-153416000I-1138248J-1365897D01*
G01*
D10*
X43355047Y-149296380D02*
X43355047Y-148296380D01*
X43688380Y-149010666D01*
X44021714Y-148296380D01*
X44021714Y-149296380D01*
X44926476Y-149296380D02*
X44926476Y-148772571D01*
X44878857Y-148677333D01*
X44783619Y-148629714D01*
X44593142Y-148629714D01*
X44497904Y-148677333D01*
X44926476Y-149248761D02*
X44831238Y-149296380D01*
X44593142Y-149296380D01*
X44497904Y-149248761D01*
X44450285Y-149153523D01*
X44450285Y-149058285D01*
X44497904Y-148963047D01*
X44593142Y-148915428D01*
X44831238Y-148915428D01*
X44926476Y-148867809D01*
X45402666Y-149296380D02*
X45402666Y-148629714D01*
X45402666Y-148820190D02*
X45450285Y-148724952D01*
X45497904Y-148677333D01*
X45593142Y-148629714D01*
X45688380Y-148629714D01*
X46736000Y-148391619D02*
X46783619Y-148344000D01*
X46878857Y-148296380D01*
X47116952Y-148296380D01*
X47212190Y-148344000D01*
X47259809Y-148391619D01*
X47307428Y-148486857D01*
X47307428Y-148582095D01*
X47259809Y-148724952D01*
X46688380Y-149296380D01*
X47307428Y-149296380D01*
X47926476Y-148296380D02*
X48021714Y-148296380D01*
X48116952Y-148344000D01*
X48164571Y-148391619D01*
X48212190Y-148486857D01*
X48259809Y-148677333D01*
X48259809Y-148915428D01*
X48212190Y-149105904D01*
X48164571Y-149201142D01*
X48116952Y-149248761D01*
X48021714Y-149296380D01*
X47926476Y-149296380D01*
X47831238Y-149248761D01*
X47783619Y-149201142D01*
X47736000Y-149105904D01*
X47688380Y-148915428D01*
X47688380Y-148677333D01*
X47736000Y-148486857D01*
X47783619Y-148391619D01*
X47831238Y-148344000D01*
X47926476Y-148296380D01*
X48640761Y-148391619D02*
X48688380Y-148344000D01*
X48783619Y-148296380D01*
X49021714Y-148296380D01*
X49116952Y-148344000D01*
X49164571Y-148391619D01*
X49212190Y-148486857D01*
X49212190Y-148582095D01*
X49164571Y-148724952D01*
X48593142Y-149296380D01*
X49212190Y-149296380D01*
X49593142Y-148391619D02*
X49640761Y-148344000D01*
X49736000Y-148296380D01*
X49974095Y-148296380D01*
X50069333Y-148344000D01*
X50116952Y-148391619D01*
X50164571Y-148486857D01*
X50164571Y-148582095D01*
X50116952Y-148724952D01*
X49545523Y-149296380D01*
X50164571Y-149296380D01*
X53784476Y-159043714D02*
X53784476Y-159710380D01*
X53546380Y-158662761D02*
X53308285Y-159377047D01*
X53927333Y-159377047D01*
X53260666Y-161758380D02*
X53879714Y-161758380D01*
X53546380Y-162139333D01*
X53689238Y-162139333D01*
X53784476Y-162186952D01*
X53832095Y-162234571D01*
X53879714Y-162329809D01*
X53879714Y-162567904D01*
X53832095Y-162663142D01*
X53784476Y-162710761D01*
X53689238Y-162758380D01*
X53403523Y-162758380D01*
X53308285Y-162710761D01*
X53260666Y-162663142D01*
X50260285Y-161853619D02*
X50307904Y-161806000D01*
X50403142Y-161758380D01*
X50641238Y-161758380D01*
X50736476Y-161806000D01*
X50784095Y-161853619D01*
X50831714Y-161948857D01*
X50831714Y-162044095D01*
X50784095Y-162186952D01*
X50212666Y-162758380D01*
X50831714Y-162758380D01*
X47529714Y-162758380D02*
X46958285Y-162758380D01*
X47244000Y-162758380D02*
X47244000Y-161758380D01*
X47148761Y-161901238D01*
X47053523Y-161996476D01*
X46958285Y-162044095D01*
D12*
G36*
X54102000Y-146812000D02*
G01*
X37592000Y-146812000D01*
X37592000Y-144780000D01*
X54102000Y-144780000D01*
X54102000Y-146812000D01*
G37*
X54102000Y-146812000D02*
X37592000Y-146812000D01*
X37592000Y-144780000D01*
X54102000Y-144780000D01*
X54102000Y-146812000D01*
D11*
X49482274Y-158674000D02*
G75*
G03X49482274Y-158674000I-226274J0D01*
G01*
X48276000Y-149919000D02*
X44976000Y-149919000D01*
X48276000Y-158569000D02*
X44976000Y-158569000D01*
X44976000Y-158569000D02*
X44976000Y-149919000D01*
X48276000Y-158569000D02*
X48276000Y-149919000D01*
D12*
G36*
X32734000Y-155840000D02*
G01*
X32434000Y-156640000D01*
X32034000Y-157540000D01*
X31434000Y-158140000D01*
X30734000Y-158740000D01*
X29934000Y-159240000D01*
X28934000Y-159440000D01*
X28034000Y-159540000D01*
X27234000Y-159440000D01*
X26334000Y-159140000D01*
X25634000Y-158740000D01*
X25234000Y-158440000D01*
X24634000Y-157840000D01*
X24134000Y-157040000D01*
X23734000Y-156240000D01*
X23634000Y-155240000D01*
X23634000Y-154140000D01*
X24034000Y-153040000D01*
X24434000Y-152240000D01*
X25034000Y-151640000D01*
X25634000Y-151140000D01*
X26434000Y-150640000D01*
X27334000Y-150440000D01*
X28134000Y-150340000D01*
X29034000Y-150440000D01*
X29734000Y-150640000D01*
X30534000Y-150940000D01*
X31234000Y-151540000D01*
X31834000Y-152140000D01*
X32134000Y-152640000D01*
X32434000Y-153240000D01*
X32634000Y-153740000D01*
X32734000Y-154440000D01*
X32734000Y-154940000D01*
X32734000Y-155840000D01*
G37*
X32734000Y-155840000D02*
X32434000Y-156640000D01*
X32034000Y-157540000D01*
X31434000Y-158140000D01*
X30734000Y-158740000D01*
X29934000Y-159240000D01*
X28934000Y-159440000D01*
X28034000Y-159540000D01*
X27234000Y-159440000D01*
X26334000Y-159140000D01*
X25634000Y-158740000D01*
X25234000Y-158440000D01*
X24634000Y-157840000D01*
X24134000Y-157040000D01*
X23734000Y-156240000D01*
X23634000Y-155240000D01*
X23634000Y-154140000D01*
X24034000Y-153040000D01*
X24434000Y-152240000D01*
X25034000Y-151640000D01*
X25634000Y-151140000D01*
X26434000Y-150640000D01*
X27334000Y-150440000D01*
X28134000Y-150340000D01*
X29034000Y-150440000D01*
X29734000Y-150640000D01*
X30534000Y-150940000D01*
X31234000Y-151540000D01*
X31834000Y-152140000D01*
X32134000Y-152640000D01*
X32434000Y-153240000D01*
X32634000Y-153740000D01*
X32734000Y-154440000D01*
X32734000Y-154940000D01*
X32734000Y-155840000D01*
D11*
X32844000Y-154940000D02*
G75*
G03X32844000Y-154940000I-4650000J0D01*
G01*
X37258000Y-161636000D02*
X37258000Y-160436000D01*
X36658000Y-161036000D02*
X37858000Y-161036000D01*
D13*
X52670000Y-153656000D02*
X51470000Y-153656000D01*
D10*
X46228095Y-157186380D02*
X46228095Y-157995904D01*
X46275714Y-158091142D01*
X46323333Y-158138761D01*
X46418571Y-158186380D01*
X46609047Y-158186380D01*
X46704285Y-158138761D01*
X46751904Y-158091142D01*
X46799523Y-157995904D01*
X46799523Y-157186380D01*
X47799523Y-158186380D02*
X47228095Y-158186380D01*
X47513809Y-158186380D02*
X47513809Y-157186380D01*
X47418571Y-157329238D01*
X47323333Y-157424476D01*
X47228095Y-157472095D01*
X29486380Y-153349523D02*
X30486380Y-152682857D01*
X29486380Y-152682857D02*
X30486380Y-153349523D01*
X30486380Y-151778095D02*
X30486380Y-152349523D01*
X30486380Y-152063809D02*
X29486380Y-152063809D01*
X29629238Y-152159047D01*
X29724476Y-152254285D01*
X29772095Y-152349523D01*
X52919333Y-151995142D02*
X52871714Y-152042761D01*
X52728857Y-152090380D01*
X52633619Y-152090380D01*
X52490761Y-152042761D01*
X52395523Y-151947523D01*
X52347904Y-151852285D01*
X52300285Y-151661809D01*
X52300285Y-151518952D01*
X52347904Y-151328476D01*
X52395523Y-151233238D01*
X52490761Y-151138000D01*
X52633619Y-151090380D01*
X52728857Y-151090380D01*
X52871714Y-151138000D01*
X52919333Y-151185619D01*
X53824095Y-151090380D02*
X53347904Y-151090380D01*
X53300285Y-151566571D01*
X53347904Y-151518952D01*
X53443142Y-151471333D01*
X53681238Y-151471333D01*
X53776476Y-151518952D01*
X53824095Y-151566571D01*
X53871714Y-151661809D01*
X53871714Y-151899904D01*
X53824095Y-151995142D01*
X53776476Y-152042761D01*
X53681238Y-152090380D01*
X53443142Y-152090380D01*
X53347904Y-152042761D01*
X53300285Y-151995142D01*
M02*
