G04 #@! TF.GenerationSoftware,KiCad,Pcbnew,5.1.5+dfsg1-2build2*
G04 #@! TF.CreationDate,2022-03-31T22:10:03+01:00*
G04 #@! TF.ProjectId,throwie,7468726f-7769-4652-9e6b-696361645f70,rev?*
G04 #@! TF.SameCoordinates,Original*
G04 #@! TF.FileFunction,Soldermask,Top*
G04 #@! TF.FilePolarity,Negative*
%FSLAX46Y46*%
G04 Gerber Fmt 4.6, Leading zero omitted, Abs format (unit mm)*
G04 Created by KiCad (PCBNEW 5.1.5+dfsg1-2build2) date 2022-03-31 22:10:03*
%MOMM*%
%LPD*%
G04 APERTURE LIST*
%ADD10C,0.100000*%
G04 APERTURE END LIST*
D10*
G36*
X40168387Y-160073029D02*
G01*
X40359656Y-160152255D01*
X40359658Y-160152256D01*
X40460498Y-160219635D01*
X40531796Y-160267275D01*
X40678188Y-160413667D01*
X40793208Y-160585807D01*
X40872434Y-160777076D01*
X40912823Y-160980124D01*
X40912823Y-161187156D01*
X40872434Y-161390204D01*
X40812941Y-161533833D01*
X40793207Y-161581475D01*
X40678188Y-161753613D01*
X40531796Y-161900005D01*
X40359658Y-162015024D01*
X40359657Y-162015025D01*
X40359656Y-162015025D01*
X40168387Y-162094251D01*
X39965339Y-162134640D01*
X39758307Y-162134640D01*
X39555259Y-162094251D01*
X39363990Y-162015025D01*
X39363989Y-162015025D01*
X39363988Y-162015024D01*
X39191850Y-161900005D01*
X39045458Y-161753613D01*
X38930439Y-161581475D01*
X38910705Y-161533833D01*
X38851212Y-161390204D01*
X38810823Y-161187156D01*
X38810823Y-160980124D01*
X38851212Y-160777076D01*
X38930438Y-160585807D01*
X39045458Y-160413667D01*
X39191850Y-160267275D01*
X39263148Y-160219635D01*
X39363988Y-160152256D01*
X39363990Y-160152255D01*
X39555259Y-160073029D01*
X39758307Y-160032640D01*
X39965339Y-160032640D01*
X40168387Y-160073029D01*
G37*
G36*
X52376564Y-160025389D02*
G01*
X52567833Y-160104615D01*
X52567835Y-160104616D01*
X52639133Y-160152256D01*
X52739973Y-160219635D01*
X52886365Y-160366027D01*
X53001385Y-160538167D01*
X53080611Y-160729436D01*
X53121000Y-160932484D01*
X53121000Y-161139516D01*
X53080611Y-161342564D01*
X53001385Y-161533833D01*
X53001384Y-161533835D01*
X52886365Y-161705973D01*
X52739973Y-161852365D01*
X52567835Y-161967384D01*
X52567834Y-161967385D01*
X52567833Y-161967385D01*
X52376564Y-162046611D01*
X52173516Y-162087000D01*
X51966484Y-162087000D01*
X51763436Y-162046611D01*
X51572167Y-161967385D01*
X51572166Y-161967385D01*
X51572165Y-161967384D01*
X51400027Y-161852365D01*
X51253635Y-161705973D01*
X51138616Y-161533835D01*
X51138615Y-161533833D01*
X51059389Y-161342564D01*
X51019000Y-161139516D01*
X51019000Y-160932484D01*
X51059389Y-160729436D01*
X51138615Y-160538167D01*
X51253635Y-160366027D01*
X51400027Y-160219635D01*
X51500867Y-160152256D01*
X51572165Y-160104616D01*
X51572167Y-160104615D01*
X51763436Y-160025389D01*
X51966484Y-159985000D01*
X52173516Y-159985000D01*
X52376564Y-160025389D01*
G37*
G36*
X43232564Y-160025389D02*
G01*
X43423833Y-160104615D01*
X43423835Y-160104616D01*
X43495133Y-160152256D01*
X43595973Y-160219635D01*
X43742365Y-160366027D01*
X43857385Y-160538167D01*
X43936611Y-160729436D01*
X43977000Y-160932484D01*
X43977000Y-161139516D01*
X43936611Y-161342564D01*
X43857385Y-161533833D01*
X43857384Y-161533835D01*
X43742365Y-161705973D01*
X43595973Y-161852365D01*
X43423835Y-161967384D01*
X43423834Y-161967385D01*
X43423833Y-161967385D01*
X43232564Y-162046611D01*
X43029516Y-162087000D01*
X42822484Y-162087000D01*
X42619436Y-162046611D01*
X42428167Y-161967385D01*
X42428166Y-161967385D01*
X42428165Y-161967384D01*
X42256027Y-161852365D01*
X42109635Y-161705973D01*
X41994616Y-161533835D01*
X41994615Y-161533833D01*
X41915389Y-161342564D01*
X41875000Y-161139516D01*
X41875000Y-160932484D01*
X41915389Y-160729436D01*
X41994615Y-160538167D01*
X42109635Y-160366027D01*
X42256027Y-160219635D01*
X42356867Y-160152256D01*
X42428165Y-160104616D01*
X42428167Y-160104615D01*
X42619436Y-160025389D01*
X42822484Y-159985000D01*
X43029516Y-159985000D01*
X43232564Y-160025389D01*
G37*
G36*
X49328564Y-160025389D02*
G01*
X49519833Y-160104615D01*
X49519835Y-160104616D01*
X49591133Y-160152256D01*
X49691973Y-160219635D01*
X49838365Y-160366027D01*
X49953385Y-160538167D01*
X50032611Y-160729436D01*
X50073000Y-160932484D01*
X50073000Y-161139516D01*
X50032611Y-161342564D01*
X49953385Y-161533833D01*
X49953384Y-161533835D01*
X49838365Y-161705973D01*
X49691973Y-161852365D01*
X49519835Y-161967384D01*
X49519834Y-161967385D01*
X49519833Y-161967385D01*
X49328564Y-162046611D01*
X49125516Y-162087000D01*
X48918484Y-162087000D01*
X48715436Y-162046611D01*
X48524167Y-161967385D01*
X48524166Y-161967385D01*
X48524165Y-161967384D01*
X48352027Y-161852365D01*
X48205635Y-161705973D01*
X48090616Y-161533835D01*
X48090615Y-161533833D01*
X48011389Y-161342564D01*
X47971000Y-161139516D01*
X47971000Y-160932484D01*
X48011389Y-160729436D01*
X48090615Y-160538167D01*
X48205635Y-160366027D01*
X48352027Y-160219635D01*
X48452867Y-160152256D01*
X48524165Y-160104616D01*
X48524167Y-160104615D01*
X48715436Y-160025389D01*
X48918484Y-159985000D01*
X49125516Y-159985000D01*
X49328564Y-160025389D01*
G37*
G36*
X46280564Y-160025389D02*
G01*
X46471833Y-160104615D01*
X46471835Y-160104616D01*
X46543133Y-160152256D01*
X46643973Y-160219635D01*
X46790365Y-160366027D01*
X46905385Y-160538167D01*
X46984611Y-160729436D01*
X47025000Y-160932484D01*
X47025000Y-161139516D01*
X46984611Y-161342564D01*
X46905385Y-161533833D01*
X46905384Y-161533835D01*
X46790365Y-161705973D01*
X46643973Y-161852365D01*
X46471835Y-161967384D01*
X46471834Y-161967385D01*
X46471833Y-161967385D01*
X46280564Y-162046611D01*
X46077516Y-162087000D01*
X45870484Y-162087000D01*
X45667436Y-162046611D01*
X45476167Y-161967385D01*
X45476166Y-161967385D01*
X45476165Y-161967384D01*
X45304027Y-161852365D01*
X45157635Y-161705973D01*
X45042616Y-161533835D01*
X45042615Y-161533833D01*
X44963389Y-161342564D01*
X44923000Y-161139516D01*
X44923000Y-160932484D01*
X44963389Y-160729436D01*
X45042615Y-160538167D01*
X45157635Y-160366027D01*
X45304027Y-160219635D01*
X45404867Y-160152256D01*
X45476165Y-160104616D01*
X45476167Y-160104615D01*
X45667436Y-160025389D01*
X45870484Y-159985000D01*
X46077516Y-159985000D01*
X46280564Y-160025389D01*
G37*
G36*
X32564564Y-160025389D02*
G01*
X32755833Y-160104615D01*
X32755835Y-160104616D01*
X32827133Y-160152256D01*
X32927973Y-160219635D01*
X33074365Y-160366027D01*
X33189385Y-160538167D01*
X33268611Y-160729436D01*
X33309000Y-160932484D01*
X33309000Y-161139516D01*
X33268611Y-161342564D01*
X33189385Y-161533833D01*
X33189384Y-161533835D01*
X33074365Y-161705973D01*
X32927973Y-161852365D01*
X32755835Y-161967384D01*
X32755834Y-161967385D01*
X32755833Y-161967385D01*
X32564564Y-162046611D01*
X32361516Y-162087000D01*
X32154484Y-162087000D01*
X31951436Y-162046611D01*
X31760167Y-161967385D01*
X31760166Y-161967385D01*
X31760165Y-161967384D01*
X31588027Y-161852365D01*
X31441635Y-161705973D01*
X31326616Y-161533835D01*
X31326615Y-161533833D01*
X31247389Y-161342564D01*
X31207000Y-161139516D01*
X31207000Y-160932484D01*
X31247389Y-160729436D01*
X31326615Y-160538167D01*
X31441635Y-160366027D01*
X31588027Y-160219635D01*
X31688867Y-160152256D01*
X31760165Y-160104616D01*
X31760167Y-160104615D01*
X31951436Y-160025389D01*
X32154484Y-159985000D01*
X32361516Y-159985000D01*
X32564564Y-160025389D01*
G37*
G36*
X35564564Y-160025389D02*
G01*
X35755833Y-160104615D01*
X35755835Y-160104616D01*
X35827133Y-160152256D01*
X35927973Y-160219635D01*
X36074365Y-160366027D01*
X36189385Y-160538167D01*
X36268611Y-160729436D01*
X36309000Y-160932484D01*
X36309000Y-161139516D01*
X36268611Y-161342564D01*
X36189385Y-161533833D01*
X36189384Y-161533835D01*
X36074365Y-161705973D01*
X35927973Y-161852365D01*
X35755835Y-161967384D01*
X35755834Y-161967385D01*
X35755833Y-161967385D01*
X35564564Y-162046611D01*
X35361516Y-162087000D01*
X35154484Y-162087000D01*
X34951436Y-162046611D01*
X34760167Y-161967385D01*
X34760166Y-161967385D01*
X34760165Y-161967384D01*
X34588027Y-161852365D01*
X34441635Y-161705973D01*
X34326616Y-161533835D01*
X34326615Y-161533833D01*
X34247389Y-161342564D01*
X34207000Y-161139516D01*
X34207000Y-160932484D01*
X34247389Y-160729436D01*
X34326615Y-160538167D01*
X34441635Y-160366027D01*
X34588027Y-160219635D01*
X34688867Y-160152256D01*
X34760165Y-160104616D01*
X34760167Y-160104615D01*
X34951436Y-160025389D01*
X35154484Y-159985000D01*
X35361516Y-159985000D01*
X35564564Y-160025389D01*
G37*
G36*
X22912564Y-157485389D02*
G01*
X23103833Y-157564615D01*
X23103835Y-157564616D01*
X23275973Y-157679635D01*
X23422365Y-157826027D01*
X23523799Y-157977833D01*
X23537385Y-157998167D01*
X23616611Y-158189436D01*
X23657000Y-158392484D01*
X23657000Y-158599516D01*
X23616611Y-158802564D01*
X23537385Y-158993833D01*
X23537384Y-158993835D01*
X23422365Y-159165973D01*
X23275973Y-159312365D01*
X23103835Y-159427384D01*
X23103834Y-159427385D01*
X23103833Y-159427385D01*
X22912564Y-159506611D01*
X22709516Y-159547000D01*
X22502484Y-159547000D01*
X22299436Y-159506611D01*
X22108167Y-159427385D01*
X22108166Y-159427385D01*
X22108165Y-159427384D01*
X21936027Y-159312365D01*
X21789635Y-159165973D01*
X21674616Y-158993835D01*
X21674615Y-158993833D01*
X21595389Y-158802564D01*
X21555000Y-158599516D01*
X21555000Y-158392484D01*
X21595389Y-158189436D01*
X21674615Y-157998167D01*
X21688202Y-157977833D01*
X21789635Y-157826027D01*
X21936027Y-157679635D01*
X22108165Y-157564616D01*
X22108167Y-157564615D01*
X22299436Y-157485389D01*
X22502484Y-157445000D01*
X22709516Y-157445000D01*
X22912564Y-157485389D01*
G37*
G36*
X52376564Y-157485389D02*
G01*
X52567833Y-157564615D01*
X52567835Y-157564616D01*
X52739973Y-157679635D01*
X52886365Y-157826027D01*
X52987799Y-157977833D01*
X53001385Y-157998167D01*
X53080611Y-158189436D01*
X53121000Y-158392484D01*
X53121000Y-158599516D01*
X53080611Y-158802564D01*
X53001385Y-158993833D01*
X53001384Y-158993835D01*
X52886365Y-159165973D01*
X52739973Y-159312365D01*
X52567835Y-159427384D01*
X52567834Y-159427385D01*
X52567833Y-159427385D01*
X52376564Y-159506611D01*
X52173516Y-159547000D01*
X51966484Y-159547000D01*
X51763436Y-159506611D01*
X51572167Y-159427385D01*
X51572166Y-159427385D01*
X51572165Y-159427384D01*
X51400027Y-159312365D01*
X51253635Y-159165973D01*
X51138616Y-158993835D01*
X51138615Y-158993833D01*
X51059389Y-158802564D01*
X51019000Y-158599516D01*
X51019000Y-158392484D01*
X51059389Y-158189436D01*
X51138615Y-157998167D01*
X51152202Y-157977833D01*
X51253635Y-157826027D01*
X51400027Y-157679635D01*
X51572165Y-157564616D01*
X51572167Y-157564615D01*
X51763436Y-157485389D01*
X51966484Y-157445000D01*
X52173516Y-157445000D01*
X52376564Y-157485389D01*
G37*
G36*
X28500564Y-156469389D02*
G01*
X28691833Y-156548615D01*
X28691835Y-156548616D01*
X28863973Y-156663635D01*
X29010365Y-156810027D01*
X29125385Y-156982167D01*
X29204611Y-157173436D01*
X29245000Y-157376484D01*
X29245000Y-157583516D01*
X29204611Y-157786564D01*
X29125385Y-157977833D01*
X29125384Y-157977835D01*
X29010365Y-158149973D01*
X28863973Y-158296365D01*
X28691835Y-158411384D01*
X28691834Y-158411385D01*
X28691833Y-158411385D01*
X28500564Y-158490611D01*
X28297516Y-158531000D01*
X28090484Y-158531000D01*
X27887436Y-158490611D01*
X27696167Y-158411385D01*
X27696166Y-158411385D01*
X27696165Y-158411384D01*
X27524027Y-158296365D01*
X27377635Y-158149973D01*
X27262616Y-157977835D01*
X27262615Y-157977833D01*
X27183389Y-157786564D01*
X27143000Y-157583516D01*
X27143000Y-157376484D01*
X27183389Y-157173436D01*
X27262615Y-156982167D01*
X27377635Y-156810027D01*
X27524027Y-156663635D01*
X27696165Y-156548616D01*
X27696167Y-156548615D01*
X27887436Y-156469389D01*
X28090484Y-156429000D01*
X28297516Y-156429000D01*
X28500564Y-156469389D01*
G37*
G36*
X50527000Y-157985000D02*
G01*
X48425000Y-157985000D01*
X48425000Y-150498000D01*
X50527000Y-150498000D01*
X50527000Y-157985000D01*
G37*
G36*
X44827000Y-157985000D02*
G01*
X42725000Y-157985000D01*
X42725000Y-150483000D01*
X44827000Y-150483000D01*
X44827000Y-157985000D01*
G37*
G36*
X52771000Y-156557000D02*
G01*
X51369000Y-156557000D01*
X51369000Y-155355000D01*
X52771000Y-155355000D01*
X52771000Y-156557000D01*
G37*
G36*
X40009651Y-154008476D02*
G01*
X40200920Y-154087702D01*
X40200922Y-154087703D01*
X40254698Y-154123635D01*
X40373060Y-154202722D01*
X40519452Y-154349114D01*
X40634472Y-154521254D01*
X40713698Y-154712523D01*
X40754087Y-154915571D01*
X40754087Y-155122603D01*
X40713698Y-155325651D01*
X40667230Y-155437835D01*
X40634471Y-155516922D01*
X40519452Y-155689060D01*
X40373060Y-155835452D01*
X40200922Y-155950471D01*
X40200921Y-155950472D01*
X40200920Y-155950472D01*
X40009651Y-156029698D01*
X39806603Y-156070087D01*
X39599571Y-156070087D01*
X39396523Y-156029698D01*
X39205254Y-155950472D01*
X39205253Y-155950472D01*
X39205252Y-155950471D01*
X39033114Y-155835452D01*
X38886722Y-155689060D01*
X38771703Y-155516922D01*
X38738944Y-155437835D01*
X38692476Y-155325651D01*
X38652087Y-155122603D01*
X38652087Y-154915571D01*
X38692476Y-154712523D01*
X38771702Y-154521254D01*
X38886722Y-154349114D01*
X39033114Y-154202722D01*
X39151476Y-154123635D01*
X39205252Y-154087703D01*
X39205254Y-154087702D01*
X39396523Y-154008476D01*
X39599571Y-153968087D01*
X39806603Y-153968087D01*
X40009651Y-154008476D01*
G37*
G36*
X35866564Y-153929389D02*
G01*
X36057833Y-154008615D01*
X36057835Y-154008616D01*
X36176195Y-154087702D01*
X36229973Y-154123635D01*
X36376365Y-154270027D01*
X36491385Y-154442167D01*
X36570611Y-154633436D01*
X36611000Y-154836484D01*
X36611000Y-155043516D01*
X36570611Y-155246564D01*
X36525695Y-155355000D01*
X36491384Y-155437835D01*
X36376365Y-155609973D01*
X36229973Y-155756365D01*
X36057835Y-155871384D01*
X36057834Y-155871385D01*
X36057833Y-155871385D01*
X35866564Y-155950611D01*
X35663516Y-155991000D01*
X35456484Y-155991000D01*
X35253436Y-155950611D01*
X35062167Y-155871385D01*
X35062166Y-155871385D01*
X35062165Y-155871384D01*
X34890027Y-155756365D01*
X34743635Y-155609973D01*
X34628616Y-155437835D01*
X34594305Y-155355000D01*
X34549389Y-155246564D01*
X34509000Y-155043516D01*
X34509000Y-154836484D01*
X34549389Y-154633436D01*
X34628615Y-154442167D01*
X34743635Y-154270027D01*
X34890027Y-154123635D01*
X34943805Y-154087702D01*
X35062165Y-154008616D01*
X35062167Y-154008615D01*
X35253436Y-153929389D01*
X35456484Y-153889000D01*
X35663516Y-153889000D01*
X35866564Y-153929389D01*
G37*
G36*
X31040564Y-153929389D02*
G01*
X31231833Y-154008615D01*
X31231835Y-154008616D01*
X31350195Y-154087702D01*
X31403973Y-154123635D01*
X31550365Y-154270027D01*
X31665385Y-154442167D01*
X31744611Y-154633436D01*
X31785000Y-154836484D01*
X31785000Y-155043516D01*
X31744611Y-155246564D01*
X31699695Y-155355000D01*
X31665384Y-155437835D01*
X31550365Y-155609973D01*
X31403973Y-155756365D01*
X31231835Y-155871384D01*
X31231834Y-155871385D01*
X31231833Y-155871385D01*
X31040564Y-155950611D01*
X30837516Y-155991000D01*
X30630484Y-155991000D01*
X30427436Y-155950611D01*
X30236167Y-155871385D01*
X30236166Y-155871385D01*
X30236165Y-155871384D01*
X30064027Y-155756365D01*
X29917635Y-155609973D01*
X29802616Y-155437835D01*
X29768305Y-155355000D01*
X29723389Y-155246564D01*
X29683000Y-155043516D01*
X29683000Y-154836484D01*
X29723389Y-154633436D01*
X29802615Y-154442167D01*
X29917635Y-154270027D01*
X30064027Y-154123635D01*
X30117805Y-154087702D01*
X30236165Y-154008616D01*
X30236167Y-154008615D01*
X30427436Y-153929389D01*
X30630484Y-153889000D01*
X30837516Y-153889000D01*
X31040564Y-153929389D01*
G37*
G36*
X25960564Y-153929389D02*
G01*
X26151833Y-154008615D01*
X26151835Y-154008616D01*
X26270195Y-154087702D01*
X26323973Y-154123635D01*
X26470365Y-154270027D01*
X26585385Y-154442167D01*
X26664611Y-154633436D01*
X26705000Y-154836484D01*
X26705000Y-155043516D01*
X26664611Y-155246564D01*
X26619695Y-155355000D01*
X26585384Y-155437835D01*
X26470365Y-155609973D01*
X26323973Y-155756365D01*
X26151835Y-155871384D01*
X26151834Y-155871385D01*
X26151833Y-155871385D01*
X25960564Y-155950611D01*
X25757516Y-155991000D01*
X25550484Y-155991000D01*
X25347436Y-155950611D01*
X25156167Y-155871385D01*
X25156166Y-155871385D01*
X25156165Y-155871384D01*
X24984027Y-155756365D01*
X24837635Y-155609973D01*
X24722616Y-155437835D01*
X24688305Y-155355000D01*
X24643389Y-155246564D01*
X24603000Y-155043516D01*
X24603000Y-154836484D01*
X24643389Y-154633436D01*
X24722615Y-154442167D01*
X24837635Y-154270027D01*
X24984027Y-154123635D01*
X25037805Y-154087702D01*
X25156165Y-154008616D01*
X25156167Y-154008615D01*
X25347436Y-153929389D01*
X25550484Y-153889000D01*
X25757516Y-153889000D01*
X25960564Y-153929389D01*
G37*
G36*
X52771000Y-155057000D02*
G01*
X51369000Y-155057000D01*
X51369000Y-153855000D01*
X52771000Y-153855000D01*
X52771000Y-155057000D01*
G37*
G36*
X41454564Y-150881389D02*
G01*
X41645833Y-150960615D01*
X41645835Y-150960616D01*
X41682328Y-150985000D01*
X41817973Y-151075635D01*
X41964365Y-151222027D01*
X42079385Y-151394167D01*
X42158611Y-151585436D01*
X42199000Y-151788484D01*
X42199000Y-151995516D01*
X42158611Y-152198564D01*
X42129021Y-152270000D01*
X42079384Y-152389835D01*
X41964365Y-152561973D01*
X41817973Y-152708365D01*
X41645835Y-152823384D01*
X41645834Y-152823385D01*
X41645833Y-152823385D01*
X41454564Y-152902611D01*
X41251516Y-152943000D01*
X41044484Y-152943000D01*
X40841436Y-152902611D01*
X40650167Y-152823385D01*
X40650166Y-152823385D01*
X40650165Y-152823384D01*
X40478027Y-152708365D01*
X40331635Y-152561973D01*
X40216616Y-152389835D01*
X40166979Y-152270000D01*
X40137389Y-152198564D01*
X40097000Y-151995516D01*
X40097000Y-151788484D01*
X40137389Y-151585436D01*
X40216615Y-151394167D01*
X40331635Y-151222027D01*
X40478027Y-151075635D01*
X40613672Y-150985000D01*
X40650165Y-150960616D01*
X40650167Y-150960615D01*
X40841436Y-150881389D01*
X41044484Y-150841000D01*
X41251516Y-150841000D01*
X41454564Y-150881389D01*
G37*
G36*
X36120564Y-150119389D02*
G01*
X36311833Y-150198615D01*
X36311835Y-150198616D01*
X36438699Y-150283384D01*
X36483973Y-150313635D01*
X36630365Y-150460027D01*
X36745385Y-150632167D01*
X36824611Y-150823436D01*
X36865000Y-151026484D01*
X36865000Y-151233516D01*
X36824611Y-151436564D01*
X36762947Y-151585435D01*
X36745384Y-151627835D01*
X36630365Y-151799973D01*
X36483973Y-151946365D01*
X36311835Y-152061384D01*
X36311834Y-152061385D01*
X36311833Y-152061385D01*
X36120564Y-152140611D01*
X35917516Y-152181000D01*
X35710484Y-152181000D01*
X35507436Y-152140611D01*
X35316167Y-152061385D01*
X35316166Y-152061385D01*
X35316165Y-152061384D01*
X35144027Y-151946365D01*
X34997635Y-151799973D01*
X34882616Y-151627835D01*
X34865053Y-151585435D01*
X34803389Y-151436564D01*
X34763000Y-151233516D01*
X34763000Y-151026484D01*
X34803389Y-150823436D01*
X34882615Y-150632167D01*
X34997635Y-150460027D01*
X35144027Y-150313635D01*
X35189301Y-150283384D01*
X35316165Y-150198616D01*
X35316167Y-150198615D01*
X35507436Y-150119389D01*
X35710484Y-150079000D01*
X35917516Y-150079000D01*
X36120564Y-150119389D01*
G37*
G36*
X51868564Y-148341389D02*
G01*
X52059833Y-148420615D01*
X52059835Y-148420616D01*
X52231973Y-148535635D01*
X52378365Y-148682027D01*
X52493385Y-148854167D01*
X52572611Y-149045436D01*
X52613000Y-149248484D01*
X52613000Y-149455516D01*
X52572611Y-149658564D01*
X52493385Y-149849833D01*
X52493384Y-149849835D01*
X52378365Y-150021973D01*
X52231973Y-150168365D01*
X52059835Y-150283384D01*
X52059834Y-150283385D01*
X52059833Y-150283385D01*
X51868564Y-150362611D01*
X51665516Y-150403000D01*
X51458484Y-150403000D01*
X51255436Y-150362611D01*
X51064167Y-150283385D01*
X51064166Y-150283385D01*
X51064165Y-150283384D01*
X50892027Y-150168365D01*
X50745635Y-150021973D01*
X50630616Y-149849835D01*
X50630615Y-149849833D01*
X50551389Y-149658564D01*
X50511000Y-149455516D01*
X50511000Y-149248484D01*
X50551389Y-149045436D01*
X50630615Y-148854167D01*
X50745635Y-148682027D01*
X50892027Y-148535635D01*
X51064165Y-148420616D01*
X51064167Y-148420615D01*
X51255436Y-148341389D01*
X51458484Y-148301000D01*
X51665516Y-148301000D01*
X51868564Y-148341389D01*
G37*
G36*
X41454564Y-148341389D02*
G01*
X41645833Y-148420615D01*
X41645835Y-148420616D01*
X41817973Y-148535635D01*
X41964365Y-148682027D01*
X42079385Y-148854167D01*
X42158611Y-149045436D01*
X42199000Y-149248484D01*
X42199000Y-149455516D01*
X42158611Y-149658564D01*
X42079385Y-149849833D01*
X42079384Y-149849835D01*
X41964365Y-150021973D01*
X41817973Y-150168365D01*
X41645835Y-150283384D01*
X41645834Y-150283385D01*
X41645833Y-150283385D01*
X41454564Y-150362611D01*
X41251516Y-150403000D01*
X41044484Y-150403000D01*
X40841436Y-150362611D01*
X40650167Y-150283385D01*
X40650166Y-150283385D01*
X40650165Y-150283384D01*
X40478027Y-150168365D01*
X40331635Y-150021973D01*
X40216616Y-149849835D01*
X40216615Y-149849833D01*
X40137389Y-149658564D01*
X40097000Y-149455516D01*
X40097000Y-149248484D01*
X40137389Y-149045436D01*
X40216615Y-148854167D01*
X40331635Y-148682027D01*
X40478027Y-148535635D01*
X40650165Y-148420616D01*
X40650167Y-148420615D01*
X40841436Y-148341389D01*
X41044484Y-148301000D01*
X41251516Y-148301000D01*
X41454564Y-148341389D01*
G37*
M02*
