G04 #@! TF.GenerationSoftware,KiCad,Pcbnew,5.1.5+dfsg1-2build2*
G04 #@! TF.CreationDate,2022-03-31T22:27:54+01:00*
G04 #@! TF.ProjectId,throwie,7468726f-7769-4652-9e6b-696361645f70,rev?*
G04 #@! TF.SameCoordinates,Original*
G04 #@! TF.FileFunction,Soldermask,Bot*
G04 #@! TF.FilePolarity,Negative*
%FSLAX46Y46*%
G04 Gerber Fmt 4.6, Leading zero omitted, Abs format (unit mm)*
G04 Created by KiCad (PCBNEW 5.1.5+dfsg1-2build2) date 2022-03-31 22:27:54*
%MOMM*%
%LPD*%
G04 APERTURE LIST*
%ADD10C,0.100000*%
G04 APERTURE END LIST*
D10*
G36*
X40168387Y-160073029D02*
G01*
X40359656Y-160152255D01*
X40359658Y-160152256D01*
X40437689Y-160204395D01*
X40531796Y-160267275D01*
X40678188Y-160413667D01*
X40793208Y-160585807D01*
X40872434Y-160777076D01*
X40912823Y-160980124D01*
X40912823Y-161187156D01*
X40872434Y-161390204D01*
X40819253Y-161518595D01*
X40793207Y-161581475D01*
X40678188Y-161753613D01*
X40531796Y-161900005D01*
X40359658Y-162015024D01*
X40359657Y-162015025D01*
X40359656Y-162015025D01*
X40168387Y-162094251D01*
X39965339Y-162134640D01*
X39758307Y-162134640D01*
X39555259Y-162094251D01*
X39363990Y-162015025D01*
X39363989Y-162015025D01*
X39363988Y-162015024D01*
X39191850Y-161900005D01*
X39045458Y-161753613D01*
X38930439Y-161581475D01*
X38904393Y-161518595D01*
X38851212Y-161390204D01*
X38810823Y-161187156D01*
X38810823Y-160980124D01*
X38851212Y-160777076D01*
X38930438Y-160585807D01*
X39045458Y-160413667D01*
X39191850Y-160267275D01*
X39285957Y-160204395D01*
X39363988Y-160152256D01*
X39363990Y-160152255D01*
X39555259Y-160073029D01*
X39758307Y-160032640D01*
X39965339Y-160032640D01*
X40168387Y-160073029D01*
G37*
G36*
X35564564Y-160025389D02*
G01*
X35755833Y-160104615D01*
X35755835Y-160104616D01*
X35827133Y-160152256D01*
X35927973Y-160219635D01*
X36074365Y-160366027D01*
X36189385Y-160538167D01*
X36268611Y-160729436D01*
X36309000Y-160932484D01*
X36309000Y-161139516D01*
X36268611Y-161342564D01*
X36195697Y-161518595D01*
X36189384Y-161533835D01*
X36074365Y-161705973D01*
X35927973Y-161852365D01*
X35755835Y-161967384D01*
X35755834Y-161967385D01*
X35755833Y-161967385D01*
X35564564Y-162046611D01*
X35361516Y-162087000D01*
X35154484Y-162087000D01*
X34951436Y-162046611D01*
X34760167Y-161967385D01*
X34760166Y-161967385D01*
X34760165Y-161967384D01*
X34588027Y-161852365D01*
X34441635Y-161705973D01*
X34326616Y-161533835D01*
X34320303Y-161518595D01*
X34247389Y-161342564D01*
X34207000Y-161139516D01*
X34207000Y-160932484D01*
X34247389Y-160729436D01*
X34326615Y-160538167D01*
X34441635Y-160366027D01*
X34588027Y-160219635D01*
X34688867Y-160152256D01*
X34760165Y-160104616D01*
X34760167Y-160104615D01*
X34951436Y-160025389D01*
X35154484Y-159985000D01*
X35361516Y-159985000D01*
X35564564Y-160025389D01*
G37*
G36*
X32564564Y-160025389D02*
G01*
X32755833Y-160104615D01*
X32755835Y-160104616D01*
X32827133Y-160152256D01*
X32927973Y-160219635D01*
X33074365Y-160366027D01*
X33189385Y-160538167D01*
X33268611Y-160729436D01*
X33309000Y-160932484D01*
X33309000Y-161139516D01*
X33268611Y-161342564D01*
X33195697Y-161518595D01*
X33189384Y-161533835D01*
X33074365Y-161705973D01*
X32927973Y-161852365D01*
X32755835Y-161967384D01*
X32755834Y-161967385D01*
X32755833Y-161967385D01*
X32564564Y-162046611D01*
X32361516Y-162087000D01*
X32154484Y-162087000D01*
X31951436Y-162046611D01*
X31760167Y-161967385D01*
X31760166Y-161967385D01*
X31760165Y-161967384D01*
X31588027Y-161852365D01*
X31441635Y-161705973D01*
X31326616Y-161533835D01*
X31320303Y-161518595D01*
X31247389Y-161342564D01*
X31207000Y-161139516D01*
X31207000Y-160932484D01*
X31247389Y-160729436D01*
X31326615Y-160538167D01*
X31441635Y-160366027D01*
X31588027Y-160219635D01*
X31688867Y-160152256D01*
X31760165Y-160104616D01*
X31760167Y-160104615D01*
X31951436Y-160025389D01*
X32154484Y-159985000D01*
X32361516Y-159985000D01*
X32564564Y-160025389D01*
G37*
G36*
X47819804Y-160010149D02*
G01*
X48011073Y-160089375D01*
X48011075Y-160089376D01*
X48183213Y-160204395D01*
X48329605Y-160350787D01*
X48444625Y-160522927D01*
X48523851Y-160714196D01*
X48564240Y-160917244D01*
X48564240Y-161124276D01*
X48523851Y-161327324D01*
X48444625Y-161518593D01*
X48444624Y-161518595D01*
X48329605Y-161690733D01*
X48183213Y-161837125D01*
X48011075Y-161952144D01*
X48011074Y-161952145D01*
X48011073Y-161952145D01*
X47819804Y-162031371D01*
X47616756Y-162071760D01*
X47409724Y-162071760D01*
X47206676Y-162031371D01*
X47015407Y-161952145D01*
X47015406Y-161952145D01*
X47015405Y-161952144D01*
X46843267Y-161837125D01*
X46696875Y-161690733D01*
X46581856Y-161518595D01*
X46581855Y-161518593D01*
X46502629Y-161327324D01*
X46462240Y-161124276D01*
X46462240Y-160917244D01*
X46502629Y-160714196D01*
X46581855Y-160522927D01*
X46696875Y-160350787D01*
X46843267Y-160204395D01*
X47015405Y-160089376D01*
X47015407Y-160089375D01*
X47206676Y-160010149D01*
X47409724Y-159969760D01*
X47616756Y-159969760D01*
X47819804Y-160010149D01*
G37*
G36*
X26355000Y-161613000D02*
G01*
X24953000Y-161613000D01*
X24953000Y-160411000D01*
X26355000Y-160411000D01*
X26355000Y-161613000D01*
G37*
G36*
X50231000Y-160597000D02*
G01*
X48829000Y-160597000D01*
X48829000Y-159395000D01*
X50231000Y-159395000D01*
X50231000Y-160597000D01*
G37*
G36*
X26355000Y-160113000D02*
G01*
X24953000Y-160113000D01*
X24953000Y-158911000D01*
X26355000Y-158911000D01*
X26355000Y-160113000D01*
G37*
G36*
X23307000Y-159605000D02*
G01*
X21905000Y-159605000D01*
X21905000Y-158403000D01*
X23307000Y-158403000D01*
X23307000Y-159605000D01*
G37*
G36*
X52163000Y-159197000D02*
G01*
X50961000Y-159197000D01*
X50961000Y-157795000D01*
X52163000Y-157795000D01*
X52163000Y-159197000D01*
G37*
G36*
X48099000Y-159197000D02*
G01*
X46897000Y-159197000D01*
X46897000Y-157795000D01*
X48099000Y-157795000D01*
X48099000Y-159197000D01*
G37*
G36*
X46599000Y-159197000D02*
G01*
X45397000Y-159197000D01*
X45397000Y-157795000D01*
X46599000Y-157795000D01*
X46599000Y-159197000D01*
G37*
G36*
X53663000Y-159197000D02*
G01*
X52461000Y-159197000D01*
X52461000Y-157795000D01*
X53663000Y-157795000D01*
X53663000Y-159197000D01*
G37*
G36*
X50231000Y-159097000D02*
G01*
X48829000Y-159097000D01*
X48829000Y-157895000D01*
X50231000Y-157895000D01*
X50231000Y-159097000D01*
G37*
G36*
X28500564Y-156469389D02*
G01*
X28691833Y-156548615D01*
X28691835Y-156548616D01*
X28863973Y-156663635D01*
X29010365Y-156810027D01*
X29072488Y-156903000D01*
X29125385Y-156982167D01*
X29204611Y-157173436D01*
X29245000Y-157376484D01*
X29245000Y-157583516D01*
X29204611Y-157786564D01*
X29159695Y-157895000D01*
X29125384Y-157977835D01*
X29010365Y-158149973D01*
X28863973Y-158296365D01*
X28691835Y-158411384D01*
X28691834Y-158411385D01*
X28691833Y-158411385D01*
X28500564Y-158490611D01*
X28297516Y-158531000D01*
X28090484Y-158531000D01*
X27887436Y-158490611D01*
X27696167Y-158411385D01*
X27696166Y-158411385D01*
X27696165Y-158411384D01*
X27524027Y-158296365D01*
X27377635Y-158149973D01*
X27262616Y-157977835D01*
X27228305Y-157895000D01*
X27183389Y-157786564D01*
X27143000Y-157583516D01*
X27143000Y-157376484D01*
X27183389Y-157173436D01*
X27262615Y-156982167D01*
X27315513Y-156903000D01*
X27377635Y-156810027D01*
X27524027Y-156663635D01*
X27696165Y-156548616D01*
X27696167Y-156548615D01*
X27887436Y-156469389D01*
X28090484Y-156429000D01*
X28297516Y-156429000D01*
X28500564Y-156469389D01*
G37*
G36*
X23307000Y-158105000D02*
G01*
X21905000Y-158105000D01*
X21905000Y-156903000D01*
X23307000Y-156903000D01*
X23307000Y-158105000D01*
G37*
G36*
X46167000Y-156557000D02*
G01*
X44765000Y-156557000D01*
X44765000Y-155355000D01*
X46167000Y-155355000D01*
X46167000Y-156557000D01*
G37*
G36*
X51028120Y-156160160D02*
G01*
X49126120Y-156160160D01*
X49126120Y-155508160D01*
X51028120Y-155508160D01*
X51028120Y-156160160D01*
G37*
G36*
X48828120Y-156160160D02*
G01*
X46926120Y-156160160D01*
X46926120Y-155508160D01*
X48828120Y-155508160D01*
X48828120Y-156160160D01*
G37*
G36*
X40009651Y-154008476D02*
G01*
X40200920Y-154087702D01*
X40200922Y-154087703D01*
X40254698Y-154123635D01*
X40373060Y-154202722D01*
X40519452Y-154349114D01*
X40634472Y-154521254D01*
X40713698Y-154712523D01*
X40754087Y-154915571D01*
X40754087Y-155122603D01*
X40713698Y-155325651D01*
X40634472Y-155516920D01*
X40634471Y-155516922D01*
X40519452Y-155689060D01*
X40373060Y-155835452D01*
X40200922Y-155950471D01*
X40200921Y-155950472D01*
X40200920Y-155950472D01*
X40009651Y-156029698D01*
X39806603Y-156070087D01*
X39599571Y-156070087D01*
X39396523Y-156029698D01*
X39205254Y-155950472D01*
X39205253Y-155950472D01*
X39205252Y-155950471D01*
X39033114Y-155835452D01*
X38886722Y-155689060D01*
X38771703Y-155516922D01*
X38771702Y-155516920D01*
X38692476Y-155325651D01*
X38652087Y-155122603D01*
X38652087Y-154915571D01*
X38692476Y-154712523D01*
X38771702Y-154521254D01*
X38886722Y-154349114D01*
X39033114Y-154202722D01*
X39151476Y-154123635D01*
X39205252Y-154087703D01*
X39205254Y-154087702D01*
X39396523Y-154008476D01*
X39599571Y-153968087D01*
X39806603Y-153968087D01*
X40009651Y-154008476D01*
G37*
G36*
X25960564Y-153929389D02*
G01*
X26151833Y-154008615D01*
X26151835Y-154008616D01*
X26200301Y-154041000D01*
X26323973Y-154123635D01*
X26470365Y-154270027D01*
X26585385Y-154442167D01*
X26664611Y-154633436D01*
X26705000Y-154836484D01*
X26705000Y-155043516D01*
X26664611Y-155246564D01*
X26619695Y-155355000D01*
X26585384Y-155437835D01*
X26470365Y-155609973D01*
X26323973Y-155756365D01*
X26151835Y-155871384D01*
X26151834Y-155871385D01*
X26151833Y-155871385D01*
X25960564Y-155950611D01*
X25757516Y-155991000D01*
X25550484Y-155991000D01*
X25347436Y-155950611D01*
X25156167Y-155871385D01*
X25156166Y-155871385D01*
X25156165Y-155871384D01*
X24984027Y-155756365D01*
X24837635Y-155609973D01*
X24722616Y-155437835D01*
X24688305Y-155355000D01*
X24643389Y-155246564D01*
X24603000Y-155043516D01*
X24603000Y-154836484D01*
X24643389Y-154633436D01*
X24722615Y-154442167D01*
X24837635Y-154270027D01*
X24984027Y-154123635D01*
X25107699Y-154041000D01*
X25156165Y-154008616D01*
X25156167Y-154008615D01*
X25347436Y-153929389D01*
X25550484Y-153889000D01*
X25757516Y-153889000D01*
X25960564Y-153929389D01*
G37*
G36*
X35866564Y-153929389D02*
G01*
X36057833Y-154008615D01*
X36057835Y-154008616D01*
X36106301Y-154041000D01*
X36229973Y-154123635D01*
X36376365Y-154270027D01*
X36491385Y-154442167D01*
X36570611Y-154633436D01*
X36611000Y-154836484D01*
X36611000Y-155043516D01*
X36570611Y-155246564D01*
X36525695Y-155355000D01*
X36491384Y-155437835D01*
X36376365Y-155609973D01*
X36229973Y-155756365D01*
X36057835Y-155871384D01*
X36057834Y-155871385D01*
X36057833Y-155871385D01*
X35866564Y-155950611D01*
X35663516Y-155991000D01*
X35456484Y-155991000D01*
X35253436Y-155950611D01*
X35062167Y-155871385D01*
X35062166Y-155871385D01*
X35062165Y-155871384D01*
X34890027Y-155756365D01*
X34743635Y-155609973D01*
X34628616Y-155437835D01*
X34594305Y-155355000D01*
X34549389Y-155246564D01*
X34509000Y-155043516D01*
X34509000Y-154836484D01*
X34549389Y-154633436D01*
X34628615Y-154442167D01*
X34743635Y-154270027D01*
X34890027Y-154123635D01*
X35013699Y-154041000D01*
X35062165Y-154008616D01*
X35062167Y-154008615D01*
X35253436Y-153929389D01*
X35456484Y-153889000D01*
X35663516Y-153889000D01*
X35866564Y-153929389D01*
G37*
G36*
X31040564Y-153929389D02*
G01*
X31231833Y-154008615D01*
X31231835Y-154008616D01*
X31280301Y-154041000D01*
X31403973Y-154123635D01*
X31550365Y-154270027D01*
X31665385Y-154442167D01*
X31744611Y-154633436D01*
X31785000Y-154836484D01*
X31785000Y-155043516D01*
X31744611Y-155246564D01*
X31699695Y-155355000D01*
X31665384Y-155437835D01*
X31550365Y-155609973D01*
X31403973Y-155756365D01*
X31231835Y-155871384D01*
X31231834Y-155871385D01*
X31231833Y-155871385D01*
X31040564Y-155950611D01*
X30837516Y-155991000D01*
X30630484Y-155991000D01*
X30427436Y-155950611D01*
X30236167Y-155871385D01*
X30236166Y-155871385D01*
X30236165Y-155871384D01*
X30064027Y-155756365D01*
X29917635Y-155609973D01*
X29802616Y-155437835D01*
X29768305Y-155355000D01*
X29723389Y-155246564D01*
X29683000Y-155043516D01*
X29683000Y-154836484D01*
X29723389Y-154633436D01*
X29802615Y-154442167D01*
X29917635Y-154270027D01*
X30064027Y-154123635D01*
X30187699Y-154041000D01*
X30236165Y-154008616D01*
X30236167Y-154008615D01*
X30427436Y-153929389D01*
X30630484Y-153889000D01*
X30837516Y-153889000D01*
X31040564Y-153929389D01*
G37*
G36*
X53025000Y-155541000D02*
G01*
X51623000Y-155541000D01*
X51623000Y-154339000D01*
X53025000Y-154339000D01*
X53025000Y-155541000D01*
G37*
G36*
X48828120Y-155210160D02*
G01*
X46926120Y-155210160D01*
X46926120Y-154558160D01*
X48828120Y-154558160D01*
X48828120Y-155210160D01*
G37*
G36*
X46167000Y-155057000D02*
G01*
X44765000Y-155057000D01*
X44765000Y-153855000D01*
X46167000Y-153855000D01*
X46167000Y-155057000D01*
G37*
G36*
X51028120Y-154260160D02*
G01*
X49126120Y-154260160D01*
X49126120Y-153608160D01*
X51028120Y-153608160D01*
X51028120Y-154260160D01*
G37*
G36*
X48828120Y-154260160D02*
G01*
X46926120Y-154260160D01*
X46926120Y-153608160D01*
X48828120Y-153608160D01*
X48828120Y-154260160D01*
G37*
G36*
X53025000Y-154041000D02*
G01*
X51623000Y-154041000D01*
X51623000Y-152839000D01*
X53025000Y-152839000D01*
X53025000Y-154041000D01*
G37*
G36*
X49877000Y-152593000D02*
G01*
X48675000Y-152593000D01*
X48675000Y-151191000D01*
X49877000Y-151191000D01*
X49877000Y-152593000D01*
G37*
G36*
X48377000Y-152593000D02*
G01*
X47175000Y-152593000D01*
X47175000Y-151191000D01*
X48377000Y-151191000D01*
X48377000Y-152593000D01*
G37*
G36*
X28183000Y-152497000D02*
G01*
X26681000Y-152497000D01*
X26681000Y-151795000D01*
X28183000Y-151795000D01*
X28183000Y-152497000D01*
G37*
G36*
X36120564Y-150119389D02*
G01*
X36311833Y-150198615D01*
X36311835Y-150198616D01*
X36483973Y-150313635D01*
X36630365Y-150460027D01*
X36745385Y-150632167D01*
X36824611Y-150823436D01*
X36865000Y-151026484D01*
X36865000Y-151233516D01*
X36824611Y-151436564D01*
X36778867Y-151547000D01*
X36745384Y-151627835D01*
X36630365Y-151799973D01*
X36483973Y-151946365D01*
X36311835Y-152061384D01*
X36311834Y-152061385D01*
X36311833Y-152061385D01*
X36120564Y-152140611D01*
X35917516Y-152181000D01*
X35710484Y-152181000D01*
X35507436Y-152140611D01*
X35316167Y-152061385D01*
X35316166Y-152061385D01*
X35316165Y-152061384D01*
X35144027Y-151946365D01*
X34997635Y-151799973D01*
X34882616Y-151627835D01*
X34849133Y-151547000D01*
X34803389Y-151436564D01*
X34763000Y-151233516D01*
X34763000Y-151026484D01*
X34803389Y-150823436D01*
X34882615Y-150632167D01*
X34997635Y-150460027D01*
X35144027Y-150313635D01*
X35316165Y-150198616D01*
X35316167Y-150198615D01*
X35507436Y-150119389D01*
X35710484Y-150079000D01*
X35917516Y-150079000D01*
X36120564Y-150119389D01*
G37*
G36*
X30203000Y-151547000D02*
G01*
X28701000Y-151547000D01*
X28701000Y-150845000D01*
X30203000Y-150845000D01*
X30203000Y-151547000D01*
G37*
G36*
X28183000Y-150597000D02*
G01*
X26681000Y-150597000D01*
X26681000Y-149895000D01*
X28183000Y-149895000D01*
X28183000Y-150597000D01*
G37*
G36*
X39055000Y-150461000D02*
G01*
X37653000Y-150461000D01*
X37653000Y-149259000D01*
X39055000Y-149259000D01*
X39055000Y-150461000D01*
G37*
G36*
X24373000Y-149957000D02*
G01*
X22871000Y-149957000D01*
X22871000Y-149255000D01*
X24373000Y-149255000D01*
X24373000Y-149957000D01*
G37*
G36*
X26393000Y-149007000D02*
G01*
X24891000Y-149007000D01*
X24891000Y-148305000D01*
X26393000Y-148305000D01*
X26393000Y-149007000D01*
G37*
G36*
X39055000Y-148961000D02*
G01*
X37653000Y-148961000D01*
X37653000Y-147759000D01*
X39055000Y-147759000D01*
X39055000Y-148961000D01*
G37*
G36*
X31843000Y-148529000D02*
G01*
X30641000Y-148529000D01*
X30641000Y-147127000D01*
X31843000Y-147127000D01*
X31843000Y-148529000D01*
G37*
G36*
X30343000Y-148529000D02*
G01*
X29141000Y-148529000D01*
X29141000Y-147127000D01*
X30343000Y-147127000D01*
X30343000Y-148529000D01*
G37*
G36*
X24373000Y-148057000D02*
G01*
X22871000Y-148057000D01*
X22871000Y-147355000D01*
X24373000Y-147355000D01*
X24373000Y-148057000D01*
G37*
G36*
X54105000Y-146343000D02*
G01*
X48003000Y-146343000D01*
X48003000Y-144741000D01*
X54105000Y-144741000D01*
X54105000Y-146343000D01*
G37*
M02*
