M48
; DRILL file {KiCad (5.1.5-0-10_14)} date Monday, 27 December 2021 at 21:36:15
; FORMAT={-:-/ absolute / inch / decimal}
; #@! TF.CreationDate,2021-12-27T21:36:15+00:00
; #@! TF.GenerationSoftware,Kicad,Pcbnew,(5.1.5-0-10_14)
FMAT,2
INCH
T1C0.0157
T2C0.0354
T3C0.0362
T4C0.0394
T5C0.0402
T6C0.0433
%
G90
G05
T1
X1.2106Y-6.6535
X1.2106Y-6.6929
X1.2106Y-6.7323
X1.2303Y-7.3622
X1.2303Y-7.4016
X1.2303Y-7.4409
X1.25Y-6.6535
X1.25Y-6.6929
X1.25Y-6.7323
X1.2697Y-7.3622
X1.2697Y-7.4016
X1.2697Y-7.4409
X1.2894Y-6.6535
X1.2894Y-6.6929
X1.2894Y-6.7323
X1.3091Y-7.3622
X1.3091Y-7.4016
X1.3091Y-7.4409
X1.3287Y-6.6535
X1.3287Y-6.6929
X1.3287Y-6.7323
X1.3484Y-7.3622
X1.3484Y-7.4016
X1.3484Y-7.4409
X1.3878Y-7.3622
X1.3878Y-7.4016
X1.3878Y-7.4409
X1.4173Y-7.313
X1.4232Y-7.1358
X1.4567Y-7.4409
X1.4961Y-7.4409
X1.5197Y-6.9685
X1.5228Y-6.7591
X1.5354Y-7.4409
X1.55Y-7.1693
X1.5512Y-7.0413
X1.5591Y-6.9685
X1.561Y-7.3209
X1.5748Y-7.4409
X1.6142Y-7.4409
X1.62Y-7.05
X1.6535Y-7.4409
X1.6827Y-7.322
X1.6874Y-7.3701
X1.6909Y-7.04
X1.6909Y-7.15
X1.6929Y-7.4409
X1.7323Y-7.4409
X1.7559Y-6.7874
X1.7717Y-7.4409
X1.811Y-7.4409
X1.8232Y-6.7969
X1.8504Y-7.4409
X1.8669Y-7.185
X1.8898Y-7.4409
X1.8976Y-7.15
X1.9Y-7.0015
X1.9291Y-7.4409
X1.9685Y-7.04
X1.9685Y-7.0866
X1.9685Y-7.4409
X1.98Y-6.79
X2.0079Y-7.4409
X2.0177Y-6.8215
X2.0472Y-7.4409
X2.06Y-6.82
X2.0756Y-6.7829
X2.0866Y-7.4409
X2.0906Y-7.3134
X2.0957Y-7.0488
X2.1084Y-6.7612
X2.126Y-7.4409
X2.1654Y-7.4409
X2.2047Y-7.4409
X2.22Y-6.98
X2.2441Y-7.4409
X2.2835Y-7.4409
X2.3228Y-7.4409
X2.3622Y-7.4409
X2.4016Y-7.4409
X2.4409Y-7.4409
X2.4803Y-7.4409
X2.5197Y-7.4409
X2.5591Y-7.4409
X2.5984Y-7.4409
X2.6378Y-7.4409
X2.6575Y-6.9283
X2.6772Y-7.4409
X2.689Y-6.8969
X2.7165Y-7.4409
X2.7209Y-6.9268
X2.7559Y-7.4409
X2.7953Y-7.4409
X2.8346Y-7.4409
X2.874Y-7.4409
X2.91Y-6.775
X2.91Y-6.8144
X2.91Y-6.8538
X2.91Y-6.8931
X2.91Y-6.9325
X2.91Y-6.9719
X2.91Y-7.0113
X2.91Y-7.0506
X2.91Y-7.09
X2.91Y-7.1294
X2.91Y-7.1687
X2.91Y-7.2081
X2.91Y-7.2475
X2.91Y-7.2869
X2.91Y-7.3262
X2.91Y-7.3656
X2.91Y-7.405
T2
X2.2657Y-7.152
X2.2657Y-7.252
X2.3657Y-7.152
X2.3657Y-7.252
X2.4657Y-7.152
X2.4657Y-7.252
X2.5657Y-7.152
X2.5657Y-7.252
X2.6657Y-7.152
X2.6657Y-7.252
T3
X1.374Y-6.9094
X1.374Y-7.0079
X1.374Y-7.0866
X1.374Y-7.185
T5
X2.563Y-6.6929
X2.663Y-6.6929
X2.763Y-6.6929
X2.863Y-6.6929
T6
X1.2913Y-6.9587
X1.2913Y-7.1358
T4
G00X1.2618Y-6.8228
M15
G01X1.3209Y-6.8228
M16
G05
G00X1.2618Y-7.2717
M15
G01X1.3209Y-7.2717
M16
G05
T0
M30
