G04 #@! TF.GenerationSoftware,KiCad,Pcbnew,(5.1.5-0-10_14)*
G04 #@! TF.CreationDate,2021-12-27T21:36:10+00:00*
G04 #@! TF.ProjectId,receiver,72656365-6976-4657-922e-6b696361645f,rev?*
G04 #@! TF.SameCoordinates,Original*
G04 #@! TF.FileFunction,Copper,L1,Top*
G04 #@! TF.FilePolarity,Positive*
%FSLAX46Y46*%
G04 Gerber Fmt 4.6, Leading zero omitted, Abs format (unit mm)*
G04 Created by KiCad (PCBNEW (5.1.5-0-10_14)) date 2021-12-27 21:36:10*
%MOMM*%
%LPD*%
G04 APERTURE LIST*
%ADD10R,1.000000X0.700000*%
%ADD11C,2.000000*%
%ADD12R,0.400000X1.600000*%
%ADD13R,0.700000X1.000000*%
%ADD14O,4.200000X2.000000*%
%ADD15C,1.500000*%
%ADD16C,0.100000*%
%ADD17C,0.800000*%
%ADD18C,0.400000*%
%ADD19C,0.800000*%
%ADD20C,0.600000*%
%ADD21C,0.250000*%
%ADD22C,2.000000*%
%ADD23C,0.500000*%
%ADD24C,0.254000*%
G04 APERTURE END LIST*
D10*
X44000000Y-175410000D03*
X44000000Y-176910000D03*
D11*
X67710000Y-181660000D03*
X67710000Y-184200000D03*
X65170000Y-181660000D03*
X65170000Y-184200000D03*
X62630000Y-181660000D03*
X62630000Y-184200000D03*
X60090000Y-181660000D03*
X60090000Y-184200000D03*
X57550000Y-181660000D03*
X57550000Y-184200000D03*
D12*
X48100000Y-169452000D03*
X48735000Y-169452000D03*
X49370000Y-169452000D03*
X50005000Y-169452000D03*
X50640000Y-169452000D03*
X51275000Y-169452000D03*
X51910000Y-169452000D03*
X52545000Y-169452000D03*
X53180000Y-169452000D03*
X53815000Y-169452000D03*
X54450000Y-169452000D03*
X55100000Y-169452000D03*
X55085000Y-174752000D03*
X54450000Y-174752000D03*
X53815000Y-174752000D03*
X53180000Y-174752000D03*
X52545000Y-174752000D03*
X51910000Y-174752000D03*
X51275000Y-174752000D03*
X50640000Y-174752000D03*
X50005000Y-174752000D03*
X49370000Y-174752000D03*
X48735000Y-174752000D03*
X48100000Y-174752000D03*
D11*
X61976000Y-172212000D03*
X61976000Y-174752000D03*
X61976000Y-169500000D03*
D13*
X68048000Y-172720000D03*
X66548000Y-172720000D03*
D11*
X36068000Y-169418000D03*
X52260000Y-183210000D03*
X62610000Y-186710000D03*
X56896000Y-174752000D03*
X59436000Y-174752000D03*
X56850000Y-169440000D03*
X59330000Y-169450000D03*
X46170000Y-169490000D03*
X41148000Y-169418000D03*
X38608000Y-169418000D03*
X43688000Y-169418000D03*
D13*
X54332000Y-177292000D03*
X52832000Y-177292000D03*
D10*
X64190000Y-175540000D03*
X64190000Y-174040000D03*
X65720000Y-175510000D03*
X65720000Y-174010000D03*
D11*
X65100000Y-170000000D03*
X67640000Y-170000000D03*
X70180000Y-170000000D03*
X72720000Y-170000000D03*
D10*
X42490000Y-175450000D03*
X42490000Y-176950000D03*
X46630000Y-180080000D03*
X46630000Y-181580000D03*
X46550000Y-186060000D03*
X46550000Y-187560000D03*
D13*
X49690000Y-185810000D03*
X51190000Y-185810000D03*
D10*
X48450000Y-184950000D03*
X48450000Y-183450000D03*
X48600000Y-178800000D03*
X48600000Y-180300000D03*
X48420000Y-187550000D03*
X48420000Y-186050000D03*
X46550000Y-183450000D03*
X46550000Y-184950000D03*
D13*
X49808000Y-177292000D03*
X51308000Y-177292000D03*
D10*
X37250000Y-175500000D03*
X37250000Y-177000000D03*
D14*
X32800000Y-184700000D03*
X32800000Y-173300000D03*
D15*
X34900000Y-175500000D03*
X34900000Y-178000000D03*
X34900000Y-180000000D03*
X34900000Y-182500000D03*
G04 #@! TA.AperFunction,SMDPad,CuDef*
D16*
G36*
X38259802Y-186950482D02*
G01*
X38269509Y-186951921D01*
X38279028Y-186954306D01*
X38288268Y-186957612D01*
X38297140Y-186961808D01*
X38305557Y-186966853D01*
X38313439Y-186972699D01*
X38320711Y-186979289D01*
X38327301Y-186986561D01*
X38333147Y-186994443D01*
X38338192Y-187002860D01*
X38342388Y-187011732D01*
X38345694Y-187020972D01*
X38348079Y-187030491D01*
X38349518Y-187040198D01*
X38350000Y-187050000D01*
X38350000Y-187250000D01*
X38349518Y-187259802D01*
X38348079Y-187269509D01*
X38345694Y-187279028D01*
X38342388Y-187288268D01*
X38338192Y-187297140D01*
X38333147Y-187305557D01*
X38327301Y-187313439D01*
X38320711Y-187320711D01*
X38313439Y-187327301D01*
X38305557Y-187333147D01*
X38297140Y-187338192D01*
X38288268Y-187342388D01*
X38279028Y-187345694D01*
X38269509Y-187348079D01*
X38259802Y-187349518D01*
X38250000Y-187350000D01*
X36950000Y-187350000D01*
X36940198Y-187349518D01*
X36930491Y-187348079D01*
X36920972Y-187345694D01*
X36911732Y-187342388D01*
X36902860Y-187338192D01*
X36894443Y-187333147D01*
X36886561Y-187327301D01*
X36879289Y-187320711D01*
X36872699Y-187313439D01*
X36866853Y-187305557D01*
X36861808Y-187297140D01*
X36857612Y-187288268D01*
X36854306Y-187279028D01*
X36851921Y-187269509D01*
X36850482Y-187259802D01*
X36850000Y-187250000D01*
X36850000Y-187050000D01*
X36850482Y-187040198D01*
X36851921Y-187030491D01*
X36854306Y-187020972D01*
X36857612Y-187011732D01*
X36861808Y-187002860D01*
X36866853Y-186994443D01*
X36872699Y-186986561D01*
X36879289Y-186979289D01*
X36886561Y-186972699D01*
X36894443Y-186966853D01*
X36902860Y-186961808D01*
X36911732Y-186957612D01*
X36920972Y-186954306D01*
X36930491Y-186951921D01*
X36940198Y-186950482D01*
X36950000Y-186950000D01*
X38250000Y-186950000D01*
X38259802Y-186950482D01*
G37*
G04 #@! TD.AperFunction*
G04 #@! TA.AperFunction,SMDPad,CuDef*
G36*
X38259802Y-186300482D02*
G01*
X38269509Y-186301921D01*
X38279028Y-186304306D01*
X38288268Y-186307612D01*
X38297140Y-186311808D01*
X38305557Y-186316853D01*
X38313439Y-186322699D01*
X38320711Y-186329289D01*
X38327301Y-186336561D01*
X38333147Y-186344443D01*
X38338192Y-186352860D01*
X38342388Y-186361732D01*
X38345694Y-186370972D01*
X38348079Y-186380491D01*
X38349518Y-186390198D01*
X38350000Y-186400000D01*
X38350000Y-186600000D01*
X38349518Y-186609802D01*
X38348079Y-186619509D01*
X38345694Y-186629028D01*
X38342388Y-186638268D01*
X38338192Y-186647140D01*
X38333147Y-186655557D01*
X38327301Y-186663439D01*
X38320711Y-186670711D01*
X38313439Y-186677301D01*
X38305557Y-186683147D01*
X38297140Y-186688192D01*
X38288268Y-186692388D01*
X38279028Y-186695694D01*
X38269509Y-186698079D01*
X38259802Y-186699518D01*
X38250000Y-186700000D01*
X36950000Y-186700000D01*
X36940198Y-186699518D01*
X36930491Y-186698079D01*
X36920972Y-186695694D01*
X36911732Y-186692388D01*
X36902860Y-186688192D01*
X36894443Y-186683147D01*
X36886561Y-186677301D01*
X36879289Y-186670711D01*
X36872699Y-186663439D01*
X36866853Y-186655557D01*
X36861808Y-186647140D01*
X36857612Y-186638268D01*
X36854306Y-186629028D01*
X36851921Y-186619509D01*
X36850482Y-186609802D01*
X36850000Y-186600000D01*
X36850000Y-186400000D01*
X36850482Y-186390198D01*
X36851921Y-186380491D01*
X36854306Y-186370972D01*
X36857612Y-186361732D01*
X36861808Y-186352860D01*
X36866853Y-186344443D01*
X36872699Y-186336561D01*
X36879289Y-186329289D01*
X36886561Y-186322699D01*
X36894443Y-186316853D01*
X36902860Y-186311808D01*
X36911732Y-186307612D01*
X36920972Y-186304306D01*
X36930491Y-186301921D01*
X36940198Y-186300482D01*
X36950000Y-186300000D01*
X38250000Y-186300000D01*
X38259802Y-186300482D01*
G37*
G04 #@! TD.AperFunction*
G04 #@! TA.AperFunction,SMDPad,CuDef*
G36*
X38259802Y-185650482D02*
G01*
X38269509Y-185651921D01*
X38279028Y-185654306D01*
X38288268Y-185657612D01*
X38297140Y-185661808D01*
X38305557Y-185666853D01*
X38313439Y-185672699D01*
X38320711Y-185679289D01*
X38327301Y-185686561D01*
X38333147Y-185694443D01*
X38338192Y-185702860D01*
X38342388Y-185711732D01*
X38345694Y-185720972D01*
X38348079Y-185730491D01*
X38349518Y-185740198D01*
X38350000Y-185750000D01*
X38350000Y-185950000D01*
X38349518Y-185959802D01*
X38348079Y-185969509D01*
X38345694Y-185979028D01*
X38342388Y-185988268D01*
X38338192Y-185997140D01*
X38333147Y-186005557D01*
X38327301Y-186013439D01*
X38320711Y-186020711D01*
X38313439Y-186027301D01*
X38305557Y-186033147D01*
X38297140Y-186038192D01*
X38288268Y-186042388D01*
X38279028Y-186045694D01*
X38269509Y-186048079D01*
X38259802Y-186049518D01*
X38250000Y-186050000D01*
X36950000Y-186050000D01*
X36940198Y-186049518D01*
X36930491Y-186048079D01*
X36920972Y-186045694D01*
X36911732Y-186042388D01*
X36902860Y-186038192D01*
X36894443Y-186033147D01*
X36886561Y-186027301D01*
X36879289Y-186020711D01*
X36872699Y-186013439D01*
X36866853Y-186005557D01*
X36861808Y-185997140D01*
X36857612Y-185988268D01*
X36854306Y-185979028D01*
X36851921Y-185969509D01*
X36850482Y-185959802D01*
X36850000Y-185950000D01*
X36850000Y-185750000D01*
X36850482Y-185740198D01*
X36851921Y-185730491D01*
X36854306Y-185720972D01*
X36857612Y-185711732D01*
X36861808Y-185702860D01*
X36866853Y-185694443D01*
X36872699Y-185686561D01*
X36879289Y-185679289D01*
X36886561Y-185672699D01*
X36894443Y-185666853D01*
X36902860Y-185661808D01*
X36911732Y-185657612D01*
X36920972Y-185654306D01*
X36930491Y-185651921D01*
X36940198Y-185650482D01*
X36950000Y-185650000D01*
X38250000Y-185650000D01*
X38259802Y-185650482D01*
G37*
G04 #@! TD.AperFunction*
G04 #@! TA.AperFunction,SMDPad,CuDef*
G36*
X38259802Y-185000482D02*
G01*
X38269509Y-185001921D01*
X38279028Y-185004306D01*
X38288268Y-185007612D01*
X38297140Y-185011808D01*
X38305557Y-185016853D01*
X38313439Y-185022699D01*
X38320711Y-185029289D01*
X38327301Y-185036561D01*
X38333147Y-185044443D01*
X38338192Y-185052860D01*
X38342388Y-185061732D01*
X38345694Y-185070972D01*
X38348079Y-185080491D01*
X38349518Y-185090198D01*
X38350000Y-185100000D01*
X38350000Y-185300000D01*
X38349518Y-185309802D01*
X38348079Y-185319509D01*
X38345694Y-185329028D01*
X38342388Y-185338268D01*
X38338192Y-185347140D01*
X38333147Y-185355557D01*
X38327301Y-185363439D01*
X38320711Y-185370711D01*
X38313439Y-185377301D01*
X38305557Y-185383147D01*
X38297140Y-185388192D01*
X38288268Y-185392388D01*
X38279028Y-185395694D01*
X38269509Y-185398079D01*
X38259802Y-185399518D01*
X38250000Y-185400000D01*
X36950000Y-185400000D01*
X36940198Y-185399518D01*
X36930491Y-185398079D01*
X36920972Y-185395694D01*
X36911732Y-185392388D01*
X36902860Y-185388192D01*
X36894443Y-185383147D01*
X36886561Y-185377301D01*
X36879289Y-185370711D01*
X36872699Y-185363439D01*
X36866853Y-185355557D01*
X36861808Y-185347140D01*
X36857612Y-185338268D01*
X36854306Y-185329028D01*
X36851921Y-185319509D01*
X36850482Y-185309802D01*
X36850000Y-185300000D01*
X36850000Y-185100000D01*
X36850482Y-185090198D01*
X36851921Y-185080491D01*
X36854306Y-185070972D01*
X36857612Y-185061732D01*
X36861808Y-185052860D01*
X36866853Y-185044443D01*
X36872699Y-185036561D01*
X36879289Y-185029289D01*
X36886561Y-185022699D01*
X36894443Y-185016853D01*
X36902860Y-185011808D01*
X36911732Y-185007612D01*
X36920972Y-185004306D01*
X36930491Y-185001921D01*
X36940198Y-185000482D01*
X36950000Y-185000000D01*
X38250000Y-185000000D01*
X38259802Y-185000482D01*
G37*
G04 #@! TD.AperFunction*
G04 #@! TA.AperFunction,SMDPad,CuDef*
G36*
X38259802Y-184350482D02*
G01*
X38269509Y-184351921D01*
X38279028Y-184354306D01*
X38288268Y-184357612D01*
X38297140Y-184361808D01*
X38305557Y-184366853D01*
X38313439Y-184372699D01*
X38320711Y-184379289D01*
X38327301Y-184386561D01*
X38333147Y-184394443D01*
X38338192Y-184402860D01*
X38342388Y-184411732D01*
X38345694Y-184420972D01*
X38348079Y-184430491D01*
X38349518Y-184440198D01*
X38350000Y-184450000D01*
X38350000Y-184650000D01*
X38349518Y-184659802D01*
X38348079Y-184669509D01*
X38345694Y-184679028D01*
X38342388Y-184688268D01*
X38338192Y-184697140D01*
X38333147Y-184705557D01*
X38327301Y-184713439D01*
X38320711Y-184720711D01*
X38313439Y-184727301D01*
X38305557Y-184733147D01*
X38297140Y-184738192D01*
X38288268Y-184742388D01*
X38279028Y-184745694D01*
X38269509Y-184748079D01*
X38259802Y-184749518D01*
X38250000Y-184750000D01*
X36950000Y-184750000D01*
X36940198Y-184749518D01*
X36930491Y-184748079D01*
X36920972Y-184745694D01*
X36911732Y-184742388D01*
X36902860Y-184738192D01*
X36894443Y-184733147D01*
X36886561Y-184727301D01*
X36879289Y-184720711D01*
X36872699Y-184713439D01*
X36866853Y-184705557D01*
X36861808Y-184697140D01*
X36857612Y-184688268D01*
X36854306Y-184679028D01*
X36851921Y-184669509D01*
X36850482Y-184659802D01*
X36850000Y-184650000D01*
X36850000Y-184450000D01*
X36850482Y-184440198D01*
X36851921Y-184430491D01*
X36854306Y-184420972D01*
X36857612Y-184411732D01*
X36861808Y-184402860D01*
X36866853Y-184394443D01*
X36872699Y-184386561D01*
X36879289Y-184379289D01*
X36886561Y-184372699D01*
X36894443Y-184366853D01*
X36902860Y-184361808D01*
X36911732Y-184357612D01*
X36920972Y-184354306D01*
X36930491Y-184351921D01*
X36940198Y-184350482D01*
X36950000Y-184350000D01*
X38250000Y-184350000D01*
X38259802Y-184350482D01*
G37*
G04 #@! TD.AperFunction*
G04 #@! TA.AperFunction,SMDPad,CuDef*
G36*
X38259802Y-183700482D02*
G01*
X38269509Y-183701921D01*
X38279028Y-183704306D01*
X38288268Y-183707612D01*
X38297140Y-183711808D01*
X38305557Y-183716853D01*
X38313439Y-183722699D01*
X38320711Y-183729289D01*
X38327301Y-183736561D01*
X38333147Y-183744443D01*
X38338192Y-183752860D01*
X38342388Y-183761732D01*
X38345694Y-183770972D01*
X38348079Y-183780491D01*
X38349518Y-183790198D01*
X38350000Y-183800000D01*
X38350000Y-184000000D01*
X38349518Y-184009802D01*
X38348079Y-184019509D01*
X38345694Y-184029028D01*
X38342388Y-184038268D01*
X38338192Y-184047140D01*
X38333147Y-184055557D01*
X38327301Y-184063439D01*
X38320711Y-184070711D01*
X38313439Y-184077301D01*
X38305557Y-184083147D01*
X38297140Y-184088192D01*
X38288268Y-184092388D01*
X38279028Y-184095694D01*
X38269509Y-184098079D01*
X38259802Y-184099518D01*
X38250000Y-184100000D01*
X36950000Y-184100000D01*
X36940198Y-184099518D01*
X36930491Y-184098079D01*
X36920972Y-184095694D01*
X36911732Y-184092388D01*
X36902860Y-184088192D01*
X36894443Y-184083147D01*
X36886561Y-184077301D01*
X36879289Y-184070711D01*
X36872699Y-184063439D01*
X36866853Y-184055557D01*
X36861808Y-184047140D01*
X36857612Y-184038268D01*
X36854306Y-184029028D01*
X36851921Y-184019509D01*
X36850482Y-184009802D01*
X36850000Y-184000000D01*
X36850000Y-183800000D01*
X36850482Y-183790198D01*
X36851921Y-183780491D01*
X36854306Y-183770972D01*
X36857612Y-183761732D01*
X36861808Y-183752860D01*
X36866853Y-183744443D01*
X36872699Y-183736561D01*
X36879289Y-183729289D01*
X36886561Y-183722699D01*
X36894443Y-183716853D01*
X36902860Y-183711808D01*
X36911732Y-183707612D01*
X36920972Y-183704306D01*
X36930491Y-183701921D01*
X36940198Y-183700482D01*
X36950000Y-183700000D01*
X38250000Y-183700000D01*
X38259802Y-183700482D01*
G37*
G04 #@! TD.AperFunction*
G04 #@! TA.AperFunction,SMDPad,CuDef*
G36*
X38259802Y-183050482D02*
G01*
X38269509Y-183051921D01*
X38279028Y-183054306D01*
X38288268Y-183057612D01*
X38297140Y-183061808D01*
X38305557Y-183066853D01*
X38313439Y-183072699D01*
X38320711Y-183079289D01*
X38327301Y-183086561D01*
X38333147Y-183094443D01*
X38338192Y-183102860D01*
X38342388Y-183111732D01*
X38345694Y-183120972D01*
X38348079Y-183130491D01*
X38349518Y-183140198D01*
X38350000Y-183150000D01*
X38350000Y-183350000D01*
X38349518Y-183359802D01*
X38348079Y-183369509D01*
X38345694Y-183379028D01*
X38342388Y-183388268D01*
X38338192Y-183397140D01*
X38333147Y-183405557D01*
X38327301Y-183413439D01*
X38320711Y-183420711D01*
X38313439Y-183427301D01*
X38305557Y-183433147D01*
X38297140Y-183438192D01*
X38288268Y-183442388D01*
X38279028Y-183445694D01*
X38269509Y-183448079D01*
X38259802Y-183449518D01*
X38250000Y-183450000D01*
X36950000Y-183450000D01*
X36940198Y-183449518D01*
X36930491Y-183448079D01*
X36920972Y-183445694D01*
X36911732Y-183442388D01*
X36902860Y-183438192D01*
X36894443Y-183433147D01*
X36886561Y-183427301D01*
X36879289Y-183420711D01*
X36872699Y-183413439D01*
X36866853Y-183405557D01*
X36861808Y-183397140D01*
X36857612Y-183388268D01*
X36854306Y-183379028D01*
X36851921Y-183369509D01*
X36850482Y-183359802D01*
X36850000Y-183350000D01*
X36850000Y-183150000D01*
X36850482Y-183140198D01*
X36851921Y-183130491D01*
X36854306Y-183120972D01*
X36857612Y-183111732D01*
X36861808Y-183102860D01*
X36866853Y-183094443D01*
X36872699Y-183086561D01*
X36879289Y-183079289D01*
X36886561Y-183072699D01*
X36894443Y-183066853D01*
X36902860Y-183061808D01*
X36911732Y-183057612D01*
X36920972Y-183054306D01*
X36930491Y-183051921D01*
X36940198Y-183050482D01*
X36950000Y-183050000D01*
X38250000Y-183050000D01*
X38259802Y-183050482D01*
G37*
G04 #@! TD.AperFunction*
G04 #@! TA.AperFunction,SMDPad,CuDef*
G36*
X38259802Y-182400482D02*
G01*
X38269509Y-182401921D01*
X38279028Y-182404306D01*
X38288268Y-182407612D01*
X38297140Y-182411808D01*
X38305557Y-182416853D01*
X38313439Y-182422699D01*
X38320711Y-182429289D01*
X38327301Y-182436561D01*
X38333147Y-182444443D01*
X38338192Y-182452860D01*
X38342388Y-182461732D01*
X38345694Y-182470972D01*
X38348079Y-182480491D01*
X38349518Y-182490198D01*
X38350000Y-182500000D01*
X38350000Y-182700000D01*
X38349518Y-182709802D01*
X38348079Y-182719509D01*
X38345694Y-182729028D01*
X38342388Y-182738268D01*
X38338192Y-182747140D01*
X38333147Y-182755557D01*
X38327301Y-182763439D01*
X38320711Y-182770711D01*
X38313439Y-182777301D01*
X38305557Y-182783147D01*
X38297140Y-182788192D01*
X38288268Y-182792388D01*
X38279028Y-182795694D01*
X38269509Y-182798079D01*
X38259802Y-182799518D01*
X38250000Y-182800000D01*
X36950000Y-182800000D01*
X36940198Y-182799518D01*
X36930491Y-182798079D01*
X36920972Y-182795694D01*
X36911732Y-182792388D01*
X36902860Y-182788192D01*
X36894443Y-182783147D01*
X36886561Y-182777301D01*
X36879289Y-182770711D01*
X36872699Y-182763439D01*
X36866853Y-182755557D01*
X36861808Y-182747140D01*
X36857612Y-182738268D01*
X36854306Y-182729028D01*
X36851921Y-182719509D01*
X36850482Y-182709802D01*
X36850000Y-182700000D01*
X36850000Y-182500000D01*
X36850482Y-182490198D01*
X36851921Y-182480491D01*
X36854306Y-182470972D01*
X36857612Y-182461732D01*
X36861808Y-182452860D01*
X36866853Y-182444443D01*
X36872699Y-182436561D01*
X36879289Y-182429289D01*
X36886561Y-182422699D01*
X36894443Y-182416853D01*
X36902860Y-182411808D01*
X36911732Y-182407612D01*
X36920972Y-182404306D01*
X36930491Y-182401921D01*
X36940198Y-182400482D01*
X36950000Y-182400000D01*
X38250000Y-182400000D01*
X38259802Y-182400482D01*
G37*
G04 #@! TD.AperFunction*
G04 #@! TA.AperFunction,SMDPad,CuDef*
G36*
X38259802Y-181750482D02*
G01*
X38269509Y-181751921D01*
X38279028Y-181754306D01*
X38288268Y-181757612D01*
X38297140Y-181761808D01*
X38305557Y-181766853D01*
X38313439Y-181772699D01*
X38320711Y-181779289D01*
X38327301Y-181786561D01*
X38333147Y-181794443D01*
X38338192Y-181802860D01*
X38342388Y-181811732D01*
X38345694Y-181820972D01*
X38348079Y-181830491D01*
X38349518Y-181840198D01*
X38350000Y-181850000D01*
X38350000Y-182050000D01*
X38349518Y-182059802D01*
X38348079Y-182069509D01*
X38345694Y-182079028D01*
X38342388Y-182088268D01*
X38338192Y-182097140D01*
X38333147Y-182105557D01*
X38327301Y-182113439D01*
X38320711Y-182120711D01*
X38313439Y-182127301D01*
X38305557Y-182133147D01*
X38297140Y-182138192D01*
X38288268Y-182142388D01*
X38279028Y-182145694D01*
X38269509Y-182148079D01*
X38259802Y-182149518D01*
X38250000Y-182150000D01*
X36950000Y-182150000D01*
X36940198Y-182149518D01*
X36930491Y-182148079D01*
X36920972Y-182145694D01*
X36911732Y-182142388D01*
X36902860Y-182138192D01*
X36894443Y-182133147D01*
X36886561Y-182127301D01*
X36879289Y-182120711D01*
X36872699Y-182113439D01*
X36866853Y-182105557D01*
X36861808Y-182097140D01*
X36857612Y-182088268D01*
X36854306Y-182079028D01*
X36851921Y-182069509D01*
X36850482Y-182059802D01*
X36850000Y-182050000D01*
X36850000Y-181850000D01*
X36850482Y-181840198D01*
X36851921Y-181830491D01*
X36854306Y-181820972D01*
X36857612Y-181811732D01*
X36861808Y-181802860D01*
X36866853Y-181794443D01*
X36872699Y-181786561D01*
X36879289Y-181779289D01*
X36886561Y-181772699D01*
X36894443Y-181766853D01*
X36902860Y-181761808D01*
X36911732Y-181757612D01*
X36920972Y-181754306D01*
X36930491Y-181751921D01*
X36940198Y-181750482D01*
X36950000Y-181750000D01*
X38250000Y-181750000D01*
X38259802Y-181750482D01*
G37*
G04 #@! TD.AperFunction*
G04 #@! TA.AperFunction,SMDPad,CuDef*
G36*
X38259802Y-181100482D02*
G01*
X38269509Y-181101921D01*
X38279028Y-181104306D01*
X38288268Y-181107612D01*
X38297140Y-181111808D01*
X38305557Y-181116853D01*
X38313439Y-181122699D01*
X38320711Y-181129289D01*
X38327301Y-181136561D01*
X38333147Y-181144443D01*
X38338192Y-181152860D01*
X38342388Y-181161732D01*
X38345694Y-181170972D01*
X38348079Y-181180491D01*
X38349518Y-181190198D01*
X38350000Y-181200000D01*
X38350000Y-181400000D01*
X38349518Y-181409802D01*
X38348079Y-181419509D01*
X38345694Y-181429028D01*
X38342388Y-181438268D01*
X38338192Y-181447140D01*
X38333147Y-181455557D01*
X38327301Y-181463439D01*
X38320711Y-181470711D01*
X38313439Y-181477301D01*
X38305557Y-181483147D01*
X38297140Y-181488192D01*
X38288268Y-181492388D01*
X38279028Y-181495694D01*
X38269509Y-181498079D01*
X38259802Y-181499518D01*
X38250000Y-181500000D01*
X36950000Y-181500000D01*
X36940198Y-181499518D01*
X36930491Y-181498079D01*
X36920972Y-181495694D01*
X36911732Y-181492388D01*
X36902860Y-181488192D01*
X36894443Y-181483147D01*
X36886561Y-181477301D01*
X36879289Y-181470711D01*
X36872699Y-181463439D01*
X36866853Y-181455557D01*
X36861808Y-181447140D01*
X36857612Y-181438268D01*
X36854306Y-181429028D01*
X36851921Y-181419509D01*
X36850482Y-181409802D01*
X36850000Y-181400000D01*
X36850000Y-181200000D01*
X36850482Y-181190198D01*
X36851921Y-181180491D01*
X36854306Y-181170972D01*
X36857612Y-181161732D01*
X36861808Y-181152860D01*
X36866853Y-181144443D01*
X36872699Y-181136561D01*
X36879289Y-181129289D01*
X36886561Y-181122699D01*
X36894443Y-181116853D01*
X36902860Y-181111808D01*
X36911732Y-181107612D01*
X36920972Y-181104306D01*
X36930491Y-181101921D01*
X36940198Y-181100482D01*
X36950000Y-181100000D01*
X38250000Y-181100000D01*
X38259802Y-181100482D01*
G37*
G04 #@! TD.AperFunction*
G04 #@! TA.AperFunction,SMDPad,CuDef*
G36*
X38259802Y-180450482D02*
G01*
X38269509Y-180451921D01*
X38279028Y-180454306D01*
X38288268Y-180457612D01*
X38297140Y-180461808D01*
X38305557Y-180466853D01*
X38313439Y-180472699D01*
X38320711Y-180479289D01*
X38327301Y-180486561D01*
X38333147Y-180494443D01*
X38338192Y-180502860D01*
X38342388Y-180511732D01*
X38345694Y-180520972D01*
X38348079Y-180530491D01*
X38349518Y-180540198D01*
X38350000Y-180550000D01*
X38350000Y-180750000D01*
X38349518Y-180759802D01*
X38348079Y-180769509D01*
X38345694Y-180779028D01*
X38342388Y-180788268D01*
X38338192Y-180797140D01*
X38333147Y-180805557D01*
X38327301Y-180813439D01*
X38320711Y-180820711D01*
X38313439Y-180827301D01*
X38305557Y-180833147D01*
X38297140Y-180838192D01*
X38288268Y-180842388D01*
X38279028Y-180845694D01*
X38269509Y-180848079D01*
X38259802Y-180849518D01*
X38250000Y-180850000D01*
X36950000Y-180850000D01*
X36940198Y-180849518D01*
X36930491Y-180848079D01*
X36920972Y-180845694D01*
X36911732Y-180842388D01*
X36902860Y-180838192D01*
X36894443Y-180833147D01*
X36886561Y-180827301D01*
X36879289Y-180820711D01*
X36872699Y-180813439D01*
X36866853Y-180805557D01*
X36861808Y-180797140D01*
X36857612Y-180788268D01*
X36854306Y-180779028D01*
X36851921Y-180769509D01*
X36850482Y-180759802D01*
X36850000Y-180750000D01*
X36850000Y-180550000D01*
X36850482Y-180540198D01*
X36851921Y-180530491D01*
X36854306Y-180520972D01*
X36857612Y-180511732D01*
X36861808Y-180502860D01*
X36866853Y-180494443D01*
X36872699Y-180486561D01*
X36879289Y-180479289D01*
X36886561Y-180472699D01*
X36894443Y-180466853D01*
X36902860Y-180461808D01*
X36911732Y-180457612D01*
X36920972Y-180454306D01*
X36930491Y-180451921D01*
X36940198Y-180450482D01*
X36950000Y-180450000D01*
X38250000Y-180450000D01*
X38259802Y-180450482D01*
G37*
G04 #@! TD.AperFunction*
G04 #@! TA.AperFunction,SMDPad,CuDef*
G36*
X38259802Y-179800482D02*
G01*
X38269509Y-179801921D01*
X38279028Y-179804306D01*
X38288268Y-179807612D01*
X38297140Y-179811808D01*
X38305557Y-179816853D01*
X38313439Y-179822699D01*
X38320711Y-179829289D01*
X38327301Y-179836561D01*
X38333147Y-179844443D01*
X38338192Y-179852860D01*
X38342388Y-179861732D01*
X38345694Y-179870972D01*
X38348079Y-179880491D01*
X38349518Y-179890198D01*
X38350000Y-179900000D01*
X38350000Y-180100000D01*
X38349518Y-180109802D01*
X38348079Y-180119509D01*
X38345694Y-180129028D01*
X38342388Y-180138268D01*
X38338192Y-180147140D01*
X38333147Y-180155557D01*
X38327301Y-180163439D01*
X38320711Y-180170711D01*
X38313439Y-180177301D01*
X38305557Y-180183147D01*
X38297140Y-180188192D01*
X38288268Y-180192388D01*
X38279028Y-180195694D01*
X38269509Y-180198079D01*
X38259802Y-180199518D01*
X38250000Y-180200000D01*
X36950000Y-180200000D01*
X36940198Y-180199518D01*
X36930491Y-180198079D01*
X36920972Y-180195694D01*
X36911732Y-180192388D01*
X36902860Y-180188192D01*
X36894443Y-180183147D01*
X36886561Y-180177301D01*
X36879289Y-180170711D01*
X36872699Y-180163439D01*
X36866853Y-180155557D01*
X36861808Y-180147140D01*
X36857612Y-180138268D01*
X36854306Y-180129028D01*
X36851921Y-180119509D01*
X36850482Y-180109802D01*
X36850000Y-180100000D01*
X36850000Y-179900000D01*
X36850482Y-179890198D01*
X36851921Y-179880491D01*
X36854306Y-179870972D01*
X36857612Y-179861732D01*
X36861808Y-179852860D01*
X36866853Y-179844443D01*
X36872699Y-179836561D01*
X36879289Y-179829289D01*
X36886561Y-179822699D01*
X36894443Y-179816853D01*
X36902860Y-179811808D01*
X36911732Y-179807612D01*
X36920972Y-179804306D01*
X36930491Y-179801921D01*
X36940198Y-179800482D01*
X36950000Y-179800000D01*
X38250000Y-179800000D01*
X38259802Y-179800482D01*
G37*
G04 #@! TD.AperFunction*
G04 #@! TA.AperFunction,SMDPad,CuDef*
G36*
X38259802Y-179150482D02*
G01*
X38269509Y-179151921D01*
X38279028Y-179154306D01*
X38288268Y-179157612D01*
X38297140Y-179161808D01*
X38305557Y-179166853D01*
X38313439Y-179172699D01*
X38320711Y-179179289D01*
X38327301Y-179186561D01*
X38333147Y-179194443D01*
X38338192Y-179202860D01*
X38342388Y-179211732D01*
X38345694Y-179220972D01*
X38348079Y-179230491D01*
X38349518Y-179240198D01*
X38350000Y-179250000D01*
X38350000Y-179450000D01*
X38349518Y-179459802D01*
X38348079Y-179469509D01*
X38345694Y-179479028D01*
X38342388Y-179488268D01*
X38338192Y-179497140D01*
X38333147Y-179505557D01*
X38327301Y-179513439D01*
X38320711Y-179520711D01*
X38313439Y-179527301D01*
X38305557Y-179533147D01*
X38297140Y-179538192D01*
X38288268Y-179542388D01*
X38279028Y-179545694D01*
X38269509Y-179548079D01*
X38259802Y-179549518D01*
X38250000Y-179550000D01*
X36950000Y-179550000D01*
X36940198Y-179549518D01*
X36930491Y-179548079D01*
X36920972Y-179545694D01*
X36911732Y-179542388D01*
X36902860Y-179538192D01*
X36894443Y-179533147D01*
X36886561Y-179527301D01*
X36879289Y-179520711D01*
X36872699Y-179513439D01*
X36866853Y-179505557D01*
X36861808Y-179497140D01*
X36857612Y-179488268D01*
X36854306Y-179479028D01*
X36851921Y-179469509D01*
X36850482Y-179459802D01*
X36850000Y-179450000D01*
X36850000Y-179250000D01*
X36850482Y-179240198D01*
X36851921Y-179230491D01*
X36854306Y-179220972D01*
X36857612Y-179211732D01*
X36861808Y-179202860D01*
X36866853Y-179194443D01*
X36872699Y-179186561D01*
X36879289Y-179179289D01*
X36886561Y-179172699D01*
X36894443Y-179166853D01*
X36902860Y-179161808D01*
X36911732Y-179157612D01*
X36920972Y-179154306D01*
X36930491Y-179151921D01*
X36940198Y-179150482D01*
X36950000Y-179150000D01*
X38250000Y-179150000D01*
X38259802Y-179150482D01*
G37*
G04 #@! TD.AperFunction*
G04 #@! TA.AperFunction,SMDPad,CuDef*
G36*
X38259802Y-178500482D02*
G01*
X38269509Y-178501921D01*
X38279028Y-178504306D01*
X38288268Y-178507612D01*
X38297140Y-178511808D01*
X38305557Y-178516853D01*
X38313439Y-178522699D01*
X38320711Y-178529289D01*
X38327301Y-178536561D01*
X38333147Y-178544443D01*
X38338192Y-178552860D01*
X38342388Y-178561732D01*
X38345694Y-178570972D01*
X38348079Y-178580491D01*
X38349518Y-178590198D01*
X38350000Y-178600000D01*
X38350000Y-178800000D01*
X38349518Y-178809802D01*
X38348079Y-178819509D01*
X38345694Y-178829028D01*
X38342388Y-178838268D01*
X38338192Y-178847140D01*
X38333147Y-178855557D01*
X38327301Y-178863439D01*
X38320711Y-178870711D01*
X38313439Y-178877301D01*
X38305557Y-178883147D01*
X38297140Y-178888192D01*
X38288268Y-178892388D01*
X38279028Y-178895694D01*
X38269509Y-178898079D01*
X38259802Y-178899518D01*
X38250000Y-178900000D01*
X36950000Y-178900000D01*
X36940198Y-178899518D01*
X36930491Y-178898079D01*
X36920972Y-178895694D01*
X36911732Y-178892388D01*
X36902860Y-178888192D01*
X36894443Y-178883147D01*
X36886561Y-178877301D01*
X36879289Y-178870711D01*
X36872699Y-178863439D01*
X36866853Y-178855557D01*
X36861808Y-178847140D01*
X36857612Y-178838268D01*
X36854306Y-178829028D01*
X36851921Y-178819509D01*
X36850482Y-178809802D01*
X36850000Y-178800000D01*
X36850000Y-178600000D01*
X36850482Y-178590198D01*
X36851921Y-178580491D01*
X36854306Y-178570972D01*
X36857612Y-178561732D01*
X36861808Y-178552860D01*
X36866853Y-178544443D01*
X36872699Y-178536561D01*
X36879289Y-178529289D01*
X36886561Y-178522699D01*
X36894443Y-178516853D01*
X36902860Y-178511808D01*
X36911732Y-178507612D01*
X36920972Y-178504306D01*
X36930491Y-178501921D01*
X36940198Y-178500482D01*
X36950000Y-178500000D01*
X38250000Y-178500000D01*
X38259802Y-178500482D01*
G37*
G04 #@! TD.AperFunction*
G04 #@! TA.AperFunction,SMDPad,CuDef*
G36*
X45059802Y-178500482D02*
G01*
X45069509Y-178501921D01*
X45079028Y-178504306D01*
X45088268Y-178507612D01*
X45097140Y-178511808D01*
X45105557Y-178516853D01*
X45113439Y-178522699D01*
X45120711Y-178529289D01*
X45127301Y-178536561D01*
X45133147Y-178544443D01*
X45138192Y-178552860D01*
X45142388Y-178561732D01*
X45145694Y-178570972D01*
X45148079Y-178580491D01*
X45149518Y-178590198D01*
X45150000Y-178600000D01*
X45150000Y-178800000D01*
X45149518Y-178809802D01*
X45148079Y-178819509D01*
X45145694Y-178829028D01*
X45142388Y-178838268D01*
X45138192Y-178847140D01*
X45133147Y-178855557D01*
X45127301Y-178863439D01*
X45120711Y-178870711D01*
X45113439Y-178877301D01*
X45105557Y-178883147D01*
X45097140Y-178888192D01*
X45088268Y-178892388D01*
X45079028Y-178895694D01*
X45069509Y-178898079D01*
X45059802Y-178899518D01*
X45050000Y-178900000D01*
X43750000Y-178900000D01*
X43740198Y-178899518D01*
X43730491Y-178898079D01*
X43720972Y-178895694D01*
X43711732Y-178892388D01*
X43702860Y-178888192D01*
X43694443Y-178883147D01*
X43686561Y-178877301D01*
X43679289Y-178870711D01*
X43672699Y-178863439D01*
X43666853Y-178855557D01*
X43661808Y-178847140D01*
X43657612Y-178838268D01*
X43654306Y-178829028D01*
X43651921Y-178819509D01*
X43650482Y-178809802D01*
X43650000Y-178800000D01*
X43650000Y-178600000D01*
X43650482Y-178590198D01*
X43651921Y-178580491D01*
X43654306Y-178570972D01*
X43657612Y-178561732D01*
X43661808Y-178552860D01*
X43666853Y-178544443D01*
X43672699Y-178536561D01*
X43679289Y-178529289D01*
X43686561Y-178522699D01*
X43694443Y-178516853D01*
X43702860Y-178511808D01*
X43711732Y-178507612D01*
X43720972Y-178504306D01*
X43730491Y-178501921D01*
X43740198Y-178500482D01*
X43750000Y-178500000D01*
X45050000Y-178500000D01*
X45059802Y-178500482D01*
G37*
G04 #@! TD.AperFunction*
G04 #@! TA.AperFunction,SMDPad,CuDef*
G36*
X45059802Y-179150482D02*
G01*
X45069509Y-179151921D01*
X45079028Y-179154306D01*
X45088268Y-179157612D01*
X45097140Y-179161808D01*
X45105557Y-179166853D01*
X45113439Y-179172699D01*
X45120711Y-179179289D01*
X45127301Y-179186561D01*
X45133147Y-179194443D01*
X45138192Y-179202860D01*
X45142388Y-179211732D01*
X45145694Y-179220972D01*
X45148079Y-179230491D01*
X45149518Y-179240198D01*
X45150000Y-179250000D01*
X45150000Y-179450000D01*
X45149518Y-179459802D01*
X45148079Y-179469509D01*
X45145694Y-179479028D01*
X45142388Y-179488268D01*
X45138192Y-179497140D01*
X45133147Y-179505557D01*
X45127301Y-179513439D01*
X45120711Y-179520711D01*
X45113439Y-179527301D01*
X45105557Y-179533147D01*
X45097140Y-179538192D01*
X45088268Y-179542388D01*
X45079028Y-179545694D01*
X45069509Y-179548079D01*
X45059802Y-179549518D01*
X45050000Y-179550000D01*
X43750000Y-179550000D01*
X43740198Y-179549518D01*
X43730491Y-179548079D01*
X43720972Y-179545694D01*
X43711732Y-179542388D01*
X43702860Y-179538192D01*
X43694443Y-179533147D01*
X43686561Y-179527301D01*
X43679289Y-179520711D01*
X43672699Y-179513439D01*
X43666853Y-179505557D01*
X43661808Y-179497140D01*
X43657612Y-179488268D01*
X43654306Y-179479028D01*
X43651921Y-179469509D01*
X43650482Y-179459802D01*
X43650000Y-179450000D01*
X43650000Y-179250000D01*
X43650482Y-179240198D01*
X43651921Y-179230491D01*
X43654306Y-179220972D01*
X43657612Y-179211732D01*
X43661808Y-179202860D01*
X43666853Y-179194443D01*
X43672699Y-179186561D01*
X43679289Y-179179289D01*
X43686561Y-179172699D01*
X43694443Y-179166853D01*
X43702860Y-179161808D01*
X43711732Y-179157612D01*
X43720972Y-179154306D01*
X43730491Y-179151921D01*
X43740198Y-179150482D01*
X43750000Y-179150000D01*
X45050000Y-179150000D01*
X45059802Y-179150482D01*
G37*
G04 #@! TD.AperFunction*
G04 #@! TA.AperFunction,SMDPad,CuDef*
G36*
X45059802Y-179800482D02*
G01*
X45069509Y-179801921D01*
X45079028Y-179804306D01*
X45088268Y-179807612D01*
X45097140Y-179811808D01*
X45105557Y-179816853D01*
X45113439Y-179822699D01*
X45120711Y-179829289D01*
X45127301Y-179836561D01*
X45133147Y-179844443D01*
X45138192Y-179852860D01*
X45142388Y-179861732D01*
X45145694Y-179870972D01*
X45148079Y-179880491D01*
X45149518Y-179890198D01*
X45150000Y-179900000D01*
X45150000Y-180100000D01*
X45149518Y-180109802D01*
X45148079Y-180119509D01*
X45145694Y-180129028D01*
X45142388Y-180138268D01*
X45138192Y-180147140D01*
X45133147Y-180155557D01*
X45127301Y-180163439D01*
X45120711Y-180170711D01*
X45113439Y-180177301D01*
X45105557Y-180183147D01*
X45097140Y-180188192D01*
X45088268Y-180192388D01*
X45079028Y-180195694D01*
X45069509Y-180198079D01*
X45059802Y-180199518D01*
X45050000Y-180200000D01*
X43750000Y-180200000D01*
X43740198Y-180199518D01*
X43730491Y-180198079D01*
X43720972Y-180195694D01*
X43711732Y-180192388D01*
X43702860Y-180188192D01*
X43694443Y-180183147D01*
X43686561Y-180177301D01*
X43679289Y-180170711D01*
X43672699Y-180163439D01*
X43666853Y-180155557D01*
X43661808Y-180147140D01*
X43657612Y-180138268D01*
X43654306Y-180129028D01*
X43651921Y-180119509D01*
X43650482Y-180109802D01*
X43650000Y-180100000D01*
X43650000Y-179900000D01*
X43650482Y-179890198D01*
X43651921Y-179880491D01*
X43654306Y-179870972D01*
X43657612Y-179861732D01*
X43661808Y-179852860D01*
X43666853Y-179844443D01*
X43672699Y-179836561D01*
X43679289Y-179829289D01*
X43686561Y-179822699D01*
X43694443Y-179816853D01*
X43702860Y-179811808D01*
X43711732Y-179807612D01*
X43720972Y-179804306D01*
X43730491Y-179801921D01*
X43740198Y-179800482D01*
X43750000Y-179800000D01*
X45050000Y-179800000D01*
X45059802Y-179800482D01*
G37*
G04 #@! TD.AperFunction*
G04 #@! TA.AperFunction,SMDPad,CuDef*
G36*
X45059802Y-180450482D02*
G01*
X45069509Y-180451921D01*
X45079028Y-180454306D01*
X45088268Y-180457612D01*
X45097140Y-180461808D01*
X45105557Y-180466853D01*
X45113439Y-180472699D01*
X45120711Y-180479289D01*
X45127301Y-180486561D01*
X45133147Y-180494443D01*
X45138192Y-180502860D01*
X45142388Y-180511732D01*
X45145694Y-180520972D01*
X45148079Y-180530491D01*
X45149518Y-180540198D01*
X45150000Y-180550000D01*
X45150000Y-180750000D01*
X45149518Y-180759802D01*
X45148079Y-180769509D01*
X45145694Y-180779028D01*
X45142388Y-180788268D01*
X45138192Y-180797140D01*
X45133147Y-180805557D01*
X45127301Y-180813439D01*
X45120711Y-180820711D01*
X45113439Y-180827301D01*
X45105557Y-180833147D01*
X45097140Y-180838192D01*
X45088268Y-180842388D01*
X45079028Y-180845694D01*
X45069509Y-180848079D01*
X45059802Y-180849518D01*
X45050000Y-180850000D01*
X43750000Y-180850000D01*
X43740198Y-180849518D01*
X43730491Y-180848079D01*
X43720972Y-180845694D01*
X43711732Y-180842388D01*
X43702860Y-180838192D01*
X43694443Y-180833147D01*
X43686561Y-180827301D01*
X43679289Y-180820711D01*
X43672699Y-180813439D01*
X43666853Y-180805557D01*
X43661808Y-180797140D01*
X43657612Y-180788268D01*
X43654306Y-180779028D01*
X43651921Y-180769509D01*
X43650482Y-180759802D01*
X43650000Y-180750000D01*
X43650000Y-180550000D01*
X43650482Y-180540198D01*
X43651921Y-180530491D01*
X43654306Y-180520972D01*
X43657612Y-180511732D01*
X43661808Y-180502860D01*
X43666853Y-180494443D01*
X43672699Y-180486561D01*
X43679289Y-180479289D01*
X43686561Y-180472699D01*
X43694443Y-180466853D01*
X43702860Y-180461808D01*
X43711732Y-180457612D01*
X43720972Y-180454306D01*
X43730491Y-180451921D01*
X43740198Y-180450482D01*
X43750000Y-180450000D01*
X45050000Y-180450000D01*
X45059802Y-180450482D01*
G37*
G04 #@! TD.AperFunction*
G04 #@! TA.AperFunction,SMDPad,CuDef*
G36*
X45059802Y-181100482D02*
G01*
X45069509Y-181101921D01*
X45079028Y-181104306D01*
X45088268Y-181107612D01*
X45097140Y-181111808D01*
X45105557Y-181116853D01*
X45113439Y-181122699D01*
X45120711Y-181129289D01*
X45127301Y-181136561D01*
X45133147Y-181144443D01*
X45138192Y-181152860D01*
X45142388Y-181161732D01*
X45145694Y-181170972D01*
X45148079Y-181180491D01*
X45149518Y-181190198D01*
X45150000Y-181200000D01*
X45150000Y-181400000D01*
X45149518Y-181409802D01*
X45148079Y-181419509D01*
X45145694Y-181429028D01*
X45142388Y-181438268D01*
X45138192Y-181447140D01*
X45133147Y-181455557D01*
X45127301Y-181463439D01*
X45120711Y-181470711D01*
X45113439Y-181477301D01*
X45105557Y-181483147D01*
X45097140Y-181488192D01*
X45088268Y-181492388D01*
X45079028Y-181495694D01*
X45069509Y-181498079D01*
X45059802Y-181499518D01*
X45050000Y-181500000D01*
X43750000Y-181500000D01*
X43740198Y-181499518D01*
X43730491Y-181498079D01*
X43720972Y-181495694D01*
X43711732Y-181492388D01*
X43702860Y-181488192D01*
X43694443Y-181483147D01*
X43686561Y-181477301D01*
X43679289Y-181470711D01*
X43672699Y-181463439D01*
X43666853Y-181455557D01*
X43661808Y-181447140D01*
X43657612Y-181438268D01*
X43654306Y-181429028D01*
X43651921Y-181419509D01*
X43650482Y-181409802D01*
X43650000Y-181400000D01*
X43650000Y-181200000D01*
X43650482Y-181190198D01*
X43651921Y-181180491D01*
X43654306Y-181170972D01*
X43657612Y-181161732D01*
X43661808Y-181152860D01*
X43666853Y-181144443D01*
X43672699Y-181136561D01*
X43679289Y-181129289D01*
X43686561Y-181122699D01*
X43694443Y-181116853D01*
X43702860Y-181111808D01*
X43711732Y-181107612D01*
X43720972Y-181104306D01*
X43730491Y-181101921D01*
X43740198Y-181100482D01*
X43750000Y-181100000D01*
X45050000Y-181100000D01*
X45059802Y-181100482D01*
G37*
G04 #@! TD.AperFunction*
G04 #@! TA.AperFunction,SMDPad,CuDef*
G36*
X45059802Y-181750482D02*
G01*
X45069509Y-181751921D01*
X45079028Y-181754306D01*
X45088268Y-181757612D01*
X45097140Y-181761808D01*
X45105557Y-181766853D01*
X45113439Y-181772699D01*
X45120711Y-181779289D01*
X45127301Y-181786561D01*
X45133147Y-181794443D01*
X45138192Y-181802860D01*
X45142388Y-181811732D01*
X45145694Y-181820972D01*
X45148079Y-181830491D01*
X45149518Y-181840198D01*
X45150000Y-181850000D01*
X45150000Y-182050000D01*
X45149518Y-182059802D01*
X45148079Y-182069509D01*
X45145694Y-182079028D01*
X45142388Y-182088268D01*
X45138192Y-182097140D01*
X45133147Y-182105557D01*
X45127301Y-182113439D01*
X45120711Y-182120711D01*
X45113439Y-182127301D01*
X45105557Y-182133147D01*
X45097140Y-182138192D01*
X45088268Y-182142388D01*
X45079028Y-182145694D01*
X45069509Y-182148079D01*
X45059802Y-182149518D01*
X45050000Y-182150000D01*
X43750000Y-182150000D01*
X43740198Y-182149518D01*
X43730491Y-182148079D01*
X43720972Y-182145694D01*
X43711732Y-182142388D01*
X43702860Y-182138192D01*
X43694443Y-182133147D01*
X43686561Y-182127301D01*
X43679289Y-182120711D01*
X43672699Y-182113439D01*
X43666853Y-182105557D01*
X43661808Y-182097140D01*
X43657612Y-182088268D01*
X43654306Y-182079028D01*
X43651921Y-182069509D01*
X43650482Y-182059802D01*
X43650000Y-182050000D01*
X43650000Y-181850000D01*
X43650482Y-181840198D01*
X43651921Y-181830491D01*
X43654306Y-181820972D01*
X43657612Y-181811732D01*
X43661808Y-181802860D01*
X43666853Y-181794443D01*
X43672699Y-181786561D01*
X43679289Y-181779289D01*
X43686561Y-181772699D01*
X43694443Y-181766853D01*
X43702860Y-181761808D01*
X43711732Y-181757612D01*
X43720972Y-181754306D01*
X43730491Y-181751921D01*
X43740198Y-181750482D01*
X43750000Y-181750000D01*
X45050000Y-181750000D01*
X45059802Y-181750482D01*
G37*
G04 #@! TD.AperFunction*
G04 #@! TA.AperFunction,SMDPad,CuDef*
G36*
X45059802Y-182400482D02*
G01*
X45069509Y-182401921D01*
X45079028Y-182404306D01*
X45088268Y-182407612D01*
X45097140Y-182411808D01*
X45105557Y-182416853D01*
X45113439Y-182422699D01*
X45120711Y-182429289D01*
X45127301Y-182436561D01*
X45133147Y-182444443D01*
X45138192Y-182452860D01*
X45142388Y-182461732D01*
X45145694Y-182470972D01*
X45148079Y-182480491D01*
X45149518Y-182490198D01*
X45150000Y-182500000D01*
X45150000Y-182700000D01*
X45149518Y-182709802D01*
X45148079Y-182719509D01*
X45145694Y-182729028D01*
X45142388Y-182738268D01*
X45138192Y-182747140D01*
X45133147Y-182755557D01*
X45127301Y-182763439D01*
X45120711Y-182770711D01*
X45113439Y-182777301D01*
X45105557Y-182783147D01*
X45097140Y-182788192D01*
X45088268Y-182792388D01*
X45079028Y-182795694D01*
X45069509Y-182798079D01*
X45059802Y-182799518D01*
X45050000Y-182800000D01*
X43750000Y-182800000D01*
X43740198Y-182799518D01*
X43730491Y-182798079D01*
X43720972Y-182795694D01*
X43711732Y-182792388D01*
X43702860Y-182788192D01*
X43694443Y-182783147D01*
X43686561Y-182777301D01*
X43679289Y-182770711D01*
X43672699Y-182763439D01*
X43666853Y-182755557D01*
X43661808Y-182747140D01*
X43657612Y-182738268D01*
X43654306Y-182729028D01*
X43651921Y-182719509D01*
X43650482Y-182709802D01*
X43650000Y-182700000D01*
X43650000Y-182500000D01*
X43650482Y-182490198D01*
X43651921Y-182480491D01*
X43654306Y-182470972D01*
X43657612Y-182461732D01*
X43661808Y-182452860D01*
X43666853Y-182444443D01*
X43672699Y-182436561D01*
X43679289Y-182429289D01*
X43686561Y-182422699D01*
X43694443Y-182416853D01*
X43702860Y-182411808D01*
X43711732Y-182407612D01*
X43720972Y-182404306D01*
X43730491Y-182401921D01*
X43740198Y-182400482D01*
X43750000Y-182400000D01*
X45050000Y-182400000D01*
X45059802Y-182400482D01*
G37*
G04 #@! TD.AperFunction*
G04 #@! TA.AperFunction,SMDPad,CuDef*
G36*
X45059802Y-183050482D02*
G01*
X45069509Y-183051921D01*
X45079028Y-183054306D01*
X45088268Y-183057612D01*
X45097140Y-183061808D01*
X45105557Y-183066853D01*
X45113439Y-183072699D01*
X45120711Y-183079289D01*
X45127301Y-183086561D01*
X45133147Y-183094443D01*
X45138192Y-183102860D01*
X45142388Y-183111732D01*
X45145694Y-183120972D01*
X45148079Y-183130491D01*
X45149518Y-183140198D01*
X45150000Y-183150000D01*
X45150000Y-183350000D01*
X45149518Y-183359802D01*
X45148079Y-183369509D01*
X45145694Y-183379028D01*
X45142388Y-183388268D01*
X45138192Y-183397140D01*
X45133147Y-183405557D01*
X45127301Y-183413439D01*
X45120711Y-183420711D01*
X45113439Y-183427301D01*
X45105557Y-183433147D01*
X45097140Y-183438192D01*
X45088268Y-183442388D01*
X45079028Y-183445694D01*
X45069509Y-183448079D01*
X45059802Y-183449518D01*
X45050000Y-183450000D01*
X43750000Y-183450000D01*
X43740198Y-183449518D01*
X43730491Y-183448079D01*
X43720972Y-183445694D01*
X43711732Y-183442388D01*
X43702860Y-183438192D01*
X43694443Y-183433147D01*
X43686561Y-183427301D01*
X43679289Y-183420711D01*
X43672699Y-183413439D01*
X43666853Y-183405557D01*
X43661808Y-183397140D01*
X43657612Y-183388268D01*
X43654306Y-183379028D01*
X43651921Y-183369509D01*
X43650482Y-183359802D01*
X43650000Y-183350000D01*
X43650000Y-183150000D01*
X43650482Y-183140198D01*
X43651921Y-183130491D01*
X43654306Y-183120972D01*
X43657612Y-183111732D01*
X43661808Y-183102860D01*
X43666853Y-183094443D01*
X43672699Y-183086561D01*
X43679289Y-183079289D01*
X43686561Y-183072699D01*
X43694443Y-183066853D01*
X43702860Y-183061808D01*
X43711732Y-183057612D01*
X43720972Y-183054306D01*
X43730491Y-183051921D01*
X43740198Y-183050482D01*
X43750000Y-183050000D01*
X45050000Y-183050000D01*
X45059802Y-183050482D01*
G37*
G04 #@! TD.AperFunction*
G04 #@! TA.AperFunction,SMDPad,CuDef*
G36*
X45059802Y-183700482D02*
G01*
X45069509Y-183701921D01*
X45079028Y-183704306D01*
X45088268Y-183707612D01*
X45097140Y-183711808D01*
X45105557Y-183716853D01*
X45113439Y-183722699D01*
X45120711Y-183729289D01*
X45127301Y-183736561D01*
X45133147Y-183744443D01*
X45138192Y-183752860D01*
X45142388Y-183761732D01*
X45145694Y-183770972D01*
X45148079Y-183780491D01*
X45149518Y-183790198D01*
X45150000Y-183800000D01*
X45150000Y-184000000D01*
X45149518Y-184009802D01*
X45148079Y-184019509D01*
X45145694Y-184029028D01*
X45142388Y-184038268D01*
X45138192Y-184047140D01*
X45133147Y-184055557D01*
X45127301Y-184063439D01*
X45120711Y-184070711D01*
X45113439Y-184077301D01*
X45105557Y-184083147D01*
X45097140Y-184088192D01*
X45088268Y-184092388D01*
X45079028Y-184095694D01*
X45069509Y-184098079D01*
X45059802Y-184099518D01*
X45050000Y-184100000D01*
X43750000Y-184100000D01*
X43740198Y-184099518D01*
X43730491Y-184098079D01*
X43720972Y-184095694D01*
X43711732Y-184092388D01*
X43702860Y-184088192D01*
X43694443Y-184083147D01*
X43686561Y-184077301D01*
X43679289Y-184070711D01*
X43672699Y-184063439D01*
X43666853Y-184055557D01*
X43661808Y-184047140D01*
X43657612Y-184038268D01*
X43654306Y-184029028D01*
X43651921Y-184019509D01*
X43650482Y-184009802D01*
X43650000Y-184000000D01*
X43650000Y-183800000D01*
X43650482Y-183790198D01*
X43651921Y-183780491D01*
X43654306Y-183770972D01*
X43657612Y-183761732D01*
X43661808Y-183752860D01*
X43666853Y-183744443D01*
X43672699Y-183736561D01*
X43679289Y-183729289D01*
X43686561Y-183722699D01*
X43694443Y-183716853D01*
X43702860Y-183711808D01*
X43711732Y-183707612D01*
X43720972Y-183704306D01*
X43730491Y-183701921D01*
X43740198Y-183700482D01*
X43750000Y-183700000D01*
X45050000Y-183700000D01*
X45059802Y-183700482D01*
G37*
G04 #@! TD.AperFunction*
G04 #@! TA.AperFunction,SMDPad,CuDef*
G36*
X45059802Y-184350482D02*
G01*
X45069509Y-184351921D01*
X45079028Y-184354306D01*
X45088268Y-184357612D01*
X45097140Y-184361808D01*
X45105557Y-184366853D01*
X45113439Y-184372699D01*
X45120711Y-184379289D01*
X45127301Y-184386561D01*
X45133147Y-184394443D01*
X45138192Y-184402860D01*
X45142388Y-184411732D01*
X45145694Y-184420972D01*
X45148079Y-184430491D01*
X45149518Y-184440198D01*
X45150000Y-184450000D01*
X45150000Y-184650000D01*
X45149518Y-184659802D01*
X45148079Y-184669509D01*
X45145694Y-184679028D01*
X45142388Y-184688268D01*
X45138192Y-184697140D01*
X45133147Y-184705557D01*
X45127301Y-184713439D01*
X45120711Y-184720711D01*
X45113439Y-184727301D01*
X45105557Y-184733147D01*
X45097140Y-184738192D01*
X45088268Y-184742388D01*
X45079028Y-184745694D01*
X45069509Y-184748079D01*
X45059802Y-184749518D01*
X45050000Y-184750000D01*
X43750000Y-184750000D01*
X43740198Y-184749518D01*
X43730491Y-184748079D01*
X43720972Y-184745694D01*
X43711732Y-184742388D01*
X43702860Y-184738192D01*
X43694443Y-184733147D01*
X43686561Y-184727301D01*
X43679289Y-184720711D01*
X43672699Y-184713439D01*
X43666853Y-184705557D01*
X43661808Y-184697140D01*
X43657612Y-184688268D01*
X43654306Y-184679028D01*
X43651921Y-184669509D01*
X43650482Y-184659802D01*
X43650000Y-184650000D01*
X43650000Y-184450000D01*
X43650482Y-184440198D01*
X43651921Y-184430491D01*
X43654306Y-184420972D01*
X43657612Y-184411732D01*
X43661808Y-184402860D01*
X43666853Y-184394443D01*
X43672699Y-184386561D01*
X43679289Y-184379289D01*
X43686561Y-184372699D01*
X43694443Y-184366853D01*
X43702860Y-184361808D01*
X43711732Y-184357612D01*
X43720972Y-184354306D01*
X43730491Y-184351921D01*
X43740198Y-184350482D01*
X43750000Y-184350000D01*
X45050000Y-184350000D01*
X45059802Y-184350482D01*
G37*
G04 #@! TD.AperFunction*
G04 #@! TA.AperFunction,SMDPad,CuDef*
G36*
X45059802Y-185000482D02*
G01*
X45069509Y-185001921D01*
X45079028Y-185004306D01*
X45088268Y-185007612D01*
X45097140Y-185011808D01*
X45105557Y-185016853D01*
X45113439Y-185022699D01*
X45120711Y-185029289D01*
X45127301Y-185036561D01*
X45133147Y-185044443D01*
X45138192Y-185052860D01*
X45142388Y-185061732D01*
X45145694Y-185070972D01*
X45148079Y-185080491D01*
X45149518Y-185090198D01*
X45150000Y-185100000D01*
X45150000Y-185300000D01*
X45149518Y-185309802D01*
X45148079Y-185319509D01*
X45145694Y-185329028D01*
X45142388Y-185338268D01*
X45138192Y-185347140D01*
X45133147Y-185355557D01*
X45127301Y-185363439D01*
X45120711Y-185370711D01*
X45113439Y-185377301D01*
X45105557Y-185383147D01*
X45097140Y-185388192D01*
X45088268Y-185392388D01*
X45079028Y-185395694D01*
X45069509Y-185398079D01*
X45059802Y-185399518D01*
X45050000Y-185400000D01*
X43750000Y-185400000D01*
X43740198Y-185399518D01*
X43730491Y-185398079D01*
X43720972Y-185395694D01*
X43711732Y-185392388D01*
X43702860Y-185388192D01*
X43694443Y-185383147D01*
X43686561Y-185377301D01*
X43679289Y-185370711D01*
X43672699Y-185363439D01*
X43666853Y-185355557D01*
X43661808Y-185347140D01*
X43657612Y-185338268D01*
X43654306Y-185329028D01*
X43651921Y-185319509D01*
X43650482Y-185309802D01*
X43650000Y-185300000D01*
X43650000Y-185100000D01*
X43650482Y-185090198D01*
X43651921Y-185080491D01*
X43654306Y-185070972D01*
X43657612Y-185061732D01*
X43661808Y-185052860D01*
X43666853Y-185044443D01*
X43672699Y-185036561D01*
X43679289Y-185029289D01*
X43686561Y-185022699D01*
X43694443Y-185016853D01*
X43702860Y-185011808D01*
X43711732Y-185007612D01*
X43720972Y-185004306D01*
X43730491Y-185001921D01*
X43740198Y-185000482D01*
X43750000Y-185000000D01*
X45050000Y-185000000D01*
X45059802Y-185000482D01*
G37*
G04 #@! TD.AperFunction*
G04 #@! TA.AperFunction,SMDPad,CuDef*
G36*
X45059802Y-185650482D02*
G01*
X45069509Y-185651921D01*
X45079028Y-185654306D01*
X45088268Y-185657612D01*
X45097140Y-185661808D01*
X45105557Y-185666853D01*
X45113439Y-185672699D01*
X45120711Y-185679289D01*
X45127301Y-185686561D01*
X45133147Y-185694443D01*
X45138192Y-185702860D01*
X45142388Y-185711732D01*
X45145694Y-185720972D01*
X45148079Y-185730491D01*
X45149518Y-185740198D01*
X45150000Y-185750000D01*
X45150000Y-185950000D01*
X45149518Y-185959802D01*
X45148079Y-185969509D01*
X45145694Y-185979028D01*
X45142388Y-185988268D01*
X45138192Y-185997140D01*
X45133147Y-186005557D01*
X45127301Y-186013439D01*
X45120711Y-186020711D01*
X45113439Y-186027301D01*
X45105557Y-186033147D01*
X45097140Y-186038192D01*
X45088268Y-186042388D01*
X45079028Y-186045694D01*
X45069509Y-186048079D01*
X45059802Y-186049518D01*
X45050000Y-186050000D01*
X43750000Y-186050000D01*
X43740198Y-186049518D01*
X43730491Y-186048079D01*
X43720972Y-186045694D01*
X43711732Y-186042388D01*
X43702860Y-186038192D01*
X43694443Y-186033147D01*
X43686561Y-186027301D01*
X43679289Y-186020711D01*
X43672699Y-186013439D01*
X43666853Y-186005557D01*
X43661808Y-185997140D01*
X43657612Y-185988268D01*
X43654306Y-185979028D01*
X43651921Y-185969509D01*
X43650482Y-185959802D01*
X43650000Y-185950000D01*
X43650000Y-185750000D01*
X43650482Y-185740198D01*
X43651921Y-185730491D01*
X43654306Y-185720972D01*
X43657612Y-185711732D01*
X43661808Y-185702860D01*
X43666853Y-185694443D01*
X43672699Y-185686561D01*
X43679289Y-185679289D01*
X43686561Y-185672699D01*
X43694443Y-185666853D01*
X43702860Y-185661808D01*
X43711732Y-185657612D01*
X43720972Y-185654306D01*
X43730491Y-185651921D01*
X43740198Y-185650482D01*
X43750000Y-185650000D01*
X45050000Y-185650000D01*
X45059802Y-185650482D01*
G37*
G04 #@! TD.AperFunction*
G04 #@! TA.AperFunction,SMDPad,CuDef*
G36*
X45059802Y-186300482D02*
G01*
X45069509Y-186301921D01*
X45079028Y-186304306D01*
X45088268Y-186307612D01*
X45097140Y-186311808D01*
X45105557Y-186316853D01*
X45113439Y-186322699D01*
X45120711Y-186329289D01*
X45127301Y-186336561D01*
X45133147Y-186344443D01*
X45138192Y-186352860D01*
X45142388Y-186361732D01*
X45145694Y-186370972D01*
X45148079Y-186380491D01*
X45149518Y-186390198D01*
X45150000Y-186400000D01*
X45150000Y-186600000D01*
X45149518Y-186609802D01*
X45148079Y-186619509D01*
X45145694Y-186629028D01*
X45142388Y-186638268D01*
X45138192Y-186647140D01*
X45133147Y-186655557D01*
X45127301Y-186663439D01*
X45120711Y-186670711D01*
X45113439Y-186677301D01*
X45105557Y-186683147D01*
X45097140Y-186688192D01*
X45088268Y-186692388D01*
X45079028Y-186695694D01*
X45069509Y-186698079D01*
X45059802Y-186699518D01*
X45050000Y-186700000D01*
X43750000Y-186700000D01*
X43740198Y-186699518D01*
X43730491Y-186698079D01*
X43720972Y-186695694D01*
X43711732Y-186692388D01*
X43702860Y-186688192D01*
X43694443Y-186683147D01*
X43686561Y-186677301D01*
X43679289Y-186670711D01*
X43672699Y-186663439D01*
X43666853Y-186655557D01*
X43661808Y-186647140D01*
X43657612Y-186638268D01*
X43654306Y-186629028D01*
X43651921Y-186619509D01*
X43650482Y-186609802D01*
X43650000Y-186600000D01*
X43650000Y-186400000D01*
X43650482Y-186390198D01*
X43651921Y-186380491D01*
X43654306Y-186370972D01*
X43657612Y-186361732D01*
X43661808Y-186352860D01*
X43666853Y-186344443D01*
X43672699Y-186336561D01*
X43679289Y-186329289D01*
X43686561Y-186322699D01*
X43694443Y-186316853D01*
X43702860Y-186311808D01*
X43711732Y-186307612D01*
X43720972Y-186304306D01*
X43730491Y-186301921D01*
X43740198Y-186300482D01*
X43750000Y-186300000D01*
X45050000Y-186300000D01*
X45059802Y-186300482D01*
G37*
G04 #@! TD.AperFunction*
G04 #@! TA.AperFunction,SMDPad,CuDef*
G36*
X45059802Y-186950482D02*
G01*
X45069509Y-186951921D01*
X45079028Y-186954306D01*
X45088268Y-186957612D01*
X45097140Y-186961808D01*
X45105557Y-186966853D01*
X45113439Y-186972699D01*
X45120711Y-186979289D01*
X45127301Y-186986561D01*
X45133147Y-186994443D01*
X45138192Y-187002860D01*
X45142388Y-187011732D01*
X45145694Y-187020972D01*
X45148079Y-187030491D01*
X45149518Y-187040198D01*
X45150000Y-187050000D01*
X45150000Y-187250000D01*
X45149518Y-187259802D01*
X45148079Y-187269509D01*
X45145694Y-187279028D01*
X45142388Y-187288268D01*
X45138192Y-187297140D01*
X45133147Y-187305557D01*
X45127301Y-187313439D01*
X45120711Y-187320711D01*
X45113439Y-187327301D01*
X45105557Y-187333147D01*
X45097140Y-187338192D01*
X45088268Y-187342388D01*
X45079028Y-187345694D01*
X45069509Y-187348079D01*
X45059802Y-187349518D01*
X45050000Y-187350000D01*
X43750000Y-187350000D01*
X43740198Y-187349518D01*
X43730491Y-187348079D01*
X43720972Y-187345694D01*
X43711732Y-187342388D01*
X43702860Y-187338192D01*
X43694443Y-187333147D01*
X43686561Y-187327301D01*
X43679289Y-187320711D01*
X43672699Y-187313439D01*
X43666853Y-187305557D01*
X43661808Y-187297140D01*
X43657612Y-187288268D01*
X43654306Y-187279028D01*
X43651921Y-187269509D01*
X43650482Y-187259802D01*
X43650000Y-187250000D01*
X43650000Y-187050000D01*
X43650482Y-187040198D01*
X43651921Y-187030491D01*
X43654306Y-187020972D01*
X43657612Y-187011732D01*
X43661808Y-187002860D01*
X43666853Y-186994443D01*
X43672699Y-186986561D01*
X43679289Y-186979289D01*
X43686561Y-186972699D01*
X43694443Y-186966853D01*
X43702860Y-186961808D01*
X43711732Y-186957612D01*
X43720972Y-186954306D01*
X43730491Y-186951921D01*
X43740198Y-186950482D01*
X43750000Y-186950000D01*
X45050000Y-186950000D01*
X45059802Y-186950482D01*
G37*
G04 #@! TD.AperFunction*
D17*
X50000000Y-180000000D03*
X39650000Y-185950000D03*
X50000000Y-178816000D03*
X31250000Y-187000000D03*
X32250000Y-187000000D03*
X33250000Y-187000000D03*
X34250000Y-187000000D03*
X34250000Y-188000000D03*
X33250000Y-188000000D03*
X32250000Y-188000000D03*
X31250000Y-188000000D03*
X35250000Y-187000000D03*
X35250000Y-188000000D03*
X35250000Y-189000000D03*
X34250000Y-189000000D03*
X33250000Y-189000000D03*
X32250000Y-189000000D03*
X31250000Y-189000000D03*
X36000000Y-185750000D03*
X30750000Y-169000000D03*
X31750000Y-169000000D03*
X32750000Y-169000000D03*
X33750000Y-169000000D03*
X33750000Y-170000000D03*
X32750000Y-170000000D03*
X31750000Y-170000000D03*
X30750000Y-170000000D03*
X30750000Y-171000000D03*
X31750000Y-171000000D03*
X32750000Y-171000000D03*
X33750000Y-171000000D03*
X47420000Y-182500000D03*
X73914000Y-172086000D03*
X73914000Y-173086000D03*
X73914000Y-174086000D03*
X73914000Y-175086000D03*
X73914000Y-176086000D03*
X73914000Y-177086000D03*
X73914000Y-178086000D03*
X73914000Y-179086000D03*
X73914000Y-180086000D03*
X73914000Y-181086000D03*
X73914000Y-182086000D03*
X73914000Y-183086000D03*
X73914000Y-184086000D03*
X73914000Y-185086000D03*
X73914000Y-186086000D03*
X73914000Y-187086000D03*
X73914000Y-188086000D03*
X73000000Y-189000000D03*
X72000000Y-189000000D03*
X71000000Y-189000000D03*
X70000000Y-189000000D03*
X69000000Y-189000000D03*
X68000000Y-189000000D03*
X67000000Y-189000000D03*
X66000000Y-189000000D03*
X65000000Y-189000000D03*
X60000000Y-189000000D03*
X59000000Y-189000000D03*
X58000000Y-189000000D03*
X57000000Y-189000000D03*
X56000000Y-189000000D03*
X55000000Y-189000000D03*
X54000000Y-189000000D03*
X53000000Y-189000000D03*
X52000000Y-189000000D03*
X51000000Y-189000000D03*
X48000000Y-189000000D03*
X45000000Y-189000000D03*
X44000000Y-189000000D03*
X43000000Y-189000000D03*
X42000000Y-189000000D03*
X41000000Y-189000000D03*
X40000000Y-189000000D03*
X39000000Y-189000000D03*
X38000000Y-189000000D03*
X37000000Y-189000000D03*
X64000000Y-189000000D03*
X63000000Y-189000000D03*
X62000000Y-189000000D03*
X61000000Y-189000000D03*
X46000000Y-189000000D03*
X47000000Y-189000000D03*
X49000000Y-189000000D03*
X50000000Y-189000000D03*
X69110000Y-175940000D03*
X68300000Y-175180000D03*
X38600000Y-177000000D03*
X39600000Y-177000000D03*
X39370001Y-182100000D03*
X36150000Y-181250000D03*
X39400000Y-178850000D03*
X67500000Y-175980000D03*
X38680000Y-171680000D03*
X48258816Y-177838000D03*
X42950000Y-178816000D03*
X42740000Y-185980000D03*
X48200000Y-181610000D03*
X42950000Y-181610000D03*
X53100000Y-185760000D03*
X41148000Y-179070000D03*
X44600000Y-172400000D03*
X42860126Y-187200503D03*
X46310000Y-172640000D03*
X53230000Y-179040000D03*
X56388000Y-177292000D03*
X51250830Y-173267316D03*
X50292000Y-172466000D03*
X52324000Y-173228000D03*
X52719078Y-172286639D03*
X53553314Y-171735228D03*
D18*
X34900000Y-178000000D02*
X35550000Y-178650000D01*
X35550000Y-178650000D02*
X35600000Y-178700000D01*
X35600000Y-178700000D02*
X37600000Y-178700000D01*
X37600000Y-179350000D02*
X35550000Y-179350000D01*
X35550000Y-179350000D02*
X34900000Y-180000000D01*
X33810660Y-173350000D02*
X32800000Y-173350000D01*
X32800000Y-173350000D02*
X32850000Y-173400000D01*
X34950000Y-175450000D02*
X34900000Y-175500000D01*
X32800000Y-184700000D02*
X32750000Y-184700000D01*
X44400000Y-183250000D02*
X46350000Y-183250000D01*
X46350000Y-183250000D02*
X46550000Y-183450000D01*
D19*
X68048000Y-172720000D02*
X71882000Y-172720000D01*
X71882000Y-172720000D02*
X72644000Y-171958000D01*
X72644000Y-171958000D02*
X72644000Y-169926000D01*
X72718000Y-170000000D02*
X72644000Y-169926000D01*
X72720000Y-170000000D02*
X72718000Y-170000000D01*
D18*
X37650000Y-185850000D02*
X37600000Y-185850000D01*
X33965000Y-173390000D02*
X32890000Y-173390000D01*
X32890000Y-173390000D02*
X32860000Y-173390000D01*
X32860000Y-173390000D02*
X32860000Y-173400000D01*
X67710000Y-184190000D02*
X67710000Y-184220000D01*
X67710000Y-184220000D02*
X67710000Y-184200000D01*
X67710000Y-184200000D02*
X67700000Y-184190000D01*
X50640000Y-174752000D02*
X50640000Y-176436000D01*
X50640000Y-176436000D02*
X49784000Y-177292000D01*
X34734876Y-184658000D02*
X32766000Y-184658000D01*
X39086002Y-180650000D02*
X40170001Y-181733999D01*
X40170001Y-181733999D02*
X40170001Y-185019999D01*
X37600000Y-180650000D02*
X39086002Y-180650000D01*
X32450000Y-184700000D02*
X32800000Y-184700000D01*
X30641990Y-178654010D02*
X30641990Y-182891990D01*
X31400000Y-177896000D02*
X30641990Y-178654010D01*
X31400000Y-174800000D02*
X31400000Y-177896000D01*
X32750000Y-173350000D02*
X32850000Y-173350000D01*
X35068001Y-170417999D02*
X35068001Y-170925999D01*
X36068000Y-169418000D02*
X35068001Y-170417999D01*
X57550000Y-181660000D02*
X60040000Y-184150000D01*
X60040000Y-184150000D02*
X60198000Y-184150000D01*
D19*
X37250000Y-175500000D02*
X35000000Y-175500000D01*
X35000000Y-175500000D02*
X34950000Y-175550000D01*
X34950000Y-175550000D02*
X34900000Y-175500000D01*
D18*
X36100000Y-185850000D02*
X36000000Y-185750000D01*
X37600000Y-185850000D02*
X36100000Y-185850000D01*
X36550000Y-185200000D02*
X36000000Y-185750000D01*
X37600000Y-185200000D02*
X36550000Y-185200000D01*
X39550000Y-185850000D02*
X39650000Y-185950000D01*
X37600000Y-185850000D02*
X39550000Y-185850000D01*
X38900000Y-185200000D02*
X39650000Y-185950000D01*
X37600000Y-185200000D02*
X38900000Y-185200000D01*
X36000000Y-183230000D02*
X36000000Y-185750000D01*
X36630000Y-182600000D02*
X36000000Y-183230000D01*
X37600000Y-182600000D02*
X36630000Y-182600000D01*
X38900000Y-183092876D02*
X38900000Y-185200000D01*
X38407124Y-182600000D02*
X38900000Y-183092876D01*
X37600000Y-182600000D02*
X38407124Y-182600000D01*
D20*
X57246000Y-181356000D02*
X57550000Y-181660000D01*
D19*
X57550000Y-181660000D02*
X60080000Y-184190000D01*
X47399990Y-182520010D02*
X47399990Y-182500000D01*
X46550000Y-183370000D02*
X47399990Y-182520010D01*
X46550000Y-183450000D02*
X46550000Y-183370000D01*
X50000000Y-180000000D02*
X50000000Y-178816000D01*
X50000000Y-178816000D02*
X50000000Y-177500000D01*
X50000000Y-177500000D02*
X49800000Y-177300000D01*
D21*
X34900000Y-182500000D02*
X34900000Y-182550000D01*
D18*
X38407124Y-181950000D02*
X37550000Y-181950000D01*
X37550000Y-181950000D02*
X37650000Y-181950000D01*
X36510660Y-181950000D02*
X37600000Y-181950000D01*
X39202000Y-181950000D02*
X39370000Y-182118000D01*
X37600000Y-181950000D02*
X39202000Y-181950000D01*
X34900000Y-182270000D02*
X35220000Y-181950000D01*
X34900000Y-182500000D02*
X34900000Y-182270000D01*
D19*
X37250000Y-177000000D02*
X38600000Y-177000000D01*
X38600000Y-177000000D02*
X39600000Y-177000000D01*
X39370000Y-182100001D02*
X39370001Y-182100000D01*
X39370000Y-182118000D02*
X39370000Y-182100001D01*
X39400000Y-177800000D02*
X38600000Y-177000000D01*
X39400000Y-178850000D02*
X39400000Y-177800000D01*
X39400000Y-177765685D02*
X39400000Y-177800000D01*
X39600000Y-177565685D02*
X39400000Y-177765685D01*
X39600000Y-177000000D02*
X39600000Y-177565685D01*
D18*
X36150000Y-181815685D02*
X36150000Y-181950000D01*
X36150000Y-181250000D02*
X36150000Y-181815685D01*
X36150000Y-181950000D02*
X35220000Y-181950000D01*
X36510660Y-181950000D02*
X36150000Y-181950000D01*
D19*
X67970000Y-175510000D02*
X68300000Y-175180000D01*
X67500000Y-175640000D02*
X67360000Y-175500000D01*
X67500000Y-175980000D02*
X67500000Y-175640000D01*
X67360000Y-175500000D02*
X67970000Y-175510000D01*
X65720000Y-175510000D02*
X67360000Y-175500000D01*
D22*
X67360000Y-175500000D02*
X68930000Y-175500000D01*
D18*
X46550000Y-184950000D02*
X46550000Y-184900000D01*
X37600000Y-180000000D02*
X39200000Y-180000000D01*
X43050000Y-185200000D02*
X44400000Y-185200000D01*
X42490000Y-175450000D02*
X43950000Y-175450000D01*
X43950000Y-175450000D02*
X44050000Y-175450000D01*
X44050000Y-175450000D02*
X44050000Y-175400000D01*
X44100000Y-175400000D02*
X44050000Y-175400000D01*
X44050000Y-175400000D02*
X44000000Y-175400000D01*
X48600000Y-180300000D02*
X48550000Y-180300000D01*
X51275000Y-174775000D02*
X51300000Y-174800000D01*
X51275000Y-174752000D02*
X51275000Y-174775000D01*
X41750000Y-184000000D02*
X43050000Y-185200000D01*
X51275000Y-174752000D02*
X51275000Y-177259000D01*
X51275000Y-177259000D02*
X51308000Y-177292000D01*
X46650000Y-178850000D02*
X46800000Y-178850000D01*
X48290000Y-180340000D02*
X48514000Y-180340000D01*
X40770011Y-183010011D02*
X40770011Y-180724011D01*
X41750000Y-183990000D02*
X40770011Y-183010011D01*
X41750000Y-184000000D02*
X41750000Y-183990000D01*
X40046000Y-180000000D02*
X39200000Y-180000000D01*
X40770011Y-180724011D02*
X40046000Y-180000000D01*
X48480000Y-184950000D02*
X48450000Y-184950000D01*
X48530000Y-184900000D02*
X48480000Y-184950000D01*
X44400000Y-185200000D02*
X48230000Y-185200000D01*
X48230000Y-185200000D02*
X48470000Y-184960000D01*
X48470000Y-184960000D02*
X48480000Y-184950000D01*
D19*
X48750000Y-180300000D02*
X50330000Y-181880000D01*
X48600000Y-180300000D02*
X48750000Y-180300000D01*
X49280000Y-185350000D02*
X50170000Y-184460000D01*
X49280000Y-185360000D02*
X49280000Y-185350000D01*
X50330000Y-184310000D02*
X50170000Y-184460000D01*
X43790000Y-175450000D02*
X43810000Y-175430000D01*
X42490000Y-175450000D02*
X43790000Y-175450000D01*
X43810000Y-175430000D02*
X44000000Y-175430000D01*
X42490000Y-175450000D02*
X40200000Y-175450000D01*
X40200000Y-175450000D02*
X39750000Y-175000000D01*
X44000000Y-175410000D02*
X44780000Y-175410000D01*
X44780000Y-175410000D02*
X46660000Y-177290000D01*
X39750000Y-175000000D02*
X39710000Y-175000000D01*
X39710000Y-175000000D02*
X38680000Y-173970000D01*
X38680000Y-173970000D02*
X38680000Y-171680000D01*
X47930000Y-180080000D02*
X48160000Y-180310000D01*
X46630000Y-180080000D02*
X47930000Y-180080000D01*
X48160000Y-180310000D02*
X48580000Y-180310000D01*
X48580000Y-180310000D02*
X48590000Y-180300000D01*
X46630000Y-177320000D02*
X46630000Y-180080000D01*
X46660000Y-177290000D02*
X46630000Y-177320000D01*
X46630000Y-180080000D02*
X46650000Y-180100000D01*
X51308000Y-180902000D02*
X50330000Y-181880000D01*
X51308000Y-177292000D02*
X51308000Y-180902000D01*
X52848002Y-180902000D02*
X51308000Y-180902000D01*
X54332000Y-179418002D02*
X52848002Y-180902000D01*
X54332000Y-177292000D02*
X54332000Y-179418002D01*
X50845787Y-183210000D02*
X50825787Y-183190000D01*
X52260000Y-183210000D02*
X50845787Y-183210000D01*
X50825787Y-183190000D02*
X50320000Y-183190000D01*
X50320000Y-183190000D02*
X50330000Y-184310000D01*
X50330000Y-181880000D02*
X50320000Y-183190000D01*
X55742000Y-179418002D02*
X58540000Y-176620002D01*
X54332000Y-179418002D02*
X55742000Y-179418002D01*
X58540000Y-176620002D02*
X63179998Y-176620002D01*
X63179998Y-176620002D02*
X64210000Y-175590000D01*
X64210000Y-175590000D02*
X64210000Y-175580000D01*
D18*
X48600000Y-178179184D02*
X48258816Y-177838000D01*
X48600000Y-178800000D02*
X48600000Y-178179184D01*
X43066000Y-178700000D02*
X42950000Y-178816000D01*
X44400000Y-178700000D02*
X43066000Y-178700000D01*
X43462876Y-185980000D02*
X43612876Y-185830000D01*
X42740000Y-185980000D02*
X43462876Y-185980000D01*
X43612876Y-185830000D02*
X44360000Y-185830000D01*
X44360000Y-185830000D02*
X44370000Y-185840000D01*
X44370000Y-185840000D02*
X44400000Y-185840000D01*
X48599999Y-182009999D02*
X48599999Y-183310001D01*
X48200000Y-181610000D02*
X48599999Y-182009999D01*
X48599999Y-183310001D02*
X48460000Y-183450000D01*
X48460000Y-183450000D02*
X48450000Y-183450000D01*
X48450000Y-183450000D02*
X48450000Y-183440000D01*
X42950000Y-181292876D02*
X42950000Y-181610000D01*
X43592876Y-180650000D02*
X42950000Y-181292876D01*
X44400000Y-180650000D02*
X43592876Y-180650000D01*
X53100000Y-185760000D02*
X51160000Y-185760000D01*
X51160000Y-185760000D02*
X51190000Y-185790000D01*
X51190000Y-185790000D02*
X51190000Y-185810000D01*
X44410000Y-186500000D02*
X44400000Y-186490000D01*
X44400000Y-186490000D02*
X44400000Y-186500000D01*
X44400000Y-186500000D02*
X45510000Y-186500000D01*
X45510000Y-186500000D02*
X46550000Y-187540000D01*
X44400000Y-181950000D02*
X45888000Y-181950000D01*
X45888000Y-181950000D02*
X46250000Y-181950000D01*
X46250000Y-181950000D02*
X46620000Y-181580000D01*
X43990000Y-176910000D02*
X44000000Y-176920000D01*
X43990000Y-177470000D02*
X43990000Y-176910000D01*
X44146010Y-177626010D02*
X43990000Y-177470000D01*
X45550010Y-180957114D02*
X45550010Y-178138010D01*
X45550010Y-178138010D02*
X45038010Y-177626010D01*
X45038010Y-177626010D02*
X44146010Y-177626010D01*
X45207124Y-181300000D02*
X45550010Y-180957114D01*
X44400000Y-181300000D02*
X45207124Y-181300000D01*
X44400000Y-183900000D02*
X43470000Y-183900000D01*
X42150000Y-178040000D02*
X42490000Y-177700000D01*
X42490000Y-177700000D02*
X42490000Y-176950000D01*
X42490000Y-176950000D02*
X42480000Y-176950000D01*
X43470000Y-183777124D02*
X43180000Y-183487124D01*
X43470000Y-183900000D02*
X43470000Y-183777124D01*
X43180000Y-183487124D02*
X43180000Y-182626000D01*
X43180000Y-182626000D02*
X42781998Y-182626000D01*
X42149999Y-181994001D02*
X42149999Y-178039999D01*
X42781998Y-182626000D02*
X42149999Y-181994001D01*
X44400000Y-184550000D02*
X43230437Y-184550000D01*
X48493542Y-171742000D02*
X47752000Y-171742000D01*
X49370000Y-170865542D02*
X48493542Y-171742000D01*
X49370000Y-169452000D02*
X49370000Y-170865542D01*
X41148000Y-179070000D02*
X41549989Y-179471989D01*
X41549990Y-182242534D02*
X42533466Y-183226010D01*
X41549989Y-179471989D02*
X41549990Y-182242534D01*
X42533466Y-183812008D02*
X43221468Y-184500010D01*
X43221468Y-184500010D02*
X43434000Y-184500010D01*
X42533466Y-183226010D02*
X42533466Y-183812008D01*
X47752000Y-171742000D02*
X45982000Y-171742000D01*
X45982000Y-171742000D02*
X45258000Y-171742000D01*
X45258000Y-171742000D02*
X44600000Y-172400000D01*
X42860126Y-187200503D02*
X44349497Y-187200503D01*
X44349497Y-187200503D02*
X44390000Y-187160000D01*
X44390000Y-187160000D02*
X44390000Y-187150000D01*
X44390000Y-187150000D02*
X44390000Y-187140000D01*
X50005000Y-169452000D02*
X50005000Y-170806998D01*
X48364084Y-172720000D02*
X48260000Y-172720000D01*
X50005000Y-171079084D02*
X48364084Y-172720000D01*
X50005000Y-170806998D02*
X50005000Y-171079084D01*
X46390000Y-172720000D02*
X46310000Y-172640000D01*
X48364084Y-172720000D02*
X46390000Y-172720000D01*
X51910000Y-175952000D02*
X51910000Y-174752000D01*
X51910000Y-176370000D02*
X51910000Y-175952000D01*
X52832000Y-177292000D02*
X51910000Y-176370000D01*
D20*
X52832000Y-178642000D02*
X53230000Y-179040000D01*
X52832000Y-177292000D02*
X52832000Y-178642000D01*
D19*
X62610000Y-186710000D02*
X62610000Y-185295787D01*
X62610000Y-185295787D02*
X62610000Y-184210000D01*
D18*
X52545000Y-175952000D02*
X52869000Y-176276000D01*
X52545000Y-174752000D02*
X52545000Y-175952000D01*
X52869000Y-176276000D02*
X55372000Y-176276000D01*
X55372000Y-176276000D02*
X56388000Y-177292000D01*
X69054213Y-170000000D02*
X69074213Y-169980000D01*
X67640000Y-170000000D02*
X69054213Y-170000000D01*
X69074213Y-169980000D02*
X70110000Y-169980000D01*
X70110000Y-169980000D02*
X70140000Y-170010000D01*
X51275000Y-169452000D02*
X51275000Y-171990456D01*
X51250830Y-172014626D02*
X51250830Y-173267316D01*
X51275000Y-171990456D02*
X51250830Y-172014626D01*
D19*
X70180000Y-170000000D02*
X67650000Y-170000000D01*
X67650000Y-170000000D02*
X67660000Y-170010000D01*
D18*
X47821999Y-173551999D02*
X48849999Y-173551999D01*
X48849999Y-173551999D02*
X49784000Y-173551999D01*
X49890001Y-173551999D02*
X50038000Y-173699998D01*
X49784000Y-173551999D02*
X49890001Y-173551999D01*
X50038000Y-173699998D02*
X50038000Y-174752000D01*
X45750467Y-173551999D02*
X45578458Y-173379990D01*
X47821999Y-173551999D02*
X45750467Y-173551999D01*
X43670000Y-169420000D02*
X43700000Y-169420000D01*
X45578458Y-173379990D02*
X45578458Y-173378458D01*
X45578458Y-173378458D02*
X45400000Y-173200000D01*
X45400000Y-173200000D02*
X44100000Y-173200000D01*
X44100000Y-173200000D02*
X43799999Y-172899999D01*
X43799999Y-172899999D02*
X43300000Y-172400000D01*
X43300000Y-172400000D02*
X43300000Y-169800000D01*
X43300000Y-169800000D02*
X43700000Y-169400000D01*
X40386000Y-171196000D02*
X38608000Y-169418000D01*
X47053394Y-176552010D02*
X45101384Y-174600000D01*
X41600000Y-174600000D02*
X40580000Y-173580000D01*
X49370000Y-175952000D02*
X48769989Y-176552011D01*
X45101384Y-174600000D02*
X41600000Y-174600000D01*
X40580000Y-173580000D02*
X40580000Y-171390000D01*
X48769989Y-176552011D02*
X47053394Y-176552010D01*
X40580000Y-171390000D02*
X40386000Y-171196000D01*
X49370000Y-174752000D02*
X49370000Y-175952000D01*
X48735000Y-175731001D02*
X48735000Y-174752000D01*
X47579999Y-175952001D02*
X48514000Y-175952001D01*
X48514000Y-175952001D02*
X48735000Y-175731001D01*
X47579999Y-175952001D02*
X47301927Y-175952001D01*
X47301927Y-175952001D02*
X45329926Y-173980000D01*
X45329926Y-173980000D02*
X41828542Y-173980000D01*
X41828542Y-173980000D02*
X41180010Y-173331468D01*
X41180010Y-173331468D02*
X41180010Y-169400010D01*
X41180010Y-169400010D02*
X41180000Y-169400000D01*
X41180000Y-169400000D02*
X41150000Y-169430000D01*
X41150000Y-169430000D02*
X41140000Y-169420000D01*
X41140000Y-169420000D02*
X41150000Y-169410000D01*
X48735000Y-170652000D02*
X48445000Y-170942000D01*
X48735000Y-169452000D02*
X48735000Y-170652000D01*
X48445000Y-170942000D02*
X47752000Y-170942000D01*
X47752000Y-170942000D02*
X46482000Y-169672000D01*
X46482000Y-169672000D02*
X46228000Y-169418000D01*
X50640000Y-172118000D02*
X50292000Y-172466000D01*
X50640000Y-169452000D02*
X50640000Y-172118000D01*
X51910000Y-172814000D02*
X52324000Y-173228000D01*
X51910000Y-169452000D02*
X51910000Y-172814000D01*
X52545000Y-169452000D02*
X52545000Y-171925000D01*
X52545000Y-172112561D02*
X52545000Y-171925000D01*
X52719078Y-172286639D02*
X52545000Y-172112561D01*
X53180000Y-169730000D02*
X53190000Y-169740000D01*
X53180000Y-169452000D02*
X53180000Y-169730000D01*
X53180000Y-169452000D02*
X53180000Y-171290000D01*
X53153315Y-171316685D02*
X53180000Y-171290000D01*
X53153315Y-171335229D02*
X53153315Y-171316685D01*
X53553314Y-171735228D02*
X53153315Y-171335229D01*
X56817997Y-170840001D02*
X57949999Y-170840001D01*
X56197988Y-171460010D02*
X56817997Y-170840001D01*
X54409468Y-171460010D02*
X56197988Y-171460010D01*
X53815000Y-170865542D02*
X54409468Y-171460010D01*
X53815000Y-169452000D02*
X53815000Y-170865542D01*
X57949999Y-170840001D02*
X59340000Y-169450000D01*
X59340000Y-169450000D02*
X59350000Y-169460000D01*
X54450000Y-170652000D02*
X54658000Y-170860000D01*
X54450000Y-169452000D02*
X54450000Y-170652000D01*
X54658000Y-170860000D02*
X55580000Y-170860000D01*
X55580000Y-170860000D02*
X56850000Y-169590000D01*
X56850000Y-169590000D02*
X56850000Y-169450000D01*
X56850000Y-169450000D02*
X56840000Y-169440000D01*
X54764999Y-173351999D02*
X58035999Y-173351999D01*
X54450000Y-173666998D02*
X54764999Y-173351999D01*
X58035999Y-173351999D02*
X59436000Y-174752000D01*
X54450000Y-174752000D02*
X54450000Y-173666998D01*
X54516467Y-172751989D02*
X59975989Y-172751989D01*
X53815000Y-173453456D02*
X54516467Y-172751989D01*
X59975989Y-172751989D02*
X60976001Y-173752001D01*
X53815000Y-174752000D02*
X53815000Y-173453456D01*
X60976001Y-173752001D02*
X61976000Y-174752000D01*
X53180000Y-174752000D02*
X53180000Y-173354002D01*
X53213998Y-173354002D02*
X53214990Y-173353010D01*
X53180000Y-173354002D02*
X53213998Y-173354002D01*
X61976000Y-172212000D02*
X60960000Y-171196000D01*
X60960000Y-171196000D02*
X58928000Y-171196000D01*
X58928000Y-171196000D02*
X58063980Y-172060020D01*
X53180000Y-173239914D02*
X53180000Y-173354002D01*
X54359894Y-172060020D02*
X53180000Y-173239914D01*
X58063980Y-172060020D02*
X54359894Y-172060020D01*
X55085000Y-174752000D02*
X56896000Y-174752000D01*
D23*
X65098000Y-170000000D02*
X65024000Y-169926000D01*
X65100000Y-170000000D02*
X65098000Y-170000000D01*
D19*
X65024000Y-171420000D02*
X65024000Y-170180000D01*
X65024000Y-170180000D02*
X65024000Y-169926000D01*
X65100000Y-170104000D02*
X65024000Y-170180000D01*
X65100000Y-170000000D02*
X65100000Y-170104000D01*
D18*
X63390213Y-169500000D02*
X63816213Y-169926000D01*
X61976000Y-169500000D02*
X63390213Y-169500000D01*
X63816213Y-169926000D02*
X65024000Y-169926000D01*
D24*
G36*
X35112192Y-168282587D02*
G01*
X36068000Y-169238395D01*
X36082143Y-169224253D01*
X36261748Y-169403858D01*
X36247605Y-169418000D01*
X37203413Y-170373808D01*
X37467814Y-170278044D01*
X37517900Y-170175087D01*
X37577252Y-170263913D01*
X37762087Y-170448748D01*
X37873000Y-170522858D01*
X37873000Y-174524042D01*
X37750000Y-174511928D01*
X37535750Y-174515000D01*
X37377000Y-174673750D01*
X37377000Y-175373000D01*
X37397000Y-175373000D01*
X37397000Y-175627000D01*
X37377000Y-175627000D01*
X37377000Y-175647000D01*
X37123000Y-175647000D01*
X37123000Y-175627000D01*
X37103000Y-175627000D01*
X37103000Y-175373000D01*
X37123000Y-175373000D01*
X37123000Y-174673750D01*
X36964250Y-174515000D01*
X36750000Y-174511928D01*
X36625518Y-174524188D01*
X36505820Y-174560498D01*
X36395506Y-174619463D01*
X36298815Y-174698815D01*
X36219463Y-174795506D01*
X36160498Y-174905820D01*
X36159338Y-174909643D01*
X36156277Y-174901168D01*
X36095860Y-174788137D01*
X35856993Y-174722612D01*
X35079605Y-175500000D01*
X35093748Y-175514143D01*
X34914143Y-175693748D01*
X34900000Y-175679605D01*
X34122612Y-176456993D01*
X34188137Y-176695860D01*
X34435116Y-176811760D01*
X34699960Y-176877250D01*
X34972492Y-176889812D01*
X35242238Y-176848965D01*
X35498832Y-176756277D01*
X35611863Y-176695860D01*
X35623000Y-176655261D01*
X35623000Y-177199893D01*
X35586547Y-177163440D01*
X35410151Y-177045575D01*
X35214149Y-176964389D01*
X35006075Y-176923000D01*
X34793925Y-176923000D01*
X34585851Y-176964389D01*
X34389849Y-177045575D01*
X34213453Y-177163440D01*
X34063440Y-177313453D01*
X33945575Y-177489849D01*
X33864389Y-177685851D01*
X33823000Y-177893925D01*
X33823000Y-178106075D01*
X33864389Y-178314149D01*
X33945575Y-178510151D01*
X34063440Y-178686547D01*
X34213453Y-178836560D01*
X34389849Y-178954425D01*
X34499878Y-179000000D01*
X34389849Y-179045575D01*
X34213453Y-179163440D01*
X34063440Y-179313453D01*
X33945575Y-179489849D01*
X33864389Y-179685851D01*
X33823000Y-179893925D01*
X33823000Y-180106075D01*
X33826367Y-180123000D01*
X33500000Y-180123000D01*
X33475224Y-180125440D01*
X33451399Y-180132667D01*
X33429443Y-180144403D01*
X33410197Y-180160197D01*
X33394403Y-180179443D01*
X33382667Y-180201399D01*
X33375440Y-180225224D01*
X33373000Y-180250000D01*
X33373000Y-180582735D01*
X33359055Y-180568790D01*
X33215415Y-180472813D01*
X33055811Y-180406703D01*
X32886377Y-180373000D01*
X32713623Y-180373000D01*
X32544189Y-180406703D01*
X32384585Y-180472813D01*
X32240945Y-180568790D01*
X32118790Y-180690945D01*
X32022813Y-180834585D01*
X31956703Y-180994189D01*
X31923000Y-181163623D01*
X31923000Y-181336377D01*
X31956703Y-181505811D01*
X32022813Y-181665415D01*
X32118790Y-181809055D01*
X32240945Y-181931210D01*
X32384585Y-182027187D01*
X32544189Y-182093297D01*
X32713623Y-182127000D01*
X32886377Y-182127000D01*
X33055811Y-182093297D01*
X33215415Y-182027187D01*
X33359055Y-181931210D01*
X33373000Y-181917265D01*
X33373000Y-183065000D01*
X32927000Y-183065000D01*
X32927000Y-184573000D01*
X32947000Y-184573000D01*
X32947000Y-184827000D01*
X32927000Y-184827000D01*
X32927000Y-186335000D01*
X34027000Y-186335000D01*
X34343532Y-186278807D01*
X34643020Y-186161942D01*
X34913954Y-185988895D01*
X35145922Y-185766317D01*
X35330010Y-185502761D01*
X35459144Y-185208355D01*
X35490124Y-185080434D01*
X35394323Y-184877000D01*
X36224936Y-184877000D01*
X36215000Y-184968250D01*
X36373750Y-185127000D01*
X36487418Y-185127000D01*
X36405574Y-185192156D01*
X36324792Y-185287657D01*
X36282222Y-185364528D01*
X36215000Y-185431750D01*
X36225154Y-185525000D01*
X36215000Y-185618250D01*
X36282222Y-185685472D01*
X36324792Y-185762343D01*
X36405574Y-185857844D01*
X36487418Y-185923000D01*
X36373750Y-185923000D01*
X36215000Y-186081750D01*
X36226109Y-186183773D01*
X36264194Y-186302918D01*
X36324792Y-186412343D01*
X36405574Y-186507844D01*
X36503434Y-186585750D01*
X36521418Y-186595021D01*
X36521418Y-186600000D01*
X36529653Y-186683612D01*
X36554042Y-186764011D01*
X36586641Y-186825000D01*
X36554042Y-186885989D01*
X36529653Y-186966388D01*
X36521418Y-187050000D01*
X36521418Y-187250000D01*
X36529653Y-187333612D01*
X36554042Y-187414011D01*
X36593647Y-187488107D01*
X36646947Y-187553053D01*
X36711893Y-187606353D01*
X36785989Y-187645958D01*
X36866388Y-187670347D01*
X36950000Y-187678582D01*
X38250000Y-187678582D01*
X38333612Y-187670347D01*
X38414011Y-187645958D01*
X38488107Y-187606353D01*
X38553053Y-187553053D01*
X38606353Y-187488107D01*
X38645958Y-187414011D01*
X38670347Y-187333612D01*
X38678582Y-187250000D01*
X38678582Y-187050000D01*
X38670347Y-186966388D01*
X38645958Y-186885989D01*
X38613359Y-186825000D01*
X38645958Y-186764011D01*
X38670347Y-186683612D01*
X38678582Y-186600000D01*
X38678582Y-186595021D01*
X38696566Y-186585750D01*
X38794426Y-186507844D01*
X38875208Y-186412343D01*
X38935806Y-186302918D01*
X38973891Y-186183773D01*
X38985000Y-186081750D01*
X38826250Y-185923000D01*
X38712582Y-185923000D01*
X38794426Y-185857844D01*
X38875208Y-185762343D01*
X38917778Y-185685472D01*
X38985000Y-185618250D01*
X38974846Y-185525000D01*
X38985000Y-185431750D01*
X38917778Y-185364528D01*
X38875208Y-185287657D01*
X38794426Y-185192156D01*
X38712582Y-185127000D01*
X38826250Y-185127000D01*
X38985000Y-184968250D01*
X38975064Y-184877000D01*
X40373000Y-184877000D01*
X40373000Y-187550000D01*
X40375440Y-187574776D01*
X40382667Y-187598601D01*
X40394403Y-187620557D01*
X40410197Y-187639803D01*
X40429443Y-187655597D01*
X40451399Y-187667333D01*
X40475224Y-187674560D01*
X40500649Y-187676998D01*
X42299302Y-187667813D01*
X42396690Y-187765201D01*
X42515762Y-187844762D01*
X42648068Y-187899565D01*
X42788523Y-187927503D01*
X42931729Y-187927503D01*
X43072184Y-187899565D01*
X43204490Y-187844762D01*
X43323562Y-187765201D01*
X43361260Y-187727503D01*
X44323616Y-187727503D01*
X44349497Y-187730052D01*
X44375378Y-187727503D01*
X44452807Y-187719877D01*
X44552147Y-187689742D01*
X44573026Y-187678582D01*
X45050000Y-187678582D01*
X45133612Y-187670347D01*
X45190635Y-187653049D01*
X45721418Y-187650339D01*
X45721418Y-187910000D01*
X45727732Y-187974103D01*
X45746430Y-188035743D01*
X45776794Y-188092550D01*
X45817657Y-188142343D01*
X45867450Y-188183206D01*
X45924257Y-188213570D01*
X45985897Y-188232268D01*
X46050000Y-188238582D01*
X47050000Y-188238582D01*
X47114103Y-188232268D01*
X47175743Y-188213570D01*
X47232550Y-188183206D01*
X47282343Y-188142343D01*
X47317095Y-188099996D01*
X47330498Y-188144180D01*
X47389463Y-188254494D01*
X47468815Y-188351185D01*
X47565506Y-188430537D01*
X47675820Y-188489502D01*
X47795518Y-188525812D01*
X47920000Y-188538072D01*
X48134250Y-188535000D01*
X48293000Y-188376250D01*
X48293000Y-187677000D01*
X48273000Y-187677000D01*
X48273000Y-187637310D01*
X48567000Y-187635808D01*
X48567000Y-187677000D01*
X48547000Y-187677000D01*
X48547000Y-188376250D01*
X48705750Y-188535000D01*
X48920000Y-188538072D01*
X49044482Y-188525812D01*
X49164180Y-188489502D01*
X49274494Y-188430537D01*
X49371185Y-188351185D01*
X49450537Y-188254494D01*
X49509502Y-188144180D01*
X49545812Y-188024482D01*
X49558072Y-187900000D01*
X49555000Y-187835750D01*
X49396252Y-187677002D01*
X49555000Y-187677002D01*
X49555000Y-187630763D01*
X52250649Y-187616998D01*
X52275412Y-187614432D01*
X52299199Y-187607083D01*
X52321096Y-187595235D01*
X52340260Y-187579343D01*
X52355956Y-187560017D01*
X52367579Y-187538001D01*
X52374685Y-187514140D01*
X52376999Y-187489562D01*
X52372852Y-186287000D01*
X52598866Y-186287000D01*
X52636564Y-186324698D01*
X52755636Y-186404259D01*
X52887942Y-186459062D01*
X53028397Y-186487000D01*
X53171603Y-186487000D01*
X53312058Y-186459062D01*
X53444364Y-186404259D01*
X53563436Y-186324698D01*
X53664698Y-186223436D01*
X53744259Y-186104364D01*
X53799062Y-185972058D01*
X53827000Y-185831603D01*
X53827000Y-185688397D01*
X53799062Y-185547942D01*
X53744259Y-185415636D01*
X53664698Y-185296564D01*
X53563436Y-185195302D01*
X53444364Y-185115741D01*
X53312058Y-185060938D01*
X53171603Y-185033000D01*
X53028397Y-185033000D01*
X52887942Y-185060938D01*
X52755636Y-185115741D01*
X52636564Y-185195302D01*
X52598866Y-185233000D01*
X52369217Y-185233000D01*
X52367005Y-184591439D01*
X52368421Y-184537000D01*
X52390698Y-184537000D01*
X52647072Y-184486004D01*
X52888570Y-184385972D01*
X53105913Y-184240748D01*
X53277359Y-184069302D01*
X56223000Y-184069302D01*
X56223000Y-184330698D01*
X56273996Y-184587072D01*
X56374028Y-184828570D01*
X56519252Y-185045913D01*
X56704087Y-185230748D01*
X56921430Y-185375972D01*
X57162928Y-185476004D01*
X57419302Y-185527000D01*
X57680698Y-185527000D01*
X57937072Y-185476004D01*
X58178570Y-185375972D01*
X58239270Y-185335413D01*
X59134192Y-185335413D01*
X59229956Y-185599814D01*
X59519571Y-185740704D01*
X59831108Y-185822384D01*
X60152595Y-185841718D01*
X60471675Y-185797961D01*
X60776088Y-185692795D01*
X60950044Y-185599814D01*
X61045808Y-185335413D01*
X60090000Y-184379605D01*
X59134192Y-185335413D01*
X58239270Y-185335413D01*
X58395913Y-185230748D01*
X58580748Y-185045913D01*
X58637352Y-184961199D01*
X58690186Y-185060044D01*
X58954587Y-185155808D01*
X59861327Y-184249068D01*
X60323179Y-184253574D01*
X61225413Y-185155808D01*
X61489814Y-185060044D01*
X61539900Y-184957087D01*
X61599252Y-185045913D01*
X61784087Y-185230748D01*
X61883000Y-185296840D01*
X61883000Y-185331494D01*
X61883001Y-185331504D01*
X61883001Y-185599796D01*
X61764087Y-185679252D01*
X61579252Y-185864087D01*
X61434028Y-186081430D01*
X61333996Y-186322928D01*
X61283000Y-186579302D01*
X61283000Y-186840698D01*
X61333996Y-187097072D01*
X61434028Y-187338570D01*
X61579252Y-187555913D01*
X61764087Y-187740748D01*
X61981430Y-187885972D01*
X62222928Y-187986004D01*
X62479302Y-188037000D01*
X62740698Y-188037000D01*
X62997072Y-187986004D01*
X63238570Y-187885972D01*
X63455913Y-187740748D01*
X63640748Y-187555913D01*
X63785972Y-187338570D01*
X63886004Y-187097072D01*
X63937000Y-186840698D01*
X63937000Y-186579302D01*
X63886004Y-186322928D01*
X63785972Y-186081430D01*
X63640748Y-185864087D01*
X63455913Y-185679252D01*
X63337000Y-185599797D01*
X63337000Y-185323567D01*
X63475913Y-185230748D01*
X63660748Y-185045913D01*
X63805972Y-184828570D01*
X63900000Y-184601567D01*
X63994028Y-184828570D01*
X64139252Y-185045913D01*
X64324087Y-185230748D01*
X64541430Y-185375972D01*
X64782928Y-185476004D01*
X65039302Y-185527000D01*
X65300698Y-185527000D01*
X65557072Y-185476004D01*
X65798570Y-185375972D01*
X65859270Y-185335413D01*
X66754192Y-185335413D01*
X66849956Y-185599814D01*
X67139571Y-185740704D01*
X67451108Y-185822384D01*
X67772595Y-185841718D01*
X68091675Y-185797961D01*
X68396088Y-185692795D01*
X68570044Y-185599814D01*
X68665808Y-185335413D01*
X67710000Y-184379605D01*
X66754192Y-185335413D01*
X65859270Y-185335413D01*
X66015913Y-185230748D01*
X66200748Y-185045913D01*
X66257352Y-184961199D01*
X66310186Y-185060044D01*
X66574587Y-185155808D01*
X67407704Y-184322691D01*
X67848761Y-184326994D01*
X67879370Y-184323557D01*
X67902910Y-184315454D01*
X67924417Y-184302913D01*
X67943065Y-184286417D01*
X67957302Y-184267697D01*
X68845413Y-185155808D01*
X69109814Y-185060044D01*
X69250704Y-184770429D01*
X69332384Y-184458892D01*
X69351718Y-184137405D01*
X69307961Y-183818325D01*
X69202795Y-183513912D01*
X69109814Y-183339956D01*
X68845413Y-183244192D01*
X67973963Y-184115642D01*
X67961134Y-183769261D01*
X68665808Y-183064587D01*
X68570044Y-182800186D01*
X68467087Y-182750100D01*
X68555913Y-182690748D01*
X68740748Y-182505913D01*
X68885972Y-182288570D01*
X68986004Y-182047072D01*
X69037000Y-181790698D01*
X69037000Y-181529302D01*
X68986004Y-181272928D01*
X68885972Y-181031430D01*
X68740748Y-180814087D01*
X68555913Y-180629252D01*
X68338570Y-180484028D01*
X68097072Y-180383996D01*
X67840698Y-180333000D01*
X67579302Y-180333000D01*
X67322928Y-180383996D01*
X67081430Y-180484028D01*
X66864087Y-180629252D01*
X66679252Y-180814087D01*
X66534028Y-181031430D01*
X66440000Y-181258433D01*
X66345972Y-181031430D01*
X66200748Y-180814087D01*
X66015913Y-180629252D01*
X65798570Y-180484028D01*
X65557072Y-180383996D01*
X65300698Y-180333000D01*
X65039302Y-180333000D01*
X64782928Y-180383996D01*
X64541430Y-180484028D01*
X64324087Y-180629252D01*
X64139252Y-180814087D01*
X63994028Y-181031430D01*
X63900000Y-181258433D01*
X63805972Y-181031430D01*
X63660748Y-180814087D01*
X63475913Y-180629252D01*
X63258570Y-180484028D01*
X63017072Y-180383996D01*
X62760698Y-180333000D01*
X62499302Y-180333000D01*
X62242928Y-180383996D01*
X62001430Y-180484028D01*
X61784087Y-180629252D01*
X61599252Y-180814087D01*
X61454028Y-181031430D01*
X61360000Y-181258433D01*
X61265972Y-181031430D01*
X61120748Y-180814087D01*
X60935913Y-180629252D01*
X60718570Y-180484028D01*
X60477072Y-180383996D01*
X60220698Y-180333000D01*
X59959302Y-180333000D01*
X59702928Y-180383996D01*
X59461430Y-180484028D01*
X59244087Y-180629252D01*
X59059252Y-180814087D01*
X59002648Y-180898801D01*
X58949814Y-180799956D01*
X58685413Y-180704192D01*
X57920716Y-181468889D01*
X57557967Y-181472428D01*
X58505808Y-180524587D01*
X58410044Y-180260186D01*
X58120429Y-180119296D01*
X57808892Y-180037616D01*
X57487405Y-180018282D01*
X57168325Y-180062039D01*
X56863912Y-180167205D01*
X56689956Y-180260186D01*
X56594192Y-180524587D01*
X57542187Y-181472582D01*
X57498761Y-181473006D01*
X57470265Y-181476530D01*
X57446748Y-181484704D01*
X57425278Y-181497308D01*
X57406680Y-181513858D01*
X57391668Y-181533719D01*
X57380819Y-181556128D01*
X57374550Y-181580222D01*
X57373101Y-181605076D01*
X57388925Y-182000680D01*
X56594192Y-182795413D01*
X56689956Y-183059814D01*
X56792913Y-183109900D01*
X56704087Y-183169252D01*
X56519252Y-183354087D01*
X56374028Y-183571430D01*
X56273996Y-183812928D01*
X56223000Y-184069302D01*
X53277359Y-184069302D01*
X53290748Y-184055913D01*
X53435972Y-183838570D01*
X53536004Y-183597072D01*
X53587000Y-183340698D01*
X53587000Y-183079302D01*
X53536004Y-182822928D01*
X53435972Y-182581430D01*
X53290748Y-182364087D01*
X53105913Y-182179252D01*
X52888570Y-182034028D01*
X52647072Y-181933996D01*
X52437215Y-181892253D01*
X52441628Y-181722595D01*
X55908282Y-181722595D01*
X55952039Y-182041675D01*
X56057205Y-182346088D01*
X56150186Y-182520044D01*
X56414587Y-182615808D01*
X57370395Y-181660000D01*
X56414587Y-180704192D01*
X56150186Y-180799956D01*
X56009296Y-181089571D01*
X55927616Y-181401108D01*
X55908282Y-181722595D01*
X52441628Y-181722595D01*
X52444063Y-181629000D01*
X52812294Y-181629000D01*
X52848002Y-181632517D01*
X52990519Y-181618480D01*
X53032966Y-181605604D01*
X53127559Y-181576910D01*
X53253855Y-181509403D01*
X53364556Y-181418554D01*
X53387328Y-181390806D01*
X54633133Y-180145002D01*
X55706292Y-180145002D01*
X55742000Y-180148519D01*
X55884517Y-180134482D01*
X55900436Y-180129653D01*
X56021557Y-180092912D01*
X56147853Y-180025405D01*
X56258554Y-179934556D01*
X56281326Y-179906808D01*
X58841133Y-177347002D01*
X63144290Y-177347002D01*
X63179998Y-177350519D01*
X63322515Y-177336482D01*
X63337923Y-177331808D01*
X63459555Y-177294912D01*
X63585851Y-177227405D01*
X63696552Y-177136556D01*
X63719323Y-177108809D01*
X64609552Y-176218582D01*
X64690000Y-176218582D01*
X64754103Y-176212268D01*
X64815743Y-176193570D01*
X64872550Y-176163206D01*
X64922343Y-176122343D01*
X64963206Y-176072550D01*
X64966443Y-176066493D01*
X64987657Y-176092343D01*
X65037450Y-176133206D01*
X65094257Y-176163570D01*
X65155897Y-176182268D01*
X65220000Y-176188582D01*
X65451238Y-176188582D01*
X65581855Y-176227335D01*
X65688726Y-176237204D01*
X66247554Y-176233796D01*
X66251302Y-176240808D01*
X66417130Y-176442870D01*
X66619192Y-176608698D01*
X66849722Y-176731919D01*
X67099863Y-176807799D01*
X67294816Y-176827000D01*
X68995184Y-176827000D01*
X69190137Y-176807799D01*
X69440278Y-176731919D01*
X69670808Y-176608698D01*
X69872870Y-176442870D01*
X70038698Y-176240808D01*
X70161919Y-176010278D01*
X70237799Y-175760137D01*
X70263420Y-175500000D01*
X70237799Y-175239863D01*
X70161919Y-174989722D01*
X70038698Y-174759192D01*
X69872870Y-174557130D01*
X69670808Y-174391302D01*
X69440278Y-174268081D01*
X69190137Y-174192201D01*
X68995184Y-174173000D01*
X67746842Y-174173000D01*
X67750964Y-173855540D01*
X67762250Y-173855000D01*
X67921000Y-173696250D01*
X67921000Y-172847000D01*
X68175000Y-172847000D01*
X68175000Y-173696250D01*
X68333750Y-173855000D01*
X68398000Y-173858072D01*
X68522482Y-173845812D01*
X68642180Y-173809502D01*
X68752494Y-173750537D01*
X68849185Y-173671185D01*
X68928537Y-173574494D01*
X68987502Y-173464180D01*
X69023812Y-173344482D01*
X69036072Y-173220000D01*
X69033000Y-173005750D01*
X68874250Y-172847000D01*
X68175000Y-172847000D01*
X67921000Y-172847000D01*
X67901000Y-172847000D01*
X67901000Y-172593000D01*
X67921000Y-172593000D01*
X67921000Y-171743750D01*
X68175000Y-171743750D01*
X68175000Y-172593000D01*
X68874250Y-172593000D01*
X69033000Y-172434250D01*
X69036072Y-172220000D01*
X69023812Y-172095518D01*
X68987502Y-171975820D01*
X68928537Y-171865506D01*
X68849185Y-171768815D01*
X68752494Y-171689463D01*
X68642180Y-171630498D01*
X68522482Y-171594188D01*
X68398000Y-171581928D01*
X68333750Y-171585000D01*
X68175000Y-171743750D01*
X67921000Y-171743750D01*
X67780219Y-171602969D01*
X67783837Y-171324387D01*
X68027072Y-171276004D01*
X68268570Y-171175972D01*
X68485913Y-171030748D01*
X68670748Y-170845913D01*
X68750203Y-170727000D01*
X69069797Y-170727000D01*
X69149252Y-170845913D01*
X69334087Y-171030748D01*
X69551430Y-171175972D01*
X69792928Y-171276004D01*
X70049302Y-171327000D01*
X70310698Y-171327000D01*
X70567072Y-171276004D01*
X70808570Y-171175972D01*
X70869270Y-171135413D01*
X71764192Y-171135413D01*
X71859956Y-171399814D01*
X72149571Y-171540704D01*
X72461108Y-171622384D01*
X72782595Y-171641718D01*
X73101675Y-171597961D01*
X73406088Y-171492795D01*
X73580044Y-171399814D01*
X73675808Y-171135413D01*
X72720000Y-170179605D01*
X71764192Y-171135413D01*
X70869270Y-171135413D01*
X71025913Y-171030748D01*
X71210748Y-170845913D01*
X71267352Y-170761199D01*
X71320186Y-170860044D01*
X71584587Y-170955808D01*
X72540395Y-170000000D01*
X72899605Y-170000000D01*
X73855413Y-170955808D01*
X74119814Y-170860044D01*
X74260704Y-170570429D01*
X74342384Y-170258892D01*
X74361718Y-169937405D01*
X74317961Y-169618325D01*
X74212795Y-169313912D01*
X74119814Y-169139956D01*
X73855413Y-169044192D01*
X72899605Y-170000000D01*
X72540395Y-170000000D01*
X71584587Y-169044192D01*
X71320186Y-169139956D01*
X71270100Y-169242913D01*
X71210748Y-169154087D01*
X71025913Y-168969252D01*
X70869271Y-168864587D01*
X71764192Y-168864587D01*
X72720000Y-169820395D01*
X73675808Y-168864587D01*
X73580044Y-168600186D01*
X73290429Y-168459296D01*
X72978892Y-168377616D01*
X72657405Y-168358282D01*
X72338325Y-168402039D01*
X72033912Y-168507205D01*
X71859956Y-168600186D01*
X71764192Y-168864587D01*
X70869271Y-168864587D01*
X70808570Y-168824028D01*
X70567072Y-168723996D01*
X70310698Y-168673000D01*
X70049302Y-168673000D01*
X69792928Y-168723996D01*
X69551430Y-168824028D01*
X69334087Y-168969252D01*
X69149252Y-169154087D01*
X69069797Y-169273000D01*
X68750203Y-169273000D01*
X68670748Y-169154087D01*
X68485913Y-168969252D01*
X68268570Y-168824028D01*
X68027072Y-168723996D01*
X67818148Y-168682438D01*
X67825036Y-168152000D01*
X74848000Y-168152000D01*
X74848001Y-189848000D01*
X30152000Y-189848000D01*
X30152000Y-185233762D01*
X30269990Y-185502761D01*
X30454078Y-185766317D01*
X30686046Y-185988895D01*
X30956980Y-186161942D01*
X31256468Y-186278807D01*
X31573000Y-186335000D01*
X32673000Y-186335000D01*
X32673000Y-184827000D01*
X32653000Y-184827000D01*
X32653000Y-184573000D01*
X32673000Y-184573000D01*
X32673000Y-183065000D01*
X31573000Y-183065000D01*
X31256468Y-183121193D01*
X30956980Y-183238058D01*
X30686046Y-183411105D01*
X30454078Y-183633683D01*
X30269990Y-183897239D01*
X30152000Y-184166238D01*
X30152000Y-176663623D01*
X31923000Y-176663623D01*
X31923000Y-176836377D01*
X31956703Y-177005811D01*
X32022813Y-177165415D01*
X32118790Y-177309055D01*
X32240945Y-177431210D01*
X32384585Y-177527187D01*
X32544189Y-177593297D01*
X32713623Y-177627000D01*
X32886377Y-177627000D01*
X33055811Y-177593297D01*
X33215415Y-177527187D01*
X33359055Y-177431210D01*
X33481210Y-177309055D01*
X33577187Y-177165415D01*
X33643297Y-177005811D01*
X33677000Y-176836377D01*
X33677000Y-176663623D01*
X33643297Y-176494189D01*
X33577187Y-176334585D01*
X33481210Y-176190945D01*
X33359055Y-176068790D01*
X33215415Y-175972813D01*
X33055811Y-175906703D01*
X32886377Y-175873000D01*
X32713623Y-175873000D01*
X32544189Y-175906703D01*
X32384585Y-175972813D01*
X32240945Y-176068790D01*
X32118790Y-176190945D01*
X32022813Y-176334585D01*
X31956703Y-176494189D01*
X31923000Y-176663623D01*
X30152000Y-176663623D01*
X30152000Y-173833762D01*
X30269990Y-174102761D01*
X30454078Y-174366317D01*
X30686046Y-174588895D01*
X30956980Y-174761942D01*
X31256468Y-174878807D01*
X31573000Y-174935000D01*
X32673000Y-174935000D01*
X32673000Y-173427000D01*
X32927000Y-173427000D01*
X32927000Y-174935000D01*
X33635222Y-174935000D01*
X33588240Y-175035116D01*
X33522750Y-175299960D01*
X33510188Y-175572492D01*
X33551035Y-175842238D01*
X33643723Y-176098832D01*
X33704140Y-176211863D01*
X33943007Y-176277388D01*
X34720395Y-175500000D01*
X34706253Y-175485858D01*
X34885858Y-175306253D01*
X34900000Y-175320395D01*
X35677388Y-174543007D01*
X35611863Y-174304140D01*
X35364884Y-174188240D01*
X35284234Y-174168297D01*
X35330010Y-174102761D01*
X35459144Y-173808355D01*
X35490124Y-173680434D01*
X35370777Y-173427000D01*
X32927000Y-173427000D01*
X32673000Y-173427000D01*
X32653000Y-173427000D01*
X32653000Y-173173000D01*
X32673000Y-173173000D01*
X32673000Y-171665000D01*
X32927000Y-171665000D01*
X32927000Y-173173000D01*
X35370777Y-173173000D01*
X35490124Y-172919566D01*
X35459144Y-172791645D01*
X35330010Y-172497239D01*
X35145922Y-172233683D01*
X34913954Y-172011105D01*
X34643020Y-171838058D01*
X34343532Y-171721193D01*
X34027000Y-171665000D01*
X32927000Y-171665000D01*
X32673000Y-171665000D01*
X31573000Y-171665000D01*
X31256468Y-171721193D01*
X30956980Y-171838058D01*
X30686046Y-172011105D01*
X30454078Y-172233683D01*
X30269990Y-172497239D01*
X30152000Y-172766238D01*
X30152000Y-170553413D01*
X35112192Y-170553413D01*
X35207956Y-170817814D01*
X35497571Y-170958704D01*
X35809108Y-171040384D01*
X36130595Y-171059718D01*
X36449675Y-171015961D01*
X36754088Y-170910795D01*
X36928044Y-170817814D01*
X37023808Y-170553413D01*
X36068000Y-169597605D01*
X35112192Y-170553413D01*
X30152000Y-170553413D01*
X30152000Y-169480595D01*
X34426282Y-169480595D01*
X34470039Y-169799675D01*
X34575205Y-170104088D01*
X34668186Y-170278044D01*
X34932587Y-170373808D01*
X35888395Y-169418000D01*
X34932587Y-168462192D01*
X34668186Y-168557956D01*
X34527296Y-168847571D01*
X34445616Y-169159108D01*
X34426282Y-169480595D01*
X30152000Y-169480595D01*
X30152000Y-168152000D01*
X35159490Y-168152000D01*
X35112192Y-168282587D01*
G37*
X35112192Y-168282587D02*
X36068000Y-169238395D01*
X36082143Y-169224253D01*
X36261748Y-169403858D01*
X36247605Y-169418000D01*
X37203413Y-170373808D01*
X37467814Y-170278044D01*
X37517900Y-170175087D01*
X37577252Y-170263913D01*
X37762087Y-170448748D01*
X37873000Y-170522858D01*
X37873000Y-174524042D01*
X37750000Y-174511928D01*
X37535750Y-174515000D01*
X37377000Y-174673750D01*
X37377000Y-175373000D01*
X37397000Y-175373000D01*
X37397000Y-175627000D01*
X37377000Y-175627000D01*
X37377000Y-175647000D01*
X37123000Y-175647000D01*
X37123000Y-175627000D01*
X37103000Y-175627000D01*
X37103000Y-175373000D01*
X37123000Y-175373000D01*
X37123000Y-174673750D01*
X36964250Y-174515000D01*
X36750000Y-174511928D01*
X36625518Y-174524188D01*
X36505820Y-174560498D01*
X36395506Y-174619463D01*
X36298815Y-174698815D01*
X36219463Y-174795506D01*
X36160498Y-174905820D01*
X36159338Y-174909643D01*
X36156277Y-174901168D01*
X36095860Y-174788137D01*
X35856993Y-174722612D01*
X35079605Y-175500000D01*
X35093748Y-175514143D01*
X34914143Y-175693748D01*
X34900000Y-175679605D01*
X34122612Y-176456993D01*
X34188137Y-176695860D01*
X34435116Y-176811760D01*
X34699960Y-176877250D01*
X34972492Y-176889812D01*
X35242238Y-176848965D01*
X35498832Y-176756277D01*
X35611863Y-176695860D01*
X35623000Y-176655261D01*
X35623000Y-177199893D01*
X35586547Y-177163440D01*
X35410151Y-177045575D01*
X35214149Y-176964389D01*
X35006075Y-176923000D01*
X34793925Y-176923000D01*
X34585851Y-176964389D01*
X34389849Y-177045575D01*
X34213453Y-177163440D01*
X34063440Y-177313453D01*
X33945575Y-177489849D01*
X33864389Y-177685851D01*
X33823000Y-177893925D01*
X33823000Y-178106075D01*
X33864389Y-178314149D01*
X33945575Y-178510151D01*
X34063440Y-178686547D01*
X34213453Y-178836560D01*
X34389849Y-178954425D01*
X34499878Y-179000000D01*
X34389849Y-179045575D01*
X34213453Y-179163440D01*
X34063440Y-179313453D01*
X33945575Y-179489849D01*
X33864389Y-179685851D01*
X33823000Y-179893925D01*
X33823000Y-180106075D01*
X33826367Y-180123000D01*
X33500000Y-180123000D01*
X33475224Y-180125440D01*
X33451399Y-180132667D01*
X33429443Y-180144403D01*
X33410197Y-180160197D01*
X33394403Y-180179443D01*
X33382667Y-180201399D01*
X33375440Y-180225224D01*
X33373000Y-180250000D01*
X33373000Y-180582735D01*
X33359055Y-180568790D01*
X33215415Y-180472813D01*
X33055811Y-180406703D01*
X32886377Y-180373000D01*
X32713623Y-180373000D01*
X32544189Y-180406703D01*
X32384585Y-180472813D01*
X32240945Y-180568790D01*
X32118790Y-180690945D01*
X32022813Y-180834585D01*
X31956703Y-180994189D01*
X31923000Y-181163623D01*
X31923000Y-181336377D01*
X31956703Y-181505811D01*
X32022813Y-181665415D01*
X32118790Y-181809055D01*
X32240945Y-181931210D01*
X32384585Y-182027187D01*
X32544189Y-182093297D01*
X32713623Y-182127000D01*
X32886377Y-182127000D01*
X33055811Y-182093297D01*
X33215415Y-182027187D01*
X33359055Y-181931210D01*
X33373000Y-181917265D01*
X33373000Y-183065000D01*
X32927000Y-183065000D01*
X32927000Y-184573000D01*
X32947000Y-184573000D01*
X32947000Y-184827000D01*
X32927000Y-184827000D01*
X32927000Y-186335000D01*
X34027000Y-186335000D01*
X34343532Y-186278807D01*
X34643020Y-186161942D01*
X34913954Y-185988895D01*
X35145922Y-185766317D01*
X35330010Y-185502761D01*
X35459144Y-185208355D01*
X35490124Y-185080434D01*
X35394323Y-184877000D01*
X36224936Y-184877000D01*
X36215000Y-184968250D01*
X36373750Y-185127000D01*
X36487418Y-185127000D01*
X36405574Y-185192156D01*
X36324792Y-185287657D01*
X36282222Y-185364528D01*
X36215000Y-185431750D01*
X36225154Y-185525000D01*
X36215000Y-185618250D01*
X36282222Y-185685472D01*
X36324792Y-185762343D01*
X36405574Y-185857844D01*
X36487418Y-185923000D01*
X36373750Y-185923000D01*
X36215000Y-186081750D01*
X36226109Y-186183773D01*
X36264194Y-186302918D01*
X36324792Y-186412343D01*
X36405574Y-186507844D01*
X36503434Y-186585750D01*
X36521418Y-186595021D01*
X36521418Y-186600000D01*
X36529653Y-186683612D01*
X36554042Y-186764011D01*
X36586641Y-186825000D01*
X36554042Y-186885989D01*
X36529653Y-186966388D01*
X36521418Y-187050000D01*
X36521418Y-187250000D01*
X36529653Y-187333612D01*
X36554042Y-187414011D01*
X36593647Y-187488107D01*
X36646947Y-187553053D01*
X36711893Y-187606353D01*
X36785989Y-187645958D01*
X36866388Y-187670347D01*
X36950000Y-187678582D01*
X38250000Y-187678582D01*
X38333612Y-187670347D01*
X38414011Y-187645958D01*
X38488107Y-187606353D01*
X38553053Y-187553053D01*
X38606353Y-187488107D01*
X38645958Y-187414011D01*
X38670347Y-187333612D01*
X38678582Y-187250000D01*
X38678582Y-187050000D01*
X38670347Y-186966388D01*
X38645958Y-186885989D01*
X38613359Y-186825000D01*
X38645958Y-186764011D01*
X38670347Y-186683612D01*
X38678582Y-186600000D01*
X38678582Y-186595021D01*
X38696566Y-186585750D01*
X38794426Y-186507844D01*
X38875208Y-186412343D01*
X38935806Y-186302918D01*
X38973891Y-186183773D01*
X38985000Y-186081750D01*
X38826250Y-185923000D01*
X38712582Y-185923000D01*
X38794426Y-185857844D01*
X38875208Y-185762343D01*
X38917778Y-185685472D01*
X38985000Y-185618250D01*
X38974846Y-185525000D01*
X38985000Y-185431750D01*
X38917778Y-185364528D01*
X38875208Y-185287657D01*
X38794426Y-185192156D01*
X38712582Y-185127000D01*
X38826250Y-185127000D01*
X38985000Y-184968250D01*
X38975064Y-184877000D01*
X40373000Y-184877000D01*
X40373000Y-187550000D01*
X40375440Y-187574776D01*
X40382667Y-187598601D01*
X40394403Y-187620557D01*
X40410197Y-187639803D01*
X40429443Y-187655597D01*
X40451399Y-187667333D01*
X40475224Y-187674560D01*
X40500649Y-187676998D01*
X42299302Y-187667813D01*
X42396690Y-187765201D01*
X42515762Y-187844762D01*
X42648068Y-187899565D01*
X42788523Y-187927503D01*
X42931729Y-187927503D01*
X43072184Y-187899565D01*
X43204490Y-187844762D01*
X43323562Y-187765201D01*
X43361260Y-187727503D01*
X44323616Y-187727503D01*
X44349497Y-187730052D01*
X44375378Y-187727503D01*
X44452807Y-187719877D01*
X44552147Y-187689742D01*
X44573026Y-187678582D01*
X45050000Y-187678582D01*
X45133612Y-187670347D01*
X45190635Y-187653049D01*
X45721418Y-187650339D01*
X45721418Y-187910000D01*
X45727732Y-187974103D01*
X45746430Y-188035743D01*
X45776794Y-188092550D01*
X45817657Y-188142343D01*
X45867450Y-188183206D01*
X45924257Y-188213570D01*
X45985897Y-188232268D01*
X46050000Y-188238582D01*
X47050000Y-188238582D01*
X47114103Y-188232268D01*
X47175743Y-188213570D01*
X47232550Y-188183206D01*
X47282343Y-188142343D01*
X47317095Y-188099996D01*
X47330498Y-188144180D01*
X47389463Y-188254494D01*
X47468815Y-188351185D01*
X47565506Y-188430537D01*
X47675820Y-188489502D01*
X47795518Y-188525812D01*
X47920000Y-188538072D01*
X48134250Y-188535000D01*
X48293000Y-188376250D01*
X48293000Y-187677000D01*
X48273000Y-187677000D01*
X48273000Y-187637310D01*
X48567000Y-187635808D01*
X48567000Y-187677000D01*
X48547000Y-187677000D01*
X48547000Y-188376250D01*
X48705750Y-188535000D01*
X48920000Y-188538072D01*
X49044482Y-188525812D01*
X49164180Y-188489502D01*
X49274494Y-188430537D01*
X49371185Y-188351185D01*
X49450537Y-188254494D01*
X49509502Y-188144180D01*
X49545812Y-188024482D01*
X49558072Y-187900000D01*
X49555000Y-187835750D01*
X49396252Y-187677002D01*
X49555000Y-187677002D01*
X49555000Y-187630763D01*
X52250649Y-187616998D01*
X52275412Y-187614432D01*
X52299199Y-187607083D01*
X52321096Y-187595235D01*
X52340260Y-187579343D01*
X52355956Y-187560017D01*
X52367579Y-187538001D01*
X52374685Y-187514140D01*
X52376999Y-187489562D01*
X52372852Y-186287000D01*
X52598866Y-186287000D01*
X52636564Y-186324698D01*
X52755636Y-186404259D01*
X52887942Y-186459062D01*
X53028397Y-186487000D01*
X53171603Y-186487000D01*
X53312058Y-186459062D01*
X53444364Y-186404259D01*
X53563436Y-186324698D01*
X53664698Y-186223436D01*
X53744259Y-186104364D01*
X53799062Y-185972058D01*
X53827000Y-185831603D01*
X53827000Y-185688397D01*
X53799062Y-185547942D01*
X53744259Y-185415636D01*
X53664698Y-185296564D01*
X53563436Y-185195302D01*
X53444364Y-185115741D01*
X53312058Y-185060938D01*
X53171603Y-185033000D01*
X53028397Y-185033000D01*
X52887942Y-185060938D01*
X52755636Y-185115741D01*
X52636564Y-185195302D01*
X52598866Y-185233000D01*
X52369217Y-185233000D01*
X52367005Y-184591439D01*
X52368421Y-184537000D01*
X52390698Y-184537000D01*
X52647072Y-184486004D01*
X52888570Y-184385972D01*
X53105913Y-184240748D01*
X53277359Y-184069302D01*
X56223000Y-184069302D01*
X56223000Y-184330698D01*
X56273996Y-184587072D01*
X56374028Y-184828570D01*
X56519252Y-185045913D01*
X56704087Y-185230748D01*
X56921430Y-185375972D01*
X57162928Y-185476004D01*
X57419302Y-185527000D01*
X57680698Y-185527000D01*
X57937072Y-185476004D01*
X58178570Y-185375972D01*
X58239270Y-185335413D01*
X59134192Y-185335413D01*
X59229956Y-185599814D01*
X59519571Y-185740704D01*
X59831108Y-185822384D01*
X60152595Y-185841718D01*
X60471675Y-185797961D01*
X60776088Y-185692795D01*
X60950044Y-185599814D01*
X61045808Y-185335413D01*
X60090000Y-184379605D01*
X59134192Y-185335413D01*
X58239270Y-185335413D01*
X58395913Y-185230748D01*
X58580748Y-185045913D01*
X58637352Y-184961199D01*
X58690186Y-185060044D01*
X58954587Y-185155808D01*
X59861327Y-184249068D01*
X60323179Y-184253574D01*
X61225413Y-185155808D01*
X61489814Y-185060044D01*
X61539900Y-184957087D01*
X61599252Y-185045913D01*
X61784087Y-185230748D01*
X61883000Y-185296840D01*
X61883000Y-185331494D01*
X61883001Y-185331504D01*
X61883001Y-185599796D01*
X61764087Y-185679252D01*
X61579252Y-185864087D01*
X61434028Y-186081430D01*
X61333996Y-186322928D01*
X61283000Y-186579302D01*
X61283000Y-186840698D01*
X61333996Y-187097072D01*
X61434028Y-187338570D01*
X61579252Y-187555913D01*
X61764087Y-187740748D01*
X61981430Y-187885972D01*
X62222928Y-187986004D01*
X62479302Y-188037000D01*
X62740698Y-188037000D01*
X62997072Y-187986004D01*
X63238570Y-187885972D01*
X63455913Y-187740748D01*
X63640748Y-187555913D01*
X63785972Y-187338570D01*
X63886004Y-187097072D01*
X63937000Y-186840698D01*
X63937000Y-186579302D01*
X63886004Y-186322928D01*
X63785972Y-186081430D01*
X63640748Y-185864087D01*
X63455913Y-185679252D01*
X63337000Y-185599797D01*
X63337000Y-185323567D01*
X63475913Y-185230748D01*
X63660748Y-185045913D01*
X63805972Y-184828570D01*
X63900000Y-184601567D01*
X63994028Y-184828570D01*
X64139252Y-185045913D01*
X64324087Y-185230748D01*
X64541430Y-185375972D01*
X64782928Y-185476004D01*
X65039302Y-185527000D01*
X65300698Y-185527000D01*
X65557072Y-185476004D01*
X65798570Y-185375972D01*
X65859270Y-185335413D01*
X66754192Y-185335413D01*
X66849956Y-185599814D01*
X67139571Y-185740704D01*
X67451108Y-185822384D01*
X67772595Y-185841718D01*
X68091675Y-185797961D01*
X68396088Y-185692795D01*
X68570044Y-185599814D01*
X68665808Y-185335413D01*
X67710000Y-184379605D01*
X66754192Y-185335413D01*
X65859270Y-185335413D01*
X66015913Y-185230748D01*
X66200748Y-185045913D01*
X66257352Y-184961199D01*
X66310186Y-185060044D01*
X66574587Y-185155808D01*
X67407704Y-184322691D01*
X67848761Y-184326994D01*
X67879370Y-184323557D01*
X67902910Y-184315454D01*
X67924417Y-184302913D01*
X67943065Y-184286417D01*
X67957302Y-184267697D01*
X68845413Y-185155808D01*
X69109814Y-185060044D01*
X69250704Y-184770429D01*
X69332384Y-184458892D01*
X69351718Y-184137405D01*
X69307961Y-183818325D01*
X69202795Y-183513912D01*
X69109814Y-183339956D01*
X68845413Y-183244192D01*
X67973963Y-184115642D01*
X67961134Y-183769261D01*
X68665808Y-183064587D01*
X68570044Y-182800186D01*
X68467087Y-182750100D01*
X68555913Y-182690748D01*
X68740748Y-182505913D01*
X68885972Y-182288570D01*
X68986004Y-182047072D01*
X69037000Y-181790698D01*
X69037000Y-181529302D01*
X68986004Y-181272928D01*
X68885972Y-181031430D01*
X68740748Y-180814087D01*
X68555913Y-180629252D01*
X68338570Y-180484028D01*
X68097072Y-180383996D01*
X67840698Y-180333000D01*
X67579302Y-180333000D01*
X67322928Y-180383996D01*
X67081430Y-180484028D01*
X66864087Y-180629252D01*
X66679252Y-180814087D01*
X66534028Y-181031430D01*
X66440000Y-181258433D01*
X66345972Y-181031430D01*
X66200748Y-180814087D01*
X66015913Y-180629252D01*
X65798570Y-180484028D01*
X65557072Y-180383996D01*
X65300698Y-180333000D01*
X65039302Y-180333000D01*
X64782928Y-180383996D01*
X64541430Y-180484028D01*
X64324087Y-180629252D01*
X64139252Y-180814087D01*
X63994028Y-181031430D01*
X63900000Y-181258433D01*
X63805972Y-181031430D01*
X63660748Y-180814087D01*
X63475913Y-180629252D01*
X63258570Y-180484028D01*
X63017072Y-180383996D01*
X62760698Y-180333000D01*
X62499302Y-180333000D01*
X62242928Y-180383996D01*
X62001430Y-180484028D01*
X61784087Y-180629252D01*
X61599252Y-180814087D01*
X61454028Y-181031430D01*
X61360000Y-181258433D01*
X61265972Y-181031430D01*
X61120748Y-180814087D01*
X60935913Y-180629252D01*
X60718570Y-180484028D01*
X60477072Y-180383996D01*
X60220698Y-180333000D01*
X59959302Y-180333000D01*
X59702928Y-180383996D01*
X59461430Y-180484028D01*
X59244087Y-180629252D01*
X59059252Y-180814087D01*
X59002648Y-180898801D01*
X58949814Y-180799956D01*
X58685413Y-180704192D01*
X57920716Y-181468889D01*
X57557967Y-181472428D01*
X58505808Y-180524587D01*
X58410044Y-180260186D01*
X58120429Y-180119296D01*
X57808892Y-180037616D01*
X57487405Y-180018282D01*
X57168325Y-180062039D01*
X56863912Y-180167205D01*
X56689956Y-180260186D01*
X56594192Y-180524587D01*
X57542187Y-181472582D01*
X57498761Y-181473006D01*
X57470265Y-181476530D01*
X57446748Y-181484704D01*
X57425278Y-181497308D01*
X57406680Y-181513858D01*
X57391668Y-181533719D01*
X57380819Y-181556128D01*
X57374550Y-181580222D01*
X57373101Y-181605076D01*
X57388925Y-182000680D01*
X56594192Y-182795413D01*
X56689956Y-183059814D01*
X56792913Y-183109900D01*
X56704087Y-183169252D01*
X56519252Y-183354087D01*
X56374028Y-183571430D01*
X56273996Y-183812928D01*
X56223000Y-184069302D01*
X53277359Y-184069302D01*
X53290748Y-184055913D01*
X53435972Y-183838570D01*
X53536004Y-183597072D01*
X53587000Y-183340698D01*
X53587000Y-183079302D01*
X53536004Y-182822928D01*
X53435972Y-182581430D01*
X53290748Y-182364087D01*
X53105913Y-182179252D01*
X52888570Y-182034028D01*
X52647072Y-181933996D01*
X52437215Y-181892253D01*
X52441628Y-181722595D01*
X55908282Y-181722595D01*
X55952039Y-182041675D01*
X56057205Y-182346088D01*
X56150186Y-182520044D01*
X56414587Y-182615808D01*
X57370395Y-181660000D01*
X56414587Y-180704192D01*
X56150186Y-180799956D01*
X56009296Y-181089571D01*
X55927616Y-181401108D01*
X55908282Y-181722595D01*
X52441628Y-181722595D01*
X52444063Y-181629000D01*
X52812294Y-181629000D01*
X52848002Y-181632517D01*
X52990519Y-181618480D01*
X53032966Y-181605604D01*
X53127559Y-181576910D01*
X53253855Y-181509403D01*
X53364556Y-181418554D01*
X53387328Y-181390806D01*
X54633133Y-180145002D01*
X55706292Y-180145002D01*
X55742000Y-180148519D01*
X55884517Y-180134482D01*
X55900436Y-180129653D01*
X56021557Y-180092912D01*
X56147853Y-180025405D01*
X56258554Y-179934556D01*
X56281326Y-179906808D01*
X58841133Y-177347002D01*
X63144290Y-177347002D01*
X63179998Y-177350519D01*
X63322515Y-177336482D01*
X63337923Y-177331808D01*
X63459555Y-177294912D01*
X63585851Y-177227405D01*
X63696552Y-177136556D01*
X63719323Y-177108809D01*
X64609552Y-176218582D01*
X64690000Y-176218582D01*
X64754103Y-176212268D01*
X64815743Y-176193570D01*
X64872550Y-176163206D01*
X64922343Y-176122343D01*
X64963206Y-176072550D01*
X64966443Y-176066493D01*
X64987657Y-176092343D01*
X65037450Y-176133206D01*
X65094257Y-176163570D01*
X65155897Y-176182268D01*
X65220000Y-176188582D01*
X65451238Y-176188582D01*
X65581855Y-176227335D01*
X65688726Y-176237204D01*
X66247554Y-176233796D01*
X66251302Y-176240808D01*
X66417130Y-176442870D01*
X66619192Y-176608698D01*
X66849722Y-176731919D01*
X67099863Y-176807799D01*
X67294816Y-176827000D01*
X68995184Y-176827000D01*
X69190137Y-176807799D01*
X69440278Y-176731919D01*
X69670808Y-176608698D01*
X69872870Y-176442870D01*
X70038698Y-176240808D01*
X70161919Y-176010278D01*
X70237799Y-175760137D01*
X70263420Y-175500000D01*
X70237799Y-175239863D01*
X70161919Y-174989722D01*
X70038698Y-174759192D01*
X69872870Y-174557130D01*
X69670808Y-174391302D01*
X69440278Y-174268081D01*
X69190137Y-174192201D01*
X68995184Y-174173000D01*
X67746842Y-174173000D01*
X67750964Y-173855540D01*
X67762250Y-173855000D01*
X67921000Y-173696250D01*
X67921000Y-172847000D01*
X68175000Y-172847000D01*
X68175000Y-173696250D01*
X68333750Y-173855000D01*
X68398000Y-173858072D01*
X68522482Y-173845812D01*
X68642180Y-173809502D01*
X68752494Y-173750537D01*
X68849185Y-173671185D01*
X68928537Y-173574494D01*
X68987502Y-173464180D01*
X69023812Y-173344482D01*
X69036072Y-173220000D01*
X69033000Y-173005750D01*
X68874250Y-172847000D01*
X68175000Y-172847000D01*
X67921000Y-172847000D01*
X67901000Y-172847000D01*
X67901000Y-172593000D01*
X67921000Y-172593000D01*
X67921000Y-171743750D01*
X68175000Y-171743750D01*
X68175000Y-172593000D01*
X68874250Y-172593000D01*
X69033000Y-172434250D01*
X69036072Y-172220000D01*
X69023812Y-172095518D01*
X68987502Y-171975820D01*
X68928537Y-171865506D01*
X68849185Y-171768815D01*
X68752494Y-171689463D01*
X68642180Y-171630498D01*
X68522482Y-171594188D01*
X68398000Y-171581928D01*
X68333750Y-171585000D01*
X68175000Y-171743750D01*
X67921000Y-171743750D01*
X67780219Y-171602969D01*
X67783837Y-171324387D01*
X68027072Y-171276004D01*
X68268570Y-171175972D01*
X68485913Y-171030748D01*
X68670748Y-170845913D01*
X68750203Y-170727000D01*
X69069797Y-170727000D01*
X69149252Y-170845913D01*
X69334087Y-171030748D01*
X69551430Y-171175972D01*
X69792928Y-171276004D01*
X70049302Y-171327000D01*
X70310698Y-171327000D01*
X70567072Y-171276004D01*
X70808570Y-171175972D01*
X70869270Y-171135413D01*
X71764192Y-171135413D01*
X71859956Y-171399814D01*
X72149571Y-171540704D01*
X72461108Y-171622384D01*
X72782595Y-171641718D01*
X73101675Y-171597961D01*
X73406088Y-171492795D01*
X73580044Y-171399814D01*
X73675808Y-171135413D01*
X72720000Y-170179605D01*
X71764192Y-171135413D01*
X70869270Y-171135413D01*
X71025913Y-171030748D01*
X71210748Y-170845913D01*
X71267352Y-170761199D01*
X71320186Y-170860044D01*
X71584587Y-170955808D01*
X72540395Y-170000000D01*
X72899605Y-170000000D01*
X73855413Y-170955808D01*
X74119814Y-170860044D01*
X74260704Y-170570429D01*
X74342384Y-170258892D01*
X74361718Y-169937405D01*
X74317961Y-169618325D01*
X74212795Y-169313912D01*
X74119814Y-169139956D01*
X73855413Y-169044192D01*
X72899605Y-170000000D01*
X72540395Y-170000000D01*
X71584587Y-169044192D01*
X71320186Y-169139956D01*
X71270100Y-169242913D01*
X71210748Y-169154087D01*
X71025913Y-168969252D01*
X70869271Y-168864587D01*
X71764192Y-168864587D01*
X72720000Y-169820395D01*
X73675808Y-168864587D01*
X73580044Y-168600186D01*
X73290429Y-168459296D01*
X72978892Y-168377616D01*
X72657405Y-168358282D01*
X72338325Y-168402039D01*
X72033912Y-168507205D01*
X71859956Y-168600186D01*
X71764192Y-168864587D01*
X70869271Y-168864587D01*
X70808570Y-168824028D01*
X70567072Y-168723996D01*
X70310698Y-168673000D01*
X70049302Y-168673000D01*
X69792928Y-168723996D01*
X69551430Y-168824028D01*
X69334087Y-168969252D01*
X69149252Y-169154087D01*
X69069797Y-169273000D01*
X68750203Y-169273000D01*
X68670748Y-169154087D01*
X68485913Y-168969252D01*
X68268570Y-168824028D01*
X68027072Y-168723996D01*
X67818148Y-168682438D01*
X67825036Y-168152000D01*
X74848000Y-168152000D01*
X74848001Y-189848000D01*
X30152000Y-189848000D01*
X30152000Y-185233762D01*
X30269990Y-185502761D01*
X30454078Y-185766317D01*
X30686046Y-185988895D01*
X30956980Y-186161942D01*
X31256468Y-186278807D01*
X31573000Y-186335000D01*
X32673000Y-186335000D01*
X32673000Y-184827000D01*
X32653000Y-184827000D01*
X32653000Y-184573000D01*
X32673000Y-184573000D01*
X32673000Y-183065000D01*
X31573000Y-183065000D01*
X31256468Y-183121193D01*
X30956980Y-183238058D01*
X30686046Y-183411105D01*
X30454078Y-183633683D01*
X30269990Y-183897239D01*
X30152000Y-184166238D01*
X30152000Y-176663623D01*
X31923000Y-176663623D01*
X31923000Y-176836377D01*
X31956703Y-177005811D01*
X32022813Y-177165415D01*
X32118790Y-177309055D01*
X32240945Y-177431210D01*
X32384585Y-177527187D01*
X32544189Y-177593297D01*
X32713623Y-177627000D01*
X32886377Y-177627000D01*
X33055811Y-177593297D01*
X33215415Y-177527187D01*
X33359055Y-177431210D01*
X33481210Y-177309055D01*
X33577187Y-177165415D01*
X33643297Y-177005811D01*
X33677000Y-176836377D01*
X33677000Y-176663623D01*
X33643297Y-176494189D01*
X33577187Y-176334585D01*
X33481210Y-176190945D01*
X33359055Y-176068790D01*
X33215415Y-175972813D01*
X33055811Y-175906703D01*
X32886377Y-175873000D01*
X32713623Y-175873000D01*
X32544189Y-175906703D01*
X32384585Y-175972813D01*
X32240945Y-176068790D01*
X32118790Y-176190945D01*
X32022813Y-176334585D01*
X31956703Y-176494189D01*
X31923000Y-176663623D01*
X30152000Y-176663623D01*
X30152000Y-173833762D01*
X30269990Y-174102761D01*
X30454078Y-174366317D01*
X30686046Y-174588895D01*
X30956980Y-174761942D01*
X31256468Y-174878807D01*
X31573000Y-174935000D01*
X32673000Y-174935000D01*
X32673000Y-173427000D01*
X32927000Y-173427000D01*
X32927000Y-174935000D01*
X33635222Y-174935000D01*
X33588240Y-175035116D01*
X33522750Y-175299960D01*
X33510188Y-175572492D01*
X33551035Y-175842238D01*
X33643723Y-176098832D01*
X33704140Y-176211863D01*
X33943007Y-176277388D01*
X34720395Y-175500000D01*
X34706253Y-175485858D01*
X34885858Y-175306253D01*
X34900000Y-175320395D01*
X35677388Y-174543007D01*
X35611863Y-174304140D01*
X35364884Y-174188240D01*
X35284234Y-174168297D01*
X35330010Y-174102761D01*
X35459144Y-173808355D01*
X35490124Y-173680434D01*
X35370777Y-173427000D01*
X32927000Y-173427000D01*
X32673000Y-173427000D01*
X32653000Y-173427000D01*
X32653000Y-173173000D01*
X32673000Y-173173000D01*
X32673000Y-171665000D01*
X32927000Y-171665000D01*
X32927000Y-173173000D01*
X35370777Y-173173000D01*
X35490124Y-172919566D01*
X35459144Y-172791645D01*
X35330010Y-172497239D01*
X35145922Y-172233683D01*
X34913954Y-172011105D01*
X34643020Y-171838058D01*
X34343532Y-171721193D01*
X34027000Y-171665000D01*
X32927000Y-171665000D01*
X32673000Y-171665000D01*
X31573000Y-171665000D01*
X31256468Y-171721193D01*
X30956980Y-171838058D01*
X30686046Y-172011105D01*
X30454078Y-172233683D01*
X30269990Y-172497239D01*
X30152000Y-172766238D01*
X30152000Y-170553413D01*
X35112192Y-170553413D01*
X35207956Y-170817814D01*
X35497571Y-170958704D01*
X35809108Y-171040384D01*
X36130595Y-171059718D01*
X36449675Y-171015961D01*
X36754088Y-170910795D01*
X36928044Y-170817814D01*
X37023808Y-170553413D01*
X36068000Y-169597605D01*
X35112192Y-170553413D01*
X30152000Y-170553413D01*
X30152000Y-169480595D01*
X34426282Y-169480595D01*
X34470039Y-169799675D01*
X34575205Y-170104088D01*
X34668186Y-170278044D01*
X34932587Y-170373808D01*
X35888395Y-169418000D01*
X34932587Y-168462192D01*
X34668186Y-168557956D01*
X34527296Y-168847571D01*
X34445616Y-169159108D01*
X34426282Y-169480595D01*
X30152000Y-169480595D01*
X30152000Y-168152000D01*
X35159490Y-168152000D01*
X35112192Y-168282587D01*
G36*
X37773750Y-185923000D02*
G01*
X37727002Y-185923000D01*
X37727002Y-185876252D01*
X37773750Y-185923000D01*
G37*
X37773750Y-185923000D02*
X37727002Y-185923000D01*
X37727002Y-185876252D01*
X37773750Y-185923000D01*
G36*
X49914438Y-186242683D02*
G01*
X46197000Y-186233319D01*
X46197000Y-184737000D01*
X49931548Y-184737000D01*
X49914438Y-186242683D01*
G37*
X49914438Y-186242683D02*
X46197000Y-186233319D01*
X46197000Y-184737000D01*
X49931548Y-184737000D01*
X49914438Y-186242683D01*
G36*
X66753561Y-168895105D02*
G01*
X66754074Y-169009265D01*
X66609252Y-169154087D01*
X66464028Y-169371430D01*
X66363996Y-169612928D01*
X66313000Y-169869302D01*
X66313000Y-170130698D01*
X66363996Y-170387072D01*
X66464028Y-170628570D01*
X66609252Y-170845913D01*
X66763019Y-170999680D01*
X66772842Y-173185264D01*
X66147394Y-174233811D01*
X63687227Y-174261557D01*
X63696773Y-168848930D01*
X66753561Y-168895105D01*
G37*
X66753561Y-168895105D02*
X66754074Y-169009265D01*
X66609252Y-169154087D01*
X66464028Y-169371430D01*
X66363996Y-169612928D01*
X66313000Y-169869302D01*
X66313000Y-170130698D01*
X66363996Y-170387072D01*
X66464028Y-170628570D01*
X66609252Y-170845913D01*
X66763019Y-170999680D01*
X66772842Y-173185264D01*
X66147394Y-174233811D01*
X63687227Y-174261557D01*
X63696773Y-168848930D01*
X66753561Y-168895105D01*
M02*
