G04 #@! TF.GenerationSoftware,KiCad,Pcbnew,(5.1.5-0-10_14)*
G04 #@! TF.CreationDate,2021-12-27T21:36:10+00:00*
G04 #@! TF.ProjectId,receiver,72656365-6976-4657-922e-6b696361645f,rev?*
G04 #@! TF.SameCoordinates,Original*
G04 #@! TF.FileFunction,Soldermask,Top*
G04 #@! TF.FilePolarity,Negative*
%FSLAX46Y46*%
G04 Gerber Fmt 4.6, Leading zero omitted, Abs format (unit mm)*
G04 Created by KiCad (PCBNEW (5.1.5-0-10_14)) date 2021-12-27 21:36:10*
%MOMM*%
%LPD*%
G04 APERTURE LIST*
%ADD10C,0.100000*%
G04 APERTURE END LIST*
D10*
G36*
X47101000Y-187961000D02*
G01*
X45999000Y-187961000D01*
X45999000Y-187159000D01*
X47101000Y-187159000D01*
X47101000Y-187961000D01*
G37*
G36*
X48971000Y-187951000D02*
G01*
X47869000Y-187951000D01*
X47869000Y-187149000D01*
X48971000Y-187149000D01*
X48971000Y-187951000D01*
G37*
G36*
X62916564Y-185699389D02*
G01*
X63041164Y-185751000D01*
X63107835Y-185778616D01*
X63279973Y-185893635D01*
X63426365Y-186040027D01*
X63540795Y-186211283D01*
X63541385Y-186212167D01*
X63620611Y-186403436D01*
X63661000Y-186606484D01*
X63661000Y-186813516D01*
X63620611Y-187016564D01*
X63565754Y-187149000D01*
X63541384Y-187207835D01*
X63426365Y-187379973D01*
X63279973Y-187526365D01*
X63107835Y-187641384D01*
X63107834Y-187641385D01*
X63107833Y-187641385D01*
X62916564Y-187720611D01*
X62713516Y-187761000D01*
X62506484Y-187761000D01*
X62303436Y-187720611D01*
X62112167Y-187641385D01*
X62112166Y-187641385D01*
X62112165Y-187641384D01*
X61940027Y-187526365D01*
X61793635Y-187379973D01*
X61678616Y-187207835D01*
X61654246Y-187149000D01*
X61599389Y-187016564D01*
X61559000Y-186813516D01*
X61559000Y-186606484D01*
X61599389Y-186403436D01*
X61678615Y-186212167D01*
X61679206Y-186211283D01*
X61793635Y-186040027D01*
X61940027Y-185893635D01*
X62112165Y-185778616D01*
X62178836Y-185751000D01*
X62303436Y-185699389D01*
X62506484Y-185659000D01*
X62713516Y-185659000D01*
X62916564Y-185699389D01*
G37*
G36*
X45150170Y-178450803D02*
G01*
X45161875Y-178454354D01*
X45172665Y-178460121D01*
X45182119Y-178467881D01*
X45189879Y-178477335D01*
X45195646Y-178488125D01*
X45199197Y-178499830D01*
X45201000Y-178518138D01*
X45201000Y-178881862D01*
X45199197Y-178900170D01*
X45195646Y-178911875D01*
X45189879Y-178922665D01*
X45178370Y-178936688D01*
X45169355Y-178945704D01*
X45155741Y-178966078D01*
X45146365Y-178988717D01*
X45141585Y-179012751D01*
X45141585Y-179037255D01*
X45146366Y-179061288D01*
X45155744Y-179083926D01*
X45169358Y-179104301D01*
X45178374Y-179113317D01*
X45189879Y-179127335D01*
X45195646Y-179138125D01*
X45199197Y-179149830D01*
X45201000Y-179168138D01*
X45201000Y-179531862D01*
X45199197Y-179550170D01*
X45195646Y-179561875D01*
X45189879Y-179572665D01*
X45178370Y-179586688D01*
X45169355Y-179595704D01*
X45155741Y-179616078D01*
X45146365Y-179638717D01*
X45141585Y-179662751D01*
X45141585Y-179687255D01*
X45146366Y-179711288D01*
X45155744Y-179733926D01*
X45169358Y-179754301D01*
X45178374Y-179763317D01*
X45189879Y-179777335D01*
X45195646Y-179788125D01*
X45199197Y-179799830D01*
X45201000Y-179818138D01*
X45201000Y-180181862D01*
X45199197Y-180200170D01*
X45195646Y-180211875D01*
X45189879Y-180222665D01*
X45178370Y-180236688D01*
X45169355Y-180245704D01*
X45155741Y-180266078D01*
X45146365Y-180288717D01*
X45141585Y-180312751D01*
X45141585Y-180337255D01*
X45146366Y-180361288D01*
X45155744Y-180383926D01*
X45169358Y-180404301D01*
X45178374Y-180413317D01*
X45189879Y-180427335D01*
X45195646Y-180438125D01*
X45199197Y-180449830D01*
X45201000Y-180468138D01*
X45201000Y-180831862D01*
X45199197Y-180850170D01*
X45195646Y-180861875D01*
X45189879Y-180872665D01*
X45178370Y-180886688D01*
X45169355Y-180895704D01*
X45155741Y-180916078D01*
X45146365Y-180938717D01*
X45141585Y-180962751D01*
X45141585Y-180987255D01*
X45146366Y-181011288D01*
X45155744Y-181033926D01*
X45169358Y-181054301D01*
X45178374Y-181063317D01*
X45189879Y-181077335D01*
X45195646Y-181088125D01*
X45199197Y-181099830D01*
X45201000Y-181118138D01*
X45201000Y-181481862D01*
X45199197Y-181500170D01*
X45195646Y-181511875D01*
X45189879Y-181522665D01*
X45178370Y-181536688D01*
X45169355Y-181545704D01*
X45155741Y-181566078D01*
X45146365Y-181588717D01*
X45141585Y-181612751D01*
X45141585Y-181637255D01*
X45146366Y-181661288D01*
X45155744Y-181683926D01*
X45169358Y-181704301D01*
X45178374Y-181713317D01*
X45189879Y-181727335D01*
X45195646Y-181738125D01*
X45199197Y-181749830D01*
X45201000Y-181768138D01*
X45201000Y-182131862D01*
X45199197Y-182150170D01*
X45195646Y-182161875D01*
X45189879Y-182172665D01*
X45178370Y-182186688D01*
X45169355Y-182195704D01*
X45155741Y-182216078D01*
X45146365Y-182238717D01*
X45141585Y-182262751D01*
X45141585Y-182287255D01*
X45146366Y-182311288D01*
X45155744Y-182333926D01*
X45169358Y-182354301D01*
X45178374Y-182363317D01*
X45189879Y-182377335D01*
X45195646Y-182388125D01*
X45199197Y-182399830D01*
X45201000Y-182418138D01*
X45201000Y-182781862D01*
X45199197Y-182800170D01*
X45195646Y-182811875D01*
X45189879Y-182822665D01*
X45178370Y-182836688D01*
X45169355Y-182845704D01*
X45155741Y-182866078D01*
X45146365Y-182888717D01*
X45141585Y-182912751D01*
X45141585Y-182937255D01*
X45146366Y-182961288D01*
X45155744Y-182983926D01*
X45169358Y-183004301D01*
X45178374Y-183013317D01*
X45189879Y-183027335D01*
X45195646Y-183038125D01*
X45199197Y-183049830D01*
X45201000Y-183068138D01*
X45201000Y-183431862D01*
X45199197Y-183450170D01*
X45195646Y-183461875D01*
X45189879Y-183472665D01*
X45178370Y-183486688D01*
X45169355Y-183495704D01*
X45155741Y-183516078D01*
X45146365Y-183538717D01*
X45141585Y-183562751D01*
X45141585Y-183587255D01*
X45146366Y-183611288D01*
X45155744Y-183633926D01*
X45169358Y-183654301D01*
X45178374Y-183663317D01*
X45189879Y-183677335D01*
X45195646Y-183688125D01*
X45199197Y-183699830D01*
X45201000Y-183718138D01*
X45201000Y-184081862D01*
X45199197Y-184100170D01*
X45195646Y-184111875D01*
X45189879Y-184122665D01*
X45178370Y-184136688D01*
X45169355Y-184145704D01*
X45155741Y-184166078D01*
X45146365Y-184188717D01*
X45141585Y-184212751D01*
X45141585Y-184237255D01*
X45146366Y-184261288D01*
X45155744Y-184283926D01*
X45169358Y-184304301D01*
X45178374Y-184313317D01*
X45189879Y-184327335D01*
X45195646Y-184338125D01*
X45199197Y-184349830D01*
X45201000Y-184368138D01*
X45201000Y-184731862D01*
X45199197Y-184750170D01*
X45195646Y-184761875D01*
X45189879Y-184772665D01*
X45178370Y-184786688D01*
X45169355Y-184795704D01*
X45155741Y-184816078D01*
X45146365Y-184838717D01*
X45141585Y-184862751D01*
X45141585Y-184887255D01*
X45146366Y-184911288D01*
X45155744Y-184933926D01*
X45169358Y-184954301D01*
X45178374Y-184963317D01*
X45189879Y-184977335D01*
X45195646Y-184988125D01*
X45199197Y-184999830D01*
X45201000Y-185018138D01*
X45201000Y-185381862D01*
X45199197Y-185400170D01*
X45195646Y-185411875D01*
X45189879Y-185422665D01*
X45178370Y-185436688D01*
X45169355Y-185445704D01*
X45155741Y-185466078D01*
X45146365Y-185488717D01*
X45141585Y-185512751D01*
X45141585Y-185537255D01*
X45146366Y-185561288D01*
X45155744Y-185583926D01*
X45169358Y-185604301D01*
X45178374Y-185613317D01*
X45189879Y-185627335D01*
X45195646Y-185638125D01*
X45199197Y-185649830D01*
X45201000Y-185668138D01*
X45201000Y-186031862D01*
X45199197Y-186050170D01*
X45195646Y-186061875D01*
X45189879Y-186072665D01*
X45178370Y-186086688D01*
X45169355Y-186095704D01*
X45155741Y-186116078D01*
X45146365Y-186138717D01*
X45141585Y-186162751D01*
X45141585Y-186187255D01*
X45146366Y-186211288D01*
X45155744Y-186233926D01*
X45169358Y-186254301D01*
X45178374Y-186263317D01*
X45189879Y-186277335D01*
X45195646Y-186288125D01*
X45199197Y-186299830D01*
X45201000Y-186318138D01*
X45201000Y-186681862D01*
X45199197Y-186700170D01*
X45195646Y-186711875D01*
X45189879Y-186722665D01*
X45178370Y-186736688D01*
X45169355Y-186745704D01*
X45155741Y-186766078D01*
X45146365Y-186788717D01*
X45141585Y-186812751D01*
X45141585Y-186837255D01*
X45146366Y-186861288D01*
X45155744Y-186883926D01*
X45169358Y-186904301D01*
X45178374Y-186913317D01*
X45189879Y-186927335D01*
X45195646Y-186938125D01*
X45199197Y-186949830D01*
X45201000Y-186968138D01*
X45201000Y-187331862D01*
X45199197Y-187350170D01*
X45195646Y-187361875D01*
X45189879Y-187372665D01*
X45182119Y-187382119D01*
X45172665Y-187389879D01*
X45161875Y-187395646D01*
X45150170Y-187399197D01*
X45131862Y-187401000D01*
X43668138Y-187401000D01*
X43649830Y-187399197D01*
X43638125Y-187395646D01*
X43627335Y-187389879D01*
X43617881Y-187382119D01*
X43610121Y-187372665D01*
X43604354Y-187361875D01*
X43600803Y-187350170D01*
X43599000Y-187331862D01*
X43599000Y-186968138D01*
X43600803Y-186949830D01*
X43604354Y-186938125D01*
X43610121Y-186927335D01*
X43621630Y-186913312D01*
X43630645Y-186904296D01*
X43644259Y-186883922D01*
X43653635Y-186861283D01*
X43658415Y-186837249D01*
X43658415Y-186812745D01*
X43653634Y-186788712D01*
X43644256Y-186766074D01*
X43630642Y-186745699D01*
X43621626Y-186736683D01*
X43610121Y-186722665D01*
X43604354Y-186711875D01*
X43600803Y-186700170D01*
X43599000Y-186681862D01*
X43599000Y-186318138D01*
X43600803Y-186299830D01*
X43604354Y-186288125D01*
X43610121Y-186277335D01*
X43621630Y-186263312D01*
X43630645Y-186254296D01*
X43644259Y-186233922D01*
X43653635Y-186211283D01*
X43658415Y-186187249D01*
X43658415Y-186162745D01*
X43653634Y-186138712D01*
X43644256Y-186116074D01*
X43630642Y-186095699D01*
X43621626Y-186086683D01*
X43610121Y-186072665D01*
X43604354Y-186061875D01*
X43600803Y-186050170D01*
X43599000Y-186031862D01*
X43599000Y-185668138D01*
X43600803Y-185649830D01*
X43604354Y-185638125D01*
X43610121Y-185627335D01*
X43621630Y-185613312D01*
X43630645Y-185604296D01*
X43644259Y-185583922D01*
X43653635Y-185561283D01*
X43658415Y-185537249D01*
X43658415Y-185512745D01*
X43653634Y-185488712D01*
X43644256Y-185466074D01*
X43630642Y-185445699D01*
X43621626Y-185436683D01*
X43610121Y-185422665D01*
X43604354Y-185411875D01*
X43600803Y-185400170D01*
X43599000Y-185381862D01*
X43599000Y-185018138D01*
X43600803Y-184999830D01*
X43604354Y-184988125D01*
X43610121Y-184977335D01*
X43621630Y-184963312D01*
X43630645Y-184954296D01*
X43644259Y-184933922D01*
X43653635Y-184911283D01*
X43658415Y-184887249D01*
X43658415Y-184862745D01*
X43653634Y-184838712D01*
X43644256Y-184816074D01*
X43630642Y-184795699D01*
X43621626Y-184786683D01*
X43610121Y-184772665D01*
X43604354Y-184761875D01*
X43600803Y-184750170D01*
X43599000Y-184731862D01*
X43599000Y-184368138D01*
X43600803Y-184349830D01*
X43604354Y-184338125D01*
X43610121Y-184327335D01*
X43621630Y-184313312D01*
X43630645Y-184304296D01*
X43644259Y-184283922D01*
X43653635Y-184261283D01*
X43658415Y-184237249D01*
X43658415Y-184212745D01*
X43653634Y-184188712D01*
X43644256Y-184166074D01*
X43630642Y-184145699D01*
X43621626Y-184136683D01*
X43610121Y-184122665D01*
X43604354Y-184111875D01*
X43600803Y-184100170D01*
X43599000Y-184081862D01*
X43599000Y-183718138D01*
X43600803Y-183699830D01*
X43604354Y-183688125D01*
X43610121Y-183677335D01*
X43621630Y-183663312D01*
X43630645Y-183654296D01*
X43644259Y-183633922D01*
X43653635Y-183611283D01*
X43658415Y-183587249D01*
X43658415Y-183562745D01*
X43653634Y-183538712D01*
X43644256Y-183516074D01*
X43630642Y-183495699D01*
X43621626Y-183486683D01*
X43610121Y-183472665D01*
X43604354Y-183461875D01*
X43600803Y-183450170D01*
X43599000Y-183431862D01*
X43599000Y-183068138D01*
X43600803Y-183049830D01*
X43604354Y-183038125D01*
X43610121Y-183027335D01*
X43621630Y-183013312D01*
X43630645Y-183004296D01*
X43644259Y-182983922D01*
X43653635Y-182961283D01*
X43658415Y-182937249D01*
X43658415Y-182912745D01*
X43653634Y-182888712D01*
X43644256Y-182866074D01*
X43630642Y-182845699D01*
X43621626Y-182836683D01*
X43610121Y-182822665D01*
X43604354Y-182811875D01*
X43600803Y-182800170D01*
X43599000Y-182781862D01*
X43599000Y-182418138D01*
X43600803Y-182399830D01*
X43604354Y-182388125D01*
X43610121Y-182377335D01*
X43621630Y-182363312D01*
X43630645Y-182354296D01*
X43644259Y-182333922D01*
X43653635Y-182311283D01*
X43658415Y-182287249D01*
X43658415Y-182262745D01*
X43653634Y-182238712D01*
X43644256Y-182216074D01*
X43630642Y-182195699D01*
X43621626Y-182186683D01*
X43610121Y-182172665D01*
X43604354Y-182161875D01*
X43600803Y-182150170D01*
X43599000Y-182131862D01*
X43599000Y-181768138D01*
X43600803Y-181749830D01*
X43604354Y-181738125D01*
X43610121Y-181727335D01*
X43621630Y-181713312D01*
X43630645Y-181704296D01*
X43644259Y-181683922D01*
X43653635Y-181661283D01*
X43658415Y-181637249D01*
X43658415Y-181612745D01*
X43653634Y-181588712D01*
X43644256Y-181566074D01*
X43630642Y-181545699D01*
X43621626Y-181536683D01*
X43610121Y-181522665D01*
X43604354Y-181511875D01*
X43600803Y-181500170D01*
X43599000Y-181481862D01*
X43599000Y-181118138D01*
X43600803Y-181099830D01*
X43604354Y-181088125D01*
X43610121Y-181077335D01*
X43621630Y-181063312D01*
X43630645Y-181054296D01*
X43644259Y-181033922D01*
X43653635Y-181011283D01*
X43658415Y-180987249D01*
X43658415Y-180962745D01*
X43653634Y-180938712D01*
X43644256Y-180916074D01*
X43630642Y-180895699D01*
X43621626Y-180886683D01*
X43610121Y-180872665D01*
X43604354Y-180861875D01*
X43600803Y-180850170D01*
X43599000Y-180831862D01*
X43599000Y-180468138D01*
X43600803Y-180449830D01*
X43604354Y-180438125D01*
X43610121Y-180427335D01*
X43621630Y-180413312D01*
X43630645Y-180404296D01*
X43644259Y-180383922D01*
X43653635Y-180361283D01*
X43658415Y-180337249D01*
X43658415Y-180312745D01*
X43653634Y-180288712D01*
X43644256Y-180266074D01*
X43630642Y-180245699D01*
X43621626Y-180236683D01*
X43610121Y-180222665D01*
X43604354Y-180211875D01*
X43600803Y-180200170D01*
X43599000Y-180181862D01*
X43599000Y-179818138D01*
X43600803Y-179799830D01*
X43604354Y-179788125D01*
X43610121Y-179777335D01*
X43621630Y-179763312D01*
X43630645Y-179754296D01*
X43644259Y-179733922D01*
X43653635Y-179711283D01*
X43658415Y-179687249D01*
X43658415Y-179662745D01*
X43653634Y-179638712D01*
X43644256Y-179616074D01*
X43630642Y-179595699D01*
X43621626Y-179586683D01*
X43610121Y-179572665D01*
X43604354Y-179561875D01*
X43600803Y-179550170D01*
X43599000Y-179531862D01*
X43599000Y-179168138D01*
X43600803Y-179149830D01*
X43604354Y-179138125D01*
X43610121Y-179127335D01*
X43621630Y-179113312D01*
X43630645Y-179104296D01*
X43644259Y-179083922D01*
X43653635Y-179061283D01*
X43658415Y-179037249D01*
X43658415Y-179012745D01*
X43653634Y-178988712D01*
X43644256Y-178966074D01*
X43630642Y-178945699D01*
X43621626Y-178936683D01*
X43610121Y-178922665D01*
X43604354Y-178911875D01*
X43600803Y-178900170D01*
X43599000Y-178881862D01*
X43599000Y-178518138D01*
X43600803Y-178499830D01*
X43604354Y-178488125D01*
X43610121Y-178477335D01*
X43617881Y-178467881D01*
X43627335Y-178460121D01*
X43638125Y-178454354D01*
X43649830Y-178450803D01*
X43668138Y-178449000D01*
X45131862Y-178449000D01*
X45150170Y-178450803D01*
G37*
G36*
X38350170Y-178450803D02*
G01*
X38361875Y-178454354D01*
X38372665Y-178460121D01*
X38382119Y-178467881D01*
X38389879Y-178477335D01*
X38395646Y-178488125D01*
X38399197Y-178499830D01*
X38401000Y-178518138D01*
X38401000Y-178881862D01*
X38399197Y-178900170D01*
X38395646Y-178911875D01*
X38389879Y-178922665D01*
X38378370Y-178936688D01*
X38369355Y-178945704D01*
X38355741Y-178966078D01*
X38346365Y-178988717D01*
X38341585Y-179012751D01*
X38341585Y-179037255D01*
X38346366Y-179061288D01*
X38355744Y-179083926D01*
X38369358Y-179104301D01*
X38378374Y-179113317D01*
X38389879Y-179127335D01*
X38395646Y-179138125D01*
X38399197Y-179149830D01*
X38401000Y-179168138D01*
X38401000Y-179531862D01*
X38399197Y-179550170D01*
X38395646Y-179561875D01*
X38389879Y-179572665D01*
X38378370Y-179586688D01*
X38369355Y-179595704D01*
X38355741Y-179616078D01*
X38346365Y-179638717D01*
X38341585Y-179662751D01*
X38341585Y-179687255D01*
X38346366Y-179711288D01*
X38355744Y-179733926D01*
X38369358Y-179754301D01*
X38378374Y-179763317D01*
X38389879Y-179777335D01*
X38395646Y-179788125D01*
X38399197Y-179799830D01*
X38401000Y-179818138D01*
X38401000Y-180181862D01*
X38399197Y-180200170D01*
X38395646Y-180211875D01*
X38389879Y-180222665D01*
X38378370Y-180236688D01*
X38369355Y-180245704D01*
X38355741Y-180266078D01*
X38346365Y-180288717D01*
X38341585Y-180312751D01*
X38341585Y-180337255D01*
X38346366Y-180361288D01*
X38355744Y-180383926D01*
X38369358Y-180404301D01*
X38378374Y-180413317D01*
X38389879Y-180427335D01*
X38395646Y-180438125D01*
X38399197Y-180449830D01*
X38401000Y-180468138D01*
X38401000Y-180831862D01*
X38399197Y-180850170D01*
X38395646Y-180861875D01*
X38389879Y-180872665D01*
X38378370Y-180886688D01*
X38369355Y-180895704D01*
X38355741Y-180916078D01*
X38346365Y-180938717D01*
X38341585Y-180962751D01*
X38341585Y-180987255D01*
X38346366Y-181011288D01*
X38355744Y-181033926D01*
X38369358Y-181054301D01*
X38378374Y-181063317D01*
X38389879Y-181077335D01*
X38395646Y-181088125D01*
X38399197Y-181099830D01*
X38401000Y-181118138D01*
X38401000Y-181481862D01*
X38399197Y-181500170D01*
X38395646Y-181511875D01*
X38389879Y-181522665D01*
X38378370Y-181536688D01*
X38369355Y-181545704D01*
X38355741Y-181566078D01*
X38346365Y-181588717D01*
X38341585Y-181612751D01*
X38341585Y-181637255D01*
X38346366Y-181661288D01*
X38355744Y-181683926D01*
X38369358Y-181704301D01*
X38378374Y-181713317D01*
X38389879Y-181727335D01*
X38395646Y-181738125D01*
X38399197Y-181749830D01*
X38401000Y-181768138D01*
X38401000Y-182131862D01*
X38399197Y-182150170D01*
X38395646Y-182161875D01*
X38389879Y-182172665D01*
X38378370Y-182186688D01*
X38369355Y-182195704D01*
X38355741Y-182216078D01*
X38346365Y-182238717D01*
X38341585Y-182262751D01*
X38341585Y-182287255D01*
X38346366Y-182311288D01*
X38355744Y-182333926D01*
X38369358Y-182354301D01*
X38378374Y-182363317D01*
X38389879Y-182377335D01*
X38395646Y-182388125D01*
X38399197Y-182399830D01*
X38401000Y-182418138D01*
X38401000Y-182781862D01*
X38399197Y-182800170D01*
X38395646Y-182811875D01*
X38389879Y-182822665D01*
X38378370Y-182836688D01*
X38369355Y-182845704D01*
X38355741Y-182866078D01*
X38346365Y-182888717D01*
X38341585Y-182912751D01*
X38341585Y-182937255D01*
X38346366Y-182961288D01*
X38355744Y-182983926D01*
X38369358Y-183004301D01*
X38378374Y-183013317D01*
X38389879Y-183027335D01*
X38395646Y-183038125D01*
X38399197Y-183049830D01*
X38401000Y-183068138D01*
X38401000Y-183431862D01*
X38399197Y-183450170D01*
X38395646Y-183461875D01*
X38389879Y-183472665D01*
X38378370Y-183486688D01*
X38369355Y-183495704D01*
X38355741Y-183516078D01*
X38346365Y-183538717D01*
X38341585Y-183562751D01*
X38341585Y-183587255D01*
X38346366Y-183611288D01*
X38355744Y-183633926D01*
X38369358Y-183654301D01*
X38378374Y-183663317D01*
X38389879Y-183677335D01*
X38395646Y-183688125D01*
X38399197Y-183699830D01*
X38401000Y-183718138D01*
X38401000Y-184081862D01*
X38399197Y-184100170D01*
X38395646Y-184111875D01*
X38389879Y-184122665D01*
X38378370Y-184136688D01*
X38369355Y-184145704D01*
X38355741Y-184166078D01*
X38346365Y-184188717D01*
X38341585Y-184212751D01*
X38341585Y-184237255D01*
X38346366Y-184261288D01*
X38355744Y-184283926D01*
X38369358Y-184304301D01*
X38378374Y-184313317D01*
X38389879Y-184327335D01*
X38395646Y-184338125D01*
X38399197Y-184349830D01*
X38401000Y-184368138D01*
X38401000Y-184731862D01*
X38399197Y-184750170D01*
X38395646Y-184761875D01*
X38389879Y-184772665D01*
X38378370Y-184786688D01*
X38369355Y-184795704D01*
X38355741Y-184816078D01*
X38346365Y-184838717D01*
X38341585Y-184862751D01*
X38341585Y-184887255D01*
X38346366Y-184911288D01*
X38355744Y-184933926D01*
X38369358Y-184954301D01*
X38378374Y-184963317D01*
X38389879Y-184977335D01*
X38395646Y-184988125D01*
X38399197Y-184999830D01*
X38401000Y-185018138D01*
X38401000Y-185381862D01*
X38399197Y-185400170D01*
X38395646Y-185411875D01*
X38389879Y-185422665D01*
X38378370Y-185436688D01*
X38369355Y-185445704D01*
X38355741Y-185466078D01*
X38346365Y-185488717D01*
X38341585Y-185512751D01*
X38341585Y-185537255D01*
X38346366Y-185561288D01*
X38355744Y-185583926D01*
X38369358Y-185604301D01*
X38378374Y-185613317D01*
X38389879Y-185627335D01*
X38395646Y-185638125D01*
X38399197Y-185649830D01*
X38401000Y-185668138D01*
X38401000Y-186031862D01*
X38399197Y-186050170D01*
X38395646Y-186061875D01*
X38389879Y-186072665D01*
X38378370Y-186086688D01*
X38369355Y-186095704D01*
X38355741Y-186116078D01*
X38346365Y-186138717D01*
X38341585Y-186162751D01*
X38341585Y-186187255D01*
X38346366Y-186211288D01*
X38355744Y-186233926D01*
X38369358Y-186254301D01*
X38378374Y-186263317D01*
X38389879Y-186277335D01*
X38395646Y-186288125D01*
X38399197Y-186299830D01*
X38401000Y-186318138D01*
X38401000Y-186681862D01*
X38399197Y-186700170D01*
X38395646Y-186711875D01*
X38389879Y-186722665D01*
X38378370Y-186736688D01*
X38369355Y-186745704D01*
X38355741Y-186766078D01*
X38346365Y-186788717D01*
X38341585Y-186812751D01*
X38341585Y-186837255D01*
X38346366Y-186861288D01*
X38355744Y-186883926D01*
X38369358Y-186904301D01*
X38378374Y-186913317D01*
X38389879Y-186927335D01*
X38395646Y-186938125D01*
X38399197Y-186949830D01*
X38401000Y-186968138D01*
X38401000Y-187331862D01*
X38399197Y-187350170D01*
X38395646Y-187361875D01*
X38389879Y-187372665D01*
X38382119Y-187382119D01*
X38372665Y-187389879D01*
X38361875Y-187395646D01*
X38350170Y-187399197D01*
X38331862Y-187401000D01*
X36868138Y-187401000D01*
X36849830Y-187399197D01*
X36838125Y-187395646D01*
X36827335Y-187389879D01*
X36817881Y-187382119D01*
X36810121Y-187372665D01*
X36804354Y-187361875D01*
X36800803Y-187350170D01*
X36799000Y-187331862D01*
X36799000Y-186968138D01*
X36800803Y-186949830D01*
X36804354Y-186938125D01*
X36810121Y-186927335D01*
X36821630Y-186913312D01*
X36830645Y-186904296D01*
X36844259Y-186883922D01*
X36853635Y-186861283D01*
X36858415Y-186837249D01*
X36858415Y-186812745D01*
X36853634Y-186788712D01*
X36844256Y-186766074D01*
X36830642Y-186745699D01*
X36821626Y-186736683D01*
X36810121Y-186722665D01*
X36804354Y-186711875D01*
X36800803Y-186700170D01*
X36799000Y-186681862D01*
X36799000Y-186318138D01*
X36800803Y-186299830D01*
X36804354Y-186288125D01*
X36810121Y-186277335D01*
X36821630Y-186263312D01*
X36830645Y-186254296D01*
X36844259Y-186233922D01*
X36853635Y-186211283D01*
X36858415Y-186187249D01*
X36858415Y-186162745D01*
X36853634Y-186138712D01*
X36844256Y-186116074D01*
X36830642Y-186095699D01*
X36821626Y-186086683D01*
X36810121Y-186072665D01*
X36804354Y-186061875D01*
X36800803Y-186050170D01*
X36799000Y-186031862D01*
X36799000Y-185668138D01*
X36800803Y-185649830D01*
X36804354Y-185638125D01*
X36810121Y-185627335D01*
X36821630Y-185613312D01*
X36830645Y-185604296D01*
X36844259Y-185583922D01*
X36853635Y-185561283D01*
X36858415Y-185537249D01*
X36858415Y-185512745D01*
X36853634Y-185488712D01*
X36844256Y-185466074D01*
X36830642Y-185445699D01*
X36821626Y-185436683D01*
X36810121Y-185422665D01*
X36804354Y-185411875D01*
X36800803Y-185400170D01*
X36799000Y-185381862D01*
X36799000Y-185018138D01*
X36800803Y-184999830D01*
X36804354Y-184988125D01*
X36810121Y-184977335D01*
X36821630Y-184963312D01*
X36830645Y-184954296D01*
X36844259Y-184933922D01*
X36853635Y-184911283D01*
X36858415Y-184887249D01*
X36858415Y-184862745D01*
X36853634Y-184838712D01*
X36844256Y-184816074D01*
X36830642Y-184795699D01*
X36821626Y-184786683D01*
X36810121Y-184772665D01*
X36804354Y-184761875D01*
X36800803Y-184750170D01*
X36799000Y-184731862D01*
X36799000Y-184368138D01*
X36800803Y-184349830D01*
X36804354Y-184338125D01*
X36810121Y-184327335D01*
X36821630Y-184313312D01*
X36830645Y-184304296D01*
X36844259Y-184283922D01*
X36853635Y-184261283D01*
X36858415Y-184237249D01*
X36858415Y-184212745D01*
X36853634Y-184188712D01*
X36844256Y-184166074D01*
X36830642Y-184145699D01*
X36821626Y-184136683D01*
X36810121Y-184122665D01*
X36804354Y-184111875D01*
X36800803Y-184100170D01*
X36799000Y-184081862D01*
X36799000Y-183718138D01*
X36800803Y-183699830D01*
X36804354Y-183688125D01*
X36810121Y-183677335D01*
X36821630Y-183663312D01*
X36830645Y-183654296D01*
X36844259Y-183633922D01*
X36853635Y-183611283D01*
X36858415Y-183587249D01*
X36858415Y-183562745D01*
X36853634Y-183538712D01*
X36844256Y-183516074D01*
X36830642Y-183495699D01*
X36821626Y-183486683D01*
X36810121Y-183472665D01*
X36804354Y-183461875D01*
X36800803Y-183450170D01*
X36799000Y-183431862D01*
X36799000Y-183068138D01*
X36800803Y-183049830D01*
X36804354Y-183038125D01*
X36810121Y-183027335D01*
X36821630Y-183013312D01*
X36830645Y-183004296D01*
X36844259Y-182983922D01*
X36853635Y-182961283D01*
X36858415Y-182937249D01*
X36858415Y-182912745D01*
X36853634Y-182888712D01*
X36844256Y-182866074D01*
X36830642Y-182845699D01*
X36821626Y-182836683D01*
X36810121Y-182822665D01*
X36804354Y-182811875D01*
X36800803Y-182800170D01*
X36799000Y-182781862D01*
X36799000Y-182418138D01*
X36800803Y-182399830D01*
X36804354Y-182388125D01*
X36810121Y-182377335D01*
X36821630Y-182363312D01*
X36830645Y-182354296D01*
X36844259Y-182333922D01*
X36853635Y-182311283D01*
X36858415Y-182287249D01*
X36858415Y-182262745D01*
X36853634Y-182238712D01*
X36844256Y-182216074D01*
X36830642Y-182195699D01*
X36821626Y-182186683D01*
X36810121Y-182172665D01*
X36804354Y-182161875D01*
X36800803Y-182150170D01*
X36799000Y-182131862D01*
X36799000Y-181768138D01*
X36800803Y-181749830D01*
X36804354Y-181738125D01*
X36810121Y-181727335D01*
X36821630Y-181713312D01*
X36830645Y-181704296D01*
X36844259Y-181683922D01*
X36853635Y-181661283D01*
X36858415Y-181637249D01*
X36858415Y-181612745D01*
X36853634Y-181588712D01*
X36844256Y-181566074D01*
X36830642Y-181545699D01*
X36821626Y-181536683D01*
X36810121Y-181522665D01*
X36804354Y-181511875D01*
X36800803Y-181500170D01*
X36799000Y-181481862D01*
X36799000Y-181118138D01*
X36800803Y-181099830D01*
X36804354Y-181088125D01*
X36810121Y-181077335D01*
X36821630Y-181063312D01*
X36830645Y-181054296D01*
X36844259Y-181033922D01*
X36853635Y-181011283D01*
X36858415Y-180987249D01*
X36858415Y-180962745D01*
X36853634Y-180938712D01*
X36844256Y-180916074D01*
X36830642Y-180895699D01*
X36821626Y-180886683D01*
X36810121Y-180872665D01*
X36804354Y-180861875D01*
X36800803Y-180850170D01*
X36799000Y-180831862D01*
X36799000Y-180468138D01*
X36800803Y-180449830D01*
X36804354Y-180438125D01*
X36810121Y-180427335D01*
X36821630Y-180413312D01*
X36830645Y-180404296D01*
X36844259Y-180383922D01*
X36853635Y-180361283D01*
X36858415Y-180337249D01*
X36858415Y-180312745D01*
X36853634Y-180288712D01*
X36844256Y-180266074D01*
X36830642Y-180245699D01*
X36821626Y-180236683D01*
X36810121Y-180222665D01*
X36804354Y-180211875D01*
X36800803Y-180200170D01*
X36799000Y-180181862D01*
X36799000Y-179818138D01*
X36800803Y-179799830D01*
X36804354Y-179788125D01*
X36810121Y-179777335D01*
X36821630Y-179763312D01*
X36830645Y-179754296D01*
X36844259Y-179733922D01*
X36853635Y-179711283D01*
X36858415Y-179687249D01*
X36858415Y-179662745D01*
X36853634Y-179638712D01*
X36844256Y-179616074D01*
X36830642Y-179595699D01*
X36821626Y-179586683D01*
X36810121Y-179572665D01*
X36804354Y-179561875D01*
X36800803Y-179550170D01*
X36799000Y-179531862D01*
X36799000Y-179168138D01*
X36800803Y-179149830D01*
X36804354Y-179138125D01*
X36810121Y-179127335D01*
X36821630Y-179113312D01*
X36830645Y-179104296D01*
X36844259Y-179083922D01*
X36853635Y-179061283D01*
X36858415Y-179037249D01*
X36858415Y-179012745D01*
X36853634Y-178988712D01*
X36844256Y-178966074D01*
X36830642Y-178945699D01*
X36821626Y-178936683D01*
X36810121Y-178922665D01*
X36804354Y-178911875D01*
X36800803Y-178900170D01*
X36799000Y-178881862D01*
X36799000Y-178518138D01*
X36800803Y-178499830D01*
X36804354Y-178488125D01*
X36810121Y-178477335D01*
X36817881Y-178467881D01*
X36827335Y-178460121D01*
X36838125Y-178454354D01*
X36849830Y-178450803D01*
X36868138Y-178449000D01*
X38331862Y-178449000D01*
X38350170Y-178450803D01*
G37*
G36*
X47101000Y-186461000D02*
G01*
X45999000Y-186461000D01*
X45999000Y-185659000D01*
X47101000Y-185659000D01*
X47101000Y-186461000D01*
G37*
G36*
X48971000Y-186451000D02*
G01*
X47869000Y-186451000D01*
X47869000Y-185649000D01*
X48971000Y-185649000D01*
X48971000Y-186451000D01*
G37*
G36*
X51591000Y-186361000D02*
G01*
X50789000Y-186361000D01*
X50789000Y-185259000D01*
X51591000Y-185259000D01*
X51591000Y-186361000D01*
G37*
G36*
X50091000Y-186361000D02*
G01*
X49289000Y-186361000D01*
X49289000Y-185259000D01*
X50091000Y-185259000D01*
X50091000Y-186361000D01*
G37*
G36*
X33976110Y-183651411D02*
G01*
X34106032Y-183664207D01*
X34249852Y-183707835D01*
X34304149Y-183724306D01*
X34398055Y-183774500D01*
X34486729Y-183821897D01*
X34646765Y-183953235D01*
X34778103Y-184113271D01*
X34806329Y-184166078D01*
X34875694Y-184295851D01*
X34875695Y-184295854D01*
X34935793Y-184493968D01*
X34956085Y-184700000D01*
X34935793Y-184906032D01*
X34899257Y-185026473D01*
X34875694Y-185104149D01*
X34861136Y-185131385D01*
X34778103Y-185286729D01*
X34646765Y-185446765D01*
X34486729Y-185578103D01*
X34420857Y-185613312D01*
X34304149Y-185675694D01*
X34304146Y-185675695D01*
X34106032Y-185735793D01*
X34003097Y-185745931D01*
X33951631Y-185751000D01*
X31648369Y-185751000D01*
X31596903Y-185745931D01*
X31493968Y-185735793D01*
X31295854Y-185675695D01*
X31295851Y-185675694D01*
X31179143Y-185613312D01*
X31113271Y-185578103D01*
X30953235Y-185446765D01*
X30821897Y-185286729D01*
X30738864Y-185131385D01*
X30724306Y-185104149D01*
X30700743Y-185026473D01*
X30664207Y-184906032D01*
X30643915Y-184700000D01*
X30664207Y-184493968D01*
X30724305Y-184295854D01*
X30724306Y-184295851D01*
X30793671Y-184166078D01*
X30821897Y-184113271D01*
X30953235Y-183953235D01*
X31113271Y-183821897D01*
X31201945Y-183774500D01*
X31295851Y-183724306D01*
X31350148Y-183707835D01*
X31493968Y-183664207D01*
X31623890Y-183651411D01*
X31648369Y-183649000D01*
X33951631Y-183649000D01*
X33976110Y-183651411D01*
G37*
G36*
X47101000Y-185351000D02*
G01*
X45999000Y-185351000D01*
X45999000Y-184549000D01*
X47101000Y-184549000D01*
X47101000Y-185351000D01*
G37*
G36*
X49001000Y-185351000D02*
G01*
X47899000Y-185351000D01*
X47899000Y-184549000D01*
X49001000Y-184549000D01*
X49001000Y-185351000D01*
G37*
G36*
X68016564Y-183189389D02*
G01*
X68207833Y-183268615D01*
X68207835Y-183268616D01*
X68379973Y-183383635D01*
X68526365Y-183530027D01*
X68639824Y-183699830D01*
X68641385Y-183702167D01*
X68720611Y-183893436D01*
X68761000Y-184096484D01*
X68761000Y-184303516D01*
X68720611Y-184506564D01*
X68641385Y-184697833D01*
X68641384Y-184697835D01*
X68526365Y-184869973D01*
X68379973Y-185016365D01*
X68207835Y-185131384D01*
X68207834Y-185131385D01*
X68207833Y-185131385D01*
X68016564Y-185210611D01*
X67813516Y-185251000D01*
X67606484Y-185251000D01*
X67403436Y-185210611D01*
X67212167Y-185131385D01*
X67212166Y-185131385D01*
X67212165Y-185131384D01*
X67040027Y-185016365D01*
X66893635Y-184869973D01*
X66778616Y-184697835D01*
X66778615Y-184697833D01*
X66699389Y-184506564D01*
X66659000Y-184303516D01*
X66659000Y-184096484D01*
X66699389Y-183893436D01*
X66778615Y-183702167D01*
X66780177Y-183699830D01*
X66893635Y-183530027D01*
X67040027Y-183383635D01*
X67212165Y-183268616D01*
X67212167Y-183268615D01*
X67403436Y-183189389D01*
X67606484Y-183149000D01*
X67813516Y-183149000D01*
X68016564Y-183189389D01*
G37*
G36*
X65476564Y-183189389D02*
G01*
X65667833Y-183268615D01*
X65667835Y-183268616D01*
X65839973Y-183383635D01*
X65986365Y-183530027D01*
X66099824Y-183699830D01*
X66101385Y-183702167D01*
X66180611Y-183893436D01*
X66221000Y-184096484D01*
X66221000Y-184303516D01*
X66180611Y-184506564D01*
X66101385Y-184697833D01*
X66101384Y-184697835D01*
X65986365Y-184869973D01*
X65839973Y-185016365D01*
X65667835Y-185131384D01*
X65667834Y-185131385D01*
X65667833Y-185131385D01*
X65476564Y-185210611D01*
X65273516Y-185251000D01*
X65066484Y-185251000D01*
X64863436Y-185210611D01*
X64672167Y-185131385D01*
X64672166Y-185131385D01*
X64672165Y-185131384D01*
X64500027Y-185016365D01*
X64353635Y-184869973D01*
X64238616Y-184697835D01*
X64238615Y-184697833D01*
X64159389Y-184506564D01*
X64119000Y-184303516D01*
X64119000Y-184096484D01*
X64159389Y-183893436D01*
X64238615Y-183702167D01*
X64240177Y-183699830D01*
X64353635Y-183530027D01*
X64500027Y-183383635D01*
X64672165Y-183268616D01*
X64672167Y-183268615D01*
X64863436Y-183189389D01*
X65066484Y-183149000D01*
X65273516Y-183149000D01*
X65476564Y-183189389D01*
G37*
G36*
X62936564Y-183189389D02*
G01*
X63127833Y-183268615D01*
X63127835Y-183268616D01*
X63299973Y-183383635D01*
X63446365Y-183530027D01*
X63559824Y-183699830D01*
X63561385Y-183702167D01*
X63640611Y-183893436D01*
X63681000Y-184096484D01*
X63681000Y-184303516D01*
X63640611Y-184506564D01*
X63561385Y-184697833D01*
X63561384Y-184697835D01*
X63446365Y-184869973D01*
X63299973Y-185016365D01*
X63127835Y-185131384D01*
X63127834Y-185131385D01*
X63127833Y-185131385D01*
X62936564Y-185210611D01*
X62733516Y-185251000D01*
X62526484Y-185251000D01*
X62323436Y-185210611D01*
X62132167Y-185131385D01*
X62132166Y-185131385D01*
X62132165Y-185131384D01*
X61960027Y-185016365D01*
X61813635Y-184869973D01*
X61698616Y-184697835D01*
X61698615Y-184697833D01*
X61619389Y-184506564D01*
X61579000Y-184303516D01*
X61579000Y-184096484D01*
X61619389Y-183893436D01*
X61698615Y-183702167D01*
X61700177Y-183699830D01*
X61813635Y-183530027D01*
X61960027Y-183383635D01*
X62132165Y-183268616D01*
X62132167Y-183268615D01*
X62323436Y-183189389D01*
X62526484Y-183149000D01*
X62733516Y-183149000D01*
X62936564Y-183189389D01*
G37*
G36*
X60396564Y-183189389D02*
G01*
X60587833Y-183268615D01*
X60587835Y-183268616D01*
X60759973Y-183383635D01*
X60906365Y-183530027D01*
X61019824Y-183699830D01*
X61021385Y-183702167D01*
X61100611Y-183893436D01*
X61141000Y-184096484D01*
X61141000Y-184303516D01*
X61100611Y-184506564D01*
X61021385Y-184697833D01*
X61021384Y-184697835D01*
X60906365Y-184869973D01*
X60759973Y-185016365D01*
X60587835Y-185131384D01*
X60587834Y-185131385D01*
X60587833Y-185131385D01*
X60396564Y-185210611D01*
X60193516Y-185251000D01*
X59986484Y-185251000D01*
X59783436Y-185210611D01*
X59592167Y-185131385D01*
X59592166Y-185131385D01*
X59592165Y-185131384D01*
X59420027Y-185016365D01*
X59273635Y-184869973D01*
X59158616Y-184697835D01*
X59158615Y-184697833D01*
X59079389Y-184506564D01*
X59039000Y-184303516D01*
X59039000Y-184096484D01*
X59079389Y-183893436D01*
X59158615Y-183702167D01*
X59160177Y-183699830D01*
X59273635Y-183530027D01*
X59420027Y-183383635D01*
X59592165Y-183268616D01*
X59592167Y-183268615D01*
X59783436Y-183189389D01*
X59986484Y-183149000D01*
X60193516Y-183149000D01*
X60396564Y-183189389D01*
G37*
G36*
X57856564Y-183189389D02*
G01*
X58047833Y-183268615D01*
X58047835Y-183268616D01*
X58219973Y-183383635D01*
X58366365Y-183530027D01*
X58479824Y-183699830D01*
X58481385Y-183702167D01*
X58560611Y-183893436D01*
X58601000Y-184096484D01*
X58601000Y-184303516D01*
X58560611Y-184506564D01*
X58481385Y-184697833D01*
X58481384Y-184697835D01*
X58366365Y-184869973D01*
X58219973Y-185016365D01*
X58047835Y-185131384D01*
X58047834Y-185131385D01*
X58047833Y-185131385D01*
X57856564Y-185210611D01*
X57653516Y-185251000D01*
X57446484Y-185251000D01*
X57243436Y-185210611D01*
X57052167Y-185131385D01*
X57052166Y-185131385D01*
X57052165Y-185131384D01*
X56880027Y-185016365D01*
X56733635Y-184869973D01*
X56618616Y-184697835D01*
X56618615Y-184697833D01*
X56539389Y-184506564D01*
X56499000Y-184303516D01*
X56499000Y-184096484D01*
X56539389Y-183893436D01*
X56618615Y-183702167D01*
X56620177Y-183699830D01*
X56733635Y-183530027D01*
X56880027Y-183383635D01*
X57052165Y-183268616D01*
X57052167Y-183268615D01*
X57243436Y-183189389D01*
X57446484Y-183149000D01*
X57653516Y-183149000D01*
X57856564Y-183189389D01*
G37*
G36*
X52566564Y-182199389D02*
G01*
X52757833Y-182278615D01*
X52757835Y-182278616D01*
X52929973Y-182393635D01*
X53076365Y-182540027D01*
X53190606Y-182711000D01*
X53191385Y-182712167D01*
X53270611Y-182903436D01*
X53311000Y-183106484D01*
X53311000Y-183313516D01*
X53270611Y-183516564D01*
X53200529Y-183685758D01*
X53191384Y-183707835D01*
X53076365Y-183879973D01*
X52929973Y-184026365D01*
X52757835Y-184141384D01*
X52757834Y-184141385D01*
X52757833Y-184141385D01*
X52566564Y-184220611D01*
X52363516Y-184261000D01*
X52156484Y-184261000D01*
X51953436Y-184220611D01*
X51762167Y-184141385D01*
X51762166Y-184141385D01*
X51762165Y-184141384D01*
X51590027Y-184026365D01*
X51443635Y-183879973D01*
X51328616Y-183707835D01*
X51319471Y-183685758D01*
X51249389Y-183516564D01*
X51209000Y-183313516D01*
X51209000Y-183106484D01*
X51249389Y-182903436D01*
X51328615Y-182712167D01*
X51329395Y-182711000D01*
X51443635Y-182540027D01*
X51590027Y-182393635D01*
X51762165Y-182278616D01*
X51762167Y-182278615D01*
X51953436Y-182199389D01*
X52156484Y-182159000D01*
X52363516Y-182159000D01*
X52566564Y-182199389D01*
G37*
G36*
X49001000Y-183851000D02*
G01*
X47899000Y-183851000D01*
X47899000Y-183049000D01*
X49001000Y-183049000D01*
X49001000Y-183851000D01*
G37*
G36*
X47101000Y-183851000D02*
G01*
X45999000Y-183851000D01*
X45999000Y-183049000D01*
X47101000Y-183049000D01*
X47101000Y-183851000D01*
G37*
G36*
X35133642Y-181729781D02*
G01*
X35279414Y-181790162D01*
X35279416Y-181790163D01*
X35410608Y-181877822D01*
X35522178Y-181989392D01*
X35609837Y-182120584D01*
X35609838Y-182120586D01*
X35670219Y-182266358D01*
X35701000Y-182421107D01*
X35701000Y-182578893D01*
X35670219Y-182733642D01*
X35615362Y-182866078D01*
X35609837Y-182879416D01*
X35522178Y-183010608D01*
X35410608Y-183122178D01*
X35279416Y-183209837D01*
X35279415Y-183209838D01*
X35279414Y-183209838D01*
X35133642Y-183270219D01*
X34978893Y-183301000D01*
X34821107Y-183301000D01*
X34666358Y-183270219D01*
X34520586Y-183209838D01*
X34520585Y-183209838D01*
X34520584Y-183209837D01*
X34389392Y-183122178D01*
X34277822Y-183010608D01*
X34190163Y-182879416D01*
X34184638Y-182866078D01*
X34129781Y-182733642D01*
X34099000Y-182578893D01*
X34099000Y-182421107D01*
X34129781Y-182266358D01*
X34190162Y-182120586D01*
X34190163Y-182120584D01*
X34277822Y-181989392D01*
X34389392Y-181877822D01*
X34520584Y-181790163D01*
X34520586Y-181790162D01*
X34666358Y-181729781D01*
X34821107Y-181699000D01*
X34978893Y-181699000D01*
X35133642Y-181729781D01*
G37*
G36*
X62936564Y-180649389D02*
G01*
X63127833Y-180728615D01*
X63127835Y-180728616D01*
X63299973Y-180843635D01*
X63446365Y-180990027D01*
X63489312Y-181054301D01*
X63561385Y-181162167D01*
X63640611Y-181353436D01*
X63681000Y-181556484D01*
X63681000Y-181763516D01*
X63640611Y-181966564D01*
X63566608Y-182145224D01*
X63561384Y-182157835D01*
X63446365Y-182329973D01*
X63299973Y-182476365D01*
X63127835Y-182591384D01*
X63127834Y-182591385D01*
X63127833Y-182591385D01*
X62936564Y-182670611D01*
X62733516Y-182711000D01*
X62526484Y-182711000D01*
X62323436Y-182670611D01*
X62132167Y-182591385D01*
X62132166Y-182591385D01*
X62132165Y-182591384D01*
X61960027Y-182476365D01*
X61813635Y-182329973D01*
X61698616Y-182157835D01*
X61693392Y-182145224D01*
X61619389Y-181966564D01*
X61579000Y-181763516D01*
X61579000Y-181556484D01*
X61619389Y-181353436D01*
X61698615Y-181162167D01*
X61770689Y-181054301D01*
X61813635Y-180990027D01*
X61960027Y-180843635D01*
X62132165Y-180728616D01*
X62132167Y-180728615D01*
X62323436Y-180649389D01*
X62526484Y-180609000D01*
X62733516Y-180609000D01*
X62936564Y-180649389D01*
G37*
G36*
X60396564Y-180649389D02*
G01*
X60587833Y-180728615D01*
X60587835Y-180728616D01*
X60759973Y-180843635D01*
X60906365Y-180990027D01*
X60949312Y-181054301D01*
X61021385Y-181162167D01*
X61100611Y-181353436D01*
X61141000Y-181556484D01*
X61141000Y-181763516D01*
X61100611Y-181966564D01*
X61026608Y-182145224D01*
X61021384Y-182157835D01*
X60906365Y-182329973D01*
X60759973Y-182476365D01*
X60587835Y-182591384D01*
X60587834Y-182591385D01*
X60587833Y-182591385D01*
X60396564Y-182670611D01*
X60193516Y-182711000D01*
X59986484Y-182711000D01*
X59783436Y-182670611D01*
X59592167Y-182591385D01*
X59592166Y-182591385D01*
X59592165Y-182591384D01*
X59420027Y-182476365D01*
X59273635Y-182329973D01*
X59158616Y-182157835D01*
X59153392Y-182145224D01*
X59079389Y-181966564D01*
X59039000Y-181763516D01*
X59039000Y-181556484D01*
X59079389Y-181353436D01*
X59158615Y-181162167D01*
X59230689Y-181054301D01*
X59273635Y-180990027D01*
X59420027Y-180843635D01*
X59592165Y-180728616D01*
X59592167Y-180728615D01*
X59783436Y-180649389D01*
X59986484Y-180609000D01*
X60193516Y-180609000D01*
X60396564Y-180649389D01*
G37*
G36*
X57856564Y-180649389D02*
G01*
X58047833Y-180728615D01*
X58047835Y-180728616D01*
X58219973Y-180843635D01*
X58366365Y-180990027D01*
X58409312Y-181054301D01*
X58481385Y-181162167D01*
X58560611Y-181353436D01*
X58601000Y-181556484D01*
X58601000Y-181763516D01*
X58560611Y-181966564D01*
X58486608Y-182145224D01*
X58481384Y-182157835D01*
X58366365Y-182329973D01*
X58219973Y-182476365D01*
X58047835Y-182591384D01*
X58047834Y-182591385D01*
X58047833Y-182591385D01*
X57856564Y-182670611D01*
X57653516Y-182711000D01*
X57446484Y-182711000D01*
X57243436Y-182670611D01*
X57052167Y-182591385D01*
X57052166Y-182591385D01*
X57052165Y-182591384D01*
X56880027Y-182476365D01*
X56733635Y-182329973D01*
X56618616Y-182157835D01*
X56613392Y-182145224D01*
X56539389Y-181966564D01*
X56499000Y-181763516D01*
X56499000Y-181556484D01*
X56539389Y-181353436D01*
X56618615Y-181162167D01*
X56690689Y-181054301D01*
X56733635Y-180990027D01*
X56880027Y-180843635D01*
X57052165Y-180728616D01*
X57052167Y-180728615D01*
X57243436Y-180649389D01*
X57446484Y-180609000D01*
X57653516Y-180609000D01*
X57856564Y-180649389D01*
G37*
G36*
X68016564Y-180649389D02*
G01*
X68207833Y-180728615D01*
X68207835Y-180728616D01*
X68379973Y-180843635D01*
X68526365Y-180990027D01*
X68569312Y-181054301D01*
X68641385Y-181162167D01*
X68720611Y-181353436D01*
X68761000Y-181556484D01*
X68761000Y-181763516D01*
X68720611Y-181966564D01*
X68646608Y-182145224D01*
X68641384Y-182157835D01*
X68526365Y-182329973D01*
X68379973Y-182476365D01*
X68207835Y-182591384D01*
X68207834Y-182591385D01*
X68207833Y-182591385D01*
X68016564Y-182670611D01*
X67813516Y-182711000D01*
X67606484Y-182711000D01*
X67403436Y-182670611D01*
X67212167Y-182591385D01*
X67212166Y-182591385D01*
X67212165Y-182591384D01*
X67040027Y-182476365D01*
X66893635Y-182329973D01*
X66778616Y-182157835D01*
X66773392Y-182145224D01*
X66699389Y-181966564D01*
X66659000Y-181763516D01*
X66659000Y-181556484D01*
X66699389Y-181353436D01*
X66778615Y-181162167D01*
X66850689Y-181054301D01*
X66893635Y-180990027D01*
X67040027Y-180843635D01*
X67212165Y-180728616D01*
X67212167Y-180728615D01*
X67403436Y-180649389D01*
X67606484Y-180609000D01*
X67813516Y-180609000D01*
X68016564Y-180649389D01*
G37*
G36*
X65476564Y-180649389D02*
G01*
X65667833Y-180728615D01*
X65667835Y-180728616D01*
X65839973Y-180843635D01*
X65986365Y-180990027D01*
X66029312Y-181054301D01*
X66101385Y-181162167D01*
X66180611Y-181353436D01*
X66221000Y-181556484D01*
X66221000Y-181763516D01*
X66180611Y-181966564D01*
X66106608Y-182145224D01*
X66101384Y-182157835D01*
X65986365Y-182329973D01*
X65839973Y-182476365D01*
X65667835Y-182591384D01*
X65667834Y-182591385D01*
X65667833Y-182591385D01*
X65476564Y-182670611D01*
X65273516Y-182711000D01*
X65066484Y-182711000D01*
X64863436Y-182670611D01*
X64672167Y-182591385D01*
X64672166Y-182591385D01*
X64672165Y-182591384D01*
X64500027Y-182476365D01*
X64353635Y-182329973D01*
X64238616Y-182157835D01*
X64233392Y-182145224D01*
X64159389Y-181966564D01*
X64119000Y-181763516D01*
X64119000Y-181556484D01*
X64159389Y-181353436D01*
X64238615Y-181162167D01*
X64310689Y-181054301D01*
X64353635Y-180990027D01*
X64500027Y-180843635D01*
X64672165Y-180728616D01*
X64672167Y-180728615D01*
X64863436Y-180649389D01*
X65066484Y-180609000D01*
X65273516Y-180609000D01*
X65476564Y-180649389D01*
G37*
G36*
X47181000Y-181981000D02*
G01*
X46079000Y-181981000D01*
X46079000Y-181179000D01*
X47181000Y-181179000D01*
X47181000Y-181981000D01*
G37*
G36*
X32936601Y-180664397D02*
G01*
X32975305Y-180672096D01*
X33007340Y-180685365D01*
X33084680Y-180717400D01*
X33183115Y-180783173D01*
X33266827Y-180866885D01*
X33332600Y-180965320D01*
X33351638Y-181011283D01*
X33377904Y-181074695D01*
X33380575Y-181088125D01*
X33398652Y-181179000D01*
X33401000Y-181190807D01*
X33401000Y-181309193D01*
X33377904Y-181425305D01*
X33364635Y-181457340D01*
X33332600Y-181534680D01*
X33266827Y-181633115D01*
X33183115Y-181716827D01*
X33084680Y-181782600D01*
X33007340Y-181814635D01*
X32975305Y-181827904D01*
X32936601Y-181835603D01*
X32859195Y-181851000D01*
X32740805Y-181851000D01*
X32663399Y-181835603D01*
X32624695Y-181827904D01*
X32592660Y-181814635D01*
X32515320Y-181782600D01*
X32416885Y-181716827D01*
X32333173Y-181633115D01*
X32267400Y-181534680D01*
X32235365Y-181457340D01*
X32222096Y-181425305D01*
X32199000Y-181309193D01*
X32199000Y-181190807D01*
X32201349Y-181179000D01*
X32219425Y-181088125D01*
X32222096Y-181074695D01*
X32248362Y-181011283D01*
X32267400Y-180965320D01*
X32333173Y-180866885D01*
X32416885Y-180783173D01*
X32515320Y-180717400D01*
X32592660Y-180685365D01*
X32624695Y-180672096D01*
X32663399Y-180664397D01*
X32740805Y-180649000D01*
X32859195Y-180649000D01*
X32936601Y-180664397D01*
G37*
G36*
X35133642Y-179229781D02*
G01*
X35279414Y-179290162D01*
X35279416Y-179290163D01*
X35410608Y-179377822D01*
X35522178Y-179489392D01*
X35606826Y-179616078D01*
X35609838Y-179620586D01*
X35670219Y-179766358D01*
X35701000Y-179921107D01*
X35701000Y-180078893D01*
X35670219Y-180233642D01*
X35627303Y-180337249D01*
X35609837Y-180379416D01*
X35522178Y-180510608D01*
X35410608Y-180622178D01*
X35279416Y-180709837D01*
X35279415Y-180709838D01*
X35279414Y-180709838D01*
X35133642Y-180770219D01*
X34978893Y-180801000D01*
X34821107Y-180801000D01*
X34666358Y-180770219D01*
X34520586Y-180709838D01*
X34520585Y-180709838D01*
X34520584Y-180709837D01*
X34389392Y-180622178D01*
X34277822Y-180510608D01*
X34190163Y-180379416D01*
X34172697Y-180337249D01*
X34129781Y-180233642D01*
X34099000Y-180078893D01*
X34099000Y-179921107D01*
X34129781Y-179766358D01*
X34190162Y-179620586D01*
X34193174Y-179616078D01*
X34277822Y-179489392D01*
X34389392Y-179377822D01*
X34520584Y-179290163D01*
X34520586Y-179290162D01*
X34666358Y-179229781D01*
X34821107Y-179199000D01*
X34978893Y-179199000D01*
X35133642Y-179229781D01*
G37*
G36*
X49151000Y-180701000D02*
G01*
X48049000Y-180701000D01*
X48049000Y-179899000D01*
X49151000Y-179899000D01*
X49151000Y-180701000D01*
G37*
G36*
X47181000Y-180481000D02*
G01*
X46079000Y-180481000D01*
X46079000Y-179679000D01*
X47181000Y-179679000D01*
X47181000Y-180481000D01*
G37*
G36*
X49151000Y-179201000D02*
G01*
X48049000Y-179201000D01*
X48049000Y-178399000D01*
X49151000Y-178399000D01*
X49151000Y-179201000D01*
G37*
G36*
X35133642Y-177229781D02*
G01*
X35279414Y-177290162D01*
X35279416Y-177290163D01*
X35410608Y-177377822D01*
X35522178Y-177489392D01*
X35609837Y-177620584D01*
X35609838Y-177620586D01*
X35670219Y-177766358D01*
X35701000Y-177921107D01*
X35701000Y-178078893D01*
X35670219Y-178233642D01*
X35609838Y-178379414D01*
X35609837Y-178379416D01*
X35522178Y-178510608D01*
X35410608Y-178622178D01*
X35279416Y-178709837D01*
X35279415Y-178709838D01*
X35279414Y-178709838D01*
X35133642Y-178770219D01*
X34978893Y-178801000D01*
X34821107Y-178801000D01*
X34666358Y-178770219D01*
X34520586Y-178709838D01*
X34520585Y-178709838D01*
X34520584Y-178709837D01*
X34389392Y-178622178D01*
X34277822Y-178510608D01*
X34190163Y-178379416D01*
X34190162Y-178379414D01*
X34129781Y-178233642D01*
X34099000Y-178078893D01*
X34099000Y-177921107D01*
X34129781Y-177766358D01*
X34190162Y-177620586D01*
X34190163Y-177620584D01*
X34277822Y-177489392D01*
X34389392Y-177377822D01*
X34520584Y-177290163D01*
X34520586Y-177290162D01*
X34666358Y-177229781D01*
X34821107Y-177199000D01*
X34978893Y-177199000D01*
X35133642Y-177229781D01*
G37*
G36*
X50209000Y-177843000D02*
G01*
X49407000Y-177843000D01*
X49407000Y-176741000D01*
X50209000Y-176741000D01*
X50209000Y-177843000D01*
G37*
G36*
X51709000Y-177843000D02*
G01*
X50907000Y-177843000D01*
X50907000Y-176741000D01*
X51709000Y-176741000D01*
X51709000Y-177843000D01*
G37*
G36*
X54733000Y-177843000D02*
G01*
X53931000Y-177843000D01*
X53931000Y-176741000D01*
X54733000Y-176741000D01*
X54733000Y-177843000D01*
G37*
G36*
X53233000Y-177843000D02*
G01*
X52431000Y-177843000D01*
X52431000Y-176741000D01*
X53233000Y-176741000D01*
X53233000Y-177843000D01*
G37*
G36*
X37801000Y-177401000D02*
G01*
X36699000Y-177401000D01*
X36699000Y-176599000D01*
X37801000Y-176599000D01*
X37801000Y-177401000D01*
G37*
G36*
X32936601Y-176164397D02*
G01*
X32975305Y-176172096D01*
X33007340Y-176185365D01*
X33084680Y-176217400D01*
X33183115Y-176283173D01*
X33266827Y-176366885D01*
X33332600Y-176465320D01*
X33350692Y-176509000D01*
X33377904Y-176574695D01*
X33385603Y-176613399D01*
X33401000Y-176690805D01*
X33401000Y-176809195D01*
X33377904Y-176925304D01*
X33332600Y-177034680D01*
X33266827Y-177133115D01*
X33183115Y-177216827D01*
X33084680Y-177282600D01*
X33016115Y-177311000D01*
X32975305Y-177327904D01*
X32936601Y-177335603D01*
X32859195Y-177351000D01*
X32740805Y-177351000D01*
X32663399Y-177335603D01*
X32624695Y-177327904D01*
X32583885Y-177311000D01*
X32515320Y-177282600D01*
X32416885Y-177216827D01*
X32333173Y-177133115D01*
X32267400Y-177034680D01*
X32222096Y-176925304D01*
X32199000Y-176809195D01*
X32199000Y-176690805D01*
X32214397Y-176613399D01*
X32222096Y-176574695D01*
X32249308Y-176509000D01*
X32267400Y-176465320D01*
X32333173Y-176366885D01*
X32416885Y-176283173D01*
X32515320Y-176217400D01*
X32592660Y-176185365D01*
X32624695Y-176172096D01*
X32663399Y-176164397D01*
X32740805Y-176149000D01*
X32859195Y-176149000D01*
X32936601Y-176164397D01*
G37*
G36*
X43041000Y-177351000D02*
G01*
X41939000Y-177351000D01*
X41939000Y-176549000D01*
X43041000Y-176549000D01*
X43041000Y-177351000D01*
G37*
G36*
X44551000Y-177311000D02*
G01*
X43449000Y-177311000D01*
X43449000Y-176509000D01*
X44551000Y-176509000D01*
X44551000Y-177311000D01*
G37*
G36*
X35133642Y-174729781D02*
G01*
X35279414Y-174790162D01*
X35279416Y-174790163D01*
X35410608Y-174877822D01*
X35522178Y-174989392D01*
X35595415Y-175099000D01*
X35609838Y-175120586D01*
X35670219Y-175266358D01*
X35701000Y-175421107D01*
X35701000Y-175578893D01*
X35670219Y-175733642D01*
X35609838Y-175879414D01*
X35609837Y-175879416D01*
X35522178Y-176010608D01*
X35410608Y-176122178D01*
X35279416Y-176209837D01*
X35279415Y-176209838D01*
X35279414Y-176209838D01*
X35133642Y-176270219D01*
X34978893Y-176301000D01*
X34821107Y-176301000D01*
X34666358Y-176270219D01*
X34520586Y-176209838D01*
X34520585Y-176209838D01*
X34520584Y-176209837D01*
X34389392Y-176122178D01*
X34277822Y-176010608D01*
X34190163Y-175879416D01*
X34190162Y-175879414D01*
X34129781Y-175733642D01*
X34099000Y-175578893D01*
X34099000Y-175421107D01*
X34129781Y-175266358D01*
X34190162Y-175120586D01*
X34204585Y-175099000D01*
X34277822Y-174989392D01*
X34389392Y-174877822D01*
X34520584Y-174790163D01*
X34520586Y-174790162D01*
X34666358Y-174729781D01*
X34821107Y-174699000D01*
X34978893Y-174699000D01*
X35133642Y-174729781D01*
G37*
G36*
X64741000Y-175941000D02*
G01*
X63639000Y-175941000D01*
X63639000Y-175139000D01*
X64741000Y-175139000D01*
X64741000Y-175941000D01*
G37*
G36*
X66271000Y-175911000D02*
G01*
X65169000Y-175911000D01*
X65169000Y-175109000D01*
X66271000Y-175109000D01*
X66271000Y-175911000D01*
G37*
G36*
X37801000Y-175901000D02*
G01*
X36699000Y-175901000D01*
X36699000Y-175099000D01*
X37801000Y-175099000D01*
X37801000Y-175901000D01*
G37*
G36*
X43041000Y-175851000D02*
G01*
X41939000Y-175851000D01*
X41939000Y-175049000D01*
X43041000Y-175049000D01*
X43041000Y-175851000D01*
G37*
G36*
X44551000Y-175811000D02*
G01*
X43449000Y-175811000D01*
X43449000Y-175009000D01*
X44551000Y-175009000D01*
X44551000Y-175811000D01*
G37*
G36*
X62282564Y-173741389D02*
G01*
X62473833Y-173820615D01*
X62473835Y-173820616D01*
X62572780Y-173886729D01*
X62645973Y-173935635D01*
X62792365Y-174082027D01*
X62907385Y-174254167D01*
X62986611Y-174445436D01*
X63027000Y-174648484D01*
X63027000Y-174855516D01*
X62986611Y-175058564D01*
X62953293Y-175139000D01*
X62907384Y-175249835D01*
X62792365Y-175421973D01*
X62645973Y-175568365D01*
X62473835Y-175683384D01*
X62473834Y-175683385D01*
X62473833Y-175683385D01*
X62282564Y-175762611D01*
X62079516Y-175803000D01*
X61872484Y-175803000D01*
X61669436Y-175762611D01*
X61478167Y-175683385D01*
X61478166Y-175683385D01*
X61478165Y-175683384D01*
X61306027Y-175568365D01*
X61159635Y-175421973D01*
X61044616Y-175249835D01*
X60998707Y-175139000D01*
X60965389Y-175058564D01*
X60925000Y-174855516D01*
X60925000Y-174648484D01*
X60965389Y-174445436D01*
X61044615Y-174254167D01*
X61159635Y-174082027D01*
X61306027Y-173935635D01*
X61379220Y-173886729D01*
X61478165Y-173820616D01*
X61478167Y-173820615D01*
X61669436Y-173741389D01*
X61872484Y-173701000D01*
X62079516Y-173701000D01*
X62282564Y-173741389D01*
G37*
G36*
X57202564Y-173741389D02*
G01*
X57393833Y-173820615D01*
X57393835Y-173820616D01*
X57492780Y-173886729D01*
X57565973Y-173935635D01*
X57712365Y-174082027D01*
X57827385Y-174254167D01*
X57906611Y-174445436D01*
X57947000Y-174648484D01*
X57947000Y-174855516D01*
X57906611Y-175058564D01*
X57873293Y-175139000D01*
X57827384Y-175249835D01*
X57712365Y-175421973D01*
X57565973Y-175568365D01*
X57393835Y-175683384D01*
X57393834Y-175683385D01*
X57393833Y-175683385D01*
X57202564Y-175762611D01*
X56999516Y-175803000D01*
X56792484Y-175803000D01*
X56589436Y-175762611D01*
X56398167Y-175683385D01*
X56398166Y-175683385D01*
X56398165Y-175683384D01*
X56226027Y-175568365D01*
X56079635Y-175421973D01*
X55964616Y-175249835D01*
X55918707Y-175139000D01*
X55885389Y-175058564D01*
X55845000Y-174855516D01*
X55845000Y-174648484D01*
X55885389Y-174445436D01*
X55964615Y-174254167D01*
X56079635Y-174082027D01*
X56226027Y-173935635D01*
X56299220Y-173886729D01*
X56398165Y-173820616D01*
X56398167Y-173820615D01*
X56589436Y-173741389D01*
X56792484Y-173701000D01*
X56999516Y-173701000D01*
X57202564Y-173741389D01*
G37*
G36*
X59742564Y-173741389D02*
G01*
X59933833Y-173820615D01*
X59933835Y-173820616D01*
X60032780Y-173886729D01*
X60105973Y-173935635D01*
X60252365Y-174082027D01*
X60367385Y-174254167D01*
X60446611Y-174445436D01*
X60487000Y-174648484D01*
X60487000Y-174855516D01*
X60446611Y-175058564D01*
X60413293Y-175139000D01*
X60367384Y-175249835D01*
X60252365Y-175421973D01*
X60105973Y-175568365D01*
X59933835Y-175683384D01*
X59933834Y-175683385D01*
X59933833Y-175683385D01*
X59742564Y-175762611D01*
X59539516Y-175803000D01*
X59332484Y-175803000D01*
X59129436Y-175762611D01*
X58938167Y-175683385D01*
X58938166Y-175683385D01*
X58938165Y-175683384D01*
X58766027Y-175568365D01*
X58619635Y-175421973D01*
X58504616Y-175249835D01*
X58458707Y-175139000D01*
X58425389Y-175058564D01*
X58385000Y-174855516D01*
X58385000Y-174648484D01*
X58425389Y-174445436D01*
X58504615Y-174254167D01*
X58619635Y-174082027D01*
X58766027Y-173935635D01*
X58839220Y-173886729D01*
X58938165Y-173820616D01*
X58938167Y-173820615D01*
X59129436Y-173741389D01*
X59332484Y-173701000D01*
X59539516Y-173701000D01*
X59742564Y-173741389D01*
G37*
G36*
X55336000Y-175603000D02*
G01*
X47849000Y-175603000D01*
X47849000Y-173901000D01*
X55336000Y-173901000D01*
X55336000Y-175603000D01*
G37*
G36*
X64741000Y-174441000D02*
G01*
X63639000Y-174441000D01*
X63639000Y-173639000D01*
X64741000Y-173639000D01*
X64741000Y-174441000D01*
G37*
G36*
X66271000Y-174411000D02*
G01*
X65169000Y-174411000D01*
X65169000Y-173609000D01*
X66271000Y-173609000D01*
X66271000Y-174411000D01*
G37*
G36*
X34003097Y-172254069D02*
G01*
X34106032Y-172264207D01*
X34304146Y-172324305D01*
X34304149Y-172324306D01*
X34400975Y-172376061D01*
X34486729Y-172421897D01*
X34646765Y-172553235D01*
X34778103Y-172713271D01*
X34823939Y-172799025D01*
X34875694Y-172895851D01*
X34875695Y-172895854D01*
X34935793Y-173093968D01*
X34956085Y-173300000D01*
X34935793Y-173506032D01*
X34895457Y-173639000D01*
X34875694Y-173704149D01*
X34855788Y-173741390D01*
X34778103Y-173886729D01*
X34646765Y-174046765D01*
X34486729Y-174178103D01*
X34400975Y-174223939D01*
X34304149Y-174275694D01*
X34304146Y-174275695D01*
X34106032Y-174335793D01*
X34003097Y-174345931D01*
X33951631Y-174351000D01*
X31648369Y-174351000D01*
X31596903Y-174345931D01*
X31493968Y-174335793D01*
X31295854Y-174275695D01*
X31295851Y-174275694D01*
X31199025Y-174223939D01*
X31113271Y-174178103D01*
X30953235Y-174046765D01*
X30821897Y-173886729D01*
X30744212Y-173741390D01*
X30724306Y-173704149D01*
X30704543Y-173639000D01*
X30664207Y-173506032D01*
X30643915Y-173300000D01*
X30664207Y-173093968D01*
X30724305Y-172895854D01*
X30724306Y-172895851D01*
X30776061Y-172799025D01*
X30821897Y-172713271D01*
X30953235Y-172553235D01*
X31113271Y-172421897D01*
X31199025Y-172376061D01*
X31295851Y-172324306D01*
X31295854Y-172324305D01*
X31493968Y-172264207D01*
X31596903Y-172254069D01*
X31648369Y-172249000D01*
X33951631Y-172249000D01*
X34003097Y-172254069D01*
G37*
G36*
X68449000Y-173271000D02*
G01*
X67647000Y-173271000D01*
X67647000Y-172169000D01*
X68449000Y-172169000D01*
X68449000Y-173271000D01*
G37*
G36*
X66949000Y-173271000D02*
G01*
X66147000Y-173271000D01*
X66147000Y-172169000D01*
X66949000Y-172169000D01*
X66949000Y-173271000D01*
G37*
G36*
X62282564Y-171201389D02*
G01*
X62473833Y-171280615D01*
X62473835Y-171280616D01*
X62645973Y-171395635D01*
X62792365Y-171542027D01*
X62907385Y-171714167D01*
X62986611Y-171905436D01*
X63027000Y-172108484D01*
X63027000Y-172315516D01*
X62986611Y-172518564D01*
X62907385Y-172709833D01*
X62907384Y-172709835D01*
X62792365Y-172881973D01*
X62645973Y-173028365D01*
X62473835Y-173143384D01*
X62473834Y-173143385D01*
X62473833Y-173143385D01*
X62282564Y-173222611D01*
X62079516Y-173263000D01*
X61872484Y-173263000D01*
X61669436Y-173222611D01*
X61478167Y-173143385D01*
X61478166Y-173143385D01*
X61478165Y-173143384D01*
X61306027Y-173028365D01*
X61159635Y-172881973D01*
X61044616Y-172709835D01*
X61044615Y-172709833D01*
X60965389Y-172518564D01*
X60925000Y-172315516D01*
X60925000Y-172108484D01*
X60965389Y-171905436D01*
X61044615Y-171714167D01*
X61159635Y-171542027D01*
X61306027Y-171395635D01*
X61478165Y-171280616D01*
X61478167Y-171280615D01*
X61669436Y-171201389D01*
X61872484Y-171161000D01*
X62079516Y-171161000D01*
X62282564Y-171201389D01*
G37*
G36*
X73026564Y-168989389D02*
G01*
X73217833Y-169068615D01*
X73217835Y-169068616D01*
X73389973Y-169183635D01*
X73536365Y-169330027D01*
X73580772Y-169396486D01*
X73651385Y-169502167D01*
X73730611Y-169693436D01*
X73771000Y-169896484D01*
X73771000Y-170103516D01*
X73730611Y-170306564D01*
X73670945Y-170450610D01*
X73651384Y-170497835D01*
X73536365Y-170669973D01*
X73389973Y-170816365D01*
X73217835Y-170931384D01*
X73217834Y-170931385D01*
X73217833Y-170931385D01*
X73026564Y-171010611D01*
X72823516Y-171051000D01*
X72616484Y-171051000D01*
X72413436Y-171010611D01*
X72222167Y-170931385D01*
X72222166Y-170931385D01*
X72222165Y-170931384D01*
X72050027Y-170816365D01*
X71903635Y-170669973D01*
X71788616Y-170497835D01*
X71769055Y-170450610D01*
X71709389Y-170306564D01*
X71669000Y-170103516D01*
X71669000Y-169896484D01*
X71709389Y-169693436D01*
X71788615Y-169502167D01*
X71859229Y-169396486D01*
X71903635Y-169330027D01*
X72050027Y-169183635D01*
X72222165Y-169068616D01*
X72222167Y-169068615D01*
X72413436Y-168989389D01*
X72616484Y-168949000D01*
X72823516Y-168949000D01*
X73026564Y-168989389D01*
G37*
G36*
X70486564Y-168989389D02*
G01*
X70677833Y-169068615D01*
X70677835Y-169068616D01*
X70849973Y-169183635D01*
X70996365Y-169330027D01*
X71040772Y-169396486D01*
X71111385Y-169502167D01*
X71190611Y-169693436D01*
X71231000Y-169896484D01*
X71231000Y-170103516D01*
X71190611Y-170306564D01*
X71130945Y-170450610D01*
X71111384Y-170497835D01*
X70996365Y-170669973D01*
X70849973Y-170816365D01*
X70677835Y-170931384D01*
X70677834Y-170931385D01*
X70677833Y-170931385D01*
X70486564Y-171010611D01*
X70283516Y-171051000D01*
X70076484Y-171051000D01*
X69873436Y-171010611D01*
X69682167Y-170931385D01*
X69682166Y-170931385D01*
X69682165Y-170931384D01*
X69510027Y-170816365D01*
X69363635Y-170669973D01*
X69248616Y-170497835D01*
X69229055Y-170450610D01*
X69169389Y-170306564D01*
X69129000Y-170103516D01*
X69129000Y-169896484D01*
X69169389Y-169693436D01*
X69248615Y-169502167D01*
X69319229Y-169396486D01*
X69363635Y-169330027D01*
X69510027Y-169183635D01*
X69682165Y-169068616D01*
X69682167Y-169068615D01*
X69873436Y-168989389D01*
X70076484Y-168949000D01*
X70283516Y-168949000D01*
X70486564Y-168989389D01*
G37*
G36*
X65406564Y-168989389D02*
G01*
X65597833Y-169068615D01*
X65597835Y-169068616D01*
X65769973Y-169183635D01*
X65916365Y-169330027D01*
X65960772Y-169396486D01*
X66031385Y-169502167D01*
X66110611Y-169693436D01*
X66151000Y-169896484D01*
X66151000Y-170103516D01*
X66110611Y-170306564D01*
X66050945Y-170450610D01*
X66031384Y-170497835D01*
X65916365Y-170669973D01*
X65769973Y-170816365D01*
X65597835Y-170931384D01*
X65597834Y-170931385D01*
X65597833Y-170931385D01*
X65406564Y-171010611D01*
X65203516Y-171051000D01*
X64996484Y-171051000D01*
X64793436Y-171010611D01*
X64602167Y-170931385D01*
X64602166Y-170931385D01*
X64602165Y-170931384D01*
X64430027Y-170816365D01*
X64283635Y-170669973D01*
X64168616Y-170497835D01*
X64149055Y-170450610D01*
X64089389Y-170306564D01*
X64049000Y-170103516D01*
X64049000Y-169896484D01*
X64089389Y-169693436D01*
X64168615Y-169502167D01*
X64239229Y-169396486D01*
X64283635Y-169330027D01*
X64430027Y-169183635D01*
X64602165Y-169068616D01*
X64602167Y-169068615D01*
X64793436Y-168989389D01*
X64996484Y-168949000D01*
X65203516Y-168949000D01*
X65406564Y-168989389D01*
G37*
G36*
X67946564Y-168989389D02*
G01*
X68137833Y-169068615D01*
X68137835Y-169068616D01*
X68309973Y-169183635D01*
X68456365Y-169330027D01*
X68500772Y-169396486D01*
X68571385Y-169502167D01*
X68650611Y-169693436D01*
X68691000Y-169896484D01*
X68691000Y-170103516D01*
X68650611Y-170306564D01*
X68590945Y-170450610D01*
X68571384Y-170497835D01*
X68456365Y-170669973D01*
X68309973Y-170816365D01*
X68137835Y-170931384D01*
X68137834Y-170931385D01*
X68137833Y-170931385D01*
X67946564Y-171010611D01*
X67743516Y-171051000D01*
X67536484Y-171051000D01*
X67333436Y-171010611D01*
X67142167Y-170931385D01*
X67142166Y-170931385D01*
X67142165Y-170931384D01*
X66970027Y-170816365D01*
X66823635Y-170669973D01*
X66708616Y-170497835D01*
X66689055Y-170450610D01*
X66629389Y-170306564D01*
X66589000Y-170103516D01*
X66589000Y-169896484D01*
X66629389Y-169693436D01*
X66708615Y-169502167D01*
X66779229Y-169396486D01*
X66823635Y-169330027D01*
X66970027Y-169183635D01*
X67142165Y-169068616D01*
X67142167Y-169068615D01*
X67333436Y-168989389D01*
X67536484Y-168949000D01*
X67743516Y-168949000D01*
X67946564Y-168989389D01*
G37*
G36*
X62282564Y-168489389D02*
G01*
X62449693Y-168558616D01*
X62473835Y-168568616D01*
X62645973Y-168683635D01*
X62792365Y-168830027D01*
X62900704Y-168992167D01*
X62907385Y-169002167D01*
X62986611Y-169193436D01*
X63027000Y-169396484D01*
X63027000Y-169603516D01*
X62986611Y-169806564D01*
X62928095Y-169947835D01*
X62907384Y-169997835D01*
X62792365Y-170169973D01*
X62645973Y-170316365D01*
X62473835Y-170431384D01*
X62473834Y-170431385D01*
X62473833Y-170431385D01*
X62282564Y-170510611D01*
X62079516Y-170551000D01*
X61872484Y-170551000D01*
X61669436Y-170510611D01*
X61478167Y-170431385D01*
X61478166Y-170431385D01*
X61478165Y-170431384D01*
X61306027Y-170316365D01*
X61159635Y-170169973D01*
X61044616Y-169997835D01*
X61023905Y-169947835D01*
X60965389Y-169806564D01*
X60925000Y-169603516D01*
X60925000Y-169396484D01*
X60965389Y-169193436D01*
X61044615Y-169002167D01*
X61051297Y-168992167D01*
X61159635Y-168830027D01*
X61306027Y-168683635D01*
X61478165Y-168568616D01*
X61502307Y-168558616D01*
X61669436Y-168489389D01*
X61872484Y-168449000D01*
X62079516Y-168449000D01*
X62282564Y-168489389D01*
G37*
G36*
X46476564Y-168479389D02*
G01*
X46667833Y-168558615D01*
X46667835Y-168558616D01*
X46839973Y-168673635D01*
X46986365Y-168820027D01*
X47099530Y-168989390D01*
X47101385Y-168992167D01*
X47180611Y-169183436D01*
X47221000Y-169386484D01*
X47221000Y-169593516D01*
X47180611Y-169796564D01*
X47101385Y-169987833D01*
X47101384Y-169987835D01*
X46986365Y-170159973D01*
X46839973Y-170306365D01*
X46667835Y-170421384D01*
X46667834Y-170421385D01*
X46667833Y-170421385D01*
X46476564Y-170500611D01*
X46273516Y-170541000D01*
X46066484Y-170541000D01*
X45863436Y-170500611D01*
X45672167Y-170421385D01*
X45672166Y-170421385D01*
X45672165Y-170421384D01*
X45500027Y-170306365D01*
X45353635Y-170159973D01*
X45238616Y-169987835D01*
X45238615Y-169987833D01*
X45159389Y-169796564D01*
X45119000Y-169593516D01*
X45119000Y-169386484D01*
X45159389Y-169183436D01*
X45238615Y-168992167D01*
X45240471Y-168989390D01*
X45353635Y-168820027D01*
X45500027Y-168673635D01*
X45672165Y-168558616D01*
X45672167Y-168558615D01*
X45863436Y-168479389D01*
X46066484Y-168439000D01*
X46273516Y-168439000D01*
X46476564Y-168479389D01*
G37*
G36*
X59636564Y-168439389D02*
G01*
X59803693Y-168508616D01*
X59827835Y-168518616D01*
X59999973Y-168633635D01*
X60146365Y-168780027D01*
X60254704Y-168942167D01*
X60261385Y-168952167D01*
X60340611Y-169143436D01*
X60381000Y-169346484D01*
X60381000Y-169553516D01*
X60340611Y-169756564D01*
X60274640Y-169915833D01*
X60261384Y-169947835D01*
X60146365Y-170119973D01*
X59999973Y-170266365D01*
X59827835Y-170381384D01*
X59827834Y-170381385D01*
X59827833Y-170381385D01*
X59636564Y-170460611D01*
X59433516Y-170501000D01*
X59226484Y-170501000D01*
X59023436Y-170460611D01*
X58832167Y-170381385D01*
X58832166Y-170381385D01*
X58832165Y-170381384D01*
X58660027Y-170266365D01*
X58513635Y-170119973D01*
X58398616Y-169947835D01*
X58385360Y-169915833D01*
X58319389Y-169756564D01*
X58279000Y-169553516D01*
X58279000Y-169346484D01*
X58319389Y-169143436D01*
X58398615Y-168952167D01*
X58405297Y-168942167D01*
X58513635Y-168780027D01*
X58660027Y-168633635D01*
X58832165Y-168518616D01*
X58856307Y-168508616D01*
X59023436Y-168439389D01*
X59226484Y-168399000D01*
X59433516Y-168399000D01*
X59636564Y-168439389D01*
G37*
G36*
X57156564Y-168429389D02*
G01*
X57347833Y-168508615D01*
X57347835Y-168508616D01*
X57422665Y-168558616D01*
X57519973Y-168623635D01*
X57666365Y-168770027D01*
X57781385Y-168942167D01*
X57860611Y-169133436D01*
X57901000Y-169336484D01*
X57901000Y-169543516D01*
X57860611Y-169746564D01*
X57790497Y-169915835D01*
X57781384Y-169937835D01*
X57666365Y-170109973D01*
X57519973Y-170256365D01*
X57347835Y-170371384D01*
X57347834Y-170371385D01*
X57347833Y-170371385D01*
X57156564Y-170450611D01*
X56953516Y-170491000D01*
X56746484Y-170491000D01*
X56543436Y-170450611D01*
X56352167Y-170371385D01*
X56352166Y-170371385D01*
X56352165Y-170371384D01*
X56180027Y-170256365D01*
X56033635Y-170109973D01*
X55918616Y-169937835D01*
X55909503Y-169915835D01*
X55839389Y-169746564D01*
X55799000Y-169543516D01*
X55799000Y-169336484D01*
X55839389Y-169133436D01*
X55918615Y-168942167D01*
X56033635Y-168770027D01*
X56180027Y-168623635D01*
X56277335Y-168558616D01*
X56352165Y-168508616D01*
X56352167Y-168508615D01*
X56543436Y-168429389D01*
X56746484Y-168389000D01*
X56953516Y-168389000D01*
X57156564Y-168429389D01*
G37*
G36*
X38914564Y-168407389D02*
G01*
X39088390Y-168479390D01*
X39105835Y-168486616D01*
X39277023Y-168601000D01*
X39277973Y-168601635D01*
X39424365Y-168748027D01*
X39539385Y-168920167D01*
X39618611Y-169111436D01*
X39659000Y-169314484D01*
X39659000Y-169521516D01*
X39618611Y-169724564D01*
X39547399Y-169896486D01*
X39539384Y-169915835D01*
X39424365Y-170087973D01*
X39277973Y-170234365D01*
X39105835Y-170349384D01*
X39105834Y-170349385D01*
X39105833Y-170349385D01*
X38914564Y-170428611D01*
X38711516Y-170469000D01*
X38504484Y-170469000D01*
X38301436Y-170428611D01*
X38110167Y-170349385D01*
X38110166Y-170349385D01*
X38110165Y-170349384D01*
X37938027Y-170234365D01*
X37791635Y-170087973D01*
X37676616Y-169915835D01*
X37668601Y-169896486D01*
X37597389Y-169724564D01*
X37557000Y-169521516D01*
X37557000Y-169314484D01*
X37597389Y-169111436D01*
X37676615Y-168920167D01*
X37791635Y-168748027D01*
X37938027Y-168601635D01*
X37938977Y-168601000D01*
X38110165Y-168486616D01*
X38127610Y-168479390D01*
X38301436Y-168407389D01*
X38504484Y-168367000D01*
X38711516Y-168367000D01*
X38914564Y-168407389D01*
G37*
G36*
X43994564Y-168407389D02*
G01*
X44168390Y-168479390D01*
X44185835Y-168486616D01*
X44357023Y-168601000D01*
X44357973Y-168601635D01*
X44504365Y-168748027D01*
X44619385Y-168920167D01*
X44698611Y-169111436D01*
X44739000Y-169314484D01*
X44739000Y-169521516D01*
X44698611Y-169724564D01*
X44627399Y-169896486D01*
X44619384Y-169915835D01*
X44504365Y-170087973D01*
X44357973Y-170234365D01*
X44185835Y-170349384D01*
X44185834Y-170349385D01*
X44185833Y-170349385D01*
X43994564Y-170428611D01*
X43791516Y-170469000D01*
X43584484Y-170469000D01*
X43381436Y-170428611D01*
X43190167Y-170349385D01*
X43190166Y-170349385D01*
X43190165Y-170349384D01*
X43018027Y-170234365D01*
X42871635Y-170087973D01*
X42756616Y-169915835D01*
X42748601Y-169896486D01*
X42677389Y-169724564D01*
X42637000Y-169521516D01*
X42637000Y-169314484D01*
X42677389Y-169111436D01*
X42756615Y-168920167D01*
X42871635Y-168748027D01*
X43018027Y-168601635D01*
X43018977Y-168601000D01*
X43190165Y-168486616D01*
X43207610Y-168479390D01*
X43381436Y-168407389D01*
X43584484Y-168367000D01*
X43791516Y-168367000D01*
X43994564Y-168407389D01*
G37*
G36*
X41454564Y-168407389D02*
G01*
X41628390Y-168479390D01*
X41645835Y-168486616D01*
X41817023Y-168601000D01*
X41817973Y-168601635D01*
X41964365Y-168748027D01*
X42079385Y-168920167D01*
X42158611Y-169111436D01*
X42199000Y-169314484D01*
X42199000Y-169521516D01*
X42158611Y-169724564D01*
X42087399Y-169896486D01*
X42079384Y-169915835D01*
X41964365Y-170087973D01*
X41817973Y-170234365D01*
X41645835Y-170349384D01*
X41645834Y-170349385D01*
X41645833Y-170349385D01*
X41454564Y-170428611D01*
X41251516Y-170469000D01*
X41044484Y-170469000D01*
X40841436Y-170428611D01*
X40650167Y-170349385D01*
X40650166Y-170349385D01*
X40650165Y-170349384D01*
X40478027Y-170234365D01*
X40331635Y-170087973D01*
X40216616Y-169915835D01*
X40208601Y-169896486D01*
X40137389Y-169724564D01*
X40097000Y-169521516D01*
X40097000Y-169314484D01*
X40137389Y-169111436D01*
X40216615Y-168920167D01*
X40331635Y-168748027D01*
X40478027Y-168601635D01*
X40478977Y-168601000D01*
X40650165Y-168486616D01*
X40667610Y-168479390D01*
X40841436Y-168407389D01*
X41044484Y-168367000D01*
X41251516Y-168367000D01*
X41454564Y-168407389D01*
G37*
G36*
X36374564Y-168407389D02*
G01*
X36548390Y-168479390D01*
X36565835Y-168486616D01*
X36737023Y-168601000D01*
X36737973Y-168601635D01*
X36884365Y-168748027D01*
X36999385Y-168920167D01*
X37078611Y-169111436D01*
X37119000Y-169314484D01*
X37119000Y-169521516D01*
X37078611Y-169724564D01*
X37007399Y-169896486D01*
X36999384Y-169915835D01*
X36884365Y-170087973D01*
X36737973Y-170234365D01*
X36565835Y-170349384D01*
X36565834Y-170349385D01*
X36565833Y-170349385D01*
X36374564Y-170428611D01*
X36171516Y-170469000D01*
X35964484Y-170469000D01*
X35761436Y-170428611D01*
X35570167Y-170349385D01*
X35570166Y-170349385D01*
X35570165Y-170349384D01*
X35398027Y-170234365D01*
X35251635Y-170087973D01*
X35136616Y-169915835D01*
X35128601Y-169896486D01*
X35057389Y-169724564D01*
X35017000Y-169521516D01*
X35017000Y-169314484D01*
X35057389Y-169111436D01*
X35136615Y-168920167D01*
X35251635Y-168748027D01*
X35398027Y-168601635D01*
X35398977Y-168601000D01*
X35570165Y-168486616D01*
X35587610Y-168479390D01*
X35761436Y-168407389D01*
X35964484Y-168367000D01*
X36171516Y-168367000D01*
X36374564Y-168407389D01*
G37*
G36*
X55351000Y-170303000D02*
G01*
X47849000Y-170303000D01*
X47849000Y-168601000D01*
X55351000Y-168601000D01*
X55351000Y-170303000D01*
G37*
M02*
