G04 #@! TF.GenerationSoftware,KiCad,Pcbnew,(5.1.5-0-10_14)*
G04 #@! TF.CreationDate,2021-12-27T21:36:10+00:00*
G04 #@! TF.ProjectId,receiver,72656365-6976-4657-922e-6b696361645f,rev?*
G04 #@! TF.SameCoordinates,Original*
G04 #@! TF.FileFunction,Soldermask,Bot*
G04 #@! TF.FilePolarity,Negative*
%FSLAX46Y46*%
G04 Gerber Fmt 4.6, Leading zero omitted, Abs format (unit mm)*
G04 Created by KiCad (PCBNEW (5.1.5-0-10_14)) date 2021-12-27 21:36:10*
%MOMM*%
%LPD*%
G04 APERTURE LIST*
%ADD10C,0.100000*%
G04 APERTURE END LIST*
D10*
G36*
X65486564Y-185709389D02*
G01*
X65653693Y-185778616D01*
X65677835Y-185788616D01*
X65849973Y-185903635D01*
X65996365Y-186050027D01*
X66104704Y-186212167D01*
X66111385Y-186222167D01*
X66190611Y-186413436D01*
X66231000Y-186616484D01*
X66231000Y-186823516D01*
X66190611Y-187026564D01*
X66121832Y-187192611D01*
X66111384Y-187217835D01*
X65996365Y-187389973D01*
X65849973Y-187536365D01*
X65677835Y-187651384D01*
X65677834Y-187651385D01*
X65677833Y-187651385D01*
X65486564Y-187730611D01*
X65283516Y-187771000D01*
X65076484Y-187771000D01*
X64873436Y-187730611D01*
X64682167Y-187651385D01*
X64682166Y-187651385D01*
X64682165Y-187651384D01*
X64510027Y-187536365D01*
X64363635Y-187389973D01*
X64248616Y-187217835D01*
X64238168Y-187192611D01*
X64169389Y-187026564D01*
X64129000Y-186823516D01*
X64129000Y-186616484D01*
X64169389Y-186413436D01*
X64248615Y-186222167D01*
X64255297Y-186212167D01*
X64363635Y-186050027D01*
X64510027Y-185903635D01*
X64682165Y-185788616D01*
X64706307Y-185778616D01*
X64873436Y-185709389D01*
X65076484Y-185669000D01*
X65283516Y-185669000D01*
X65486564Y-185709389D01*
G37*
G36*
X57856564Y-185699389D02*
G01*
X57981164Y-185751000D01*
X58047835Y-185778616D01*
X58219973Y-185893635D01*
X58366365Y-186040027D01*
X58473238Y-186199973D01*
X58481385Y-186212167D01*
X58560611Y-186403436D01*
X58601000Y-186606484D01*
X58601000Y-186813516D01*
X58560611Y-187016564D01*
X58487690Y-187192611D01*
X58481384Y-187207835D01*
X58366365Y-187379973D01*
X58219973Y-187526365D01*
X58047835Y-187641384D01*
X58047834Y-187641385D01*
X58047833Y-187641385D01*
X57856564Y-187720611D01*
X57653516Y-187761000D01*
X57446484Y-187761000D01*
X57243436Y-187720611D01*
X57052167Y-187641385D01*
X57052166Y-187641385D01*
X57052165Y-187641384D01*
X56880027Y-187526365D01*
X56733635Y-187379973D01*
X56618616Y-187207835D01*
X56612310Y-187192611D01*
X56539389Y-187016564D01*
X56499000Y-186813516D01*
X56499000Y-186606484D01*
X56539389Y-186403436D01*
X56618615Y-186212167D01*
X56626763Y-186199973D01*
X56733635Y-186040027D01*
X56880027Y-185893635D01*
X57052165Y-185778616D01*
X57118836Y-185751000D01*
X57243436Y-185699389D01*
X57446484Y-185659000D01*
X57653516Y-185659000D01*
X57856564Y-185699389D01*
G37*
G36*
X71680564Y-185171389D02*
G01*
X71871833Y-185250615D01*
X71871835Y-185250616D01*
X72043973Y-185365635D01*
X72190365Y-185512027D01*
X72299725Y-185675695D01*
X72305385Y-185684167D01*
X72384611Y-185875436D01*
X72425000Y-186078484D01*
X72425000Y-186285516D01*
X72384611Y-186488564D01*
X72335767Y-186606484D01*
X72305384Y-186679835D01*
X72190365Y-186851973D01*
X72043973Y-186998365D01*
X71871835Y-187113384D01*
X71871834Y-187113385D01*
X71871833Y-187113385D01*
X71680564Y-187192611D01*
X71477516Y-187233000D01*
X71270484Y-187233000D01*
X71067436Y-187192611D01*
X70876167Y-187113385D01*
X70876166Y-187113385D01*
X70876165Y-187113384D01*
X70704027Y-186998365D01*
X70557635Y-186851973D01*
X70442616Y-186679835D01*
X70412233Y-186606484D01*
X70363389Y-186488564D01*
X70323000Y-186285516D01*
X70323000Y-186078484D01*
X70363389Y-185875436D01*
X70442615Y-185684167D01*
X70448276Y-185675695D01*
X70557635Y-185512027D01*
X70704027Y-185365635D01*
X70876165Y-185250616D01*
X70876167Y-185250615D01*
X71067436Y-185171389D01*
X71270484Y-185131000D01*
X71477516Y-185131000D01*
X71680564Y-185171389D01*
G37*
G36*
X46406564Y-184519389D02*
G01*
X46597833Y-184598615D01*
X46597835Y-184598616D01*
X46769973Y-184713635D01*
X46916365Y-184860027D01*
X47020827Y-185016365D01*
X47031385Y-185032167D01*
X47110611Y-185223436D01*
X47151000Y-185426484D01*
X47151000Y-185633516D01*
X47110611Y-185836564D01*
X47086971Y-185893635D01*
X47031384Y-186027835D01*
X46916365Y-186199973D01*
X46769973Y-186346365D01*
X46597835Y-186461384D01*
X46597834Y-186461385D01*
X46597833Y-186461385D01*
X46406564Y-186540611D01*
X46203516Y-186581000D01*
X45996484Y-186581000D01*
X45793436Y-186540611D01*
X45602167Y-186461385D01*
X45602166Y-186461385D01*
X45602165Y-186461384D01*
X45430027Y-186346365D01*
X45283635Y-186199973D01*
X45168616Y-186027835D01*
X45113029Y-185893635D01*
X45089389Y-185836564D01*
X45049000Y-185633516D01*
X45049000Y-185426484D01*
X45089389Y-185223436D01*
X45168615Y-185032167D01*
X45179174Y-185016365D01*
X45283635Y-184860027D01*
X45430027Y-184713635D01*
X45602165Y-184598616D01*
X45602167Y-184598615D01*
X45793436Y-184519389D01*
X45996484Y-184479000D01*
X46203516Y-184479000D01*
X46406564Y-184519389D01*
G37*
G36*
X34003097Y-183654069D02*
G01*
X34106032Y-183664207D01*
X34304146Y-183724305D01*
X34304149Y-183724306D01*
X34400975Y-183776061D01*
X34486729Y-183821897D01*
X34646765Y-183953235D01*
X34778103Y-184113271D01*
X34823926Y-184199000D01*
X34875694Y-184295851D01*
X34875695Y-184295854D01*
X34935793Y-184493968D01*
X34956085Y-184700000D01*
X34935793Y-184906032D01*
X34906984Y-185001000D01*
X34875694Y-185104149D01*
X34861136Y-185131385D01*
X34778103Y-185286729D01*
X34646765Y-185446765D01*
X34486729Y-185578103D01*
X34400975Y-185623939D01*
X34304149Y-185675694D01*
X34304146Y-185675695D01*
X34106032Y-185735793D01*
X34003097Y-185745931D01*
X33951631Y-185751000D01*
X31648369Y-185751000D01*
X31596903Y-185745931D01*
X31493968Y-185735793D01*
X31295854Y-185675695D01*
X31295851Y-185675694D01*
X31199025Y-185623939D01*
X31113271Y-185578103D01*
X30953235Y-185446765D01*
X30821897Y-185286729D01*
X30738864Y-185131385D01*
X30724306Y-185104149D01*
X30693016Y-185001000D01*
X30664207Y-184906032D01*
X30643915Y-184700000D01*
X30664207Y-184493968D01*
X30724305Y-184295854D01*
X30724306Y-184295851D01*
X30776074Y-184199000D01*
X30821897Y-184113271D01*
X30953235Y-183953235D01*
X31113271Y-183821897D01*
X31199025Y-183776061D01*
X31295851Y-183724306D01*
X31295854Y-183724305D01*
X31493968Y-183664207D01*
X31596903Y-183654069D01*
X31648369Y-183649000D01*
X33951631Y-183649000D01*
X34003097Y-183654069D01*
G37*
G36*
X68016564Y-183189389D02*
G01*
X68207833Y-183268615D01*
X68207835Y-183268616D01*
X68307838Y-183335436D01*
X68379973Y-183383635D01*
X68526365Y-183530027D01*
X68641385Y-183702167D01*
X68720611Y-183893436D01*
X68761000Y-184096484D01*
X68761000Y-184303516D01*
X68720611Y-184506564D01*
X68643387Y-184693000D01*
X68641384Y-184697835D01*
X68526365Y-184869973D01*
X68379973Y-185016365D01*
X68207835Y-185131384D01*
X68207834Y-185131385D01*
X68207833Y-185131385D01*
X68016564Y-185210611D01*
X67813516Y-185251000D01*
X67606484Y-185251000D01*
X67403436Y-185210611D01*
X67212167Y-185131385D01*
X67212166Y-185131385D01*
X67212165Y-185131384D01*
X67040027Y-185016365D01*
X66893635Y-184869973D01*
X66778616Y-184697835D01*
X66776613Y-184693000D01*
X66699389Y-184506564D01*
X66659000Y-184303516D01*
X66659000Y-184096484D01*
X66699389Y-183893436D01*
X66778615Y-183702167D01*
X66893635Y-183530027D01*
X67040027Y-183383635D01*
X67112162Y-183335436D01*
X67212165Y-183268616D01*
X67212167Y-183268615D01*
X67403436Y-183189389D01*
X67606484Y-183149000D01*
X67813516Y-183149000D01*
X68016564Y-183189389D01*
G37*
G36*
X65476564Y-183189389D02*
G01*
X65667833Y-183268615D01*
X65667835Y-183268616D01*
X65767838Y-183335436D01*
X65839973Y-183383635D01*
X65986365Y-183530027D01*
X66101385Y-183702167D01*
X66180611Y-183893436D01*
X66221000Y-184096484D01*
X66221000Y-184303516D01*
X66180611Y-184506564D01*
X66103387Y-184693000D01*
X66101384Y-184697835D01*
X65986365Y-184869973D01*
X65839973Y-185016365D01*
X65667835Y-185131384D01*
X65667834Y-185131385D01*
X65667833Y-185131385D01*
X65476564Y-185210611D01*
X65273516Y-185251000D01*
X65066484Y-185251000D01*
X64863436Y-185210611D01*
X64672167Y-185131385D01*
X64672166Y-185131385D01*
X64672165Y-185131384D01*
X64500027Y-185016365D01*
X64353635Y-184869973D01*
X64238616Y-184697835D01*
X64236613Y-184693000D01*
X64159389Y-184506564D01*
X64119000Y-184303516D01*
X64119000Y-184096484D01*
X64159389Y-183893436D01*
X64238615Y-183702167D01*
X64353635Y-183530027D01*
X64500027Y-183383635D01*
X64572162Y-183335436D01*
X64672165Y-183268616D01*
X64672167Y-183268615D01*
X64863436Y-183189389D01*
X65066484Y-183149000D01*
X65273516Y-183149000D01*
X65476564Y-183189389D01*
G37*
G36*
X62936564Y-183189389D02*
G01*
X63127833Y-183268615D01*
X63127835Y-183268616D01*
X63227838Y-183335436D01*
X63299973Y-183383635D01*
X63446365Y-183530027D01*
X63561385Y-183702167D01*
X63640611Y-183893436D01*
X63681000Y-184096484D01*
X63681000Y-184303516D01*
X63640611Y-184506564D01*
X63563387Y-184693000D01*
X63561384Y-184697835D01*
X63446365Y-184869973D01*
X63299973Y-185016365D01*
X63127835Y-185131384D01*
X63127834Y-185131385D01*
X63127833Y-185131385D01*
X62936564Y-185210611D01*
X62733516Y-185251000D01*
X62526484Y-185251000D01*
X62323436Y-185210611D01*
X62132167Y-185131385D01*
X62132166Y-185131385D01*
X62132165Y-185131384D01*
X61960027Y-185016365D01*
X61813635Y-184869973D01*
X61698616Y-184697835D01*
X61696613Y-184693000D01*
X61619389Y-184506564D01*
X61579000Y-184303516D01*
X61579000Y-184096484D01*
X61619389Y-183893436D01*
X61698615Y-183702167D01*
X61813635Y-183530027D01*
X61960027Y-183383635D01*
X62032162Y-183335436D01*
X62132165Y-183268616D01*
X62132167Y-183268615D01*
X62323436Y-183189389D01*
X62526484Y-183149000D01*
X62733516Y-183149000D01*
X62936564Y-183189389D01*
G37*
G36*
X60396564Y-183189389D02*
G01*
X60587833Y-183268615D01*
X60587835Y-183268616D01*
X60687838Y-183335436D01*
X60759973Y-183383635D01*
X60906365Y-183530027D01*
X61021385Y-183702167D01*
X61100611Y-183893436D01*
X61141000Y-184096484D01*
X61141000Y-184303516D01*
X61100611Y-184506564D01*
X61023387Y-184693000D01*
X61021384Y-184697835D01*
X60906365Y-184869973D01*
X60759973Y-185016365D01*
X60587835Y-185131384D01*
X60587834Y-185131385D01*
X60587833Y-185131385D01*
X60396564Y-185210611D01*
X60193516Y-185251000D01*
X59986484Y-185251000D01*
X59783436Y-185210611D01*
X59592167Y-185131385D01*
X59592166Y-185131385D01*
X59592165Y-185131384D01*
X59420027Y-185016365D01*
X59273635Y-184869973D01*
X59158616Y-184697835D01*
X59156613Y-184693000D01*
X59079389Y-184506564D01*
X59039000Y-184303516D01*
X59039000Y-184096484D01*
X59079389Y-183893436D01*
X59158615Y-183702167D01*
X59273635Y-183530027D01*
X59420027Y-183383635D01*
X59492162Y-183335436D01*
X59592165Y-183268616D01*
X59592167Y-183268615D01*
X59783436Y-183189389D01*
X59986484Y-183149000D01*
X60193516Y-183149000D01*
X60396564Y-183189389D01*
G37*
G36*
X57856564Y-183189389D02*
G01*
X58047833Y-183268615D01*
X58047835Y-183268616D01*
X58147838Y-183335436D01*
X58219973Y-183383635D01*
X58366365Y-183530027D01*
X58481385Y-183702167D01*
X58560611Y-183893436D01*
X58601000Y-184096484D01*
X58601000Y-184303516D01*
X58560611Y-184506564D01*
X58483387Y-184693000D01*
X58481384Y-184697835D01*
X58366365Y-184869973D01*
X58219973Y-185016365D01*
X58047835Y-185131384D01*
X58047834Y-185131385D01*
X58047833Y-185131385D01*
X57856564Y-185210611D01*
X57653516Y-185251000D01*
X57446484Y-185251000D01*
X57243436Y-185210611D01*
X57052167Y-185131385D01*
X57052166Y-185131385D01*
X57052165Y-185131384D01*
X56880027Y-185016365D01*
X56733635Y-184869973D01*
X56618616Y-184697835D01*
X56616613Y-184693000D01*
X56539389Y-184506564D01*
X56499000Y-184303516D01*
X56499000Y-184096484D01*
X56539389Y-183893436D01*
X56618615Y-183702167D01*
X56733635Y-183530027D01*
X56880027Y-183383635D01*
X56952162Y-183335436D01*
X57052165Y-183268616D01*
X57052167Y-183268615D01*
X57243436Y-183189389D01*
X57446484Y-183149000D01*
X57653516Y-183149000D01*
X57856564Y-183189389D01*
G37*
G36*
X40175000Y-185035000D02*
G01*
X39073000Y-185035000D01*
X39073000Y-184233000D01*
X40175000Y-184233000D01*
X40175000Y-185035000D01*
G37*
G36*
X38001000Y-185001000D02*
G01*
X36899000Y-185001000D01*
X36899000Y-184199000D01*
X38001000Y-184199000D01*
X38001000Y-185001000D01*
G37*
G36*
X71680564Y-182631389D02*
G01*
X71871833Y-182710615D01*
X71871835Y-182710616D01*
X72043973Y-182825635D01*
X72190365Y-182972027D01*
X72290693Y-183122178D01*
X72305385Y-183144167D01*
X72384611Y-183335436D01*
X72425000Y-183538484D01*
X72425000Y-183745516D01*
X72384611Y-183948564D01*
X72323340Y-184096486D01*
X72305384Y-184139835D01*
X72190365Y-184311973D01*
X72043973Y-184458365D01*
X71871835Y-184573384D01*
X71871834Y-184573385D01*
X71871833Y-184573385D01*
X71680564Y-184652611D01*
X71477516Y-184693000D01*
X71270484Y-184693000D01*
X71067436Y-184652611D01*
X70876167Y-184573385D01*
X70876166Y-184573385D01*
X70876165Y-184573384D01*
X70704027Y-184458365D01*
X70557635Y-184311973D01*
X70442616Y-184139835D01*
X70424660Y-184096486D01*
X70363389Y-183948564D01*
X70323000Y-183745516D01*
X70323000Y-183538484D01*
X70363389Y-183335436D01*
X70442615Y-183144167D01*
X70457308Y-183122178D01*
X70557635Y-182972027D01*
X70704027Y-182825635D01*
X70876165Y-182710616D01*
X70876167Y-182710615D01*
X71067436Y-182631389D01*
X71270484Y-182591000D01*
X71477516Y-182591000D01*
X71680564Y-182631389D01*
G37*
G36*
X40175000Y-183535000D02*
G01*
X39073000Y-183535000D01*
X39073000Y-182733000D01*
X40175000Y-182733000D01*
X40175000Y-183535000D01*
G37*
G36*
X38001000Y-183501000D02*
G01*
X36899000Y-183501000D01*
X36899000Y-182699000D01*
X38001000Y-182699000D01*
X38001000Y-183501000D01*
G37*
G36*
X35133642Y-181729781D02*
G01*
X35279414Y-181790162D01*
X35279416Y-181790163D01*
X35410608Y-181877822D01*
X35522178Y-181989392D01*
X35609837Y-182120584D01*
X35609838Y-182120586D01*
X35670219Y-182266358D01*
X35701000Y-182421107D01*
X35701000Y-182578893D01*
X35670219Y-182733642D01*
X35632114Y-182825635D01*
X35609837Y-182879416D01*
X35522178Y-183010608D01*
X35410608Y-183122178D01*
X35279416Y-183209837D01*
X35279415Y-183209838D01*
X35279414Y-183209838D01*
X35133642Y-183270219D01*
X34978893Y-183301000D01*
X34821107Y-183301000D01*
X34666358Y-183270219D01*
X34520586Y-183209838D01*
X34520585Y-183209838D01*
X34520584Y-183209837D01*
X34389392Y-183122178D01*
X34277822Y-183010608D01*
X34190163Y-182879416D01*
X34167886Y-182825635D01*
X34129781Y-182733642D01*
X34099000Y-182578893D01*
X34099000Y-182421107D01*
X34129781Y-182266358D01*
X34190162Y-182120586D01*
X34190163Y-182120584D01*
X34277822Y-181989392D01*
X34389392Y-181877822D01*
X34520584Y-181790163D01*
X34520586Y-181790162D01*
X34666358Y-181729781D01*
X34821107Y-181699000D01*
X34978893Y-181699000D01*
X35133642Y-181729781D01*
G37*
G36*
X57856564Y-180649389D02*
G01*
X58047833Y-180728615D01*
X58047835Y-180728616D01*
X58147838Y-180795436D01*
X58219973Y-180843635D01*
X58366365Y-180990027D01*
X58481385Y-181162167D01*
X58560611Y-181353436D01*
X58601000Y-181556484D01*
X58601000Y-181763516D01*
X58560611Y-181966564D01*
X58496814Y-182120584D01*
X58481384Y-182157835D01*
X58366365Y-182329973D01*
X58219973Y-182476365D01*
X58047835Y-182591384D01*
X58047834Y-182591385D01*
X58047833Y-182591385D01*
X57856564Y-182670611D01*
X57653516Y-182711000D01*
X57446484Y-182711000D01*
X57243436Y-182670611D01*
X57052167Y-182591385D01*
X57052166Y-182591385D01*
X57052165Y-182591384D01*
X56880027Y-182476365D01*
X56733635Y-182329973D01*
X56618616Y-182157835D01*
X56603186Y-182120584D01*
X56539389Y-181966564D01*
X56499000Y-181763516D01*
X56499000Y-181556484D01*
X56539389Y-181353436D01*
X56618615Y-181162167D01*
X56733635Y-180990027D01*
X56880027Y-180843635D01*
X56952162Y-180795436D01*
X57052165Y-180728616D01*
X57052167Y-180728615D01*
X57243436Y-180649389D01*
X57446484Y-180609000D01*
X57653516Y-180609000D01*
X57856564Y-180649389D01*
G37*
G36*
X60396564Y-180649389D02*
G01*
X60587833Y-180728615D01*
X60587835Y-180728616D01*
X60687838Y-180795436D01*
X60759973Y-180843635D01*
X60906365Y-180990027D01*
X61021385Y-181162167D01*
X61100611Y-181353436D01*
X61141000Y-181556484D01*
X61141000Y-181763516D01*
X61100611Y-181966564D01*
X61036814Y-182120584D01*
X61021384Y-182157835D01*
X60906365Y-182329973D01*
X60759973Y-182476365D01*
X60587835Y-182591384D01*
X60587834Y-182591385D01*
X60587833Y-182591385D01*
X60396564Y-182670611D01*
X60193516Y-182711000D01*
X59986484Y-182711000D01*
X59783436Y-182670611D01*
X59592167Y-182591385D01*
X59592166Y-182591385D01*
X59592165Y-182591384D01*
X59420027Y-182476365D01*
X59273635Y-182329973D01*
X59158616Y-182157835D01*
X59143186Y-182120584D01*
X59079389Y-181966564D01*
X59039000Y-181763516D01*
X59039000Y-181556484D01*
X59079389Y-181353436D01*
X59158615Y-181162167D01*
X59273635Y-180990027D01*
X59420027Y-180843635D01*
X59492162Y-180795436D01*
X59592165Y-180728616D01*
X59592167Y-180728615D01*
X59783436Y-180649389D01*
X59986484Y-180609000D01*
X60193516Y-180609000D01*
X60396564Y-180649389D01*
G37*
G36*
X62936564Y-180649389D02*
G01*
X63127833Y-180728615D01*
X63127835Y-180728616D01*
X63227838Y-180795436D01*
X63299973Y-180843635D01*
X63446365Y-180990027D01*
X63561385Y-181162167D01*
X63640611Y-181353436D01*
X63681000Y-181556484D01*
X63681000Y-181763516D01*
X63640611Y-181966564D01*
X63576814Y-182120584D01*
X63561384Y-182157835D01*
X63446365Y-182329973D01*
X63299973Y-182476365D01*
X63127835Y-182591384D01*
X63127834Y-182591385D01*
X63127833Y-182591385D01*
X62936564Y-182670611D01*
X62733516Y-182711000D01*
X62526484Y-182711000D01*
X62323436Y-182670611D01*
X62132167Y-182591385D01*
X62132166Y-182591385D01*
X62132165Y-182591384D01*
X61960027Y-182476365D01*
X61813635Y-182329973D01*
X61698616Y-182157835D01*
X61683186Y-182120584D01*
X61619389Y-181966564D01*
X61579000Y-181763516D01*
X61579000Y-181556484D01*
X61619389Y-181353436D01*
X61698615Y-181162167D01*
X61813635Y-180990027D01*
X61960027Y-180843635D01*
X62032162Y-180795436D01*
X62132165Y-180728616D01*
X62132167Y-180728615D01*
X62323436Y-180649389D01*
X62526484Y-180609000D01*
X62733516Y-180609000D01*
X62936564Y-180649389D01*
G37*
G36*
X65476564Y-180649389D02*
G01*
X65667833Y-180728615D01*
X65667835Y-180728616D01*
X65767838Y-180795436D01*
X65839973Y-180843635D01*
X65986365Y-180990027D01*
X66101385Y-181162167D01*
X66180611Y-181353436D01*
X66221000Y-181556484D01*
X66221000Y-181763516D01*
X66180611Y-181966564D01*
X66116814Y-182120584D01*
X66101384Y-182157835D01*
X65986365Y-182329973D01*
X65839973Y-182476365D01*
X65667835Y-182591384D01*
X65667834Y-182591385D01*
X65667833Y-182591385D01*
X65476564Y-182670611D01*
X65273516Y-182711000D01*
X65066484Y-182711000D01*
X64863436Y-182670611D01*
X64672167Y-182591385D01*
X64672166Y-182591385D01*
X64672165Y-182591384D01*
X64500027Y-182476365D01*
X64353635Y-182329973D01*
X64238616Y-182157835D01*
X64223186Y-182120584D01*
X64159389Y-181966564D01*
X64119000Y-181763516D01*
X64119000Y-181556484D01*
X64159389Y-181353436D01*
X64238615Y-181162167D01*
X64353635Y-180990027D01*
X64500027Y-180843635D01*
X64572162Y-180795436D01*
X64672165Y-180728616D01*
X64672167Y-180728615D01*
X64863436Y-180649389D01*
X65066484Y-180609000D01*
X65273516Y-180609000D01*
X65476564Y-180649389D01*
G37*
G36*
X68016564Y-180649389D02*
G01*
X68207833Y-180728615D01*
X68207835Y-180728616D01*
X68307838Y-180795436D01*
X68379973Y-180843635D01*
X68526365Y-180990027D01*
X68641385Y-181162167D01*
X68720611Y-181353436D01*
X68761000Y-181556484D01*
X68761000Y-181763516D01*
X68720611Y-181966564D01*
X68656814Y-182120584D01*
X68641384Y-182157835D01*
X68526365Y-182329973D01*
X68379973Y-182476365D01*
X68207835Y-182591384D01*
X68207834Y-182591385D01*
X68207833Y-182591385D01*
X68016564Y-182670611D01*
X67813516Y-182711000D01*
X67606484Y-182711000D01*
X67403436Y-182670611D01*
X67212167Y-182591385D01*
X67212166Y-182591385D01*
X67212165Y-182591384D01*
X67040027Y-182476365D01*
X66893635Y-182329973D01*
X66778616Y-182157835D01*
X66763186Y-182120584D01*
X66699389Y-181966564D01*
X66659000Y-181763516D01*
X66659000Y-181556484D01*
X66699389Y-181353436D01*
X66778615Y-181162167D01*
X66893635Y-180990027D01*
X67040027Y-180843635D01*
X67112162Y-180795436D01*
X67212165Y-180728616D01*
X67212167Y-180728615D01*
X67403436Y-180649389D01*
X67606484Y-180609000D01*
X67813516Y-180609000D01*
X68016564Y-180649389D01*
G37*
G36*
X71680564Y-180091389D02*
G01*
X71871833Y-180170615D01*
X71871835Y-180170616D01*
X72043973Y-180285635D01*
X72190365Y-180432027D01*
X72242871Y-180510607D01*
X72305385Y-180604167D01*
X72384611Y-180795436D01*
X72425000Y-180998484D01*
X72425000Y-181205516D01*
X72384611Y-181408564D01*
X72323340Y-181556486D01*
X72305384Y-181599835D01*
X72190365Y-181771973D01*
X72043973Y-181918365D01*
X71871835Y-182033384D01*
X71871834Y-182033385D01*
X71871833Y-182033385D01*
X71680564Y-182112611D01*
X71477516Y-182153000D01*
X71270484Y-182153000D01*
X71067436Y-182112611D01*
X70876167Y-182033385D01*
X70876166Y-182033385D01*
X70876165Y-182033384D01*
X70704027Y-181918365D01*
X70557635Y-181771973D01*
X70442616Y-181599835D01*
X70424660Y-181556486D01*
X70363389Y-181408564D01*
X70323000Y-181205516D01*
X70323000Y-180998484D01*
X70363389Y-180795436D01*
X70442615Y-180604167D01*
X70505130Y-180510607D01*
X70557635Y-180432027D01*
X70704027Y-180285635D01*
X70876165Y-180170616D01*
X70876167Y-180170615D01*
X71067436Y-180091389D01*
X71270484Y-180051000D01*
X71477516Y-180051000D01*
X71680564Y-180091389D01*
G37*
G36*
X32936601Y-180664397D02*
G01*
X32975305Y-180672096D01*
X33007340Y-180685365D01*
X33084680Y-180717400D01*
X33183115Y-180783173D01*
X33266827Y-180866885D01*
X33332600Y-180965320D01*
X33377904Y-181074696D01*
X33401000Y-181190805D01*
X33401000Y-181309195D01*
X33377904Y-181425304D01*
X33332600Y-181534680D01*
X33266827Y-181633115D01*
X33183115Y-181716827D01*
X33084680Y-181782600D01*
X33007340Y-181814635D01*
X32975305Y-181827904D01*
X32936601Y-181835603D01*
X32859195Y-181851000D01*
X32740805Y-181851000D01*
X32663399Y-181835603D01*
X32624695Y-181827904D01*
X32592660Y-181814635D01*
X32515320Y-181782600D01*
X32416885Y-181716827D01*
X32333173Y-181633115D01*
X32267400Y-181534680D01*
X32222096Y-181425304D01*
X32199000Y-181309195D01*
X32199000Y-181190805D01*
X32222096Y-181074696D01*
X32267400Y-180965320D01*
X32333173Y-180866885D01*
X32416885Y-180783173D01*
X32515320Y-180717400D01*
X32592660Y-180685365D01*
X32624695Y-180672096D01*
X32663399Y-180664397D01*
X32740805Y-180649000D01*
X32859195Y-180649000D01*
X32936601Y-180664397D01*
G37*
G36*
X41451000Y-180801000D02*
G01*
X40649000Y-180801000D01*
X40649000Y-179699000D01*
X41451000Y-179699000D01*
X41451000Y-180801000D01*
G37*
G36*
X39951000Y-180801000D02*
G01*
X39149000Y-180801000D01*
X39149000Y-179699000D01*
X39951000Y-179699000D01*
X39951000Y-180801000D01*
G37*
G36*
X35133642Y-179229781D02*
G01*
X35279414Y-179290162D01*
X35279416Y-179290163D01*
X35410608Y-179377822D01*
X35522178Y-179489392D01*
X35609837Y-179620584D01*
X35609838Y-179620586D01*
X35670219Y-179766358D01*
X35701000Y-179921107D01*
X35701000Y-180078893D01*
X35670219Y-180233642D01*
X35615243Y-180366365D01*
X35609837Y-180379416D01*
X35522178Y-180510608D01*
X35410608Y-180622178D01*
X35279416Y-180709837D01*
X35279415Y-180709838D01*
X35279414Y-180709838D01*
X35133642Y-180770219D01*
X34978893Y-180801000D01*
X34821107Y-180801000D01*
X34666358Y-180770219D01*
X34520586Y-180709838D01*
X34520585Y-180709838D01*
X34520584Y-180709837D01*
X34389392Y-180622178D01*
X34277822Y-180510608D01*
X34190163Y-180379416D01*
X34184757Y-180366365D01*
X34129781Y-180233642D01*
X34099000Y-180078893D01*
X34099000Y-179921107D01*
X34129781Y-179766358D01*
X34190162Y-179620586D01*
X34190163Y-179620584D01*
X34277822Y-179489392D01*
X34389392Y-179377822D01*
X34520584Y-179290163D01*
X34520586Y-179290162D01*
X34666358Y-179229781D01*
X34821107Y-179199000D01*
X34978893Y-179199000D01*
X35133642Y-179229781D01*
G37*
G36*
X59046564Y-178539389D02*
G01*
X59237833Y-178618615D01*
X59237835Y-178618616D01*
X59374357Y-178709837D01*
X59409973Y-178733635D01*
X59556365Y-178880027D01*
X59671385Y-179052167D01*
X59750611Y-179243436D01*
X59791000Y-179446484D01*
X59791000Y-179653516D01*
X59750611Y-179856564D01*
X59723876Y-179921107D01*
X59671384Y-180047835D01*
X59556365Y-180219973D01*
X59409973Y-180366365D01*
X59237835Y-180481384D01*
X59237834Y-180481385D01*
X59237833Y-180481385D01*
X59046564Y-180560611D01*
X58843516Y-180601000D01*
X58636484Y-180601000D01*
X58433436Y-180560611D01*
X58242167Y-180481385D01*
X58242166Y-180481385D01*
X58242165Y-180481384D01*
X58070027Y-180366365D01*
X57923635Y-180219973D01*
X57808616Y-180047835D01*
X57756124Y-179921107D01*
X57729389Y-179856564D01*
X57689000Y-179653516D01*
X57689000Y-179446484D01*
X57729389Y-179243436D01*
X57808615Y-179052167D01*
X57923635Y-178880027D01*
X58070027Y-178733635D01*
X58105643Y-178709837D01*
X58242165Y-178618616D01*
X58242167Y-178618615D01*
X58433436Y-178539389D01*
X58636484Y-178499000D01*
X58843516Y-178499000D01*
X59046564Y-178539389D01*
G37*
G36*
X35133642Y-177229781D02*
G01*
X35279414Y-177290162D01*
X35279416Y-177290163D01*
X35410608Y-177377822D01*
X35522178Y-177489392D01*
X35609837Y-177620584D01*
X35609838Y-177620586D01*
X35670219Y-177766358D01*
X35701000Y-177921107D01*
X35701000Y-178078893D01*
X35670219Y-178233642D01*
X35609838Y-178379414D01*
X35609837Y-178379416D01*
X35522178Y-178510608D01*
X35410608Y-178622178D01*
X35279416Y-178709837D01*
X35279415Y-178709838D01*
X35279414Y-178709838D01*
X35133642Y-178770219D01*
X34978893Y-178801000D01*
X34821107Y-178801000D01*
X34666358Y-178770219D01*
X34520586Y-178709838D01*
X34520585Y-178709838D01*
X34520584Y-178709837D01*
X34389392Y-178622178D01*
X34277822Y-178510608D01*
X34190163Y-178379416D01*
X34190162Y-178379414D01*
X34129781Y-178233642D01*
X34099000Y-178078893D01*
X34099000Y-177921107D01*
X34129781Y-177766358D01*
X34190162Y-177620586D01*
X34190163Y-177620584D01*
X34277822Y-177489392D01*
X34389392Y-177377822D01*
X34520584Y-177290163D01*
X34520586Y-177290162D01*
X34666358Y-177229781D01*
X34821107Y-177199000D01*
X34978893Y-177199000D01*
X35133642Y-177229781D01*
G37*
G36*
X32936601Y-176164397D02*
G01*
X32975305Y-176172096D01*
X33007340Y-176185365D01*
X33084680Y-176217400D01*
X33183115Y-176283173D01*
X33266827Y-176366885D01*
X33332600Y-176465320D01*
X33377904Y-176574696D01*
X33401000Y-176690805D01*
X33401000Y-176809195D01*
X33377904Y-176925304D01*
X33332600Y-177034680D01*
X33266827Y-177133115D01*
X33183115Y-177216827D01*
X33084680Y-177282600D01*
X33007340Y-177314635D01*
X32975305Y-177327904D01*
X32936601Y-177335603D01*
X32859195Y-177351000D01*
X32740805Y-177351000D01*
X32663399Y-177335603D01*
X32624695Y-177327904D01*
X32592660Y-177314635D01*
X32515320Y-177282600D01*
X32416885Y-177216827D01*
X32333173Y-177133115D01*
X32267400Y-177034680D01*
X32222096Y-176925304D01*
X32199000Y-176809195D01*
X32199000Y-176690805D01*
X32222096Y-176574696D01*
X32267400Y-176465320D01*
X32333173Y-176366885D01*
X32416885Y-176283173D01*
X32515320Y-176217400D01*
X32592660Y-176185365D01*
X32624695Y-176172096D01*
X32663399Y-176164397D01*
X32740805Y-176149000D01*
X32859195Y-176149000D01*
X32936601Y-176164397D01*
G37*
G36*
X35133642Y-174729781D02*
G01*
X35279414Y-174790162D01*
X35279416Y-174790163D01*
X35410608Y-174877822D01*
X35522178Y-174989392D01*
X35578386Y-175073514D01*
X35609838Y-175120586D01*
X35670219Y-175266358D01*
X35701000Y-175421107D01*
X35701000Y-175578893D01*
X35670219Y-175733642D01*
X35648380Y-175786365D01*
X35609837Y-175879416D01*
X35522178Y-176010608D01*
X35410608Y-176122178D01*
X35279416Y-176209837D01*
X35279415Y-176209838D01*
X35279414Y-176209838D01*
X35133642Y-176270219D01*
X34978893Y-176301000D01*
X34821107Y-176301000D01*
X34666358Y-176270219D01*
X34520586Y-176209838D01*
X34520585Y-176209838D01*
X34520584Y-176209837D01*
X34389392Y-176122178D01*
X34277822Y-176010608D01*
X34190163Y-175879416D01*
X34151620Y-175786365D01*
X34129781Y-175733642D01*
X34099000Y-175578893D01*
X34099000Y-175421107D01*
X34129781Y-175266358D01*
X34190162Y-175120586D01*
X34221614Y-175073514D01*
X34277822Y-174989392D01*
X34389392Y-174877822D01*
X34520584Y-174790163D01*
X34520586Y-174790162D01*
X34666358Y-174729781D01*
X34821107Y-174699000D01*
X34978893Y-174699000D01*
X35133642Y-174729781D01*
G37*
G36*
X44626564Y-173959389D02*
G01*
X44817833Y-174038615D01*
X44817835Y-174038616D01*
X44989973Y-174153635D01*
X45136365Y-174300027D01*
X45217197Y-174421000D01*
X45251385Y-174472167D01*
X45330611Y-174663436D01*
X45371000Y-174866484D01*
X45371000Y-175073516D01*
X45330611Y-175276564D01*
X45270739Y-175421107D01*
X45251384Y-175467835D01*
X45136365Y-175639973D01*
X44989973Y-175786365D01*
X44817835Y-175901384D01*
X44817834Y-175901385D01*
X44817833Y-175901385D01*
X44626564Y-175980611D01*
X44423516Y-176021000D01*
X44216484Y-176021000D01*
X44013436Y-175980611D01*
X43822167Y-175901385D01*
X43822166Y-175901385D01*
X43822165Y-175901384D01*
X43650027Y-175786365D01*
X43503635Y-175639973D01*
X43388616Y-175467835D01*
X43369261Y-175421107D01*
X43309389Y-175276564D01*
X43269000Y-175073516D01*
X43269000Y-174866484D01*
X43309389Y-174663436D01*
X43388615Y-174472167D01*
X43422804Y-174421000D01*
X43503635Y-174300027D01*
X43650027Y-174153635D01*
X43822165Y-174038616D01*
X43822167Y-174038615D01*
X44013436Y-173959389D01*
X44216484Y-173919000D01*
X44423516Y-173919000D01*
X44626564Y-173959389D01*
G37*
G36*
X63486564Y-172359389D02*
G01*
X63677833Y-172438615D01*
X63677835Y-172438616D01*
X63849973Y-172553635D01*
X63996365Y-172700027D01*
X64060816Y-172796484D01*
X64111385Y-172872167D01*
X64190611Y-173063436D01*
X64231000Y-173266484D01*
X64231000Y-173473516D01*
X64190611Y-173676564D01*
X64126482Y-173831385D01*
X64111384Y-173867835D01*
X63996365Y-174039973D01*
X63849973Y-174186365D01*
X63677835Y-174301384D01*
X63677834Y-174301385D01*
X63677833Y-174301385D01*
X63486564Y-174380611D01*
X63283516Y-174421000D01*
X63076484Y-174421000D01*
X62873436Y-174380611D01*
X62682167Y-174301385D01*
X62682166Y-174301385D01*
X62682165Y-174301384D01*
X62510027Y-174186365D01*
X62363635Y-174039973D01*
X62248616Y-173867835D01*
X62233518Y-173831385D01*
X62169389Y-173676564D01*
X62129000Y-173473516D01*
X62129000Y-173266484D01*
X62169389Y-173063436D01*
X62248615Y-172872167D01*
X62299185Y-172796484D01*
X62363635Y-172700027D01*
X62510027Y-172553635D01*
X62682165Y-172438616D01*
X62682167Y-172438615D01*
X62873436Y-172359389D01*
X63076484Y-172319000D01*
X63283516Y-172319000D01*
X63486564Y-172359389D01*
G37*
G36*
X34003097Y-172254069D02*
G01*
X34106032Y-172264207D01*
X34286658Y-172319000D01*
X34304149Y-172324306D01*
X34369784Y-172359389D01*
X34486729Y-172421897D01*
X34646765Y-172553235D01*
X34778103Y-172713271D01*
X34822581Y-172796484D01*
X34875694Y-172895851D01*
X34875695Y-172895854D01*
X34935793Y-173093968D01*
X34956085Y-173300000D01*
X34935793Y-173506032D01*
X34916396Y-173569973D01*
X34875694Y-173704149D01*
X34869164Y-173716365D01*
X34778103Y-173886729D01*
X34646765Y-174046765D01*
X34486729Y-174178103D01*
X34400975Y-174223939D01*
X34304149Y-174275694D01*
X34304146Y-174275695D01*
X34106032Y-174335793D01*
X34003097Y-174345931D01*
X33951631Y-174351000D01*
X31648369Y-174351000D01*
X31596903Y-174345931D01*
X31493968Y-174335793D01*
X31295854Y-174275695D01*
X31295851Y-174275694D01*
X31199025Y-174223939D01*
X31113271Y-174178103D01*
X30953235Y-174046765D01*
X30821897Y-173886729D01*
X30730836Y-173716365D01*
X30724306Y-173704149D01*
X30683604Y-173569973D01*
X30664207Y-173506032D01*
X30643915Y-173300000D01*
X30664207Y-173093968D01*
X30724305Y-172895854D01*
X30724306Y-172895851D01*
X30777419Y-172796484D01*
X30821897Y-172713271D01*
X30953235Y-172553235D01*
X31113271Y-172421897D01*
X31230216Y-172359389D01*
X31295851Y-172324306D01*
X31313342Y-172319000D01*
X31493968Y-172264207D01*
X31596903Y-172254069D01*
X31648369Y-172249000D01*
X33951631Y-172249000D01*
X34003097Y-172254069D01*
G37*
G36*
X69846564Y-171889389D02*
G01*
X70037833Y-171968615D01*
X70037835Y-171968616D01*
X70209973Y-172083635D01*
X70356365Y-172230027D01*
X70442803Y-172359390D01*
X70471385Y-172402167D01*
X70550611Y-172593436D01*
X70591000Y-172796484D01*
X70591000Y-173003516D01*
X70550611Y-173206564D01*
X70471385Y-173397833D01*
X70471384Y-173397835D01*
X70356365Y-173569973D01*
X70209973Y-173716365D01*
X70037835Y-173831384D01*
X70037834Y-173831385D01*
X70037833Y-173831385D01*
X69846564Y-173910611D01*
X69643516Y-173951000D01*
X69436484Y-173951000D01*
X69233436Y-173910611D01*
X69042167Y-173831385D01*
X69042166Y-173831385D01*
X69042165Y-173831384D01*
X68870027Y-173716365D01*
X68723635Y-173569973D01*
X68608616Y-173397835D01*
X68608615Y-173397833D01*
X68529389Y-173206564D01*
X68489000Y-173003516D01*
X68489000Y-172796484D01*
X68529389Y-172593436D01*
X68608615Y-172402167D01*
X68637198Y-172359390D01*
X68723635Y-172230027D01*
X68870027Y-172083635D01*
X69042165Y-171968616D01*
X69042167Y-171968615D01*
X69233436Y-171889389D01*
X69436484Y-171849000D01*
X69643516Y-171849000D01*
X69846564Y-171889389D01*
G37*
G36*
X65406564Y-168989389D02*
G01*
X65597833Y-169068615D01*
X65597835Y-169068616D01*
X65769973Y-169183635D01*
X65916365Y-169330027D01*
X65992195Y-169443514D01*
X66031385Y-169502167D01*
X66110611Y-169693436D01*
X66151000Y-169896484D01*
X66151000Y-170103516D01*
X66110611Y-170306564D01*
X66038357Y-170481000D01*
X66031384Y-170497835D01*
X65916365Y-170669973D01*
X65769973Y-170816365D01*
X65597835Y-170931384D01*
X65597834Y-170931385D01*
X65597833Y-170931385D01*
X65406564Y-171010611D01*
X65203516Y-171051000D01*
X64996484Y-171051000D01*
X64793436Y-171010611D01*
X64602167Y-170931385D01*
X64602166Y-170931385D01*
X64602165Y-170931384D01*
X64430027Y-170816365D01*
X64283635Y-170669973D01*
X64168616Y-170497835D01*
X64161643Y-170481000D01*
X64089389Y-170306564D01*
X64049000Y-170103516D01*
X64049000Y-169896484D01*
X64089389Y-169693436D01*
X64168615Y-169502167D01*
X64207806Y-169443514D01*
X64283635Y-169330027D01*
X64430027Y-169183635D01*
X64602165Y-169068616D01*
X64602167Y-169068615D01*
X64793436Y-168989389D01*
X64996484Y-168949000D01*
X65203516Y-168949000D01*
X65406564Y-168989389D01*
G37*
G36*
X67946564Y-168989389D02*
G01*
X68137833Y-169068615D01*
X68137835Y-169068616D01*
X68309973Y-169183635D01*
X68456365Y-169330027D01*
X68532195Y-169443514D01*
X68571385Y-169502167D01*
X68650611Y-169693436D01*
X68691000Y-169896484D01*
X68691000Y-170103516D01*
X68650611Y-170306564D01*
X68578357Y-170481000D01*
X68571384Y-170497835D01*
X68456365Y-170669973D01*
X68309973Y-170816365D01*
X68137835Y-170931384D01*
X68137834Y-170931385D01*
X68137833Y-170931385D01*
X67946564Y-171010611D01*
X67743516Y-171051000D01*
X67536484Y-171051000D01*
X67333436Y-171010611D01*
X67142167Y-170931385D01*
X67142166Y-170931385D01*
X67142165Y-170931384D01*
X66970027Y-170816365D01*
X66823635Y-170669973D01*
X66708616Y-170497835D01*
X66701643Y-170481000D01*
X66629389Y-170306564D01*
X66589000Y-170103516D01*
X66589000Y-169896484D01*
X66629389Y-169693436D01*
X66708615Y-169502167D01*
X66747806Y-169443514D01*
X66823635Y-169330027D01*
X66970027Y-169183635D01*
X67142165Y-169068616D01*
X67142167Y-169068615D01*
X67333436Y-168989389D01*
X67536484Y-168949000D01*
X67743516Y-168949000D01*
X67946564Y-168989389D01*
G37*
G36*
X70486564Y-168989389D02*
G01*
X70677833Y-169068615D01*
X70677835Y-169068616D01*
X70849973Y-169183635D01*
X70996365Y-169330027D01*
X71072195Y-169443514D01*
X71111385Y-169502167D01*
X71190611Y-169693436D01*
X71231000Y-169896484D01*
X71231000Y-170103516D01*
X71190611Y-170306564D01*
X71118357Y-170481000D01*
X71111384Y-170497835D01*
X70996365Y-170669973D01*
X70849973Y-170816365D01*
X70677835Y-170931384D01*
X70677834Y-170931385D01*
X70677833Y-170931385D01*
X70486564Y-171010611D01*
X70283516Y-171051000D01*
X70076484Y-171051000D01*
X69873436Y-171010611D01*
X69682167Y-170931385D01*
X69682166Y-170931385D01*
X69682165Y-170931384D01*
X69510027Y-170816365D01*
X69363635Y-170669973D01*
X69248616Y-170497835D01*
X69241643Y-170481000D01*
X69169389Y-170306564D01*
X69129000Y-170103516D01*
X69129000Y-169896484D01*
X69169389Y-169693436D01*
X69248615Y-169502167D01*
X69287806Y-169443514D01*
X69363635Y-169330027D01*
X69510027Y-169183635D01*
X69682165Y-169068616D01*
X69682167Y-169068615D01*
X69873436Y-168989389D01*
X70076484Y-168949000D01*
X70283516Y-168949000D01*
X70486564Y-168989389D01*
G37*
G36*
X73026564Y-168989389D02*
G01*
X73217833Y-169068615D01*
X73217835Y-169068616D01*
X73389973Y-169183635D01*
X73536365Y-169330027D01*
X73612195Y-169443514D01*
X73651385Y-169502167D01*
X73730611Y-169693436D01*
X73771000Y-169896484D01*
X73771000Y-170103516D01*
X73730611Y-170306564D01*
X73658357Y-170481000D01*
X73651384Y-170497835D01*
X73536365Y-170669973D01*
X73389973Y-170816365D01*
X73217835Y-170931384D01*
X73217834Y-170931385D01*
X73217833Y-170931385D01*
X73026564Y-171010611D01*
X72823516Y-171051000D01*
X72616484Y-171051000D01*
X72413436Y-171010611D01*
X72222167Y-170931385D01*
X72222166Y-170931385D01*
X72222165Y-170931384D01*
X72050027Y-170816365D01*
X71903635Y-170669973D01*
X71788616Y-170497835D01*
X71781643Y-170481000D01*
X71709389Y-170306564D01*
X71669000Y-170103516D01*
X71669000Y-169896484D01*
X71709389Y-169693436D01*
X71788615Y-169502167D01*
X71827806Y-169443514D01*
X71903635Y-169330027D01*
X72050027Y-169183635D01*
X72222165Y-169068616D01*
X72222167Y-169068615D01*
X72413436Y-168989389D01*
X72616484Y-168949000D01*
X72823516Y-168949000D01*
X73026564Y-168989389D01*
G37*
G36*
X59742564Y-168419389D02*
G01*
X59909693Y-168488616D01*
X59933835Y-168498616D01*
X60105973Y-168613635D01*
X60252365Y-168760027D01*
X60360704Y-168922167D01*
X60367385Y-168932167D01*
X60446611Y-169123436D01*
X60487000Y-169326484D01*
X60487000Y-169533516D01*
X60446611Y-169736564D01*
X60372355Y-169915835D01*
X60367384Y-169927835D01*
X60252365Y-170099973D01*
X60105973Y-170246365D01*
X59933835Y-170361384D01*
X59933834Y-170361385D01*
X59933833Y-170361385D01*
X59742564Y-170440611D01*
X59539516Y-170481000D01*
X59332484Y-170481000D01*
X59129436Y-170440611D01*
X58938167Y-170361385D01*
X58938166Y-170361385D01*
X58938165Y-170361384D01*
X58766027Y-170246365D01*
X58619635Y-170099973D01*
X58504616Y-169927835D01*
X58499645Y-169915835D01*
X58425389Y-169736564D01*
X58385000Y-169533516D01*
X58385000Y-169326484D01*
X58425389Y-169123436D01*
X58504615Y-168932167D01*
X58511297Y-168922167D01*
X58619635Y-168760027D01*
X58766027Y-168613635D01*
X58938165Y-168498616D01*
X58962307Y-168488616D01*
X59129436Y-168419389D01*
X59332484Y-168379000D01*
X59539516Y-168379000D01*
X59742564Y-168419389D01*
G37*
G36*
X41476564Y-168409389D02*
G01*
X41663007Y-168486616D01*
X41667835Y-168488616D01*
X41839973Y-168603635D01*
X41986365Y-168750027D01*
X42100048Y-168920165D01*
X42101385Y-168922167D01*
X42180611Y-169113436D01*
X42221000Y-169316484D01*
X42221000Y-169523516D01*
X42180611Y-169726564D01*
X42101385Y-169917833D01*
X42101384Y-169917835D01*
X41986365Y-170089973D01*
X41839973Y-170236365D01*
X41667835Y-170351384D01*
X41667834Y-170351385D01*
X41667833Y-170351385D01*
X41476564Y-170430611D01*
X41273516Y-170471000D01*
X41066484Y-170471000D01*
X40863436Y-170430611D01*
X40672167Y-170351385D01*
X40672166Y-170351385D01*
X40672165Y-170351384D01*
X40500027Y-170236365D01*
X40353635Y-170089973D01*
X40238616Y-169917835D01*
X40238615Y-169917833D01*
X40159389Y-169726564D01*
X40119000Y-169523516D01*
X40119000Y-169316484D01*
X40159389Y-169113436D01*
X40238615Y-168922167D01*
X40239953Y-168920165D01*
X40353635Y-168750027D01*
X40500027Y-168603635D01*
X40672165Y-168488616D01*
X40676993Y-168486616D01*
X40863436Y-168409389D01*
X41066484Y-168369000D01*
X41273516Y-168369000D01*
X41476564Y-168409389D01*
G37*
G36*
X36374564Y-168407389D02*
G01*
X36565833Y-168486615D01*
X36565835Y-168486616D01*
X36737973Y-168601635D01*
X36884365Y-168748027D01*
X36999385Y-168920167D01*
X37078611Y-169111436D01*
X37119000Y-169314484D01*
X37119000Y-169521516D01*
X37078611Y-169724564D01*
X37007399Y-169896486D01*
X36999384Y-169915835D01*
X36884365Y-170087973D01*
X36737973Y-170234365D01*
X36565835Y-170349384D01*
X36565834Y-170349385D01*
X36565833Y-170349385D01*
X36374564Y-170428611D01*
X36171516Y-170469000D01*
X35964484Y-170469000D01*
X35761436Y-170428611D01*
X35570167Y-170349385D01*
X35570166Y-170349385D01*
X35570165Y-170349384D01*
X35398027Y-170234365D01*
X35251635Y-170087973D01*
X35136616Y-169915835D01*
X35128601Y-169896486D01*
X35057389Y-169724564D01*
X35017000Y-169521516D01*
X35017000Y-169314484D01*
X35057389Y-169111436D01*
X35136615Y-168920167D01*
X35251635Y-168748027D01*
X35398027Y-168601635D01*
X35570165Y-168486616D01*
X35570167Y-168486615D01*
X35761436Y-168407389D01*
X35964484Y-168367000D01*
X36171516Y-168367000D01*
X36374564Y-168407389D01*
G37*
G36*
X57202564Y-168407389D02*
G01*
X57393833Y-168486615D01*
X57393835Y-168486616D01*
X57565973Y-168601635D01*
X57712365Y-168748027D01*
X57827385Y-168920167D01*
X57906611Y-169111436D01*
X57947000Y-169314484D01*
X57947000Y-169521516D01*
X57906611Y-169724564D01*
X57835399Y-169896486D01*
X57827384Y-169915835D01*
X57712365Y-170087973D01*
X57565973Y-170234365D01*
X57393835Y-170349384D01*
X57393834Y-170349385D01*
X57393833Y-170349385D01*
X57202564Y-170428611D01*
X56999516Y-170469000D01*
X56792484Y-170469000D01*
X56589436Y-170428611D01*
X56398167Y-170349385D01*
X56398166Y-170349385D01*
X56398165Y-170349384D01*
X56226027Y-170234365D01*
X56079635Y-170087973D01*
X55964616Y-169915835D01*
X55956601Y-169896486D01*
X55885389Y-169724564D01*
X55845000Y-169521516D01*
X55845000Y-169314484D01*
X55885389Y-169111436D01*
X55964615Y-168920167D01*
X56079635Y-168748027D01*
X56226027Y-168601635D01*
X56398165Y-168486616D01*
X56398167Y-168486615D01*
X56589436Y-168407389D01*
X56792484Y-168367000D01*
X56999516Y-168367000D01*
X57202564Y-168407389D01*
G37*
G36*
X62282564Y-168407389D02*
G01*
X62473833Y-168486615D01*
X62473835Y-168486616D01*
X62645973Y-168601635D01*
X62792365Y-168748027D01*
X62907385Y-168920167D01*
X62986611Y-169111436D01*
X63027000Y-169314484D01*
X63027000Y-169521516D01*
X62986611Y-169724564D01*
X62915399Y-169896486D01*
X62907384Y-169915835D01*
X62792365Y-170087973D01*
X62645973Y-170234365D01*
X62473835Y-170349384D01*
X62473834Y-170349385D01*
X62473833Y-170349385D01*
X62282564Y-170428611D01*
X62079516Y-170469000D01*
X61872484Y-170469000D01*
X61669436Y-170428611D01*
X61478167Y-170349385D01*
X61478166Y-170349385D01*
X61478165Y-170349384D01*
X61306027Y-170234365D01*
X61159635Y-170087973D01*
X61044616Y-169915835D01*
X61036601Y-169896486D01*
X60965389Y-169724564D01*
X60925000Y-169521516D01*
X60925000Y-169314484D01*
X60965389Y-169111436D01*
X61044615Y-168920167D01*
X61159635Y-168748027D01*
X61306027Y-168601635D01*
X61478165Y-168486616D01*
X61478167Y-168486615D01*
X61669436Y-168407389D01*
X61872484Y-168367000D01*
X62079516Y-168367000D01*
X62282564Y-168407389D01*
G37*
G36*
X54662564Y-168407389D02*
G01*
X54853833Y-168486615D01*
X54853835Y-168486616D01*
X55025973Y-168601635D01*
X55172365Y-168748027D01*
X55287385Y-168920167D01*
X55366611Y-169111436D01*
X55407000Y-169314484D01*
X55407000Y-169521516D01*
X55366611Y-169724564D01*
X55295399Y-169896486D01*
X55287384Y-169915835D01*
X55172365Y-170087973D01*
X55025973Y-170234365D01*
X54853835Y-170349384D01*
X54853834Y-170349385D01*
X54853833Y-170349385D01*
X54662564Y-170428611D01*
X54459516Y-170469000D01*
X54252484Y-170469000D01*
X54049436Y-170428611D01*
X53858167Y-170349385D01*
X53858166Y-170349385D01*
X53858165Y-170349384D01*
X53686027Y-170234365D01*
X53539635Y-170087973D01*
X53424616Y-169915835D01*
X53416601Y-169896486D01*
X53345389Y-169724564D01*
X53305000Y-169521516D01*
X53305000Y-169314484D01*
X53345389Y-169111436D01*
X53424615Y-168920167D01*
X53539635Y-168748027D01*
X53686027Y-168601635D01*
X53858165Y-168486616D01*
X53858167Y-168486615D01*
X54049436Y-168407389D01*
X54252484Y-168367000D01*
X54459516Y-168367000D01*
X54662564Y-168407389D01*
G37*
G36*
X38936564Y-168329389D02*
G01*
X39127833Y-168408615D01*
X39127835Y-168408616D01*
X39143959Y-168419390D01*
X39299973Y-168523635D01*
X39446365Y-168670027D01*
X39561385Y-168842167D01*
X39640611Y-169033436D01*
X39681000Y-169236484D01*
X39681000Y-169443516D01*
X39640611Y-169646564D01*
X39603331Y-169736565D01*
X39561384Y-169837835D01*
X39446365Y-170009973D01*
X39299973Y-170156365D01*
X39127835Y-170271384D01*
X39127834Y-170271385D01*
X39127833Y-170271385D01*
X38936564Y-170350611D01*
X38733516Y-170391000D01*
X38526484Y-170391000D01*
X38323436Y-170350611D01*
X38132167Y-170271385D01*
X38132166Y-170271385D01*
X38132165Y-170271384D01*
X37960027Y-170156365D01*
X37813635Y-170009973D01*
X37698616Y-169837835D01*
X37656669Y-169736565D01*
X37619389Y-169646564D01*
X37579000Y-169443516D01*
X37579000Y-169236484D01*
X37619389Y-169033436D01*
X37698615Y-168842167D01*
X37813635Y-168670027D01*
X37960027Y-168523635D01*
X38116041Y-168419390D01*
X38132165Y-168408616D01*
X38132167Y-168408615D01*
X38323436Y-168329389D01*
X38526484Y-168289000D01*
X38733516Y-168289000D01*
X38936564Y-168329389D01*
G37*
M02*
