G04 #@! TF.GenerationSoftware,KiCad,Pcbnew,(5.1.5-0-10_14)*
G04 #@! TF.CreationDate,2021-12-27T21:36:10+00:00*
G04 #@! TF.ProjectId,receiver,72656365-6976-4657-922e-6b696361645f,rev?*
G04 #@! TF.SameCoordinates,Original*
G04 #@! TF.FileFunction,Legend,Bot*
G04 #@! TF.FilePolarity,Positive*
%FSLAX46Y46*%
G04 Gerber Fmt 4.6, Leading zero omitted, Abs format (unit mm)*
G04 Created by KiCad (PCBNEW (5.1.5-0-10_14)) date 2021-12-27 21:36:10*
%MOMM*%
%LPD*%
G04 APERTURE LIST*
%ADD10C,0.150000*%
%ADD11C,0.120000*%
G04 APERTURE END LIST*
D10*
X72819047Y-176266666D02*
X72342857Y-176266666D01*
X72914285Y-176552380D02*
X72580952Y-175552380D01*
X72247619Y-176552380D01*
X71628571Y-175552380D02*
X71628571Y-176266666D01*
X71676190Y-176409523D01*
X71771428Y-176504761D01*
X71914285Y-176552380D01*
X72009523Y-176552380D01*
X70580952Y-176552380D02*
X70914285Y-176076190D01*
X71152380Y-176552380D02*
X71152380Y-175552380D01*
X70771428Y-175552380D01*
X70676190Y-175600000D01*
X70628571Y-175647619D01*
X70580952Y-175742857D01*
X70580952Y-175885714D01*
X70628571Y-175980952D01*
X70676190Y-176028571D01*
X70771428Y-176076190D01*
X71152380Y-176076190D01*
X72966666Y-178052380D02*
X72966666Y-177052380D01*
X72728571Y-177052380D01*
X72585714Y-177100000D01*
X72490476Y-177195238D01*
X72442857Y-177290476D01*
X72395238Y-177480952D01*
X72395238Y-177623809D01*
X72442857Y-177814285D01*
X72490476Y-177909523D01*
X72585714Y-178004761D01*
X72728571Y-178052380D01*
X72966666Y-178052380D01*
X71585714Y-178004761D02*
X71680952Y-178052380D01*
X71871428Y-178052380D01*
X71966666Y-178004761D01*
X72014285Y-177909523D01*
X72014285Y-177528571D01*
X71966666Y-177433333D01*
X71871428Y-177385714D01*
X71680952Y-177385714D01*
X71585714Y-177433333D01*
X71538095Y-177528571D01*
X71538095Y-177623809D01*
X72014285Y-177719047D01*
X70680952Y-178004761D02*
X70776190Y-178052380D01*
X70966666Y-178052380D01*
X71061904Y-178004761D01*
X71109523Y-177957142D01*
X71157142Y-177861904D01*
X71157142Y-177576190D01*
X71109523Y-177480952D01*
X71061904Y-177433333D01*
X70966666Y-177385714D01*
X70776190Y-177385714D01*
X70680952Y-177433333D01*
X69538095Y-177147619D02*
X69490476Y-177100000D01*
X69395238Y-177052380D01*
X69157142Y-177052380D01*
X69061904Y-177100000D01*
X69014285Y-177147619D01*
X68966666Y-177242857D01*
X68966666Y-177338095D01*
X69014285Y-177480952D01*
X69585714Y-178052380D01*
X68966666Y-178052380D01*
X68347619Y-177052380D02*
X68252380Y-177052380D01*
X68157142Y-177100000D01*
X68109523Y-177147619D01*
X68061904Y-177242857D01*
X68014285Y-177433333D01*
X68014285Y-177671428D01*
X68061904Y-177861904D01*
X68109523Y-177957142D01*
X68157142Y-178004761D01*
X68252380Y-178052380D01*
X68347619Y-178052380D01*
X68442857Y-178004761D01*
X68490476Y-177957142D01*
X68538095Y-177861904D01*
X68585714Y-177671428D01*
X68585714Y-177433333D01*
X68538095Y-177242857D01*
X68490476Y-177147619D01*
X68442857Y-177100000D01*
X68347619Y-177052380D01*
X67633333Y-177147619D02*
X67585714Y-177100000D01*
X67490476Y-177052380D01*
X67252380Y-177052380D01*
X67157142Y-177100000D01*
X67109523Y-177147619D01*
X67061904Y-177242857D01*
X67061904Y-177338095D01*
X67109523Y-177480952D01*
X67680952Y-178052380D01*
X67061904Y-178052380D01*
X66109523Y-178052380D02*
X66680952Y-178052380D01*
X66395238Y-178052380D02*
X66395238Y-177052380D01*
X66490476Y-177195238D01*
X66585714Y-177290476D01*
X66680952Y-177338095D01*
X62823809Y-178052380D02*
X63157142Y-177576190D01*
X63395238Y-178052380D02*
X63395238Y-177052380D01*
X63014285Y-177052380D01*
X62919047Y-177100000D01*
X62871428Y-177147619D01*
X62823809Y-177242857D01*
X62823809Y-177385714D01*
X62871428Y-177480952D01*
X62919047Y-177528571D01*
X63014285Y-177576190D01*
X63395238Y-177576190D01*
X62014285Y-178004761D02*
X62109523Y-178052380D01*
X62300000Y-178052380D01*
X62395238Y-178004761D01*
X62442857Y-177909523D01*
X62442857Y-177528571D01*
X62395238Y-177433333D01*
X62300000Y-177385714D01*
X62109523Y-177385714D01*
X62014285Y-177433333D01*
X61966666Y-177528571D01*
X61966666Y-177623809D01*
X62442857Y-177719047D01*
X61633333Y-177385714D02*
X61395238Y-178052380D01*
X61157142Y-177385714D01*
X60061904Y-177766666D02*
X59585714Y-177766666D01*
X60157142Y-178052380D02*
X59823809Y-177052380D01*
X59490476Y-178052380D01*
D11*
X39124000Y-183734000D02*
X40124000Y-183734000D01*
X36950000Y-183700000D02*
X37950000Y-183700000D01*
X40150000Y-180750000D02*
X40150000Y-179750000D01*
D10*
X41666666Y-184757142D02*
X41714285Y-184804761D01*
X41857142Y-184852380D01*
X41952380Y-184852380D01*
X42095238Y-184804761D01*
X42190476Y-184709523D01*
X42238095Y-184614285D01*
X42285714Y-184423809D01*
X42285714Y-184280952D01*
X42238095Y-184090476D01*
X42190476Y-183995238D01*
X42095238Y-183900000D01*
X41952380Y-183852380D01*
X41857142Y-183852380D01*
X41714285Y-183900000D01*
X41666666Y-183947619D01*
X40761904Y-183852380D02*
X41238095Y-183852380D01*
X41285714Y-184328571D01*
X41238095Y-184280952D01*
X41142857Y-184233333D01*
X40904761Y-184233333D01*
X40809523Y-184280952D01*
X40761904Y-184328571D01*
X40714285Y-184423809D01*
X40714285Y-184661904D01*
X40761904Y-184757142D01*
X40809523Y-184804761D01*
X40904761Y-184852380D01*
X41142857Y-184852380D01*
X41238095Y-184804761D01*
X41285714Y-184757142D01*
X37966666Y-182157142D02*
X38014285Y-182204761D01*
X38157142Y-182252380D01*
X38252380Y-182252380D01*
X38395238Y-182204761D01*
X38490476Y-182109523D01*
X38538095Y-182014285D01*
X38585714Y-181823809D01*
X38585714Y-181680952D01*
X38538095Y-181490476D01*
X38490476Y-181395238D01*
X38395238Y-181300000D01*
X38252380Y-181252380D01*
X38157142Y-181252380D01*
X38014285Y-181300000D01*
X37966666Y-181347619D01*
X37633333Y-181252380D02*
X37014285Y-181252380D01*
X37347619Y-181633333D01*
X37204761Y-181633333D01*
X37109523Y-181680952D01*
X37061904Y-181728571D01*
X37014285Y-181823809D01*
X37014285Y-182061904D01*
X37061904Y-182157142D01*
X37109523Y-182204761D01*
X37204761Y-182252380D01*
X37490476Y-182252380D01*
X37585714Y-182204761D01*
X37633333Y-182157142D01*
X41866666Y-178057142D02*
X41914285Y-178104761D01*
X42057142Y-178152380D01*
X42152380Y-178152380D01*
X42295238Y-178104761D01*
X42390476Y-178009523D01*
X42438095Y-177914285D01*
X42485714Y-177723809D01*
X42485714Y-177580952D01*
X42438095Y-177390476D01*
X42390476Y-177295238D01*
X42295238Y-177200000D01*
X42152380Y-177152380D01*
X42057142Y-177152380D01*
X41914285Y-177200000D01*
X41866666Y-177247619D01*
X40914285Y-178152380D02*
X41485714Y-178152380D01*
X41200000Y-178152380D02*
X41200000Y-177152380D01*
X41295238Y-177295238D01*
X41390476Y-177390476D01*
X41485714Y-177438095D01*
M02*
