G04 #@! TF.GenerationSoftware,KiCad,Pcbnew,(5.1.5-0-10_14)*
G04 #@! TF.CreationDate,2021-11-24T22:50:17+00:00*
G04 #@! TF.ProjectId,throwie,7468726f-7769-4652-9e6b-696361645f70,rev?*
G04 #@! TF.SameCoordinates,Original*
G04 #@! TF.FileFunction,Copper,L1,Top*
G04 #@! TF.FilePolarity,Positive*
%FSLAX46Y46*%
G04 Gerber Fmt 4.6, Leading zero omitted, Abs format (unit mm)*
G04 Created by KiCad (PCBNEW (5.1.5-0-10_14)) date 2021-11-24 22:50:17*
%MOMM*%
%LPD*%
G04 APERTURE LIST*
%ADD10C,1.000000*%
%ADD11C,2.000000*%
%ADD12R,1.600000X0.400000*%
%ADD13R,1.300000X1.100000*%
%ADD14C,0.800000*%
%ADD15C,0.400000*%
%ADD16C,0.250000*%
%ADD17C,0.500000*%
%ADD18C,0.750000*%
%ADD19C,1.500000*%
%ADD20C,0.254000*%
G04 APERTURE END LIST*
D10*
X35560000Y-156718000D02*
G75*
G02X34798000Y-157480000I-762000J0D01*
G01*
X34374421Y-153664684D02*
X35560000Y-154940000D01*
X33782000Y-148590000D02*
X33782000Y-152400000D01*
X34374421Y-153664684D02*
G75*
G02X33782000Y-152400000I1053694J1264684D01*
G01*
D11*
X25654000Y-154940000D03*
X28194000Y-157480000D03*
X30734000Y-154940000D03*
D12*
X43976000Y-157734000D03*
X43976000Y-157099000D03*
X43976000Y-156464000D03*
X43976000Y-155829000D03*
X43976000Y-155194000D03*
X43976000Y-154559000D03*
X43976000Y-153924000D03*
X43976000Y-153289000D03*
X43976000Y-152654000D03*
X43976000Y-152019000D03*
X43976000Y-151384000D03*
X43976000Y-150734000D03*
X49276000Y-150749000D03*
X49276000Y-151384000D03*
X49276000Y-152019000D03*
X49276000Y-152654000D03*
X49276000Y-153289000D03*
X49276000Y-153924000D03*
X49276000Y-154559000D03*
X49276000Y-155194000D03*
X49276000Y-155829000D03*
X49276000Y-156464000D03*
X49276000Y-157099000D03*
X49276000Y-157734000D03*
D11*
X49022000Y-161036000D03*
X52324000Y-161036000D03*
X45720000Y-161036000D03*
X42418000Y-161036000D03*
X35814000Y-151130000D03*
X39703087Y-155019087D03*
X35560000Y-154940000D03*
X39861823Y-161083640D03*
X32258000Y-161036000D03*
X35258000Y-161036000D03*
D13*
X52070000Y-155956000D03*
X52070000Y-154456000D03*
D14*
X23622000Y-146558000D03*
X24638000Y-146558000D03*
X25654000Y-146558000D03*
X26670000Y-146558000D03*
X28194000Y-154940000D03*
X22606000Y-146558000D03*
X53340000Y-156996058D03*
X36576000Y-153162000D03*
X38608000Y-153162000D03*
X37592000Y-153162000D03*
X37592000Y-156718000D03*
X38608000Y-156718000D03*
X35814000Y-147574000D03*
X35814000Y-148590000D03*
X24384000Y-151384000D03*
X24384000Y-152400000D03*
X21844000Y-162560000D03*
X53340000Y-155956000D03*
X22860000Y-162560000D03*
X23876000Y-162560000D03*
X41148000Y-147574000D03*
X42164000Y-147574000D03*
X43180000Y-147574000D03*
X44196000Y-147574000D03*
X45212000Y-147574000D03*
X46228000Y-147574000D03*
X47244000Y-147574000D03*
X48260000Y-147574000D03*
X49276000Y-147574000D03*
X50292000Y-147574000D03*
X51308000Y-147574000D03*
X52324000Y-147574000D03*
X53340000Y-147574000D03*
X36576000Y-162560000D03*
X37592000Y-162560000D03*
X38608000Y-162560000D03*
X42164000Y-156464000D03*
X41148000Y-157480000D03*
X51854000Y-151892000D03*
X50800000Y-152908000D03*
X50800000Y-151892000D03*
X33782000Y-148590000D03*
X51049396Y-156977862D03*
X22606000Y-160782000D03*
X46482000Y-151892000D03*
D15*
X49276000Y-155194000D02*
X50476000Y-155194000D01*
X50476000Y-155194000D02*
X50546000Y-155194000D01*
X50546000Y-155194000D02*
X50800000Y-155448000D01*
X50800000Y-155448000D02*
X51308000Y-155956000D01*
X51308000Y-155956000D02*
X52070000Y-155956000D01*
D16*
X38608000Y-151384000D02*
X35814000Y-148590000D01*
X38608000Y-153162000D02*
X38608000Y-151384000D01*
X22606000Y-149606000D02*
X24384000Y-151384000D01*
X22606000Y-146558000D02*
X22606000Y-149606000D01*
X24384000Y-152400000D02*
X24384000Y-151384000D01*
D17*
X52070000Y-155956000D02*
X53340000Y-155956000D01*
D18*
X53340000Y-147574000D02*
X41148000Y-147574000D01*
X38608000Y-150114000D02*
X41148000Y-147574000D01*
X38608000Y-151384000D02*
X38608000Y-150114000D01*
D16*
X23005999Y-146957999D02*
X22606000Y-146558000D01*
X28194000Y-152146000D02*
X23005999Y-146957999D01*
X28194000Y-154940000D02*
X28194000Y-152146000D01*
D15*
X35099640Y-161083640D02*
X35147280Y-161036000D01*
X35147280Y-161036000D02*
X35147280Y-160940720D01*
X35147280Y-160940720D02*
X35306000Y-160782000D01*
X35306000Y-160782000D02*
X35306000Y-161036000D01*
X40386000Y-160782000D02*
X40132000Y-160782000D01*
X40132000Y-160782000D02*
X39878000Y-161036000D01*
D19*
X35258000Y-161036000D02*
X39878000Y-161036000D01*
D10*
X39861823Y-161083640D02*
X39861823Y-159782177D01*
X39861823Y-159782177D02*
X39878000Y-159766000D01*
X39878000Y-158750000D02*
X42164000Y-156464000D01*
X39878000Y-159766000D02*
X39878000Y-158750000D01*
D15*
X49276000Y-154559000D02*
X51943000Y-154559000D01*
X51943000Y-154559000D02*
X52070000Y-154432000D01*
D18*
X51854000Y-151892000D02*
X50800000Y-151892000D01*
X50800000Y-151892000D02*
X50800000Y-152908000D01*
X50800000Y-152908000D02*
X52070000Y-154178000D01*
X52070000Y-154178000D02*
X52070000Y-154432000D01*
X51816000Y-151892000D02*
X50800000Y-152908000D01*
X51854000Y-151892000D02*
X51816000Y-151892000D01*
X51854000Y-153962000D02*
X52070000Y-154178000D01*
X50800000Y-151892000D02*
X51816000Y-152908000D01*
X51816000Y-152908000D02*
X51816000Y-153416000D01*
X51816000Y-153416000D02*
X51854000Y-153962000D01*
X51854000Y-151892000D02*
X51816000Y-153416000D01*
X52253999Y-152291999D02*
X52253999Y-153994001D01*
X51854000Y-151892000D02*
X52253999Y-152291999D01*
X52253999Y-153994001D02*
X52070000Y-154178000D01*
D10*
X28194000Y-157480000D02*
X34544000Y-157480000D01*
X35560000Y-156464000D02*
X35560000Y-154686000D01*
D16*
X33782000Y-153162000D02*
X33782000Y-148590000D01*
X35560000Y-154940000D02*
X33782000Y-153162000D01*
X34544000Y-157480000D02*
X35560000Y-157480000D01*
X35560000Y-157480000D02*
X35560000Y-156464000D01*
D15*
X50928258Y-157099000D02*
X51049396Y-156977862D01*
X49276000Y-157099000D02*
X50928258Y-157099000D01*
X29718000Y-160782000D02*
X22606000Y-160782000D01*
X31242000Y-159258000D02*
X29718000Y-160782000D01*
X37846000Y-159258000D02*
X31242000Y-159258000D01*
X42545000Y-154559000D02*
X37846000Y-159258000D01*
X43976000Y-154559000D02*
X42545000Y-154559000D01*
X47498000Y-158242000D02*
X47498000Y-154432000D01*
X47498000Y-154432000D02*
X48006000Y-153924000D01*
X48006000Y-153924000D02*
X49276000Y-153924000D01*
X47498000Y-158242000D02*
X48260000Y-159004000D01*
X50292000Y-159004000D02*
X52070000Y-160782000D01*
X48260000Y-159004000D02*
X50292000Y-159004000D01*
X52070000Y-160782000D02*
X52324000Y-161036000D01*
X46881999Y-153815999D02*
X47498000Y-154432000D01*
X46881999Y-152291999D02*
X46881999Y-153815999D01*
X46482000Y-151892000D02*
X46881999Y-152291999D01*
X45176000Y-156464000D02*
X45466000Y-156754000D01*
X45466000Y-158496000D02*
X45212000Y-158750000D01*
X45466000Y-156754000D02*
X45466000Y-158496000D01*
X43976000Y-156464000D02*
X45176000Y-156464000D01*
X45212000Y-158750000D02*
X43180000Y-160782000D01*
X43180000Y-160782000D02*
X42926000Y-161036000D01*
X42926000Y-161036000D02*
X42418000Y-161036000D01*
X46066010Y-156505468D02*
X46066010Y-159165990D01*
X45389542Y-155829000D02*
X46066010Y-156505468D01*
X43976000Y-155829000D02*
X45389542Y-155829000D01*
X46066010Y-159165990D02*
X45720000Y-159512000D01*
X45720000Y-159512000D02*
X45720000Y-161036000D01*
X46666019Y-156256935D02*
X46666020Y-158680020D01*
X45466000Y-155056916D02*
X46666019Y-156256935D01*
X46666020Y-158680020D02*
X49022000Y-161036000D01*
X45466000Y-150876000D02*
X45466000Y-155056916D01*
X45720000Y-150622000D02*
X45466000Y-150876000D01*
X49276000Y-153289000D02*
X48076000Y-153289000D01*
X47752000Y-150876000D02*
X47498000Y-150622000D01*
X47752000Y-152965000D02*
X47752000Y-150876000D01*
X48076000Y-153289000D02*
X47752000Y-152965000D01*
X47498000Y-150622000D02*
X45720000Y-150622000D01*
D20*
G36*
X37211000Y-147066000D02*
G01*
X37213440Y-147090776D01*
X37220667Y-147114601D01*
X37232403Y-147136557D01*
X37248197Y-147155803D01*
X37267443Y-147171597D01*
X37289399Y-147183333D01*
X37313224Y-147190560D01*
X37338000Y-147193000D01*
X53950000Y-147193000D01*
X53950001Y-162916000D01*
X20980000Y-162916000D01*
X20980000Y-160705078D01*
X21825000Y-160705078D01*
X21825000Y-160858922D01*
X21855013Y-161009809D01*
X21913887Y-161151942D01*
X21999358Y-161279859D01*
X22108141Y-161388642D01*
X22236058Y-161474113D01*
X22378191Y-161532987D01*
X22529078Y-161563000D01*
X22682922Y-161563000D01*
X22833809Y-161532987D01*
X22975942Y-161474113D01*
X23103859Y-161388642D01*
X23129501Y-161363000D01*
X29689460Y-161363000D01*
X29718000Y-161365811D01*
X29746540Y-161363000D01*
X29831896Y-161354593D01*
X29858845Y-161346418D01*
X29866403Y-161360557D01*
X29882197Y-161379803D01*
X29901443Y-161395597D01*
X29923399Y-161407333D01*
X29947224Y-161414560D01*
X29972000Y-161417000D01*
X30659946Y-161417000D01*
X30660039Y-161417675D01*
X30765205Y-161722088D01*
X30858186Y-161896044D01*
X31122587Y-161991808D01*
X31697395Y-161417000D01*
X32056605Y-161417000D01*
X31302192Y-162171413D01*
X31397956Y-162435814D01*
X31687571Y-162576704D01*
X31999108Y-162658384D01*
X32320595Y-162677718D01*
X32639675Y-162633961D01*
X32944088Y-162528795D01*
X33118044Y-162435814D01*
X33213808Y-162171413D01*
X32459395Y-161417000D01*
X32818605Y-161417000D01*
X33393413Y-161991808D01*
X33577868Y-161925000D01*
X34193971Y-161925000D01*
X34377664Y-162108693D01*
X34603851Y-162259826D01*
X34855177Y-162363929D01*
X35121983Y-162417000D01*
X35394017Y-162417000D01*
X35660823Y-162363929D01*
X35912149Y-162259826D01*
X36051073Y-162167000D01*
X38997451Y-162167000D01*
X39207674Y-162307466D01*
X39459000Y-162411569D01*
X39725806Y-162464640D01*
X39997840Y-162464640D01*
X40264646Y-162411569D01*
X40515972Y-162307466D01*
X40742159Y-162156333D01*
X40934516Y-161963976D01*
X41085649Y-161737789D01*
X41149778Y-161582968D01*
X41194174Y-161690149D01*
X41345307Y-161916336D01*
X41537664Y-162108693D01*
X41763851Y-162259826D01*
X42015177Y-162363929D01*
X42281983Y-162417000D01*
X42554017Y-162417000D01*
X42820823Y-162363929D01*
X43072149Y-162259826D01*
X43298336Y-162108693D01*
X43490693Y-161916336D01*
X43641826Y-161690149D01*
X43745929Y-161438823D01*
X43750270Y-161417000D01*
X44387730Y-161417000D01*
X44392071Y-161438823D01*
X44496174Y-161690149D01*
X44647307Y-161916336D01*
X44839664Y-162108693D01*
X45065851Y-162259826D01*
X45317177Y-162363929D01*
X45583983Y-162417000D01*
X45856017Y-162417000D01*
X46122823Y-162363929D01*
X46374149Y-162259826D01*
X46600336Y-162108693D01*
X46792693Y-161916336D01*
X46943826Y-161690149D01*
X47047929Y-161438823D01*
X47052270Y-161417000D01*
X47689730Y-161417000D01*
X47694071Y-161438823D01*
X47798174Y-161690149D01*
X47949307Y-161916336D01*
X48141664Y-162108693D01*
X48367851Y-162259826D01*
X48619177Y-162363929D01*
X48885983Y-162417000D01*
X49158017Y-162417000D01*
X49424823Y-162363929D01*
X49676149Y-162259826D01*
X49902336Y-162108693D01*
X50094693Y-161916336D01*
X50245826Y-161690149D01*
X50349929Y-161438823D01*
X50354270Y-161417000D01*
X50991730Y-161417000D01*
X50996071Y-161438823D01*
X51100174Y-161690149D01*
X51251307Y-161916336D01*
X51443664Y-162108693D01*
X51669851Y-162259826D01*
X51921177Y-162363929D01*
X52187983Y-162417000D01*
X52460017Y-162417000D01*
X52726823Y-162363929D01*
X52978149Y-162259826D01*
X53204336Y-162108693D01*
X53396693Y-161916336D01*
X53547826Y-161690149D01*
X53651929Y-161438823D01*
X53705000Y-161172017D01*
X53705000Y-160899983D01*
X53651929Y-160633177D01*
X53547826Y-160381851D01*
X53396693Y-160155664D01*
X53204336Y-159963307D01*
X52978149Y-159812174D01*
X52726823Y-159708071D01*
X52460017Y-159655000D01*
X52187983Y-159655000D01*
X51921177Y-159708071D01*
X51848028Y-159738370D01*
X50723017Y-158613360D01*
X50704817Y-158591183D01*
X50616348Y-158518579D01*
X50515415Y-158464629D01*
X50419000Y-158435382D01*
X50419000Y-158100528D01*
X50429701Y-158080508D01*
X50451487Y-158008689D01*
X50458843Y-157934000D01*
X50458843Y-157680000D01*
X50703656Y-157680000D01*
X50821587Y-157728849D01*
X50972474Y-157758862D01*
X51126318Y-157758862D01*
X51277205Y-157728849D01*
X51419338Y-157669975D01*
X51547255Y-157584504D01*
X51656038Y-157475721D01*
X51741509Y-157347804D01*
X51800383Y-157205671D01*
X51830396Y-157054784D01*
X51830396Y-156900940D01*
X51800383Y-156750053D01*
X51741509Y-156607920D01*
X51656038Y-156480003D01*
X51547255Y-156371220D01*
X51419338Y-156285749D01*
X51277205Y-156226875D01*
X51126318Y-156196862D01*
X50972474Y-156196862D01*
X50821587Y-156226875D01*
X50679454Y-156285749D01*
X50551537Y-156371220D01*
X50458843Y-156463914D01*
X50458843Y-156264000D01*
X50451487Y-156189311D01*
X50438500Y-156146500D01*
X50451487Y-156103689D01*
X50458843Y-156029000D01*
X50458843Y-155629000D01*
X50451487Y-155554311D01*
X50429701Y-155482492D01*
X50419000Y-155462472D01*
X50419000Y-155140000D01*
X51062505Y-155140000D01*
X51066299Y-155152508D01*
X51101678Y-155218696D01*
X51149289Y-155276711D01*
X51207304Y-155324322D01*
X51273492Y-155359701D01*
X51345311Y-155381487D01*
X51420000Y-155388843D01*
X52720000Y-155388843D01*
X52794689Y-155381487D01*
X52866508Y-155359701D01*
X52932696Y-155324322D01*
X52990711Y-155276711D01*
X53038322Y-155218696D01*
X53073701Y-155152508D01*
X53095487Y-155080689D01*
X53102843Y-155006000D01*
X53102843Y-153906000D01*
X53095487Y-153831311D01*
X53073701Y-153759492D01*
X53038322Y-153693304D01*
X53009999Y-153658792D01*
X53009999Y-152329127D01*
X53013656Y-152291998D01*
X52999059Y-152143797D01*
X52996596Y-152135678D01*
X52955831Y-152001291D01*
X52885631Y-151869956D01*
X52791158Y-151754840D01*
X52762306Y-151731162D01*
X52531838Y-151500694D01*
X52460642Y-151394141D01*
X52351859Y-151285358D01*
X52223942Y-151199887D01*
X52081809Y-151141013D01*
X51930922Y-151111000D01*
X51777078Y-151111000D01*
X51651393Y-151136000D01*
X51002607Y-151136000D01*
X50876922Y-151111000D01*
X50723078Y-151111000D01*
X50572191Y-151141013D01*
X50458843Y-151187964D01*
X50458843Y-151184000D01*
X50451487Y-151109311D01*
X50438500Y-151066500D01*
X50451487Y-151023689D01*
X50458843Y-150949000D01*
X50458843Y-150549000D01*
X50451487Y-150474311D01*
X50429701Y-150402492D01*
X50394322Y-150336304D01*
X50346711Y-150278289D01*
X50288696Y-150230678D01*
X50222508Y-150195299D01*
X50150689Y-150173513D01*
X50076000Y-150166157D01*
X48476000Y-150166157D01*
X48401311Y-150173513D01*
X48329492Y-150195299D01*
X48263304Y-150230678D01*
X48205289Y-150278289D01*
X48157678Y-150336304D01*
X48122299Y-150402492D01*
X48117144Y-150419487D01*
X47929017Y-150231360D01*
X47910817Y-150209183D01*
X47822348Y-150136579D01*
X47721415Y-150082629D01*
X47611896Y-150049407D01*
X47526540Y-150041000D01*
X47498000Y-150038189D01*
X47469460Y-150041000D01*
X45748536Y-150041000D01*
X45719999Y-150038189D01*
X45691462Y-150041000D01*
X45691460Y-150041000D01*
X45606104Y-150049407D01*
X45496585Y-150082629D01*
X45395652Y-150136579D01*
X45307183Y-150209183D01*
X45288983Y-150231360D01*
X45130434Y-150389909D01*
X45129701Y-150387492D01*
X45094322Y-150321304D01*
X45046711Y-150263289D01*
X44988696Y-150215678D01*
X44922508Y-150180299D01*
X44850689Y-150158513D01*
X44776000Y-150151157D01*
X43176000Y-150151157D01*
X43101311Y-150158513D01*
X43029492Y-150180299D01*
X42963304Y-150215678D01*
X42905289Y-150263289D01*
X42857678Y-150321304D01*
X42822299Y-150387492D01*
X42800513Y-150459311D01*
X42793157Y-150534000D01*
X42793157Y-150934000D01*
X42800513Y-151008689D01*
X42815775Y-151059000D01*
X42800513Y-151109311D01*
X42793157Y-151184000D01*
X42793157Y-151584000D01*
X42800513Y-151658689D01*
X42813500Y-151701500D01*
X42800513Y-151744311D01*
X42793157Y-151819000D01*
X42793157Y-152219000D01*
X42800513Y-152293689D01*
X42813500Y-152336500D01*
X42800513Y-152379311D01*
X42793157Y-152454000D01*
X42793157Y-152854000D01*
X42800513Y-152928689D01*
X42813500Y-152971500D01*
X42800513Y-153014311D01*
X42793157Y-153089000D01*
X42793157Y-153489000D01*
X42800513Y-153563689D01*
X42813500Y-153606500D01*
X42800513Y-153649311D01*
X42793157Y-153724000D01*
X42793157Y-153978000D01*
X42573540Y-153978000D01*
X42545000Y-153975189D01*
X42516460Y-153978000D01*
X42431104Y-153986407D01*
X42321585Y-154019629D01*
X42220652Y-154073579D01*
X42132183Y-154146183D01*
X42113990Y-154168352D01*
X41073372Y-155208970D01*
X41084087Y-155155104D01*
X41084087Y-154883070D01*
X41031016Y-154616264D01*
X40926913Y-154364938D01*
X40775780Y-154138751D01*
X40583423Y-153946394D01*
X40357236Y-153795261D01*
X40105910Y-153691158D01*
X39839104Y-153638087D01*
X39567070Y-153638087D01*
X39300264Y-153691158D01*
X39048938Y-153795261D01*
X38822751Y-153946394D01*
X38630394Y-154138751D01*
X38479261Y-154364938D01*
X38375158Y-154616264D01*
X38322087Y-154883070D01*
X38322087Y-155155104D01*
X38375158Y-155421910D01*
X38479261Y-155673236D01*
X38630394Y-155899423D01*
X38822751Y-156091780D01*
X39048938Y-156242913D01*
X39300264Y-156347016D01*
X39567070Y-156400087D01*
X39839104Y-156400087D01*
X39892970Y-156389372D01*
X37605343Y-158677000D01*
X31270536Y-158677000D01*
X31241999Y-158674189D01*
X31213462Y-158677000D01*
X31213460Y-158677000D01*
X31128104Y-158685407D01*
X31018585Y-158718629D01*
X30917652Y-158772579D01*
X30829183Y-158845183D01*
X30810990Y-158867352D01*
X29477343Y-160201000D01*
X23129501Y-160201000D01*
X23103859Y-160175358D01*
X22975942Y-160089887D01*
X22833809Y-160031013D01*
X22682922Y-160001000D01*
X22529078Y-160001000D01*
X22378191Y-160031013D01*
X22236058Y-160089887D01*
X22108141Y-160175358D01*
X21999358Y-160284141D01*
X21913887Y-160412058D01*
X21855013Y-160554191D01*
X21825000Y-160705078D01*
X20980000Y-160705078D01*
X20980000Y-157343983D01*
X26813000Y-157343983D01*
X26813000Y-157616017D01*
X26866071Y-157882823D01*
X26970174Y-158134149D01*
X27121307Y-158360336D01*
X27313664Y-158552693D01*
X27539851Y-158703826D01*
X27791177Y-158807929D01*
X28057983Y-158861000D01*
X28330017Y-158861000D01*
X28596823Y-158807929D01*
X28848149Y-158703826D01*
X29074336Y-158552693D01*
X29266029Y-158361000D01*
X34587273Y-158361000D01*
X34686989Y-158351179D01*
X34711230Y-158356155D01*
X34746950Y-158356404D01*
X34788845Y-158360952D01*
X34801146Y-158360994D01*
X34806466Y-158360975D01*
X34844714Y-158357087D01*
X34883167Y-158357355D01*
X34895409Y-158356155D01*
X35043311Y-158340610D01*
X35121541Y-158324551D01*
X35199959Y-158309593D01*
X35211736Y-158306038D01*
X35353802Y-158262061D01*
X35427397Y-158231125D01*
X35501450Y-158201205D01*
X35512312Y-158195430D01*
X35643130Y-158124698D01*
X35709342Y-158080037D01*
X35776145Y-158036322D01*
X35785678Y-158028548D01*
X35900266Y-157933751D01*
X35956534Y-157877088D01*
X36013578Y-157821226D01*
X36021420Y-157811748D01*
X36115412Y-157696502D01*
X36159585Y-157630015D01*
X36204711Y-157564111D01*
X36210562Y-157553290D01*
X36280380Y-157421982D01*
X36310815Y-157348141D01*
X36342264Y-157274766D01*
X36345902Y-157263014D01*
X36388886Y-157120646D01*
X36404390Y-157042342D01*
X36420998Y-156964210D01*
X36422283Y-156951976D01*
X36436795Y-156803969D01*
X36436795Y-156632028D01*
X36431398Y-156604769D01*
X36441000Y-156507273D01*
X36441000Y-156012029D01*
X36632693Y-155820336D01*
X36783826Y-155594149D01*
X36887929Y-155342823D01*
X36941000Y-155076017D01*
X36941000Y-154803983D01*
X36887929Y-154537177D01*
X36783826Y-154285851D01*
X36632693Y-154059664D01*
X36440336Y-153867307D01*
X36214149Y-153716174D01*
X35962823Y-153612071D01*
X35696017Y-153559000D01*
X35479060Y-153559000D01*
X34990206Y-153033145D01*
X34980471Y-153024543D01*
X34836791Y-152878843D01*
X34755045Y-152754868D01*
X34698937Y-152617380D01*
X34666316Y-152449560D01*
X34663000Y-152379242D01*
X34663000Y-151893141D01*
X34741307Y-152010336D01*
X34933664Y-152202693D01*
X35159851Y-152353826D01*
X35411177Y-152457929D01*
X35677983Y-152511000D01*
X35950017Y-152511000D01*
X36216823Y-152457929D01*
X36468149Y-152353826D01*
X36694336Y-152202693D01*
X36886693Y-152010336D01*
X37037826Y-151784149D01*
X37141929Y-151532823D01*
X37195000Y-151266017D01*
X37195000Y-150993983D01*
X37141929Y-150727177D01*
X37037826Y-150475851D01*
X36886693Y-150249664D01*
X36694336Y-150057307D01*
X36468149Y-149906174D01*
X36216823Y-149802071D01*
X35950017Y-149749000D01*
X35677983Y-149749000D01*
X35411177Y-149802071D01*
X35159851Y-149906174D01*
X34933664Y-150057307D01*
X34741307Y-150249664D01*
X34663000Y-150366859D01*
X34663000Y-148546727D01*
X34650252Y-148417294D01*
X34599875Y-148251225D01*
X34518068Y-148098175D01*
X34407975Y-147964025D01*
X34273824Y-147853932D01*
X34120774Y-147772125D01*
X33954705Y-147721748D01*
X33782000Y-147704738D01*
X33609294Y-147721748D01*
X33443225Y-147772125D01*
X33290175Y-147853932D01*
X33156025Y-147964025D01*
X33045932Y-148098176D01*
X32964125Y-148251226D01*
X32913748Y-148417295D01*
X32901000Y-148546728D01*
X32901001Y-152443273D01*
X32903036Y-152463935D01*
X32909283Y-152596411D01*
X32917605Y-152653461D01*
X32922229Y-152710924D01*
X32924491Y-152723016D01*
X32985791Y-153038378D01*
X33008603Y-153114899D01*
X33030346Y-153191735D01*
X33034914Y-153203157D01*
X33156302Y-153500607D01*
X33193529Y-153571214D01*
X33229792Y-153642383D01*
X33236491Y-153652699D01*
X33413341Y-153920907D01*
X33463568Y-153982932D01*
X33512973Y-154045714D01*
X33521549Y-154054533D01*
X33738024Y-154274050D01*
X34188107Y-154758200D01*
X34179000Y-154803983D01*
X34179000Y-155076017D01*
X34232071Y-155342823D01*
X34336174Y-155594149D01*
X34487307Y-155820336D01*
X34679000Y-156012029D01*
X34679000Y-156507272D01*
X34688312Y-156601820D01*
X34686827Y-156608805D01*
X34587273Y-156599000D01*
X29266029Y-156599000D01*
X29074336Y-156407307D01*
X28848149Y-156256174D01*
X28596823Y-156152071D01*
X28330017Y-156099000D01*
X28057983Y-156099000D01*
X27791177Y-156152071D01*
X27539851Y-156256174D01*
X27313664Y-156407307D01*
X27121307Y-156599664D01*
X26970174Y-156825851D01*
X26866071Y-157077177D01*
X26813000Y-157343983D01*
X20980000Y-157343983D01*
X20980000Y-154803983D01*
X24273000Y-154803983D01*
X24273000Y-155076017D01*
X24326071Y-155342823D01*
X24430174Y-155594149D01*
X24581307Y-155820336D01*
X24773664Y-156012693D01*
X24999851Y-156163826D01*
X25251177Y-156267929D01*
X25517983Y-156321000D01*
X25790017Y-156321000D01*
X26056823Y-156267929D01*
X26308149Y-156163826D01*
X26440468Y-156075413D01*
X29778192Y-156075413D01*
X29873956Y-156339814D01*
X30163571Y-156480704D01*
X30475108Y-156562384D01*
X30796595Y-156581718D01*
X31115675Y-156537961D01*
X31420088Y-156432795D01*
X31594044Y-156339814D01*
X31689808Y-156075413D01*
X30734000Y-155119605D01*
X29778192Y-156075413D01*
X26440468Y-156075413D01*
X26534336Y-156012693D01*
X26726693Y-155820336D01*
X26877826Y-155594149D01*
X26981929Y-155342823D01*
X27035000Y-155076017D01*
X27035000Y-155002595D01*
X29092282Y-155002595D01*
X29136039Y-155321675D01*
X29241205Y-155626088D01*
X29334186Y-155800044D01*
X29598587Y-155895808D01*
X30554395Y-154940000D01*
X30913605Y-154940000D01*
X31869413Y-155895808D01*
X32133814Y-155800044D01*
X32274704Y-155510429D01*
X32356384Y-155198892D01*
X32375718Y-154877405D01*
X32331961Y-154558325D01*
X32226795Y-154253912D01*
X32133814Y-154079956D01*
X31869413Y-153984192D01*
X30913605Y-154940000D01*
X30554395Y-154940000D01*
X29598587Y-153984192D01*
X29334186Y-154079956D01*
X29193296Y-154369571D01*
X29111616Y-154681108D01*
X29092282Y-155002595D01*
X27035000Y-155002595D01*
X27035000Y-154803983D01*
X26981929Y-154537177D01*
X26877826Y-154285851D01*
X26726693Y-154059664D01*
X26534336Y-153867307D01*
X26440469Y-153804587D01*
X29778192Y-153804587D01*
X30734000Y-154760395D01*
X31689808Y-153804587D01*
X31594044Y-153540186D01*
X31304429Y-153399296D01*
X30992892Y-153317616D01*
X30671405Y-153298282D01*
X30352325Y-153342039D01*
X30047912Y-153447205D01*
X29873956Y-153540186D01*
X29778192Y-153804587D01*
X26440469Y-153804587D01*
X26308149Y-153716174D01*
X26056823Y-153612071D01*
X25790017Y-153559000D01*
X25517983Y-153559000D01*
X25251177Y-153612071D01*
X24999851Y-153716174D01*
X24773664Y-153867307D01*
X24581307Y-154059664D01*
X24430174Y-154285851D01*
X24326071Y-154537177D01*
X24273000Y-154803983D01*
X20980000Y-154803983D01*
X20980000Y-144932000D01*
X37211000Y-144932000D01*
X37211000Y-147066000D01*
G37*
X37211000Y-147066000D02*
X37213440Y-147090776D01*
X37220667Y-147114601D01*
X37232403Y-147136557D01*
X37248197Y-147155803D01*
X37267443Y-147171597D01*
X37289399Y-147183333D01*
X37313224Y-147190560D01*
X37338000Y-147193000D01*
X53950000Y-147193000D01*
X53950001Y-162916000D01*
X20980000Y-162916000D01*
X20980000Y-160705078D01*
X21825000Y-160705078D01*
X21825000Y-160858922D01*
X21855013Y-161009809D01*
X21913887Y-161151942D01*
X21999358Y-161279859D01*
X22108141Y-161388642D01*
X22236058Y-161474113D01*
X22378191Y-161532987D01*
X22529078Y-161563000D01*
X22682922Y-161563000D01*
X22833809Y-161532987D01*
X22975942Y-161474113D01*
X23103859Y-161388642D01*
X23129501Y-161363000D01*
X29689460Y-161363000D01*
X29718000Y-161365811D01*
X29746540Y-161363000D01*
X29831896Y-161354593D01*
X29858845Y-161346418D01*
X29866403Y-161360557D01*
X29882197Y-161379803D01*
X29901443Y-161395597D01*
X29923399Y-161407333D01*
X29947224Y-161414560D01*
X29972000Y-161417000D01*
X30659946Y-161417000D01*
X30660039Y-161417675D01*
X30765205Y-161722088D01*
X30858186Y-161896044D01*
X31122587Y-161991808D01*
X31697395Y-161417000D01*
X32056605Y-161417000D01*
X31302192Y-162171413D01*
X31397956Y-162435814D01*
X31687571Y-162576704D01*
X31999108Y-162658384D01*
X32320595Y-162677718D01*
X32639675Y-162633961D01*
X32944088Y-162528795D01*
X33118044Y-162435814D01*
X33213808Y-162171413D01*
X32459395Y-161417000D01*
X32818605Y-161417000D01*
X33393413Y-161991808D01*
X33577868Y-161925000D01*
X34193971Y-161925000D01*
X34377664Y-162108693D01*
X34603851Y-162259826D01*
X34855177Y-162363929D01*
X35121983Y-162417000D01*
X35394017Y-162417000D01*
X35660823Y-162363929D01*
X35912149Y-162259826D01*
X36051073Y-162167000D01*
X38997451Y-162167000D01*
X39207674Y-162307466D01*
X39459000Y-162411569D01*
X39725806Y-162464640D01*
X39997840Y-162464640D01*
X40264646Y-162411569D01*
X40515972Y-162307466D01*
X40742159Y-162156333D01*
X40934516Y-161963976D01*
X41085649Y-161737789D01*
X41149778Y-161582968D01*
X41194174Y-161690149D01*
X41345307Y-161916336D01*
X41537664Y-162108693D01*
X41763851Y-162259826D01*
X42015177Y-162363929D01*
X42281983Y-162417000D01*
X42554017Y-162417000D01*
X42820823Y-162363929D01*
X43072149Y-162259826D01*
X43298336Y-162108693D01*
X43490693Y-161916336D01*
X43641826Y-161690149D01*
X43745929Y-161438823D01*
X43750270Y-161417000D01*
X44387730Y-161417000D01*
X44392071Y-161438823D01*
X44496174Y-161690149D01*
X44647307Y-161916336D01*
X44839664Y-162108693D01*
X45065851Y-162259826D01*
X45317177Y-162363929D01*
X45583983Y-162417000D01*
X45856017Y-162417000D01*
X46122823Y-162363929D01*
X46374149Y-162259826D01*
X46600336Y-162108693D01*
X46792693Y-161916336D01*
X46943826Y-161690149D01*
X47047929Y-161438823D01*
X47052270Y-161417000D01*
X47689730Y-161417000D01*
X47694071Y-161438823D01*
X47798174Y-161690149D01*
X47949307Y-161916336D01*
X48141664Y-162108693D01*
X48367851Y-162259826D01*
X48619177Y-162363929D01*
X48885983Y-162417000D01*
X49158017Y-162417000D01*
X49424823Y-162363929D01*
X49676149Y-162259826D01*
X49902336Y-162108693D01*
X50094693Y-161916336D01*
X50245826Y-161690149D01*
X50349929Y-161438823D01*
X50354270Y-161417000D01*
X50991730Y-161417000D01*
X50996071Y-161438823D01*
X51100174Y-161690149D01*
X51251307Y-161916336D01*
X51443664Y-162108693D01*
X51669851Y-162259826D01*
X51921177Y-162363929D01*
X52187983Y-162417000D01*
X52460017Y-162417000D01*
X52726823Y-162363929D01*
X52978149Y-162259826D01*
X53204336Y-162108693D01*
X53396693Y-161916336D01*
X53547826Y-161690149D01*
X53651929Y-161438823D01*
X53705000Y-161172017D01*
X53705000Y-160899983D01*
X53651929Y-160633177D01*
X53547826Y-160381851D01*
X53396693Y-160155664D01*
X53204336Y-159963307D01*
X52978149Y-159812174D01*
X52726823Y-159708071D01*
X52460017Y-159655000D01*
X52187983Y-159655000D01*
X51921177Y-159708071D01*
X51848028Y-159738370D01*
X50723017Y-158613360D01*
X50704817Y-158591183D01*
X50616348Y-158518579D01*
X50515415Y-158464629D01*
X50419000Y-158435382D01*
X50419000Y-158100528D01*
X50429701Y-158080508D01*
X50451487Y-158008689D01*
X50458843Y-157934000D01*
X50458843Y-157680000D01*
X50703656Y-157680000D01*
X50821587Y-157728849D01*
X50972474Y-157758862D01*
X51126318Y-157758862D01*
X51277205Y-157728849D01*
X51419338Y-157669975D01*
X51547255Y-157584504D01*
X51656038Y-157475721D01*
X51741509Y-157347804D01*
X51800383Y-157205671D01*
X51830396Y-157054784D01*
X51830396Y-156900940D01*
X51800383Y-156750053D01*
X51741509Y-156607920D01*
X51656038Y-156480003D01*
X51547255Y-156371220D01*
X51419338Y-156285749D01*
X51277205Y-156226875D01*
X51126318Y-156196862D01*
X50972474Y-156196862D01*
X50821587Y-156226875D01*
X50679454Y-156285749D01*
X50551537Y-156371220D01*
X50458843Y-156463914D01*
X50458843Y-156264000D01*
X50451487Y-156189311D01*
X50438500Y-156146500D01*
X50451487Y-156103689D01*
X50458843Y-156029000D01*
X50458843Y-155629000D01*
X50451487Y-155554311D01*
X50429701Y-155482492D01*
X50419000Y-155462472D01*
X50419000Y-155140000D01*
X51062505Y-155140000D01*
X51066299Y-155152508D01*
X51101678Y-155218696D01*
X51149289Y-155276711D01*
X51207304Y-155324322D01*
X51273492Y-155359701D01*
X51345311Y-155381487D01*
X51420000Y-155388843D01*
X52720000Y-155388843D01*
X52794689Y-155381487D01*
X52866508Y-155359701D01*
X52932696Y-155324322D01*
X52990711Y-155276711D01*
X53038322Y-155218696D01*
X53073701Y-155152508D01*
X53095487Y-155080689D01*
X53102843Y-155006000D01*
X53102843Y-153906000D01*
X53095487Y-153831311D01*
X53073701Y-153759492D01*
X53038322Y-153693304D01*
X53009999Y-153658792D01*
X53009999Y-152329127D01*
X53013656Y-152291998D01*
X52999059Y-152143797D01*
X52996596Y-152135678D01*
X52955831Y-152001291D01*
X52885631Y-151869956D01*
X52791158Y-151754840D01*
X52762306Y-151731162D01*
X52531838Y-151500694D01*
X52460642Y-151394141D01*
X52351859Y-151285358D01*
X52223942Y-151199887D01*
X52081809Y-151141013D01*
X51930922Y-151111000D01*
X51777078Y-151111000D01*
X51651393Y-151136000D01*
X51002607Y-151136000D01*
X50876922Y-151111000D01*
X50723078Y-151111000D01*
X50572191Y-151141013D01*
X50458843Y-151187964D01*
X50458843Y-151184000D01*
X50451487Y-151109311D01*
X50438500Y-151066500D01*
X50451487Y-151023689D01*
X50458843Y-150949000D01*
X50458843Y-150549000D01*
X50451487Y-150474311D01*
X50429701Y-150402492D01*
X50394322Y-150336304D01*
X50346711Y-150278289D01*
X50288696Y-150230678D01*
X50222508Y-150195299D01*
X50150689Y-150173513D01*
X50076000Y-150166157D01*
X48476000Y-150166157D01*
X48401311Y-150173513D01*
X48329492Y-150195299D01*
X48263304Y-150230678D01*
X48205289Y-150278289D01*
X48157678Y-150336304D01*
X48122299Y-150402492D01*
X48117144Y-150419487D01*
X47929017Y-150231360D01*
X47910817Y-150209183D01*
X47822348Y-150136579D01*
X47721415Y-150082629D01*
X47611896Y-150049407D01*
X47526540Y-150041000D01*
X47498000Y-150038189D01*
X47469460Y-150041000D01*
X45748536Y-150041000D01*
X45719999Y-150038189D01*
X45691462Y-150041000D01*
X45691460Y-150041000D01*
X45606104Y-150049407D01*
X45496585Y-150082629D01*
X45395652Y-150136579D01*
X45307183Y-150209183D01*
X45288983Y-150231360D01*
X45130434Y-150389909D01*
X45129701Y-150387492D01*
X45094322Y-150321304D01*
X45046711Y-150263289D01*
X44988696Y-150215678D01*
X44922508Y-150180299D01*
X44850689Y-150158513D01*
X44776000Y-150151157D01*
X43176000Y-150151157D01*
X43101311Y-150158513D01*
X43029492Y-150180299D01*
X42963304Y-150215678D01*
X42905289Y-150263289D01*
X42857678Y-150321304D01*
X42822299Y-150387492D01*
X42800513Y-150459311D01*
X42793157Y-150534000D01*
X42793157Y-150934000D01*
X42800513Y-151008689D01*
X42815775Y-151059000D01*
X42800513Y-151109311D01*
X42793157Y-151184000D01*
X42793157Y-151584000D01*
X42800513Y-151658689D01*
X42813500Y-151701500D01*
X42800513Y-151744311D01*
X42793157Y-151819000D01*
X42793157Y-152219000D01*
X42800513Y-152293689D01*
X42813500Y-152336500D01*
X42800513Y-152379311D01*
X42793157Y-152454000D01*
X42793157Y-152854000D01*
X42800513Y-152928689D01*
X42813500Y-152971500D01*
X42800513Y-153014311D01*
X42793157Y-153089000D01*
X42793157Y-153489000D01*
X42800513Y-153563689D01*
X42813500Y-153606500D01*
X42800513Y-153649311D01*
X42793157Y-153724000D01*
X42793157Y-153978000D01*
X42573540Y-153978000D01*
X42545000Y-153975189D01*
X42516460Y-153978000D01*
X42431104Y-153986407D01*
X42321585Y-154019629D01*
X42220652Y-154073579D01*
X42132183Y-154146183D01*
X42113990Y-154168352D01*
X41073372Y-155208970D01*
X41084087Y-155155104D01*
X41084087Y-154883070D01*
X41031016Y-154616264D01*
X40926913Y-154364938D01*
X40775780Y-154138751D01*
X40583423Y-153946394D01*
X40357236Y-153795261D01*
X40105910Y-153691158D01*
X39839104Y-153638087D01*
X39567070Y-153638087D01*
X39300264Y-153691158D01*
X39048938Y-153795261D01*
X38822751Y-153946394D01*
X38630394Y-154138751D01*
X38479261Y-154364938D01*
X38375158Y-154616264D01*
X38322087Y-154883070D01*
X38322087Y-155155104D01*
X38375158Y-155421910D01*
X38479261Y-155673236D01*
X38630394Y-155899423D01*
X38822751Y-156091780D01*
X39048938Y-156242913D01*
X39300264Y-156347016D01*
X39567070Y-156400087D01*
X39839104Y-156400087D01*
X39892970Y-156389372D01*
X37605343Y-158677000D01*
X31270536Y-158677000D01*
X31241999Y-158674189D01*
X31213462Y-158677000D01*
X31213460Y-158677000D01*
X31128104Y-158685407D01*
X31018585Y-158718629D01*
X30917652Y-158772579D01*
X30829183Y-158845183D01*
X30810990Y-158867352D01*
X29477343Y-160201000D01*
X23129501Y-160201000D01*
X23103859Y-160175358D01*
X22975942Y-160089887D01*
X22833809Y-160031013D01*
X22682922Y-160001000D01*
X22529078Y-160001000D01*
X22378191Y-160031013D01*
X22236058Y-160089887D01*
X22108141Y-160175358D01*
X21999358Y-160284141D01*
X21913887Y-160412058D01*
X21855013Y-160554191D01*
X21825000Y-160705078D01*
X20980000Y-160705078D01*
X20980000Y-157343983D01*
X26813000Y-157343983D01*
X26813000Y-157616017D01*
X26866071Y-157882823D01*
X26970174Y-158134149D01*
X27121307Y-158360336D01*
X27313664Y-158552693D01*
X27539851Y-158703826D01*
X27791177Y-158807929D01*
X28057983Y-158861000D01*
X28330017Y-158861000D01*
X28596823Y-158807929D01*
X28848149Y-158703826D01*
X29074336Y-158552693D01*
X29266029Y-158361000D01*
X34587273Y-158361000D01*
X34686989Y-158351179D01*
X34711230Y-158356155D01*
X34746950Y-158356404D01*
X34788845Y-158360952D01*
X34801146Y-158360994D01*
X34806466Y-158360975D01*
X34844714Y-158357087D01*
X34883167Y-158357355D01*
X34895409Y-158356155D01*
X35043311Y-158340610D01*
X35121541Y-158324551D01*
X35199959Y-158309593D01*
X35211736Y-158306038D01*
X35353802Y-158262061D01*
X35427397Y-158231125D01*
X35501450Y-158201205D01*
X35512312Y-158195430D01*
X35643130Y-158124698D01*
X35709342Y-158080037D01*
X35776145Y-158036322D01*
X35785678Y-158028548D01*
X35900266Y-157933751D01*
X35956534Y-157877088D01*
X36013578Y-157821226D01*
X36021420Y-157811748D01*
X36115412Y-157696502D01*
X36159585Y-157630015D01*
X36204711Y-157564111D01*
X36210562Y-157553290D01*
X36280380Y-157421982D01*
X36310815Y-157348141D01*
X36342264Y-157274766D01*
X36345902Y-157263014D01*
X36388886Y-157120646D01*
X36404390Y-157042342D01*
X36420998Y-156964210D01*
X36422283Y-156951976D01*
X36436795Y-156803969D01*
X36436795Y-156632028D01*
X36431398Y-156604769D01*
X36441000Y-156507273D01*
X36441000Y-156012029D01*
X36632693Y-155820336D01*
X36783826Y-155594149D01*
X36887929Y-155342823D01*
X36941000Y-155076017D01*
X36941000Y-154803983D01*
X36887929Y-154537177D01*
X36783826Y-154285851D01*
X36632693Y-154059664D01*
X36440336Y-153867307D01*
X36214149Y-153716174D01*
X35962823Y-153612071D01*
X35696017Y-153559000D01*
X35479060Y-153559000D01*
X34990206Y-153033145D01*
X34980471Y-153024543D01*
X34836791Y-152878843D01*
X34755045Y-152754868D01*
X34698937Y-152617380D01*
X34666316Y-152449560D01*
X34663000Y-152379242D01*
X34663000Y-151893141D01*
X34741307Y-152010336D01*
X34933664Y-152202693D01*
X35159851Y-152353826D01*
X35411177Y-152457929D01*
X35677983Y-152511000D01*
X35950017Y-152511000D01*
X36216823Y-152457929D01*
X36468149Y-152353826D01*
X36694336Y-152202693D01*
X36886693Y-152010336D01*
X37037826Y-151784149D01*
X37141929Y-151532823D01*
X37195000Y-151266017D01*
X37195000Y-150993983D01*
X37141929Y-150727177D01*
X37037826Y-150475851D01*
X36886693Y-150249664D01*
X36694336Y-150057307D01*
X36468149Y-149906174D01*
X36216823Y-149802071D01*
X35950017Y-149749000D01*
X35677983Y-149749000D01*
X35411177Y-149802071D01*
X35159851Y-149906174D01*
X34933664Y-150057307D01*
X34741307Y-150249664D01*
X34663000Y-150366859D01*
X34663000Y-148546727D01*
X34650252Y-148417294D01*
X34599875Y-148251225D01*
X34518068Y-148098175D01*
X34407975Y-147964025D01*
X34273824Y-147853932D01*
X34120774Y-147772125D01*
X33954705Y-147721748D01*
X33782000Y-147704738D01*
X33609294Y-147721748D01*
X33443225Y-147772125D01*
X33290175Y-147853932D01*
X33156025Y-147964025D01*
X33045932Y-148098176D01*
X32964125Y-148251226D01*
X32913748Y-148417295D01*
X32901000Y-148546728D01*
X32901001Y-152443273D01*
X32903036Y-152463935D01*
X32909283Y-152596411D01*
X32917605Y-152653461D01*
X32922229Y-152710924D01*
X32924491Y-152723016D01*
X32985791Y-153038378D01*
X33008603Y-153114899D01*
X33030346Y-153191735D01*
X33034914Y-153203157D01*
X33156302Y-153500607D01*
X33193529Y-153571214D01*
X33229792Y-153642383D01*
X33236491Y-153652699D01*
X33413341Y-153920907D01*
X33463568Y-153982932D01*
X33512973Y-154045714D01*
X33521549Y-154054533D01*
X33738024Y-154274050D01*
X34188107Y-154758200D01*
X34179000Y-154803983D01*
X34179000Y-155076017D01*
X34232071Y-155342823D01*
X34336174Y-155594149D01*
X34487307Y-155820336D01*
X34679000Y-156012029D01*
X34679000Y-156507272D01*
X34688312Y-156601820D01*
X34686827Y-156608805D01*
X34587273Y-156599000D01*
X29266029Y-156599000D01*
X29074336Y-156407307D01*
X28848149Y-156256174D01*
X28596823Y-156152071D01*
X28330017Y-156099000D01*
X28057983Y-156099000D01*
X27791177Y-156152071D01*
X27539851Y-156256174D01*
X27313664Y-156407307D01*
X27121307Y-156599664D01*
X26970174Y-156825851D01*
X26866071Y-157077177D01*
X26813000Y-157343983D01*
X20980000Y-157343983D01*
X20980000Y-154803983D01*
X24273000Y-154803983D01*
X24273000Y-155076017D01*
X24326071Y-155342823D01*
X24430174Y-155594149D01*
X24581307Y-155820336D01*
X24773664Y-156012693D01*
X24999851Y-156163826D01*
X25251177Y-156267929D01*
X25517983Y-156321000D01*
X25790017Y-156321000D01*
X26056823Y-156267929D01*
X26308149Y-156163826D01*
X26440468Y-156075413D01*
X29778192Y-156075413D01*
X29873956Y-156339814D01*
X30163571Y-156480704D01*
X30475108Y-156562384D01*
X30796595Y-156581718D01*
X31115675Y-156537961D01*
X31420088Y-156432795D01*
X31594044Y-156339814D01*
X31689808Y-156075413D01*
X30734000Y-155119605D01*
X29778192Y-156075413D01*
X26440468Y-156075413D01*
X26534336Y-156012693D01*
X26726693Y-155820336D01*
X26877826Y-155594149D01*
X26981929Y-155342823D01*
X27035000Y-155076017D01*
X27035000Y-155002595D01*
X29092282Y-155002595D01*
X29136039Y-155321675D01*
X29241205Y-155626088D01*
X29334186Y-155800044D01*
X29598587Y-155895808D01*
X30554395Y-154940000D01*
X30913605Y-154940000D01*
X31869413Y-155895808D01*
X32133814Y-155800044D01*
X32274704Y-155510429D01*
X32356384Y-155198892D01*
X32375718Y-154877405D01*
X32331961Y-154558325D01*
X32226795Y-154253912D01*
X32133814Y-154079956D01*
X31869413Y-153984192D01*
X30913605Y-154940000D01*
X30554395Y-154940000D01*
X29598587Y-153984192D01*
X29334186Y-154079956D01*
X29193296Y-154369571D01*
X29111616Y-154681108D01*
X29092282Y-155002595D01*
X27035000Y-155002595D01*
X27035000Y-154803983D01*
X26981929Y-154537177D01*
X26877826Y-154285851D01*
X26726693Y-154059664D01*
X26534336Y-153867307D01*
X26440469Y-153804587D01*
X29778192Y-153804587D01*
X30734000Y-154760395D01*
X31689808Y-153804587D01*
X31594044Y-153540186D01*
X31304429Y-153399296D01*
X30992892Y-153317616D01*
X30671405Y-153298282D01*
X30352325Y-153342039D01*
X30047912Y-153447205D01*
X29873956Y-153540186D01*
X29778192Y-153804587D01*
X26440469Y-153804587D01*
X26308149Y-153716174D01*
X26056823Y-153612071D01*
X25790017Y-153559000D01*
X25517983Y-153559000D01*
X25251177Y-153612071D01*
X24999851Y-153716174D01*
X24773664Y-153867307D01*
X24581307Y-154059664D01*
X24430174Y-154285851D01*
X24326071Y-154537177D01*
X24273000Y-154803983D01*
X20980000Y-154803983D01*
X20980000Y-144932000D01*
X37211000Y-144932000D01*
X37211000Y-147066000D01*
M02*
