G04 #@! TF.GenerationSoftware,KiCad,Pcbnew,(5.1.5-0-10_14)*
G04 #@! TF.CreationDate,2021-11-24T22:31:54+00:00*
G04 #@! TF.ProjectId,throwie,7468726f-7769-4652-9e6b-696361645f70,rev?*
G04 #@! TF.SameCoordinates,Original*
G04 #@! TF.FileFunction,Copper,L2,Bot*
G04 #@! TF.FilePolarity,Positive*
%FSLAX46Y46*%
G04 Gerber Fmt 4.6, Leading zero omitted, Abs format (unit mm)*
G04 Created by KiCad (PCBNEW (5.1.5-0-10_14)) date 2021-11-24 22:31:54*
%MOMM*%
%LPD*%
G04 APERTURE LIST*
%ADD10C,1.000000*%
%ADD11R,6.000000X1.500000*%
%ADD12C,2.000000*%
%ADD13R,1.400000X0.550000*%
%ADD14R,1.100000X1.300000*%
%ADD15R,1.300000X1.100000*%
%ADD16R,1.400000X0.600000*%
%ADD17C,0.800000*%
%ADD18C,0.400000*%
%ADD19C,0.250000*%
%ADD20C,0.500000*%
%ADD21C,1.500000*%
%ADD22C,0.254000*%
G04 APERTURE END LIST*
D10*
X38354000Y-148336000D02*
X38354000Y-146558000D01*
X31242000Y-147828000D02*
X33020000Y-147828000D01*
X33020000Y-147828000D02*
G75*
G02X33782000Y-148590000I0J-762000D01*
G01*
X39116000Y-145542000D02*
X48514000Y-145542000D01*
X38354000Y-146304000D02*
G75*
G02X39116000Y-145542000I762000J0D01*
G01*
X35814000Y-151130000D02*
X37592000Y-151130000D01*
X38354000Y-150368000D02*
G75*
G02X37592000Y-151130000I-762000J0D01*
G01*
X26416000Y-152146000D02*
X27686000Y-152146000D01*
X25654000Y-153162000D02*
X25654000Y-154940000D01*
X25654000Y-152908000D02*
G75*
G02X26416000Y-152146000I762000J0D01*
G01*
X25654000Y-161036000D02*
X27432000Y-161036000D01*
X28194000Y-160274000D02*
X28194000Y-157480000D01*
X28194000Y-160274000D02*
G75*
G02X27432000Y-161036000I-762000J0D01*
G01*
D11*
X51054000Y-145542000D03*
D12*
X25654000Y-154940000D03*
X28194000Y-157480000D03*
X30734000Y-154940000D03*
D13*
X50060000Y-155824000D03*
X50060000Y-153924000D03*
X48260000Y-153924000D03*
X48260000Y-154874000D03*
X48260000Y-155824000D03*
D14*
X47776000Y-151892000D03*
X49276000Y-151892000D03*
D15*
X25654000Y-161012000D03*
X25654000Y-159512000D03*
D14*
X53062000Y-158496000D03*
X51562000Y-158496000D03*
X47498000Y-158496000D03*
X45998000Y-158496000D03*
D15*
X22606000Y-159004000D03*
X22606000Y-157504000D03*
D16*
X25642000Y-148656000D03*
X23622000Y-147706000D03*
X23622000Y-149606000D03*
X29452000Y-151196000D03*
X27432000Y-152146000D03*
X27432000Y-150246000D03*
D12*
X35814000Y-151130000D03*
X39703087Y-155019087D03*
X35560000Y-154940000D03*
X39861823Y-161083640D03*
X32258000Y-161036000D03*
X35258000Y-161036000D03*
D15*
X49530000Y-159996000D03*
X49530000Y-158496000D03*
D14*
X29742000Y-147828000D03*
X31242000Y-147828000D03*
D15*
X38354000Y-148360000D03*
X38354000Y-149860000D03*
X52324000Y-154940000D03*
X52324000Y-153440000D03*
X45974000Y-154456000D03*
X45974000Y-155956000D03*
D17*
X23622000Y-146558000D03*
X24638000Y-146558000D03*
X25654000Y-146558000D03*
X26670000Y-146558000D03*
X28194000Y-154940000D03*
X22606000Y-146558000D03*
X53340000Y-156996058D03*
X36576000Y-153162000D03*
X38608000Y-153162000D03*
X37592000Y-153162000D03*
X37592000Y-156718000D03*
X38608000Y-156718000D03*
X35814000Y-147574000D03*
X35814000Y-148590000D03*
X24384000Y-151384000D03*
X24384000Y-152400000D03*
X21844000Y-162560000D03*
X53340000Y-155956000D03*
X22860000Y-162560000D03*
X23876000Y-162560000D03*
X41148000Y-147574000D03*
X42164000Y-147574000D03*
X43180000Y-147574000D03*
X44196000Y-147574000D03*
X45212000Y-147574000D03*
X46228000Y-147574000D03*
X47244000Y-147574000D03*
X48260000Y-147574000D03*
X49276000Y-147574000D03*
X50292000Y-147574000D03*
X51308000Y-147574000D03*
X52324000Y-147574000D03*
X53340000Y-147574000D03*
X36576000Y-162560000D03*
X37592000Y-162560000D03*
X38608000Y-162560000D03*
X42164000Y-156464000D03*
X41148000Y-157480000D03*
X51854000Y-151892000D03*
X50800000Y-152908000D03*
X50800000Y-151892000D03*
X33782000Y-148590000D03*
X51049396Y-156977862D03*
X22606000Y-160782000D03*
X46482000Y-151892000D03*
D18*
X38354000Y-148360000D02*
X38354000Y-147410000D01*
X38354000Y-147410000D02*
X38354000Y-145542000D01*
X38354000Y-145542000D02*
X51054000Y-145542000D01*
D10*
X30734000Y-154940000D02*
X28194000Y-154940000D01*
D18*
X47160000Y-154874000D02*
X46718000Y-154432000D01*
X48260000Y-154874000D02*
X47160000Y-154874000D01*
X46718000Y-154432000D02*
X45974000Y-154432000D01*
X45974000Y-154432000D02*
X45720000Y-154432000D01*
X30734000Y-154940000D02*
X32258000Y-156464000D01*
X32258000Y-158750000D02*
X32258000Y-161036000D01*
X32258000Y-156464000D02*
X32258000Y-158750000D01*
X40132000Y-158750000D02*
X32258000Y-158750000D01*
D10*
X22606000Y-146558000D02*
X26670000Y-146558000D01*
X23622000Y-147706000D02*
X23622000Y-146558000D01*
D19*
X40132000Y-158242000D02*
X38608000Y-156718000D01*
X40132000Y-158750000D02*
X40132000Y-158242000D01*
X38608000Y-156718000D02*
X37592000Y-156718000D01*
X36576000Y-156718000D02*
X37592000Y-156718000D01*
X38608000Y-153162000D02*
X37846000Y-153162000D01*
X37846000Y-153162000D02*
X37592000Y-153162000D01*
X36576000Y-153162000D02*
X37592000Y-153162000D01*
X36176001Y-153561999D02*
X31858001Y-153561999D01*
X36576000Y-153162000D02*
X36176001Y-153561999D01*
X31858001Y-153561999D02*
X31858001Y-153815999D01*
X31858001Y-153815999D02*
X30988000Y-154686000D01*
X30988000Y-154686000D02*
X30734000Y-154940000D01*
X34798000Y-146558000D02*
X35814000Y-147574000D01*
X26670000Y-146558000D02*
X34798000Y-146558000D01*
X35814000Y-148590000D02*
X35814000Y-147574000D01*
D18*
X24021999Y-152762001D02*
X24384000Y-152400000D01*
X24021999Y-161398001D02*
X24021999Y-152762001D01*
X23622000Y-161798000D02*
X24021999Y-161398001D01*
D10*
X53062000Y-158496000D02*
X53062000Y-159536000D01*
X53062000Y-159536000D02*
X52578000Y-160020000D01*
X52578000Y-160020000D02*
X49530000Y-160020000D01*
D20*
X53086000Y-158032826D02*
X53086000Y-158496000D01*
X48260000Y-154874000D02*
X52258000Y-154874000D01*
X52258000Y-154874000D02*
X52324000Y-154940000D01*
X53062000Y-157274058D02*
X53340000Y-156996058D01*
X53062000Y-158496000D02*
X53062000Y-157274058D01*
X53340000Y-155956000D02*
X53340000Y-156996058D01*
X52324000Y-154940000D02*
X53340000Y-155956000D01*
X23622000Y-162052000D02*
X23876000Y-162306000D01*
X23622000Y-161798000D02*
X23622000Y-162052000D01*
X21844000Y-162306000D02*
X22860000Y-162306000D01*
X22860000Y-162306000D02*
X23876000Y-162306000D01*
X23876000Y-162306000D02*
X30988000Y-162306000D01*
D18*
X41148000Y-158750000D02*
X40132000Y-158750000D01*
X43942000Y-158750000D02*
X41148000Y-158750000D01*
X44450000Y-158242000D02*
X43942000Y-158750000D01*
X44924000Y-154456000D02*
X44450000Y-154930000D01*
X44450000Y-154930000D02*
X44450000Y-158242000D01*
X45974000Y-154456000D02*
X44924000Y-154456000D01*
D19*
X38608000Y-162560000D02*
X37592000Y-162560000D01*
X37592000Y-162560000D02*
X36576000Y-162560000D01*
X31496000Y-162560000D02*
X31242000Y-162306000D01*
X36576000Y-162560000D02*
X31496000Y-162560000D01*
D20*
X31242000Y-162306000D02*
X32258000Y-161036000D01*
X30988000Y-162306000D02*
X31242000Y-162306000D01*
D18*
X40352000Y-161036000D02*
X39878000Y-161036000D01*
X40674000Y-161036000D02*
X39878000Y-161036000D01*
X39878000Y-161036000D02*
X39624000Y-161036000D01*
X48260000Y-155824000D02*
X46106000Y-155824000D01*
X46106000Y-155824000D02*
X45974000Y-155956000D01*
X48260000Y-153924000D02*
X47835000Y-153924000D01*
D10*
X45974000Y-155956000D02*
X45974000Y-157506000D01*
X45974000Y-157506000D02*
X45974000Y-158496000D01*
D21*
X35258000Y-161036000D02*
X39878000Y-161036000D01*
D10*
X45998000Y-160146000D02*
X45108000Y-161036000D01*
X45998000Y-158496000D02*
X45998000Y-160146000D01*
X45108000Y-161036000D02*
X39878000Y-161036000D01*
D20*
X47835000Y-153924000D02*
X47073000Y-153162000D01*
D10*
X41148000Y-157480000D02*
X42164000Y-156464000D01*
D20*
X43799990Y-154828010D02*
X43799990Y-154320010D01*
X42164000Y-156464000D02*
X43799990Y-154828010D01*
X44958000Y-153162000D02*
X47073000Y-153162000D01*
X43799990Y-154320010D02*
X44958000Y-153162000D01*
X50060000Y-153924000D02*
X50060000Y-152676000D01*
X50060000Y-152676000D02*
X49276000Y-151892000D01*
X51174000Y-153440000D02*
X50690000Y-153924000D01*
X52324000Y-153440000D02*
X51174000Y-153440000D01*
X50690000Y-153924000D02*
X50038000Y-153924000D01*
D10*
X50546000Y-152400000D02*
X50038000Y-151892000D01*
X50546000Y-153312000D02*
X50546000Y-152400000D01*
X50038000Y-151892000D02*
X49276000Y-151892000D01*
X50674000Y-153440000D02*
X50546000Y-153312000D01*
X50546000Y-153312000D02*
X50546000Y-153162000D01*
X52324000Y-153440000D02*
X50674000Y-153440000D01*
X50546000Y-153162000D02*
X50674000Y-153440000D01*
X52324000Y-153440000D02*
X50546000Y-153162000D01*
X49276000Y-151892000D02*
X51562000Y-151892000D01*
X51562000Y-151892000D02*
X51562000Y-152654000D01*
X51562000Y-152654000D02*
X52324000Y-153416000D01*
X49276000Y-151892000D02*
X52324000Y-151892000D01*
X52324000Y-151892000D02*
X52324000Y-153416000D01*
X52324000Y-153440000D02*
X52094000Y-153440000D01*
X51054000Y-152400000D02*
X50546000Y-152400000D01*
X52094000Y-153440000D02*
X51054000Y-152400000D01*
X29452000Y-151196000D02*
X35748000Y-151196000D01*
X35748000Y-151196000D02*
X35814000Y-151130000D01*
D18*
X35814000Y-150876000D02*
X35814000Y-151130000D01*
D19*
X35814000Y-151130000D02*
X37846000Y-151130000D01*
X37846000Y-151130000D02*
X38354000Y-150622000D01*
X38354000Y-150622000D02*
X38354000Y-149860000D01*
X38354000Y-149860000D02*
X38354000Y-150114000D01*
D10*
X25642000Y-148656000D02*
X25974000Y-148656000D01*
X25974000Y-148656000D02*
X27432000Y-150114000D01*
X29742000Y-147828000D02*
X26416000Y-147828000D01*
X26416000Y-147828000D02*
X25654000Y-148590000D01*
X39703087Y-155019087D02*
X35639087Y-155019087D01*
X35639087Y-155019087D02*
X35560000Y-154940000D01*
D19*
X25654000Y-161012000D02*
X27710000Y-161012000D01*
X27710000Y-161012000D02*
X28194000Y-160528000D01*
X28194000Y-160528000D02*
X28194000Y-157480000D01*
X33782000Y-148336000D02*
X33782000Y-148590000D01*
X33274000Y-147828000D02*
X33782000Y-148336000D01*
X31242000Y-147828000D02*
X33274000Y-147828000D01*
D18*
X51043534Y-156972000D02*
X51049396Y-156977862D01*
D10*
X47498000Y-158496000D02*
X49530000Y-158496000D01*
X49530000Y-158496000D02*
X51562000Y-158496000D01*
D20*
X51049396Y-158237396D02*
X51308000Y-158496000D01*
X51049396Y-156977862D02*
X51049396Y-158237396D01*
X51562000Y-158496000D02*
X51308000Y-158496000D01*
D10*
X25654000Y-159512000D02*
X25654000Y-154940000D01*
X25654000Y-154940000D02*
X25654000Y-154686000D01*
D19*
X27432000Y-152146000D02*
X26162000Y-152146000D01*
X26162000Y-152146000D02*
X25654000Y-152654000D01*
X25654000Y-152654000D02*
X25654000Y-154940000D01*
D10*
X23222000Y-149606000D02*
X22606000Y-150222000D01*
X23622000Y-149606000D02*
X23222000Y-149606000D01*
X22606000Y-150222000D02*
X22606000Y-157480000D01*
D18*
X22606000Y-159004000D02*
X22606000Y-159954000D01*
X22606000Y-159954000D02*
X22606000Y-160782000D01*
D10*
X22606000Y-160782000D02*
X22606000Y-159004000D01*
D18*
X47498000Y-151638000D02*
X47752000Y-151892000D01*
X47776000Y-151892000D02*
X46482000Y-151892000D01*
D22*
G36*
X37211000Y-147066000D02*
G01*
X37213440Y-147090776D01*
X37220667Y-147114601D01*
X37232403Y-147136557D01*
X37248197Y-147155803D01*
X37267443Y-147171597D01*
X37289399Y-147183333D01*
X37313224Y-147190560D01*
X37338000Y-147193000D01*
X37473000Y-147193000D01*
X37473000Y-147506699D01*
X37433289Y-147539289D01*
X37385678Y-147597304D01*
X37350299Y-147663492D01*
X37328513Y-147735311D01*
X37321157Y-147810000D01*
X37321157Y-148910000D01*
X37328513Y-148984689D01*
X37350299Y-149056508D01*
X37378892Y-149110000D01*
X37350299Y-149163492D01*
X37328513Y-149235311D01*
X37321157Y-149310000D01*
X37321157Y-150249000D01*
X36886029Y-150249000D01*
X36694336Y-150057307D01*
X36468149Y-149906174D01*
X36216823Y-149802071D01*
X35950017Y-149749000D01*
X35677983Y-149749000D01*
X35411177Y-149802071D01*
X35159851Y-149906174D01*
X34933664Y-150057307D01*
X34741307Y-150249664D01*
X34697651Y-150315000D01*
X33147000Y-150315000D01*
X33147000Y-150114000D01*
X33144134Y-150087172D01*
X33136515Y-150063470D01*
X33124418Y-150041710D01*
X33108309Y-150022728D01*
X33088806Y-150007254D01*
X33066659Y-149995882D01*
X33042718Y-149989049D01*
X30248718Y-149481049D01*
X30226000Y-149479000D01*
X28042922Y-149479000D01*
X27272921Y-148709000D01*
X28888699Y-148709000D01*
X28921289Y-148748711D01*
X28979304Y-148796322D01*
X29045492Y-148831701D01*
X29117311Y-148853487D01*
X29192000Y-148860843D01*
X30292000Y-148860843D01*
X30366689Y-148853487D01*
X30438508Y-148831701D01*
X30492000Y-148803108D01*
X30545492Y-148831701D01*
X30617311Y-148853487D01*
X30692000Y-148860843D01*
X31792000Y-148860843D01*
X31866689Y-148853487D01*
X31938508Y-148831701D01*
X32004696Y-148796322D01*
X32062711Y-148748711D01*
X32095301Y-148709000D01*
X32912423Y-148709000D01*
X32913138Y-148712482D01*
X32918396Y-148764205D01*
X32934698Y-148817511D01*
X32940381Y-148845198D01*
X32950596Y-148869498D01*
X32968679Y-148928630D01*
X33000011Y-148987054D01*
X33007011Y-149003705D01*
X33016433Y-149017674D01*
X33049942Y-149080156D01*
X33098186Y-149138880D01*
X33103158Y-149146251D01*
X33109043Y-149152095D01*
X33159089Y-149213012D01*
X33224403Y-149266652D01*
X33225163Y-149267407D01*
X33225996Y-149267960D01*
X33291963Y-149322137D01*
X33443502Y-149403375D01*
X33607933Y-149453633D01*
X33778996Y-149470995D01*
X33950173Y-149454800D01*
X34114943Y-149405665D01*
X34267033Y-149325461D01*
X34338322Y-149267723D01*
X34338799Y-149267406D01*
X34339178Y-149267030D01*
X34400647Y-149217245D01*
X34454926Y-149152087D01*
X34460803Y-149146251D01*
X34465123Y-149139847D01*
X34510698Y-149085137D01*
X34547236Y-149018108D01*
X34556951Y-149003705D01*
X34563231Y-148988765D01*
X34592992Y-148934169D01*
X34612921Y-148870557D01*
X34623581Y-148845199D01*
X34628740Y-148820065D01*
X34644397Y-148770091D01*
X34650455Y-148714279D01*
X34658155Y-148676770D01*
X34658404Y-148641050D01*
X34662952Y-148599155D01*
X34662994Y-148586854D01*
X34662975Y-148581534D01*
X34659087Y-148543286D01*
X34659355Y-148504833D01*
X34658155Y-148492591D01*
X34642610Y-148344690D01*
X34626559Y-148266499D01*
X34611593Y-148188041D01*
X34608038Y-148176265D01*
X34564062Y-148034198D01*
X34533110Y-147960567D01*
X34503205Y-147886549D01*
X34497430Y-147875688D01*
X34426697Y-147744870D01*
X34382042Y-147678667D01*
X34338322Y-147611856D01*
X34330548Y-147602323D01*
X34235752Y-147487734D01*
X34179088Y-147431465D01*
X34123226Y-147374421D01*
X34113748Y-147366580D01*
X33998501Y-147272587D01*
X33932006Y-147228409D01*
X33866111Y-147183289D01*
X33855290Y-147177438D01*
X33723982Y-147107620D01*
X33650172Y-147077198D01*
X33576765Y-147045736D01*
X33565014Y-147042098D01*
X33422645Y-146999114D01*
X33344294Y-146983600D01*
X33266210Y-146967003D01*
X33253981Y-146965717D01*
X33253977Y-146965717D01*
X33105969Y-146951205D01*
X33105967Y-146951205D01*
X33063273Y-146947000D01*
X32095301Y-146947000D01*
X32062711Y-146907289D01*
X32004696Y-146859678D01*
X31938508Y-146824299D01*
X31866689Y-146802513D01*
X31792000Y-146795157D01*
X30692000Y-146795157D01*
X30617311Y-146802513D01*
X30545492Y-146824299D01*
X30492000Y-146852892D01*
X30438508Y-146824299D01*
X30366689Y-146802513D01*
X30292000Y-146795157D01*
X29192000Y-146795157D01*
X29117311Y-146802513D01*
X29045492Y-146824299D01*
X28979304Y-146859678D01*
X28921289Y-146907289D01*
X28888699Y-146947000D01*
X26459270Y-146947000D01*
X26416000Y-146942738D01*
X26372730Y-146947000D01*
X26372727Y-146947000D01*
X26243294Y-146959748D01*
X26106815Y-147001149D01*
X26077225Y-147010125D01*
X25924174Y-147091932D01*
X25856022Y-147147863D01*
X25790025Y-147202025D01*
X25762438Y-147235640D01*
X25024922Y-147973157D01*
X24942000Y-147973157D01*
X24867311Y-147980513D01*
X24795492Y-148002299D01*
X24729304Y-148037678D01*
X24671289Y-148085289D01*
X24623678Y-148143304D01*
X24588299Y-148209492D01*
X24566513Y-148281311D01*
X24559157Y-148356000D01*
X24559157Y-148956000D01*
X24564702Y-149012303D01*
X24534696Y-148987678D01*
X24468508Y-148952299D01*
X24396689Y-148930513D01*
X24322000Y-148923157D01*
X24178680Y-148923157D01*
X24113825Y-148869932D01*
X23960775Y-148788125D01*
X23794706Y-148737748D01*
X23665273Y-148725000D01*
X23265270Y-148725000D01*
X23222000Y-148720738D01*
X23178730Y-148725000D01*
X23178727Y-148725000D01*
X23049294Y-148737748D01*
X22894928Y-148784575D01*
X22883225Y-148788125D01*
X22730175Y-148869932D01*
X22629637Y-148952440D01*
X22629634Y-148952443D01*
X22596025Y-148980025D01*
X22568443Y-149013635D01*
X22013644Y-149568435D01*
X21980025Y-149596025D01*
X21907021Y-149684983D01*
X21869932Y-149730175D01*
X21845853Y-149775224D01*
X21788125Y-149883226D01*
X21737748Y-150049295D01*
X21727379Y-150154572D01*
X21720738Y-150222000D01*
X21725000Y-150265270D01*
X21725001Y-156650699D01*
X21685289Y-156683289D01*
X21637678Y-156741304D01*
X21602299Y-156807492D01*
X21580513Y-156879311D01*
X21573157Y-156954000D01*
X21573157Y-158054000D01*
X21580513Y-158128689D01*
X21602299Y-158200508D01*
X21630892Y-158254000D01*
X21602299Y-158307492D01*
X21580513Y-158379311D01*
X21573157Y-158454000D01*
X21573157Y-159554000D01*
X21580513Y-159628689D01*
X21602299Y-159700508D01*
X21637678Y-159766696D01*
X21685289Y-159824711D01*
X21725001Y-159857301D01*
X21725000Y-160825272D01*
X21737748Y-160954705D01*
X21788125Y-161120774D01*
X21869932Y-161273824D01*
X21980025Y-161407975D01*
X22114175Y-161518068D01*
X22267225Y-161599875D01*
X22433294Y-161650252D01*
X22606000Y-161667262D01*
X22778705Y-161650252D01*
X22944774Y-161599875D01*
X23097824Y-161518068D01*
X23231975Y-161407975D01*
X23342068Y-161273825D01*
X23423875Y-161120775D01*
X23474252Y-160954706D01*
X23487000Y-160825273D01*
X23487000Y-159857301D01*
X23526711Y-159824711D01*
X23574322Y-159766696D01*
X23609701Y-159700508D01*
X23631487Y-159628689D01*
X23638843Y-159554000D01*
X23638843Y-158454000D01*
X23631487Y-158379311D01*
X23609701Y-158307492D01*
X23581108Y-158254000D01*
X23609701Y-158200508D01*
X23631487Y-158128689D01*
X23638843Y-158054000D01*
X23638843Y-156954000D01*
X23631487Y-156879311D01*
X23609701Y-156807492D01*
X23574322Y-156741304D01*
X23526711Y-156683289D01*
X23487000Y-156650699D01*
X23487000Y-150586922D01*
X23586922Y-150487000D01*
X23665273Y-150487000D01*
X23794706Y-150474252D01*
X23960775Y-150423875D01*
X24113825Y-150342068D01*
X24178680Y-150288843D01*
X24322000Y-150288843D01*
X24396689Y-150281487D01*
X24468508Y-150259701D01*
X24534696Y-150224322D01*
X24592711Y-150176711D01*
X24640322Y-150118696D01*
X24675701Y-150052508D01*
X24697487Y-149980689D01*
X24704843Y-149906000D01*
X24704843Y-149306000D01*
X24699298Y-149249697D01*
X24729304Y-149274322D01*
X24795492Y-149309701D01*
X24867311Y-149331487D01*
X24942000Y-149338843D01*
X25085320Y-149338843D01*
X25150175Y-149392068D01*
X25303225Y-149473875D01*
X25469294Y-149524252D01*
X25598727Y-149537000D01*
X25609079Y-149537000D01*
X26035000Y-149962921D01*
X26035000Y-151312409D01*
X26014041Y-151316407D01*
X26002265Y-151319962D01*
X25860198Y-151363938D01*
X25786567Y-151394890D01*
X25712549Y-151424795D01*
X25701688Y-151430570D01*
X25570870Y-151501303D01*
X25504667Y-151545958D01*
X25437856Y-151589678D01*
X25428323Y-151597452D01*
X25313734Y-151692248D01*
X25257465Y-151748912D01*
X25200421Y-151804774D01*
X25192580Y-151814252D01*
X25098587Y-151929499D01*
X25054409Y-151995994D01*
X25009289Y-152061889D01*
X25003438Y-152072710D01*
X24933620Y-152204018D01*
X24903198Y-152277828D01*
X24871736Y-152351235D01*
X24868098Y-152362986D01*
X24825114Y-152505355D01*
X24809600Y-152583706D01*
X24793003Y-152661790D01*
X24791717Y-152674023D01*
X24777205Y-152822031D01*
X24777205Y-152993971D01*
X24782603Y-153021231D01*
X24773000Y-153118728D01*
X24773000Y-153867971D01*
X24581307Y-154059664D01*
X24430174Y-154285851D01*
X24326071Y-154537177D01*
X24273000Y-154803983D01*
X24273000Y-155076017D01*
X24326071Y-155342823D01*
X24430174Y-155594149D01*
X24581307Y-155820336D01*
X24773001Y-156012030D01*
X24773000Y-158658699D01*
X24733289Y-158691289D01*
X24685678Y-158749304D01*
X24650299Y-158815492D01*
X24628513Y-158887311D01*
X24621157Y-158962000D01*
X24621157Y-160062000D01*
X24628513Y-160136689D01*
X24650299Y-160208508D01*
X24678892Y-160262000D01*
X24650299Y-160315492D01*
X24628513Y-160387311D01*
X24621157Y-160462000D01*
X24621157Y-161562000D01*
X24628513Y-161636689D01*
X24650299Y-161708508D01*
X24685678Y-161774696D01*
X24733289Y-161832711D01*
X24791304Y-161880322D01*
X24857492Y-161915701D01*
X24929311Y-161937487D01*
X25004000Y-161944843D01*
X26304000Y-161944843D01*
X26378689Y-161937487D01*
X26446226Y-161917000D01*
X27475273Y-161917000D01*
X27512605Y-161913323D01*
X27517167Y-161913355D01*
X27529409Y-161912155D01*
X27603047Y-161904415D01*
X27604706Y-161904252D01*
X27604761Y-161904235D01*
X27677311Y-161896610D01*
X27755541Y-161880551D01*
X27833959Y-161865593D01*
X27845736Y-161862038D01*
X27987802Y-161818061D01*
X28061397Y-161787125D01*
X28135450Y-161757205D01*
X28146312Y-161751430D01*
X28277130Y-161680698D01*
X28343342Y-161636037D01*
X28410145Y-161592322D01*
X28419678Y-161584548D01*
X28534266Y-161489751D01*
X28590534Y-161433088D01*
X28647578Y-161377226D01*
X28655420Y-161367748D01*
X28749412Y-161252502D01*
X28793585Y-161186015D01*
X28838711Y-161120111D01*
X28844562Y-161109290D01*
X28850248Y-161098595D01*
X30616282Y-161098595D01*
X30660039Y-161417675D01*
X30765205Y-161722088D01*
X30858186Y-161896044D01*
X31122587Y-161991808D01*
X32078395Y-161036000D01*
X32437605Y-161036000D01*
X33393413Y-161991808D01*
X33657814Y-161896044D01*
X33798704Y-161606429D01*
X33880384Y-161294892D01*
X33885273Y-161213606D01*
X33930071Y-161438823D01*
X34034174Y-161690149D01*
X34185307Y-161916336D01*
X34377664Y-162108693D01*
X34603851Y-162259826D01*
X34855177Y-162363929D01*
X35121983Y-162417000D01*
X35394017Y-162417000D01*
X35660823Y-162363929D01*
X35912149Y-162259826D01*
X36051073Y-162167000D01*
X38997451Y-162167000D01*
X39207674Y-162307466D01*
X39459000Y-162411569D01*
X39725806Y-162464640D01*
X39997840Y-162464640D01*
X40264646Y-162411569D01*
X40515972Y-162307466D01*
X40742159Y-162156333D01*
X40934516Y-161963976D01*
X40965904Y-161917000D01*
X45064730Y-161917000D01*
X45108000Y-161921262D01*
X45151270Y-161917000D01*
X45151273Y-161917000D01*
X45280706Y-161904252D01*
X45446775Y-161853875D01*
X45599825Y-161772068D01*
X45722978Y-161671000D01*
X49276000Y-161671000D01*
X49300776Y-161668560D01*
X49324601Y-161661333D01*
X49346557Y-161649597D01*
X49365803Y-161633803D01*
X50127803Y-160871803D01*
X50143597Y-160852557D01*
X50155333Y-160830601D01*
X50162560Y-160806776D01*
X50165000Y-160782000D01*
X50165000Y-159428843D01*
X50180000Y-159428843D01*
X50254689Y-159421487D01*
X50326508Y-159399701D01*
X50368978Y-159377000D01*
X50708699Y-159377000D01*
X50741289Y-159416711D01*
X50799304Y-159464322D01*
X50865492Y-159499701D01*
X50937311Y-159521487D01*
X51012000Y-159528843D01*
X52112000Y-159528843D01*
X52186689Y-159521487D01*
X52258508Y-159499701D01*
X52324696Y-159464322D01*
X52382711Y-159416711D01*
X52430322Y-159358696D01*
X52465701Y-159292508D01*
X52487487Y-159220689D01*
X52494843Y-159146000D01*
X52494843Y-158115000D01*
X52832000Y-158115000D01*
X52856776Y-158112560D01*
X52880601Y-158105333D01*
X52902557Y-158093597D01*
X52921803Y-158077803D01*
X52937597Y-158058557D01*
X52949333Y-158036601D01*
X52956560Y-158012776D01*
X52959000Y-157988000D01*
X52959000Y-155702000D01*
X52956560Y-155677224D01*
X52949333Y-155653399D01*
X52937597Y-155631443D01*
X52921803Y-155612197D01*
X52902557Y-155596403D01*
X52880601Y-155584667D01*
X52856776Y-155577440D01*
X52832000Y-155575000D01*
X51614606Y-155575000D01*
X51397803Y-155358197D01*
X51378557Y-155342403D01*
X51356601Y-155330667D01*
X51332776Y-155323440D01*
X51308000Y-155321000D01*
X51065763Y-155321000D01*
X51030711Y-155278289D01*
X50972696Y-155230678D01*
X50906508Y-155195299D01*
X50834689Y-155173513D01*
X50760000Y-155166157D01*
X49360000Y-155166157D01*
X49285311Y-155173513D01*
X49213492Y-155195299D01*
X49160000Y-155223892D01*
X49106508Y-155195299D01*
X49034689Y-155173513D01*
X48960000Y-155166157D01*
X47560000Y-155166157D01*
X47485311Y-155173513D01*
X47413492Y-155195299D01*
X47347304Y-155230678D01*
X47332289Y-155243000D01*
X46968886Y-155243000D01*
X46942322Y-155193304D01*
X46894711Y-155135289D01*
X46836696Y-155087678D01*
X46770508Y-155052299D01*
X46698689Y-155030513D01*
X46624000Y-155023157D01*
X45324000Y-155023157D01*
X45249311Y-155030513D01*
X45177492Y-155052299D01*
X45111304Y-155087678D01*
X45053289Y-155135289D01*
X45005678Y-155193304D01*
X44970299Y-155259492D01*
X44948513Y-155331311D01*
X44941157Y-155406000D01*
X44941157Y-156506000D01*
X44948513Y-156580689D01*
X44970299Y-156652508D01*
X45005678Y-156718696D01*
X45053289Y-156776711D01*
X45093001Y-156809301D01*
X45093001Y-157462718D01*
X45093000Y-157462728D01*
X45093000Y-157703774D01*
X45072513Y-157771311D01*
X45065157Y-157846000D01*
X45065157Y-159146000D01*
X45072513Y-159220689D01*
X45094299Y-159292508D01*
X45117001Y-159334979D01*
X45117001Y-159781078D01*
X44743079Y-160155000D01*
X40886212Y-160155000D01*
X40742159Y-160010947D01*
X40515972Y-159859814D01*
X40264646Y-159755711D01*
X39997840Y-159702640D01*
X39725806Y-159702640D01*
X39459000Y-159755711D01*
X39207674Y-159859814D01*
X39140048Y-159905000D01*
X36051073Y-159905000D01*
X35912149Y-159812174D01*
X35660823Y-159708071D01*
X35394017Y-159655000D01*
X35121983Y-159655000D01*
X34855177Y-159708071D01*
X34603851Y-159812174D01*
X34377664Y-159963307D01*
X34185307Y-160155664D01*
X34034174Y-160381851D01*
X33930071Y-160633177D01*
X33884487Y-160862342D01*
X33855961Y-160654325D01*
X33750795Y-160349912D01*
X33657814Y-160175956D01*
X33393413Y-160080192D01*
X32437605Y-161036000D01*
X32078395Y-161036000D01*
X31122587Y-160080192D01*
X30858186Y-160175956D01*
X30717296Y-160465571D01*
X30635616Y-160777108D01*
X30616282Y-161098595D01*
X28850248Y-161098595D01*
X28914380Y-160977982D01*
X28944815Y-160904141D01*
X28976264Y-160830766D01*
X28979902Y-160819014D01*
X29022886Y-160676646D01*
X29038390Y-160598342D01*
X29054998Y-160520210D01*
X29056283Y-160507976D01*
X29070795Y-160359969D01*
X29070795Y-160359967D01*
X29075000Y-160317273D01*
X29075000Y-159900587D01*
X31302192Y-159900587D01*
X32258000Y-160856395D01*
X33213808Y-159900587D01*
X33118044Y-159636186D01*
X32828429Y-159495296D01*
X32516892Y-159413616D01*
X32195405Y-159394282D01*
X31876325Y-159438039D01*
X31571912Y-159543205D01*
X31397956Y-159636186D01*
X31302192Y-159900587D01*
X29075000Y-159900587D01*
X29075000Y-158552029D01*
X29266693Y-158360336D01*
X29417826Y-158134149D01*
X29521929Y-157882823D01*
X29575000Y-157616017D01*
X29575000Y-157480000D01*
X40262738Y-157480000D01*
X40279749Y-157652705D01*
X40330125Y-157818774D01*
X40411932Y-157971825D01*
X40522026Y-158105974D01*
X40656175Y-158216068D01*
X40809226Y-158297875D01*
X40975295Y-158348251D01*
X41148000Y-158365262D01*
X41320705Y-158348251D01*
X41486774Y-158297875D01*
X41639825Y-158216068D01*
X41740362Y-158133559D01*
X42817559Y-157056363D01*
X42900068Y-156955826D01*
X42981875Y-156802775D01*
X43032251Y-156636706D01*
X43048486Y-156471883D01*
X44224259Y-155296110D01*
X44248333Y-155276353D01*
X44275706Y-155243000D01*
X44327186Y-155180271D01*
X44385779Y-155070652D01*
X44401421Y-155019087D01*
X44421860Y-154951708D01*
X44430990Y-154859008D01*
X44430990Y-154858999D01*
X44434042Y-154828011D01*
X44430990Y-154797023D01*
X44430990Y-154581378D01*
X45219368Y-153793000D01*
X46811632Y-153793000D01*
X47177157Y-154158526D01*
X47177157Y-154199000D01*
X47184513Y-154273689D01*
X47206299Y-154345508D01*
X47241678Y-154411696D01*
X47289289Y-154469711D01*
X47347304Y-154517322D01*
X47413492Y-154552701D01*
X47485311Y-154574487D01*
X47560000Y-154581843D01*
X48960000Y-154581843D01*
X49034689Y-154574487D01*
X49106508Y-154552701D01*
X49160000Y-154524108D01*
X49213492Y-154552701D01*
X49285311Y-154574487D01*
X49360000Y-154581843D01*
X50760000Y-154581843D01*
X50834689Y-154574487D01*
X50906508Y-154552701D01*
X50972696Y-154517322D01*
X51030711Y-154469711D01*
X51053424Y-154442035D01*
X51138343Y-154372343D01*
X51158105Y-154348263D01*
X51185368Y-154321000D01*
X51485022Y-154321000D01*
X51527492Y-154343701D01*
X51599311Y-154365487D01*
X51674000Y-154372843D01*
X52974000Y-154372843D01*
X53048689Y-154365487D01*
X53120508Y-154343701D01*
X53186696Y-154308322D01*
X53244711Y-154260711D01*
X53292322Y-154202696D01*
X53327701Y-154136508D01*
X53349487Y-154064689D01*
X53356843Y-153990000D01*
X53356843Y-152890000D01*
X53349487Y-152815311D01*
X53327701Y-152743492D01*
X53292322Y-152677304D01*
X53244711Y-152619289D01*
X53205000Y-152586699D01*
X53205000Y-151935273D01*
X53209262Y-151892000D01*
X53199537Y-151793255D01*
X53192252Y-151719294D01*
X53141875Y-151553225D01*
X53060068Y-151400175D01*
X52949975Y-151266025D01*
X52916363Y-151238441D01*
X52815825Y-151155932D01*
X52662775Y-151074125D01*
X52496706Y-151023748D01*
X52367273Y-151011000D01*
X52324000Y-151006738D01*
X52280727Y-151011000D01*
X51605273Y-151011000D01*
X51562000Y-151006738D01*
X51518727Y-151011000D01*
X50129301Y-151011000D01*
X50096711Y-150971289D01*
X50038696Y-150923678D01*
X49972508Y-150888299D01*
X49900689Y-150866513D01*
X49826000Y-150859157D01*
X48726000Y-150859157D01*
X48651311Y-150866513D01*
X48579492Y-150888299D01*
X48526000Y-150916892D01*
X48472508Y-150888299D01*
X48400689Y-150866513D01*
X48326000Y-150859157D01*
X47226000Y-150859157D01*
X47151311Y-150866513D01*
X47079492Y-150888299D01*
X47013304Y-150923678D01*
X46955289Y-150971289D01*
X46907678Y-151029304D01*
X46872299Y-151095492D01*
X46850513Y-151167311D01*
X46847486Y-151198041D01*
X46709809Y-151141013D01*
X46558922Y-151111000D01*
X46405078Y-151111000D01*
X46254191Y-151141013D01*
X46112058Y-151199887D01*
X45984141Y-151285358D01*
X45875358Y-151394141D01*
X45789887Y-151522058D01*
X45731013Y-151664191D01*
X45701000Y-151815078D01*
X45701000Y-151968922D01*
X45731013Y-152119809D01*
X45789887Y-152261942D01*
X45875358Y-152389859D01*
X45984141Y-152498642D01*
X46032568Y-152531000D01*
X44988987Y-152531000D01*
X44957999Y-152527948D01*
X44927011Y-152531000D01*
X44927002Y-152531000D01*
X44834302Y-152540130D01*
X44715358Y-152576211D01*
X44605739Y-152634804D01*
X44509657Y-152713657D01*
X44489895Y-152737737D01*
X43375723Y-153851909D01*
X43351648Y-153871667D01*
X43272794Y-153967749D01*
X43214201Y-154077368D01*
X43178120Y-154196312D01*
X43168990Y-154289012D01*
X43168990Y-154289020D01*
X43165938Y-154320010D01*
X43168990Y-154351000D01*
X43168990Y-154566641D01*
X42156117Y-155579514D01*
X41991294Y-155595749D01*
X41825225Y-155646125D01*
X41672174Y-155727932D01*
X41571637Y-155810441D01*
X40494441Y-156887638D01*
X40411932Y-156988175D01*
X40330125Y-157141226D01*
X40279749Y-157307295D01*
X40262738Y-157480000D01*
X29575000Y-157480000D01*
X29575000Y-157343983D01*
X29521929Y-157077177D01*
X29417826Y-156825851D01*
X29266693Y-156599664D01*
X29074336Y-156407307D01*
X28848149Y-156256174D01*
X28596823Y-156152071D01*
X28330017Y-156099000D01*
X28057983Y-156099000D01*
X27791177Y-156152071D01*
X27539851Y-156256174D01*
X27313664Y-156407307D01*
X27121307Y-156599664D01*
X26970174Y-156825851D01*
X26866071Y-157077177D01*
X26813000Y-157343983D01*
X26813000Y-157616017D01*
X26866071Y-157882823D01*
X26970174Y-158134149D01*
X27121307Y-158360336D01*
X27313001Y-158552030D01*
X27313000Y-160155000D01*
X26673932Y-160155000D01*
X26679487Y-160136689D01*
X26686843Y-160062000D01*
X26686843Y-158962000D01*
X26679487Y-158887311D01*
X26657701Y-158815492D01*
X26622322Y-158749304D01*
X26574711Y-158691289D01*
X26535000Y-158658699D01*
X26535000Y-156075413D01*
X29778192Y-156075413D01*
X29873956Y-156339814D01*
X30163571Y-156480704D01*
X30475108Y-156562384D01*
X30796595Y-156581718D01*
X31115675Y-156537961D01*
X31420088Y-156432795D01*
X31594044Y-156339814D01*
X31689808Y-156075413D01*
X30734000Y-155119605D01*
X29778192Y-156075413D01*
X26535000Y-156075413D01*
X26535000Y-156012029D01*
X26726693Y-155820336D01*
X26877826Y-155594149D01*
X26981929Y-155342823D01*
X27035000Y-155076017D01*
X27035000Y-155002595D01*
X29092282Y-155002595D01*
X29136039Y-155321675D01*
X29241205Y-155626088D01*
X29334186Y-155800044D01*
X29598587Y-155895808D01*
X30554395Y-154940000D01*
X30913605Y-154940000D01*
X31869413Y-155895808D01*
X32133814Y-155800044D01*
X32274704Y-155510429D01*
X32356384Y-155198892D01*
X32375718Y-154877405D01*
X32365650Y-154803983D01*
X34179000Y-154803983D01*
X34179000Y-155076017D01*
X34232071Y-155342823D01*
X34336174Y-155594149D01*
X34487307Y-155820336D01*
X34679664Y-156012693D01*
X34905851Y-156163826D01*
X35157177Y-156267929D01*
X35423983Y-156321000D01*
X35696017Y-156321000D01*
X35962823Y-156267929D01*
X36214149Y-156163826D01*
X36440336Y-156012693D01*
X36552942Y-155900087D01*
X38631058Y-155900087D01*
X38822751Y-156091780D01*
X39048938Y-156242913D01*
X39300264Y-156347016D01*
X39567070Y-156400087D01*
X39839104Y-156400087D01*
X40105910Y-156347016D01*
X40357236Y-156242913D01*
X40583423Y-156091780D01*
X40775780Y-155899423D01*
X40926913Y-155673236D01*
X41031016Y-155421910D01*
X41084087Y-155155104D01*
X41084087Y-154883070D01*
X41031016Y-154616264D01*
X40926913Y-154364938D01*
X40775780Y-154138751D01*
X40583423Y-153946394D01*
X40357236Y-153795261D01*
X40105910Y-153691158D01*
X39839104Y-153638087D01*
X39567070Y-153638087D01*
X39300264Y-153691158D01*
X39048938Y-153795261D01*
X38822751Y-153946394D01*
X38631058Y-154138087D01*
X36685093Y-154138087D01*
X36632693Y-154059664D01*
X36440336Y-153867307D01*
X36214149Y-153716174D01*
X35962823Y-153612071D01*
X35696017Y-153559000D01*
X35423983Y-153559000D01*
X35157177Y-153612071D01*
X34905851Y-153716174D01*
X34679664Y-153867307D01*
X34487307Y-154059664D01*
X34336174Y-154285851D01*
X34232071Y-154537177D01*
X34179000Y-154803983D01*
X32365650Y-154803983D01*
X32331961Y-154558325D01*
X32226795Y-154253912D01*
X32133814Y-154079956D01*
X31869413Y-153984192D01*
X30913605Y-154940000D01*
X30554395Y-154940000D01*
X29598587Y-153984192D01*
X29334186Y-154079956D01*
X29193296Y-154369571D01*
X29111616Y-154681108D01*
X29092282Y-155002595D01*
X27035000Y-155002595D01*
X27035000Y-154803983D01*
X26981929Y-154537177D01*
X26877826Y-154285851D01*
X26726693Y-154059664D01*
X26535000Y-153867971D01*
X26535000Y-153804587D01*
X29778192Y-153804587D01*
X30734000Y-154760395D01*
X31689808Y-153804587D01*
X31594044Y-153540186D01*
X31304429Y-153399296D01*
X30992892Y-153317616D01*
X30671405Y-153298282D01*
X30352325Y-153342039D01*
X30047912Y-153447205D01*
X29873956Y-153540186D01*
X29778192Y-153804587D01*
X26535000Y-153804587D01*
X26535000Y-153118727D01*
X26526754Y-153035000D01*
X30226000Y-153035000D01*
X30248718Y-153032951D01*
X33042718Y-152524951D01*
X33068601Y-152517333D01*
X33090557Y-152505597D01*
X33109803Y-152489803D01*
X33125597Y-152470557D01*
X33137333Y-152448601D01*
X33144560Y-152424776D01*
X33147000Y-152400000D01*
X33147000Y-152077000D01*
X34807971Y-152077000D01*
X34933664Y-152202693D01*
X35159851Y-152353826D01*
X35411177Y-152457929D01*
X35677983Y-152511000D01*
X35950017Y-152511000D01*
X36216823Y-152457929D01*
X36468149Y-152353826D01*
X36694336Y-152202693D01*
X36886029Y-152011000D01*
X37635273Y-152011000D01*
X37672605Y-152007323D01*
X37677167Y-152007355D01*
X37689409Y-152006155D01*
X37763047Y-151998415D01*
X37764706Y-151998252D01*
X37764761Y-151998235D01*
X37837311Y-151990610D01*
X37915541Y-151974551D01*
X37993959Y-151959593D01*
X38005736Y-151956038D01*
X38147802Y-151912061D01*
X38221397Y-151881125D01*
X38295450Y-151851205D01*
X38306312Y-151845430D01*
X38437130Y-151774698D01*
X38503342Y-151730037D01*
X38570145Y-151686322D01*
X38579678Y-151678548D01*
X38694266Y-151583751D01*
X38750534Y-151527088D01*
X38807578Y-151471226D01*
X38815420Y-151461748D01*
X38909412Y-151346502D01*
X38953585Y-151280015D01*
X38998711Y-151214111D01*
X39004562Y-151203290D01*
X39074380Y-151071982D01*
X39104815Y-150998141D01*
X39136264Y-150924766D01*
X39139902Y-150913014D01*
X39182886Y-150770646D01*
X39188256Y-150743524D01*
X39216696Y-150728322D01*
X39274711Y-150680711D01*
X39322322Y-150622696D01*
X39357701Y-150556508D01*
X39379487Y-150484689D01*
X39386843Y-150410000D01*
X39386843Y-149310000D01*
X39379487Y-149235311D01*
X39357701Y-149163492D01*
X39329108Y-149110000D01*
X39357701Y-149056508D01*
X39379487Y-148984689D01*
X39386843Y-148910000D01*
X39386843Y-147810000D01*
X39379487Y-147735311D01*
X39357701Y-147663492D01*
X39322322Y-147597304D01*
X39274711Y-147539289D01*
X39235000Y-147506699D01*
X39235000Y-147193000D01*
X53950000Y-147193000D01*
X53950001Y-162916000D01*
X20980000Y-162916000D01*
X20980000Y-162171413D01*
X31302192Y-162171413D01*
X31397956Y-162435814D01*
X31687571Y-162576704D01*
X31999108Y-162658384D01*
X32320595Y-162677718D01*
X32639675Y-162633961D01*
X32944088Y-162528795D01*
X33118044Y-162435814D01*
X33213808Y-162171413D01*
X32258000Y-161215605D01*
X31302192Y-162171413D01*
X20980000Y-162171413D01*
X20980000Y-144932000D01*
X37211000Y-144932000D01*
X37211000Y-147066000D01*
G37*
X37211000Y-147066000D02*
X37213440Y-147090776D01*
X37220667Y-147114601D01*
X37232403Y-147136557D01*
X37248197Y-147155803D01*
X37267443Y-147171597D01*
X37289399Y-147183333D01*
X37313224Y-147190560D01*
X37338000Y-147193000D01*
X37473000Y-147193000D01*
X37473000Y-147506699D01*
X37433289Y-147539289D01*
X37385678Y-147597304D01*
X37350299Y-147663492D01*
X37328513Y-147735311D01*
X37321157Y-147810000D01*
X37321157Y-148910000D01*
X37328513Y-148984689D01*
X37350299Y-149056508D01*
X37378892Y-149110000D01*
X37350299Y-149163492D01*
X37328513Y-149235311D01*
X37321157Y-149310000D01*
X37321157Y-150249000D01*
X36886029Y-150249000D01*
X36694336Y-150057307D01*
X36468149Y-149906174D01*
X36216823Y-149802071D01*
X35950017Y-149749000D01*
X35677983Y-149749000D01*
X35411177Y-149802071D01*
X35159851Y-149906174D01*
X34933664Y-150057307D01*
X34741307Y-150249664D01*
X34697651Y-150315000D01*
X33147000Y-150315000D01*
X33147000Y-150114000D01*
X33144134Y-150087172D01*
X33136515Y-150063470D01*
X33124418Y-150041710D01*
X33108309Y-150022728D01*
X33088806Y-150007254D01*
X33066659Y-149995882D01*
X33042718Y-149989049D01*
X30248718Y-149481049D01*
X30226000Y-149479000D01*
X28042922Y-149479000D01*
X27272921Y-148709000D01*
X28888699Y-148709000D01*
X28921289Y-148748711D01*
X28979304Y-148796322D01*
X29045492Y-148831701D01*
X29117311Y-148853487D01*
X29192000Y-148860843D01*
X30292000Y-148860843D01*
X30366689Y-148853487D01*
X30438508Y-148831701D01*
X30492000Y-148803108D01*
X30545492Y-148831701D01*
X30617311Y-148853487D01*
X30692000Y-148860843D01*
X31792000Y-148860843D01*
X31866689Y-148853487D01*
X31938508Y-148831701D01*
X32004696Y-148796322D01*
X32062711Y-148748711D01*
X32095301Y-148709000D01*
X32912423Y-148709000D01*
X32913138Y-148712482D01*
X32918396Y-148764205D01*
X32934698Y-148817511D01*
X32940381Y-148845198D01*
X32950596Y-148869498D01*
X32968679Y-148928630D01*
X33000011Y-148987054D01*
X33007011Y-149003705D01*
X33016433Y-149017674D01*
X33049942Y-149080156D01*
X33098186Y-149138880D01*
X33103158Y-149146251D01*
X33109043Y-149152095D01*
X33159089Y-149213012D01*
X33224403Y-149266652D01*
X33225163Y-149267407D01*
X33225996Y-149267960D01*
X33291963Y-149322137D01*
X33443502Y-149403375D01*
X33607933Y-149453633D01*
X33778996Y-149470995D01*
X33950173Y-149454800D01*
X34114943Y-149405665D01*
X34267033Y-149325461D01*
X34338322Y-149267723D01*
X34338799Y-149267406D01*
X34339178Y-149267030D01*
X34400647Y-149217245D01*
X34454926Y-149152087D01*
X34460803Y-149146251D01*
X34465123Y-149139847D01*
X34510698Y-149085137D01*
X34547236Y-149018108D01*
X34556951Y-149003705D01*
X34563231Y-148988765D01*
X34592992Y-148934169D01*
X34612921Y-148870557D01*
X34623581Y-148845199D01*
X34628740Y-148820065D01*
X34644397Y-148770091D01*
X34650455Y-148714279D01*
X34658155Y-148676770D01*
X34658404Y-148641050D01*
X34662952Y-148599155D01*
X34662994Y-148586854D01*
X34662975Y-148581534D01*
X34659087Y-148543286D01*
X34659355Y-148504833D01*
X34658155Y-148492591D01*
X34642610Y-148344690D01*
X34626559Y-148266499D01*
X34611593Y-148188041D01*
X34608038Y-148176265D01*
X34564062Y-148034198D01*
X34533110Y-147960567D01*
X34503205Y-147886549D01*
X34497430Y-147875688D01*
X34426697Y-147744870D01*
X34382042Y-147678667D01*
X34338322Y-147611856D01*
X34330548Y-147602323D01*
X34235752Y-147487734D01*
X34179088Y-147431465D01*
X34123226Y-147374421D01*
X34113748Y-147366580D01*
X33998501Y-147272587D01*
X33932006Y-147228409D01*
X33866111Y-147183289D01*
X33855290Y-147177438D01*
X33723982Y-147107620D01*
X33650172Y-147077198D01*
X33576765Y-147045736D01*
X33565014Y-147042098D01*
X33422645Y-146999114D01*
X33344294Y-146983600D01*
X33266210Y-146967003D01*
X33253981Y-146965717D01*
X33253977Y-146965717D01*
X33105969Y-146951205D01*
X33105967Y-146951205D01*
X33063273Y-146947000D01*
X32095301Y-146947000D01*
X32062711Y-146907289D01*
X32004696Y-146859678D01*
X31938508Y-146824299D01*
X31866689Y-146802513D01*
X31792000Y-146795157D01*
X30692000Y-146795157D01*
X30617311Y-146802513D01*
X30545492Y-146824299D01*
X30492000Y-146852892D01*
X30438508Y-146824299D01*
X30366689Y-146802513D01*
X30292000Y-146795157D01*
X29192000Y-146795157D01*
X29117311Y-146802513D01*
X29045492Y-146824299D01*
X28979304Y-146859678D01*
X28921289Y-146907289D01*
X28888699Y-146947000D01*
X26459270Y-146947000D01*
X26416000Y-146942738D01*
X26372730Y-146947000D01*
X26372727Y-146947000D01*
X26243294Y-146959748D01*
X26106815Y-147001149D01*
X26077225Y-147010125D01*
X25924174Y-147091932D01*
X25856022Y-147147863D01*
X25790025Y-147202025D01*
X25762438Y-147235640D01*
X25024922Y-147973157D01*
X24942000Y-147973157D01*
X24867311Y-147980513D01*
X24795492Y-148002299D01*
X24729304Y-148037678D01*
X24671289Y-148085289D01*
X24623678Y-148143304D01*
X24588299Y-148209492D01*
X24566513Y-148281311D01*
X24559157Y-148356000D01*
X24559157Y-148956000D01*
X24564702Y-149012303D01*
X24534696Y-148987678D01*
X24468508Y-148952299D01*
X24396689Y-148930513D01*
X24322000Y-148923157D01*
X24178680Y-148923157D01*
X24113825Y-148869932D01*
X23960775Y-148788125D01*
X23794706Y-148737748D01*
X23665273Y-148725000D01*
X23265270Y-148725000D01*
X23222000Y-148720738D01*
X23178730Y-148725000D01*
X23178727Y-148725000D01*
X23049294Y-148737748D01*
X22894928Y-148784575D01*
X22883225Y-148788125D01*
X22730175Y-148869932D01*
X22629637Y-148952440D01*
X22629634Y-148952443D01*
X22596025Y-148980025D01*
X22568443Y-149013635D01*
X22013644Y-149568435D01*
X21980025Y-149596025D01*
X21907021Y-149684983D01*
X21869932Y-149730175D01*
X21845853Y-149775224D01*
X21788125Y-149883226D01*
X21737748Y-150049295D01*
X21727379Y-150154572D01*
X21720738Y-150222000D01*
X21725000Y-150265270D01*
X21725001Y-156650699D01*
X21685289Y-156683289D01*
X21637678Y-156741304D01*
X21602299Y-156807492D01*
X21580513Y-156879311D01*
X21573157Y-156954000D01*
X21573157Y-158054000D01*
X21580513Y-158128689D01*
X21602299Y-158200508D01*
X21630892Y-158254000D01*
X21602299Y-158307492D01*
X21580513Y-158379311D01*
X21573157Y-158454000D01*
X21573157Y-159554000D01*
X21580513Y-159628689D01*
X21602299Y-159700508D01*
X21637678Y-159766696D01*
X21685289Y-159824711D01*
X21725001Y-159857301D01*
X21725000Y-160825272D01*
X21737748Y-160954705D01*
X21788125Y-161120774D01*
X21869932Y-161273824D01*
X21980025Y-161407975D01*
X22114175Y-161518068D01*
X22267225Y-161599875D01*
X22433294Y-161650252D01*
X22606000Y-161667262D01*
X22778705Y-161650252D01*
X22944774Y-161599875D01*
X23097824Y-161518068D01*
X23231975Y-161407975D01*
X23342068Y-161273825D01*
X23423875Y-161120775D01*
X23474252Y-160954706D01*
X23487000Y-160825273D01*
X23487000Y-159857301D01*
X23526711Y-159824711D01*
X23574322Y-159766696D01*
X23609701Y-159700508D01*
X23631487Y-159628689D01*
X23638843Y-159554000D01*
X23638843Y-158454000D01*
X23631487Y-158379311D01*
X23609701Y-158307492D01*
X23581108Y-158254000D01*
X23609701Y-158200508D01*
X23631487Y-158128689D01*
X23638843Y-158054000D01*
X23638843Y-156954000D01*
X23631487Y-156879311D01*
X23609701Y-156807492D01*
X23574322Y-156741304D01*
X23526711Y-156683289D01*
X23487000Y-156650699D01*
X23487000Y-150586922D01*
X23586922Y-150487000D01*
X23665273Y-150487000D01*
X23794706Y-150474252D01*
X23960775Y-150423875D01*
X24113825Y-150342068D01*
X24178680Y-150288843D01*
X24322000Y-150288843D01*
X24396689Y-150281487D01*
X24468508Y-150259701D01*
X24534696Y-150224322D01*
X24592711Y-150176711D01*
X24640322Y-150118696D01*
X24675701Y-150052508D01*
X24697487Y-149980689D01*
X24704843Y-149906000D01*
X24704843Y-149306000D01*
X24699298Y-149249697D01*
X24729304Y-149274322D01*
X24795492Y-149309701D01*
X24867311Y-149331487D01*
X24942000Y-149338843D01*
X25085320Y-149338843D01*
X25150175Y-149392068D01*
X25303225Y-149473875D01*
X25469294Y-149524252D01*
X25598727Y-149537000D01*
X25609079Y-149537000D01*
X26035000Y-149962921D01*
X26035000Y-151312409D01*
X26014041Y-151316407D01*
X26002265Y-151319962D01*
X25860198Y-151363938D01*
X25786567Y-151394890D01*
X25712549Y-151424795D01*
X25701688Y-151430570D01*
X25570870Y-151501303D01*
X25504667Y-151545958D01*
X25437856Y-151589678D01*
X25428323Y-151597452D01*
X25313734Y-151692248D01*
X25257465Y-151748912D01*
X25200421Y-151804774D01*
X25192580Y-151814252D01*
X25098587Y-151929499D01*
X25054409Y-151995994D01*
X25009289Y-152061889D01*
X25003438Y-152072710D01*
X24933620Y-152204018D01*
X24903198Y-152277828D01*
X24871736Y-152351235D01*
X24868098Y-152362986D01*
X24825114Y-152505355D01*
X24809600Y-152583706D01*
X24793003Y-152661790D01*
X24791717Y-152674023D01*
X24777205Y-152822031D01*
X24777205Y-152993971D01*
X24782603Y-153021231D01*
X24773000Y-153118728D01*
X24773000Y-153867971D01*
X24581307Y-154059664D01*
X24430174Y-154285851D01*
X24326071Y-154537177D01*
X24273000Y-154803983D01*
X24273000Y-155076017D01*
X24326071Y-155342823D01*
X24430174Y-155594149D01*
X24581307Y-155820336D01*
X24773001Y-156012030D01*
X24773000Y-158658699D01*
X24733289Y-158691289D01*
X24685678Y-158749304D01*
X24650299Y-158815492D01*
X24628513Y-158887311D01*
X24621157Y-158962000D01*
X24621157Y-160062000D01*
X24628513Y-160136689D01*
X24650299Y-160208508D01*
X24678892Y-160262000D01*
X24650299Y-160315492D01*
X24628513Y-160387311D01*
X24621157Y-160462000D01*
X24621157Y-161562000D01*
X24628513Y-161636689D01*
X24650299Y-161708508D01*
X24685678Y-161774696D01*
X24733289Y-161832711D01*
X24791304Y-161880322D01*
X24857492Y-161915701D01*
X24929311Y-161937487D01*
X25004000Y-161944843D01*
X26304000Y-161944843D01*
X26378689Y-161937487D01*
X26446226Y-161917000D01*
X27475273Y-161917000D01*
X27512605Y-161913323D01*
X27517167Y-161913355D01*
X27529409Y-161912155D01*
X27603047Y-161904415D01*
X27604706Y-161904252D01*
X27604761Y-161904235D01*
X27677311Y-161896610D01*
X27755541Y-161880551D01*
X27833959Y-161865593D01*
X27845736Y-161862038D01*
X27987802Y-161818061D01*
X28061397Y-161787125D01*
X28135450Y-161757205D01*
X28146312Y-161751430D01*
X28277130Y-161680698D01*
X28343342Y-161636037D01*
X28410145Y-161592322D01*
X28419678Y-161584548D01*
X28534266Y-161489751D01*
X28590534Y-161433088D01*
X28647578Y-161377226D01*
X28655420Y-161367748D01*
X28749412Y-161252502D01*
X28793585Y-161186015D01*
X28838711Y-161120111D01*
X28844562Y-161109290D01*
X28850248Y-161098595D01*
X30616282Y-161098595D01*
X30660039Y-161417675D01*
X30765205Y-161722088D01*
X30858186Y-161896044D01*
X31122587Y-161991808D01*
X32078395Y-161036000D01*
X32437605Y-161036000D01*
X33393413Y-161991808D01*
X33657814Y-161896044D01*
X33798704Y-161606429D01*
X33880384Y-161294892D01*
X33885273Y-161213606D01*
X33930071Y-161438823D01*
X34034174Y-161690149D01*
X34185307Y-161916336D01*
X34377664Y-162108693D01*
X34603851Y-162259826D01*
X34855177Y-162363929D01*
X35121983Y-162417000D01*
X35394017Y-162417000D01*
X35660823Y-162363929D01*
X35912149Y-162259826D01*
X36051073Y-162167000D01*
X38997451Y-162167000D01*
X39207674Y-162307466D01*
X39459000Y-162411569D01*
X39725806Y-162464640D01*
X39997840Y-162464640D01*
X40264646Y-162411569D01*
X40515972Y-162307466D01*
X40742159Y-162156333D01*
X40934516Y-161963976D01*
X40965904Y-161917000D01*
X45064730Y-161917000D01*
X45108000Y-161921262D01*
X45151270Y-161917000D01*
X45151273Y-161917000D01*
X45280706Y-161904252D01*
X45446775Y-161853875D01*
X45599825Y-161772068D01*
X45722978Y-161671000D01*
X49276000Y-161671000D01*
X49300776Y-161668560D01*
X49324601Y-161661333D01*
X49346557Y-161649597D01*
X49365803Y-161633803D01*
X50127803Y-160871803D01*
X50143597Y-160852557D01*
X50155333Y-160830601D01*
X50162560Y-160806776D01*
X50165000Y-160782000D01*
X50165000Y-159428843D01*
X50180000Y-159428843D01*
X50254689Y-159421487D01*
X50326508Y-159399701D01*
X50368978Y-159377000D01*
X50708699Y-159377000D01*
X50741289Y-159416711D01*
X50799304Y-159464322D01*
X50865492Y-159499701D01*
X50937311Y-159521487D01*
X51012000Y-159528843D01*
X52112000Y-159528843D01*
X52186689Y-159521487D01*
X52258508Y-159499701D01*
X52324696Y-159464322D01*
X52382711Y-159416711D01*
X52430322Y-159358696D01*
X52465701Y-159292508D01*
X52487487Y-159220689D01*
X52494843Y-159146000D01*
X52494843Y-158115000D01*
X52832000Y-158115000D01*
X52856776Y-158112560D01*
X52880601Y-158105333D01*
X52902557Y-158093597D01*
X52921803Y-158077803D01*
X52937597Y-158058557D01*
X52949333Y-158036601D01*
X52956560Y-158012776D01*
X52959000Y-157988000D01*
X52959000Y-155702000D01*
X52956560Y-155677224D01*
X52949333Y-155653399D01*
X52937597Y-155631443D01*
X52921803Y-155612197D01*
X52902557Y-155596403D01*
X52880601Y-155584667D01*
X52856776Y-155577440D01*
X52832000Y-155575000D01*
X51614606Y-155575000D01*
X51397803Y-155358197D01*
X51378557Y-155342403D01*
X51356601Y-155330667D01*
X51332776Y-155323440D01*
X51308000Y-155321000D01*
X51065763Y-155321000D01*
X51030711Y-155278289D01*
X50972696Y-155230678D01*
X50906508Y-155195299D01*
X50834689Y-155173513D01*
X50760000Y-155166157D01*
X49360000Y-155166157D01*
X49285311Y-155173513D01*
X49213492Y-155195299D01*
X49160000Y-155223892D01*
X49106508Y-155195299D01*
X49034689Y-155173513D01*
X48960000Y-155166157D01*
X47560000Y-155166157D01*
X47485311Y-155173513D01*
X47413492Y-155195299D01*
X47347304Y-155230678D01*
X47332289Y-155243000D01*
X46968886Y-155243000D01*
X46942322Y-155193304D01*
X46894711Y-155135289D01*
X46836696Y-155087678D01*
X46770508Y-155052299D01*
X46698689Y-155030513D01*
X46624000Y-155023157D01*
X45324000Y-155023157D01*
X45249311Y-155030513D01*
X45177492Y-155052299D01*
X45111304Y-155087678D01*
X45053289Y-155135289D01*
X45005678Y-155193304D01*
X44970299Y-155259492D01*
X44948513Y-155331311D01*
X44941157Y-155406000D01*
X44941157Y-156506000D01*
X44948513Y-156580689D01*
X44970299Y-156652508D01*
X45005678Y-156718696D01*
X45053289Y-156776711D01*
X45093001Y-156809301D01*
X45093001Y-157462718D01*
X45093000Y-157462728D01*
X45093000Y-157703774D01*
X45072513Y-157771311D01*
X45065157Y-157846000D01*
X45065157Y-159146000D01*
X45072513Y-159220689D01*
X45094299Y-159292508D01*
X45117001Y-159334979D01*
X45117001Y-159781078D01*
X44743079Y-160155000D01*
X40886212Y-160155000D01*
X40742159Y-160010947D01*
X40515972Y-159859814D01*
X40264646Y-159755711D01*
X39997840Y-159702640D01*
X39725806Y-159702640D01*
X39459000Y-159755711D01*
X39207674Y-159859814D01*
X39140048Y-159905000D01*
X36051073Y-159905000D01*
X35912149Y-159812174D01*
X35660823Y-159708071D01*
X35394017Y-159655000D01*
X35121983Y-159655000D01*
X34855177Y-159708071D01*
X34603851Y-159812174D01*
X34377664Y-159963307D01*
X34185307Y-160155664D01*
X34034174Y-160381851D01*
X33930071Y-160633177D01*
X33884487Y-160862342D01*
X33855961Y-160654325D01*
X33750795Y-160349912D01*
X33657814Y-160175956D01*
X33393413Y-160080192D01*
X32437605Y-161036000D01*
X32078395Y-161036000D01*
X31122587Y-160080192D01*
X30858186Y-160175956D01*
X30717296Y-160465571D01*
X30635616Y-160777108D01*
X30616282Y-161098595D01*
X28850248Y-161098595D01*
X28914380Y-160977982D01*
X28944815Y-160904141D01*
X28976264Y-160830766D01*
X28979902Y-160819014D01*
X29022886Y-160676646D01*
X29038390Y-160598342D01*
X29054998Y-160520210D01*
X29056283Y-160507976D01*
X29070795Y-160359969D01*
X29070795Y-160359967D01*
X29075000Y-160317273D01*
X29075000Y-159900587D01*
X31302192Y-159900587D01*
X32258000Y-160856395D01*
X33213808Y-159900587D01*
X33118044Y-159636186D01*
X32828429Y-159495296D01*
X32516892Y-159413616D01*
X32195405Y-159394282D01*
X31876325Y-159438039D01*
X31571912Y-159543205D01*
X31397956Y-159636186D01*
X31302192Y-159900587D01*
X29075000Y-159900587D01*
X29075000Y-158552029D01*
X29266693Y-158360336D01*
X29417826Y-158134149D01*
X29521929Y-157882823D01*
X29575000Y-157616017D01*
X29575000Y-157480000D01*
X40262738Y-157480000D01*
X40279749Y-157652705D01*
X40330125Y-157818774D01*
X40411932Y-157971825D01*
X40522026Y-158105974D01*
X40656175Y-158216068D01*
X40809226Y-158297875D01*
X40975295Y-158348251D01*
X41148000Y-158365262D01*
X41320705Y-158348251D01*
X41486774Y-158297875D01*
X41639825Y-158216068D01*
X41740362Y-158133559D01*
X42817559Y-157056363D01*
X42900068Y-156955826D01*
X42981875Y-156802775D01*
X43032251Y-156636706D01*
X43048486Y-156471883D01*
X44224259Y-155296110D01*
X44248333Y-155276353D01*
X44275706Y-155243000D01*
X44327186Y-155180271D01*
X44385779Y-155070652D01*
X44401421Y-155019087D01*
X44421860Y-154951708D01*
X44430990Y-154859008D01*
X44430990Y-154858999D01*
X44434042Y-154828011D01*
X44430990Y-154797023D01*
X44430990Y-154581378D01*
X45219368Y-153793000D01*
X46811632Y-153793000D01*
X47177157Y-154158526D01*
X47177157Y-154199000D01*
X47184513Y-154273689D01*
X47206299Y-154345508D01*
X47241678Y-154411696D01*
X47289289Y-154469711D01*
X47347304Y-154517322D01*
X47413492Y-154552701D01*
X47485311Y-154574487D01*
X47560000Y-154581843D01*
X48960000Y-154581843D01*
X49034689Y-154574487D01*
X49106508Y-154552701D01*
X49160000Y-154524108D01*
X49213492Y-154552701D01*
X49285311Y-154574487D01*
X49360000Y-154581843D01*
X50760000Y-154581843D01*
X50834689Y-154574487D01*
X50906508Y-154552701D01*
X50972696Y-154517322D01*
X51030711Y-154469711D01*
X51053424Y-154442035D01*
X51138343Y-154372343D01*
X51158105Y-154348263D01*
X51185368Y-154321000D01*
X51485022Y-154321000D01*
X51527492Y-154343701D01*
X51599311Y-154365487D01*
X51674000Y-154372843D01*
X52974000Y-154372843D01*
X53048689Y-154365487D01*
X53120508Y-154343701D01*
X53186696Y-154308322D01*
X53244711Y-154260711D01*
X53292322Y-154202696D01*
X53327701Y-154136508D01*
X53349487Y-154064689D01*
X53356843Y-153990000D01*
X53356843Y-152890000D01*
X53349487Y-152815311D01*
X53327701Y-152743492D01*
X53292322Y-152677304D01*
X53244711Y-152619289D01*
X53205000Y-152586699D01*
X53205000Y-151935273D01*
X53209262Y-151892000D01*
X53199537Y-151793255D01*
X53192252Y-151719294D01*
X53141875Y-151553225D01*
X53060068Y-151400175D01*
X52949975Y-151266025D01*
X52916363Y-151238441D01*
X52815825Y-151155932D01*
X52662775Y-151074125D01*
X52496706Y-151023748D01*
X52367273Y-151011000D01*
X52324000Y-151006738D01*
X52280727Y-151011000D01*
X51605273Y-151011000D01*
X51562000Y-151006738D01*
X51518727Y-151011000D01*
X50129301Y-151011000D01*
X50096711Y-150971289D01*
X50038696Y-150923678D01*
X49972508Y-150888299D01*
X49900689Y-150866513D01*
X49826000Y-150859157D01*
X48726000Y-150859157D01*
X48651311Y-150866513D01*
X48579492Y-150888299D01*
X48526000Y-150916892D01*
X48472508Y-150888299D01*
X48400689Y-150866513D01*
X48326000Y-150859157D01*
X47226000Y-150859157D01*
X47151311Y-150866513D01*
X47079492Y-150888299D01*
X47013304Y-150923678D01*
X46955289Y-150971289D01*
X46907678Y-151029304D01*
X46872299Y-151095492D01*
X46850513Y-151167311D01*
X46847486Y-151198041D01*
X46709809Y-151141013D01*
X46558922Y-151111000D01*
X46405078Y-151111000D01*
X46254191Y-151141013D01*
X46112058Y-151199887D01*
X45984141Y-151285358D01*
X45875358Y-151394141D01*
X45789887Y-151522058D01*
X45731013Y-151664191D01*
X45701000Y-151815078D01*
X45701000Y-151968922D01*
X45731013Y-152119809D01*
X45789887Y-152261942D01*
X45875358Y-152389859D01*
X45984141Y-152498642D01*
X46032568Y-152531000D01*
X44988987Y-152531000D01*
X44957999Y-152527948D01*
X44927011Y-152531000D01*
X44927002Y-152531000D01*
X44834302Y-152540130D01*
X44715358Y-152576211D01*
X44605739Y-152634804D01*
X44509657Y-152713657D01*
X44489895Y-152737737D01*
X43375723Y-153851909D01*
X43351648Y-153871667D01*
X43272794Y-153967749D01*
X43214201Y-154077368D01*
X43178120Y-154196312D01*
X43168990Y-154289012D01*
X43168990Y-154289020D01*
X43165938Y-154320010D01*
X43168990Y-154351000D01*
X43168990Y-154566641D01*
X42156117Y-155579514D01*
X41991294Y-155595749D01*
X41825225Y-155646125D01*
X41672174Y-155727932D01*
X41571637Y-155810441D01*
X40494441Y-156887638D01*
X40411932Y-156988175D01*
X40330125Y-157141226D01*
X40279749Y-157307295D01*
X40262738Y-157480000D01*
X29575000Y-157480000D01*
X29575000Y-157343983D01*
X29521929Y-157077177D01*
X29417826Y-156825851D01*
X29266693Y-156599664D01*
X29074336Y-156407307D01*
X28848149Y-156256174D01*
X28596823Y-156152071D01*
X28330017Y-156099000D01*
X28057983Y-156099000D01*
X27791177Y-156152071D01*
X27539851Y-156256174D01*
X27313664Y-156407307D01*
X27121307Y-156599664D01*
X26970174Y-156825851D01*
X26866071Y-157077177D01*
X26813000Y-157343983D01*
X26813000Y-157616017D01*
X26866071Y-157882823D01*
X26970174Y-158134149D01*
X27121307Y-158360336D01*
X27313001Y-158552030D01*
X27313000Y-160155000D01*
X26673932Y-160155000D01*
X26679487Y-160136689D01*
X26686843Y-160062000D01*
X26686843Y-158962000D01*
X26679487Y-158887311D01*
X26657701Y-158815492D01*
X26622322Y-158749304D01*
X26574711Y-158691289D01*
X26535000Y-158658699D01*
X26535000Y-156075413D01*
X29778192Y-156075413D01*
X29873956Y-156339814D01*
X30163571Y-156480704D01*
X30475108Y-156562384D01*
X30796595Y-156581718D01*
X31115675Y-156537961D01*
X31420088Y-156432795D01*
X31594044Y-156339814D01*
X31689808Y-156075413D01*
X30734000Y-155119605D01*
X29778192Y-156075413D01*
X26535000Y-156075413D01*
X26535000Y-156012029D01*
X26726693Y-155820336D01*
X26877826Y-155594149D01*
X26981929Y-155342823D01*
X27035000Y-155076017D01*
X27035000Y-155002595D01*
X29092282Y-155002595D01*
X29136039Y-155321675D01*
X29241205Y-155626088D01*
X29334186Y-155800044D01*
X29598587Y-155895808D01*
X30554395Y-154940000D01*
X30913605Y-154940000D01*
X31869413Y-155895808D01*
X32133814Y-155800044D01*
X32274704Y-155510429D01*
X32356384Y-155198892D01*
X32375718Y-154877405D01*
X32365650Y-154803983D01*
X34179000Y-154803983D01*
X34179000Y-155076017D01*
X34232071Y-155342823D01*
X34336174Y-155594149D01*
X34487307Y-155820336D01*
X34679664Y-156012693D01*
X34905851Y-156163826D01*
X35157177Y-156267929D01*
X35423983Y-156321000D01*
X35696017Y-156321000D01*
X35962823Y-156267929D01*
X36214149Y-156163826D01*
X36440336Y-156012693D01*
X36552942Y-155900087D01*
X38631058Y-155900087D01*
X38822751Y-156091780D01*
X39048938Y-156242913D01*
X39300264Y-156347016D01*
X39567070Y-156400087D01*
X39839104Y-156400087D01*
X40105910Y-156347016D01*
X40357236Y-156242913D01*
X40583423Y-156091780D01*
X40775780Y-155899423D01*
X40926913Y-155673236D01*
X41031016Y-155421910D01*
X41084087Y-155155104D01*
X41084087Y-154883070D01*
X41031016Y-154616264D01*
X40926913Y-154364938D01*
X40775780Y-154138751D01*
X40583423Y-153946394D01*
X40357236Y-153795261D01*
X40105910Y-153691158D01*
X39839104Y-153638087D01*
X39567070Y-153638087D01*
X39300264Y-153691158D01*
X39048938Y-153795261D01*
X38822751Y-153946394D01*
X38631058Y-154138087D01*
X36685093Y-154138087D01*
X36632693Y-154059664D01*
X36440336Y-153867307D01*
X36214149Y-153716174D01*
X35962823Y-153612071D01*
X35696017Y-153559000D01*
X35423983Y-153559000D01*
X35157177Y-153612071D01*
X34905851Y-153716174D01*
X34679664Y-153867307D01*
X34487307Y-154059664D01*
X34336174Y-154285851D01*
X34232071Y-154537177D01*
X34179000Y-154803983D01*
X32365650Y-154803983D01*
X32331961Y-154558325D01*
X32226795Y-154253912D01*
X32133814Y-154079956D01*
X31869413Y-153984192D01*
X30913605Y-154940000D01*
X30554395Y-154940000D01*
X29598587Y-153984192D01*
X29334186Y-154079956D01*
X29193296Y-154369571D01*
X29111616Y-154681108D01*
X29092282Y-155002595D01*
X27035000Y-155002595D01*
X27035000Y-154803983D01*
X26981929Y-154537177D01*
X26877826Y-154285851D01*
X26726693Y-154059664D01*
X26535000Y-153867971D01*
X26535000Y-153804587D01*
X29778192Y-153804587D01*
X30734000Y-154760395D01*
X31689808Y-153804587D01*
X31594044Y-153540186D01*
X31304429Y-153399296D01*
X30992892Y-153317616D01*
X30671405Y-153298282D01*
X30352325Y-153342039D01*
X30047912Y-153447205D01*
X29873956Y-153540186D01*
X29778192Y-153804587D01*
X26535000Y-153804587D01*
X26535000Y-153118727D01*
X26526754Y-153035000D01*
X30226000Y-153035000D01*
X30248718Y-153032951D01*
X33042718Y-152524951D01*
X33068601Y-152517333D01*
X33090557Y-152505597D01*
X33109803Y-152489803D01*
X33125597Y-152470557D01*
X33137333Y-152448601D01*
X33144560Y-152424776D01*
X33147000Y-152400000D01*
X33147000Y-152077000D01*
X34807971Y-152077000D01*
X34933664Y-152202693D01*
X35159851Y-152353826D01*
X35411177Y-152457929D01*
X35677983Y-152511000D01*
X35950017Y-152511000D01*
X36216823Y-152457929D01*
X36468149Y-152353826D01*
X36694336Y-152202693D01*
X36886029Y-152011000D01*
X37635273Y-152011000D01*
X37672605Y-152007323D01*
X37677167Y-152007355D01*
X37689409Y-152006155D01*
X37763047Y-151998415D01*
X37764706Y-151998252D01*
X37764761Y-151998235D01*
X37837311Y-151990610D01*
X37915541Y-151974551D01*
X37993959Y-151959593D01*
X38005736Y-151956038D01*
X38147802Y-151912061D01*
X38221397Y-151881125D01*
X38295450Y-151851205D01*
X38306312Y-151845430D01*
X38437130Y-151774698D01*
X38503342Y-151730037D01*
X38570145Y-151686322D01*
X38579678Y-151678548D01*
X38694266Y-151583751D01*
X38750534Y-151527088D01*
X38807578Y-151471226D01*
X38815420Y-151461748D01*
X38909412Y-151346502D01*
X38953585Y-151280015D01*
X38998711Y-151214111D01*
X39004562Y-151203290D01*
X39074380Y-151071982D01*
X39104815Y-150998141D01*
X39136264Y-150924766D01*
X39139902Y-150913014D01*
X39182886Y-150770646D01*
X39188256Y-150743524D01*
X39216696Y-150728322D01*
X39274711Y-150680711D01*
X39322322Y-150622696D01*
X39357701Y-150556508D01*
X39379487Y-150484689D01*
X39386843Y-150410000D01*
X39386843Y-149310000D01*
X39379487Y-149235311D01*
X39357701Y-149163492D01*
X39329108Y-149110000D01*
X39357701Y-149056508D01*
X39379487Y-148984689D01*
X39386843Y-148910000D01*
X39386843Y-147810000D01*
X39379487Y-147735311D01*
X39357701Y-147663492D01*
X39322322Y-147597304D01*
X39274711Y-147539289D01*
X39235000Y-147506699D01*
X39235000Y-147193000D01*
X53950000Y-147193000D01*
X53950001Y-162916000D01*
X20980000Y-162916000D01*
X20980000Y-162171413D01*
X31302192Y-162171413D01*
X31397956Y-162435814D01*
X31687571Y-162576704D01*
X31999108Y-162658384D01*
X32320595Y-162677718D01*
X32639675Y-162633961D01*
X32944088Y-162528795D01*
X33118044Y-162435814D01*
X33213808Y-162171413D01*
X32258000Y-161215605D01*
X31302192Y-162171413D01*
X20980000Y-162171413D01*
X20980000Y-144932000D01*
X37211000Y-144932000D01*
X37211000Y-147066000D01*
M02*
