M48
; DRILL file {KiCad (5.1.5-0-10_14)} date Wednesday, 24 November 2021 at 22:47:13
; FORMAT={-:-/ absolute / inch / decimal}
; #@! TF.CreationDate,2021-11-24T22:47:13+00:00
; #@! TF.GenerationSoftware,Kicad,Pcbnew,(5.1.5-0-10_14)
FMAT,2
INCH
T1C0.0157
T2C0.0394
%
G90
G05
T1
X0.86Y-6.4
X0.89Y-5.77
X0.89Y-6.33
X0.9Y-6.4
X0.93Y-5.77
X0.94Y-6.4
X0.96Y-5.96
X0.96Y-6.0
X0.97Y-5.77
X1.01Y-5.77
X1.05Y-5.77
X1.11Y-6.1
X1.33Y-5.85
X1.41Y-5.81
X1.41Y-5.85
X1.44Y-6.03
X1.44Y-6.4
X1.48Y-6.03
X1.48Y-6.17
X1.48Y-6.4
X1.52Y-6.03
X1.52Y-6.17
X1.52Y-6.4
X1.62Y-5.81
X1.62Y-6.2
X1.66Y-5.81
X1.66Y-6.16
X1.7Y-5.81
X1.74Y-5.81
X1.78Y-5.81
X1.82Y-5.81
X1.83Y-5.98
X1.86Y-5.81
X1.9Y-5.81
X1.94Y-5.81
X1.98Y-5.81
X2.0Y-5.98
X2.0Y-6.02
X2.0098Y-6.1802
X2.02Y-5.81
X2.0415Y-5.98
X2.06Y-5.81
X2.1Y-5.81
X2.1Y-6.14
X2.1Y-6.1809
T2
X1.41Y-5.95
X1.5631Y-6.1031
X1.01Y-6.1
X1.11Y-6.2
X1.21Y-6.1
X1.4Y-6.1
X1.5694Y-6.3419
X1.27Y-6.34
X1.3881Y-6.34
T0
M30
