G04 #@! TF.GenerationSoftware,KiCad,Pcbnew,(5.1.5-0-10_14)*
G04 #@! TF.CreationDate,2021-11-24T22:53:40+00:00*
G04 #@! TF.ProjectId,throwie,7468726f-7769-4652-9e6b-696361645f70,rev?*
G04 #@! TF.SameCoordinates,Original*
G04 #@! TF.FileFunction,Legend,Top*
G04 #@! TF.FilePolarity,Positive*
%FSLAX46Y46*%
G04 Gerber Fmt 4.6, Leading zero omitted, Abs format (unit mm)*
G04 Created by KiCad (PCBNEW (5.1.5-0-10_14)) date 2021-11-24 22:53:40*
%MOMM*%
%LPD*%
G04 APERTURE LIST*
%ADD10C,0.150000*%
%ADD11C,0.120000*%
%ADD12C,0.100000*%
%ADD13C,0.200000*%
G04 APERTURE END LIST*
D10*
X39774952Y-150788666D02*
X40251142Y-150788666D01*
X39679714Y-151074380D02*
X40013047Y-150074380D01*
X40346380Y-151074380D01*
X40965428Y-150074380D02*
X40965428Y-150788666D01*
X40917809Y-150931523D01*
X40822571Y-151026761D01*
X40679714Y-151074380D01*
X40584476Y-151074380D01*
X42013047Y-151074380D02*
X41679714Y-150598190D01*
X41441619Y-151074380D02*
X41441619Y-150074380D01*
X41822571Y-150074380D01*
X41917809Y-150122000D01*
X41965428Y-150169619D01*
X42013047Y-150264857D01*
X42013047Y-150407714D01*
X41965428Y-150502952D01*
X41917809Y-150550571D01*
X41822571Y-150598190D01*
X41441619Y-150598190D01*
X49292095Y-149550380D02*
X48958761Y-149074190D01*
X48720666Y-149550380D02*
X48720666Y-148550380D01*
X49101619Y-148550380D01*
X49196857Y-148598000D01*
X49244476Y-148645619D01*
X49292095Y-148740857D01*
X49292095Y-148883714D01*
X49244476Y-148978952D01*
X49196857Y-149026571D01*
X49101619Y-149074190D01*
X48720666Y-149074190D01*
X50101619Y-149502761D02*
X50006380Y-149550380D01*
X49815904Y-149550380D01*
X49720666Y-149502761D01*
X49673047Y-149407523D01*
X49673047Y-149026571D01*
X49720666Y-148931333D01*
X49815904Y-148883714D01*
X50006380Y-148883714D01*
X50101619Y-148931333D01*
X50149238Y-149026571D01*
X50149238Y-149121809D01*
X49673047Y-149217047D01*
X50482571Y-148883714D02*
X50720666Y-149550380D01*
X50958761Y-148883714D01*
X52434952Y-149026571D02*
X52577809Y-149074190D01*
X52625428Y-149121809D01*
X52673047Y-149217047D01*
X52673047Y-149359904D01*
X52625428Y-149455142D01*
X52577809Y-149502761D01*
X52482571Y-149550380D01*
X52101619Y-149550380D01*
X52101619Y-148550380D01*
X52434952Y-148550380D01*
X52530190Y-148598000D01*
X52577809Y-148645619D01*
X52625428Y-148740857D01*
X52625428Y-148836095D01*
X52577809Y-148931333D01*
X52530190Y-148978952D01*
X52434952Y-149026571D01*
X52101619Y-149026571D01*
D11*
X36576000Y-152400000D02*
X38354000Y-154178000D01*
X37084000Y-151892000D02*
X38862000Y-153670000D01*
X36576000Y-155702000D02*
X39370000Y-159766000D01*
X36068000Y-156210000D02*
X38862000Y-160274000D01*
X27808248Y-152050103D02*
G75*
G02X28448000Y-153416000I-1138248J-1365897D01*
G01*
D10*
X37743238Y-149550380D02*
X37743238Y-148550380D01*
X38314666Y-149550380D01*
X38314666Y-148550380D01*
X38933714Y-149550380D02*
X38838476Y-149502761D01*
X38790857Y-149455142D01*
X38743238Y-149359904D01*
X38743238Y-149074190D01*
X38790857Y-148978952D01*
X38838476Y-148931333D01*
X38933714Y-148883714D01*
X39076571Y-148883714D01*
X39171809Y-148931333D01*
X39219428Y-148978952D01*
X39267047Y-149074190D01*
X39267047Y-149359904D01*
X39219428Y-149455142D01*
X39171809Y-149502761D01*
X39076571Y-149550380D01*
X38933714Y-149550380D01*
X39600380Y-148883714D02*
X39838476Y-149550380D01*
X40076571Y-148883714D01*
X41171809Y-148645619D02*
X41219428Y-148598000D01*
X41314666Y-148550380D01*
X41552761Y-148550380D01*
X41648000Y-148598000D01*
X41695619Y-148645619D01*
X41743238Y-148740857D01*
X41743238Y-148836095D01*
X41695619Y-148978952D01*
X41124190Y-149550380D01*
X41743238Y-149550380D01*
X42362285Y-148550380D02*
X42457523Y-148550380D01*
X42552761Y-148598000D01*
X42600380Y-148645619D01*
X42648000Y-148740857D01*
X42695619Y-148931333D01*
X42695619Y-149169428D01*
X42648000Y-149359904D01*
X42600380Y-149455142D01*
X42552761Y-149502761D01*
X42457523Y-149550380D01*
X42362285Y-149550380D01*
X42267047Y-149502761D01*
X42219428Y-149455142D01*
X42171809Y-149359904D01*
X42124190Y-149169428D01*
X42124190Y-148931333D01*
X42171809Y-148740857D01*
X42219428Y-148645619D01*
X42267047Y-148598000D01*
X42362285Y-148550380D01*
X43076571Y-148645619D02*
X43124190Y-148598000D01*
X43219428Y-148550380D01*
X43457523Y-148550380D01*
X43552761Y-148598000D01*
X43600380Y-148645619D01*
X43648000Y-148740857D01*
X43648000Y-148836095D01*
X43600380Y-148978952D01*
X43028952Y-149550380D01*
X43648000Y-149550380D01*
X44600380Y-149550380D02*
X44028952Y-149550380D01*
X44314666Y-149550380D02*
X44314666Y-148550380D01*
X44219428Y-148693238D01*
X44124190Y-148788476D01*
X44028952Y-148836095D01*
X53784476Y-162091714D02*
X53784476Y-162758380D01*
X53546380Y-161710761D02*
X53308285Y-162425047D01*
X53927333Y-162425047D01*
X50212666Y-161758380D02*
X50831714Y-161758380D01*
X50498380Y-162139333D01*
X50641238Y-162139333D01*
X50736476Y-162186952D01*
X50784095Y-162234571D01*
X50831714Y-162329809D01*
X50831714Y-162567904D01*
X50784095Y-162663142D01*
X50736476Y-162710761D01*
X50641238Y-162758380D01*
X50355523Y-162758380D01*
X50260285Y-162710761D01*
X50212666Y-162663142D01*
X46958285Y-161853619D02*
X47005904Y-161806000D01*
X47101142Y-161758380D01*
X47339238Y-161758380D01*
X47434476Y-161806000D01*
X47482095Y-161853619D01*
X47529714Y-161948857D01*
X47529714Y-162044095D01*
X47482095Y-162186952D01*
X46910666Y-162758380D01*
X47529714Y-162758380D01*
X43973714Y-162758380D02*
X43402285Y-162758380D01*
X43688000Y-162758380D02*
X43688000Y-161758380D01*
X43592761Y-161901238D01*
X43497523Y-161996476D01*
X43402285Y-162044095D01*
D12*
G36*
X54102000Y-146812000D02*
G01*
X37592000Y-146812000D01*
X37592000Y-144780000D01*
X54102000Y-144780000D01*
X54102000Y-146812000D01*
G37*
X54102000Y-146812000D02*
X37592000Y-146812000D01*
X37592000Y-144780000D01*
X54102000Y-144780000D01*
X54102000Y-146812000D01*
G36*
X32734000Y-155840000D02*
G01*
X32434000Y-156640000D01*
X32034000Y-157540000D01*
X31434000Y-158140000D01*
X30734000Y-158740000D01*
X29934000Y-159240000D01*
X28934000Y-159440000D01*
X28034000Y-159540000D01*
X27234000Y-159440000D01*
X26334000Y-159140000D01*
X25634000Y-158740000D01*
X25234000Y-158440000D01*
X24634000Y-157840000D01*
X24134000Y-157040000D01*
X23734000Y-156240000D01*
X23634000Y-155240000D01*
X23634000Y-154140000D01*
X24034000Y-153040000D01*
X24434000Y-152240000D01*
X25034000Y-151640000D01*
X25634000Y-151140000D01*
X26434000Y-150640000D01*
X27334000Y-150440000D01*
X28134000Y-150340000D01*
X29034000Y-150440000D01*
X29734000Y-150640000D01*
X30534000Y-150940000D01*
X31234000Y-151540000D01*
X31834000Y-152140000D01*
X32134000Y-152640000D01*
X32434000Y-153240000D01*
X32634000Y-153740000D01*
X32734000Y-154440000D01*
X32734000Y-154940000D01*
X32734000Y-155840000D01*
G37*
X32734000Y-155840000D02*
X32434000Y-156640000D01*
X32034000Y-157540000D01*
X31434000Y-158140000D01*
X30734000Y-158740000D01*
X29934000Y-159240000D01*
X28934000Y-159440000D01*
X28034000Y-159540000D01*
X27234000Y-159440000D01*
X26334000Y-159140000D01*
X25634000Y-158740000D01*
X25234000Y-158440000D01*
X24634000Y-157840000D01*
X24134000Y-157040000D01*
X23734000Y-156240000D01*
X23634000Y-155240000D01*
X23634000Y-154140000D01*
X24034000Y-153040000D01*
X24434000Y-152240000D01*
X25034000Y-151640000D01*
X25634000Y-151140000D01*
X26434000Y-150640000D01*
X27334000Y-150440000D01*
X28134000Y-150340000D01*
X29034000Y-150440000D01*
X29734000Y-150640000D01*
X30534000Y-150940000D01*
X31234000Y-151540000D01*
X31834000Y-152140000D01*
X32134000Y-152640000D01*
X32434000Y-153240000D01*
X32634000Y-153740000D01*
X32734000Y-154440000D01*
X32734000Y-154940000D01*
X32734000Y-155840000D01*
D11*
X32844000Y-154940000D02*
G75*
G03X32844000Y-154940000I-4650000J0D01*
G01*
X49482274Y-158674000D02*
G75*
G03X49482274Y-158674000I-226274J0D01*
G01*
X48276000Y-149919000D02*
X44976000Y-149919000D01*
X48276000Y-158569000D02*
X44976000Y-158569000D01*
X44976000Y-158569000D02*
X44976000Y-149919000D01*
X48276000Y-158569000D02*
X48276000Y-149919000D01*
X37258000Y-161636000D02*
X37258000Y-160436000D01*
X36658000Y-161036000D02*
X37858000Y-161036000D01*
D13*
X52670000Y-153656000D02*
X51470000Y-153656000D01*
D10*
X29486380Y-153349523D02*
X30486380Y-152682857D01*
X29486380Y-152682857D02*
X30486380Y-153349523D01*
X30486380Y-151778095D02*
X30486380Y-152349523D01*
X30486380Y-152063809D02*
X29486380Y-152063809D01*
X29629238Y-152159047D01*
X29724476Y-152254285D01*
X29772095Y-152349523D01*
X46228095Y-157186380D02*
X46228095Y-157995904D01*
X46275714Y-158091142D01*
X46323333Y-158138761D01*
X46418571Y-158186380D01*
X46609047Y-158186380D01*
X46704285Y-158138761D01*
X46751904Y-158091142D01*
X46799523Y-157995904D01*
X46799523Y-157186380D01*
X47799523Y-158186380D02*
X47228095Y-158186380D01*
X47513809Y-158186380D02*
X47513809Y-157186380D01*
X47418571Y-157329238D01*
X47323333Y-157424476D01*
X47228095Y-157472095D01*
X52919333Y-153011142D02*
X52871714Y-153058761D01*
X52728857Y-153106380D01*
X52633619Y-153106380D01*
X52490761Y-153058761D01*
X52395523Y-152963523D01*
X52347904Y-152868285D01*
X52300285Y-152677809D01*
X52300285Y-152534952D01*
X52347904Y-152344476D01*
X52395523Y-152249238D01*
X52490761Y-152154000D01*
X52633619Y-152106380D01*
X52728857Y-152106380D01*
X52871714Y-152154000D01*
X52919333Y-152201619D01*
X53824095Y-152106380D02*
X53347904Y-152106380D01*
X53300285Y-152582571D01*
X53347904Y-152534952D01*
X53443142Y-152487333D01*
X53681238Y-152487333D01*
X53776476Y-152534952D01*
X53824095Y-152582571D01*
X53871714Y-152677809D01*
X53871714Y-152915904D01*
X53824095Y-153011142D01*
X53776476Y-153058761D01*
X53681238Y-153106380D01*
X53443142Y-153106380D01*
X53347904Y-153058761D01*
X53300285Y-153011142D01*
M02*
